<?xml version="1.0" encoding="UTF-8" standalone="no"?>
<svg
   xmlns:dc="http://purl.org/dc/elements/1.1/"
   xmlns:cc="http://creativecommons.org/ns#"
   xmlns:rdf="http://www.w3.org/1999/02/22-rdf-syntax-ns#"
   xmlns:svg="http://www.w3.org/2000/svg"
   xmlns="http://www.w3.org/2000/svg"
   xmlns:sodipodi="http://sodipodi.sourceforge.net/DTD/sodipodi-0.dtd"
   xmlns:inkscape="http://www.inkscape.org/namespaces/inkscape"
   viewBox="0 0 625 625"
   version="1.1"
   id="svg82"
   sodipodi:docname="haruspex.svg"
   width="625"
   height="625"
   inkscape:version="0.92.3 (2405546, 2018-03-11)">
  <metadata
     id="metadata88">
    <rdf:RDF>
      <cc:Work
         rdf:about="">
        <dc:format>image/svg+xml</dc:format>
        <dc:type
           rdf:resource="http://purl.org/dc/dcmitype/StillImage" />
        <dc:title></dc:title>
      </cc:Work>
    </rdf:RDF>
  </metadata>
  <defs
     id="defs86" />
  <sodipodi:namedview
     pagecolor="#ffffff"
     bordercolor="#666666"
     borderopacity="1"
     objecttolerance="10"
     gridtolerance="10"
     guidetolerance="10"
     inkscape:pageopacity="0"
     inkscape:pageshadow="2"
     inkscape:window-width="2495"
     inkscape:window-height="1056"
     id="namedview84"
     showgrid="false"
     inkscape:zoom="1.7851562"
     inkscape:cx="244.23632"
     inkscape:cy="524.88403"
     inkscape:window-x="65"
     inkscape:window-y="24"
     inkscape:window-maximized="1"
     inkscape:current-layer="svg82" />
  <g
     class=""
     id="g80"
     transform="translate(56.741625,56.459914)">
    <path
       d="m 320.977,18.703 c -0.496,-0.01 -0.984,-0.007 -1.463,0.008 -1.358,0.09 -2.045,0.27 -3.057,0.4 L 220.38,169.796 c 1.53,6.565 3.088,13.04 4.778,19.226 l -18.027,4.926 c -9.073,-33.212 -15.026,-70.992 -26.538,-94.735 -5.757,-11.872 -12.47,-19.702 -20.625,-23.246 -6.714,-2.92 -15.483,-3.28 -27.63,0.6 17.258,50.103 24.184,102.383 33.495,143.826 4.933,21.958 10.617,40.805 18.21,54.317 7.59,13.51 16.324,21.482 29.108,24.625 l -4.463,18.148 c -18.367,-4.515 -31.723,-17.217 -40.94,-33.62 -4.192,-7.46 -7.682,-15.74 -10.726,-24.673 -30.794,33.74 -75.13,70.583 -137.602,98.473 v 135.72 h 140.437 c 22.443,-42.52 44.626,-79.104 66.23,-105.74 22.48,-27.712 44.393,-46.065 68.247,-46.47 l -0.19,0.006 2.985,-0.112 -28.434,-81.853 21.164,-7.057 -33.67,-79.035 68.99,92.844 -27.9,7.52 31.3,66.41 149.417,-5.558 c 4.266,-5.493 7.614,-14.578 8.1,-23.91 0.467,-8.97 -1.767,-17.213 -5.073,-22.166 l -119.5,3.42 c 0.137,-8.21 -0.404,-16.456 -1.55,-24.627 l 130.184,-45.302 c 2.502,-6.403 2.67,-15.49 -0.002,-24.108 -2.58,-8.326 -7.588,-15.26 -12.38,-18.79 l -130.13,43.943 c -3.504,-8.287 -7.594,-16.232 -12.177,-23.694 l 108.244,-77.542 c 0.024,-6.105 -2.634,-14.563 -7.788,-21.476 -5.365,-7.196 -12.655,-12.406 -19.1,-14.172 l -109.396,79.31 c -6.44,-5.683 -13.267,-10.506 -20.36,-14.316 L 358.24,39.23 c -2.26,-4.454 -6.892,-9.397 -13.256,-13.218 -7.39,-4.438 -16.575,-7.177 -24.007,-7.31 z m -8.975,336.23 c -3.66,51.045 -31.82,66.58 -31.82,95.014 0,14.116 15.503,26.684 31.82,26.684 15.958,0 32.457,-12.494 32.457,-27.357 0,-29.613 -27.877,-43.213 -32.458,-94.34 z"
       id="path78"
       inkscape:connector-curvature="0"
       style="fill:#000000;fill-opacity:1" />
  </g>
</svg>
