<?xml version="1.0" encoding="UTF-8" standalone="no"?>
<svg
   xmlns:dc="http://purl.org/dc/elements/1.1/"
   xmlns:cc="http://creativecommons.org/ns#"
   xmlns:rdf="http://www.w3.org/1999/02/22-rdf-syntax-ns#"
   xmlns:svg="http://www.w3.org/2000/svg"
   xmlns="http://www.w3.org/2000/svg"
   xmlns:sodipodi="http://sodipodi.sourceforge.net/DTD/sodipodi-0.dtd"
   xmlns:inkscape="http://www.inkscape.org/namespaces/inkscape"
   style="height: 512px; width: 512px;"
   viewBox="0 0 512 512"
   version="1.1"
   id="svg3895"
   sodipodi:docname="cultist.svg"
   inkscape:version="0.92.3 (2405546, 2018-03-11)">
  <metadata
     id="metadata3901">
    <rdf:RDF>
      <cc:Work
         rdf:about="">
        <dc:format>image/svg+xml</dc:format>
        <dc:type
           rdf:resource="http://purl.org/dc/dcmitype/StillImage" />
      </cc:Work>
    </rdf:RDF>
  </metadata>
  <defs
     id="defs3899" />
  <sodipodi:namedview
     pagecolor="#ffffff"
     bordercolor="#666666"
     borderopacity="1"
     objecttolerance="10"
     gridtolerance="10"
     guidetolerance="10"
     inkscape:pageopacity="0"
     inkscape:pageshadow="2"
     inkscape:window-width="2495"
     inkscape:window-height="1056"
     id="namedview3897"
     showgrid="false"
     inkscape:zoom="1.3037281"
     inkscape:cx="621.44099"
     inkscape:cy="245.75014"
     inkscape:window-x="65"
     inkscape:window-y="24"
     inkscape:window-maximized="1"
     inkscape:current-layer="svg3895" />
  <g
     class=""
     style="touch-action: none;"
     transform="translate(0,0)"
     id="g3893">
    <path
       d="M 258.495,20.105 C 176.67,77.45 133.118,142.24 128,207.63 l 92.155,54.124 -55.14,-56.092 c 3.663,-46.824 34.847,-93.22 93.44,-134.283 58.593,41.06 89.594,87.573 93.257,134.393 l -55.15,55.957 92.162,-53.947 C 383.61,142.397 340.32,77.45 258.494,20.105 Z m -120.761,218.328 -1.89,1.758 c -0.005,-0.03 -0.015,-0.06 -0.02,-0.09 l -0.13,0.232 -65.703,61.172 c 23.93,63.466 22.342,126.924 19.86,190.39 h 37.96 c -6.974,-34.9 -14.004,-77.445 -14.817,-121.09 9.11,6.8 20.807,11.917 34.938,14.743 -11.63,-10.79 -17.805,-24.947 -15.8,-39.158 15.38,7.1 32.653,9.094 50.66,4.612 -18.75,-8 -34.94,-23.658 -43.06,-43.756 26.933,14.15 55.292,18.642 79.36,9.774 -36.237,-8.91 -74.074,-37.57 -82.896,-75.346 0.505,-1.084 1.015,-2.165 1.54,-3.24 z m 236.533,0 c 0.302,0.62 0.59,1.247 0.886,1.87 l -0.11,-0.203 c -8.12,38.556 -46.53,67.887 -83.27,76.92 25.592,9.43 56.036,3.753 84.458,-12.58 -7.7,21.447 -24.524,38.192 -44.14,46.562 16.47,4.1 32.326,2.785 46.682,-2.9 1.297,13.63 -4.84,27.088 -16.003,37.445 14.82,-2.964 26.97,-8.446 36.258,-15.748 -0.722,43.995 -7.808,86.924 -14.836,122.095 h 37.96 c -2.484,-63.467 -4.072,-126.925 19.857,-190.39 l -67.743,-63.07 z"
       id="path3891"
       inkscape:connector-curvature="0"
       style="fill:#000000;fill-opacity:1"
       sodipodi:nodetypes="cccccccccccccccccccccccccccccccccccccccc" />
  </g>
</svg>
