<?xml version="1.0" standalone="no"?>
<!DOCTYPE svg PUBLIC "-//W3C//DTD SVG 20010904//EN"
 "http://www.w3.org/TR/2001/REC-SVG-20010904/DTD/svg10.dtd">
<svg version="1.0" xmlns="http://www.w3.org/2000/svg"
 width="1229.000000pt" height="737.000000pt" viewBox="0 0 1229.000000 737.000000"
 preserveAspectRatio="xMidYMid meet">

<g transform="translate(0.000000,737.000000) scale(0.100000,-0.100000)"
fill="#000000" stroke="none">
<path d="M3000 7350 c0 -6 -40 -10 -100 -10 -60 0 -100 -4 -100 -10 0 -5 -22
-10 -50 -10 -27 0 -50 -4 -50 -10 0 -5 -20 -10 -45 -10 -25 0 -45 -4 -45 -10
0 -5 -16 -10 -35 -10 -19 0 -35 -4 -35 -10 0 -5 -11 -10 -25 -10 -14 0 -25 -4
-25 -10 0 -5 -13 -10 -30 -10 -16 0 -30 -4 -30 -10 0 -5 -9 -10 -20 -10 -11 0
-20 -4 -20 -10 0 -5 -11 -10 -25 -10 -14 0 -25 -4 -25 -10 0 -5 -11 -10 -25
-10 -14 0 -25 -4 -25 -10 0 -5 -9 -10 -20 -10 -11 0 -20 -4 -20 -10 0 -5 -8
-10 -19 -10 -10 0 -24 -7 -31 -15 -7 -8 -21 -15 -31 -15 -11 0 -19 -7 -19 -16
0 -9 -5 -14 -12 -12 -7 3 -25 -8 -40 -24 -15 -15 -32 -28 -39 -28 -6 0 -24
-13 -39 -30 -15 -16 -33 -30 -40 -30 -6 0 -38 -27 -70 -60 -32 -33 -64 -60
-70 -60 -14 0 -80 -66 -80 -80 0 -6 -27 -38 -60 -70 -33 -33 -59 -65 -58 -71
2 -7 -12 -22 -29 -33 -20 -13 -31 -27 -29 -37 2 -9 -5 -21 -15 -28 -11 -6 -19
-20 -19 -31 0 -11 -4 -20 -10 -20 -5 0 -10 -8 -10 -18 0 -10 -9 -24 -20 -32
-11 -8 -20 -22 -20 -32 0 -10 -4 -18 -10 -18 -5 0 -10 -9 -10 -20 0 -11 -4
-20 -10 -20 -5 0 -10 -9 -10 -20 0 -11 -4 -20 -10 -20 -5 0 -10 -11 -10 -25 0
-14 -4 -25 -10 -25 -5 0 -10 -11 -10 -25 0 -14 -4 -25 -10 -25 -5 0 -10 -11
-10 -25 0 -14 -4 -25 -10 -25 -5 0 -10 -13 -10 -30 0 -16 -4 -30 -10 -30 -5 0
-10 -13 -10 -30 0 -16 -4 -30 -10 -30 -5 0 -10 -20 -10 -45 0 -25 -4 -45 -10
-45 -5 0 -10 -25 -10 -55 0 -30 -4 -55 -10 -55 -6 0 -10 -37 -10 -90 0 -53 -4
-90 -10 -90 -6 0 -10 -30 -10 -70 l0 -70 415 0 c274 0 415 -3 415 -10 0 -6 12
-10 28 -9 47 1 142 -13 142 -22 0 -5 9 -9 20 -9 11 0 20 -4 20 -10 0 -5 9 -10
20 -10 11 0 20 -4 20 -10 0 -5 14 -10 30 -10 17 0 30 -4 30 -10 0 -5 7 -10 15
-10 8 0 15 -4 15 -10 0 -5 7 -10 15 -10 8 0 15 -4 15 -10 0 -5 9 -10 20 -10
11 0 20 -4 20 -10 0 -5 7 -10 15 -10 8 0 20 -9 27 -20 7 -11 18 -20 25 -20 7
0 13 -4 13 -10 0 -5 5 -10 11 -10 6 0 32 -22 59 -50 27 -27 54 -50 60 -50 16
0 80 -67 80 -85 0 -8 4 -15 9 -15 18 0 68 -56 75 -82 3 -16 13 -28 22 -28 10
0 14 -6 10 -15 -3 -8 -1 -15 4 -15 6 0 10 -7 10 -15 0 -8 7 -15 16 -15 11 0
14 -6 9 -20 -5 -14 -2 -20 10 -20 12 0 15 -6 10 -20 -4 -11 -2 -20 4 -20 6 0
11 -9 11 -20 0 -11 5 -20 10 -20 6 0 10 -9 10 -20 0 -11 5 -20 10 -20 6 0 10
-11 10 -25 0 -14 5 -25 10 -25 6 0 10 -13 10 -30 0 -16 5 -30 10 -30 6 0 10
-18 10 -40 0 -22 5 -40 10 -40 6 0 10 -25 10 -55 0 -30 5 -55 10 -55 7 0 10
-231 10 -674 0 -371 3 -681 6 -690 6 -15 284 -16 3049 -16 2765 0 3043 1 3049
16 3 9 6 319 6 690 0 443 3 674 10 674 6 0 10 25 10 55 0 30 4 55 10 55 5 0 9
17 8 37 -1 20 4 39 10 41 7 2 12 17 12 33 0 16 5 29 10 29 6 0 10 11 10 25 0
14 5 25 11 25 6 0 9 9 6 20 -3 11 -1 20 4 20 5 0 9 9 9 20 0 11 5 20 10 20 6
0 10 9 10 20 0 11 5 20 10 20 6 0 10 8 10 18 0 10 9 24 20 32 11 8 20 21 20
30 0 9 9 22 20 30 11 8 20 21 20 28 0 15 56 72 71 72 5 0 9 7 9 15 0 20 85
105 105 105 8 0 15 3 15 8 0 13 57 72 70 72 6 0 25 14 40 30 15 17 34 30 42
30 7 0 20 9 28 20 8 11 22 20 32 20 10 0 18 5 18 10 0 6 9 10 20 10 11 0 20 5
20 10 0 6 11 10 25 10 14 0 25 5 25 10 0 6 9 10 20 10 11 0 20 5 20 10 0 6 11
10 25 10 14 0 25 4 25 9 0 9 110 25 148 22 12 -1 22 2 22 8 0 8 127 11 415 11
l415 0 0 65 c0 37 -4 65 -10 65 -6 0 -10 38 -10 95 0 57 -4 95 -10 95 -5 0
-10 23 -10 50 0 28 -4 50 -10 50 -5 0 -10 20 -10 44 0 25 -5 46 -12 48 -6 2
-11 18 -10 36 0 18 -4 32 -9 32 -5 0 -9 14 -9 30 0 17 -4 30 -10 30 -5 0 -10
11 -10 25 0 14 -4 25 -10 25 -5 0 -10 11 -10 25 0 14 -4 25 -10 25 -5 0 -10 7
-10 15 0 8 -4 15 -10 15 -5 0 -10 14 -10 30 0 17 -4 30 -10 30 -5 0 -10 9 -10
20 0 11 -4 20 -10 20 -5 0 -10 8 -10 18 0 10 -9 24 -20 32 -11 8 -20 22 -20
32 0 10 -4 18 -10 18 -5 0 -10 7 -10 15 0 8 -4 15 -10 15 -5 0 -10 7 -10 15 0
8 -4 15 -10 15 -5 0 -10 5 -10 11 0 6 -13 24 -30 39 -16 15 -30 33 -30 39 0 6
-4 11 -10 11 -5 0 -10 5 -10 10 0 6 -19 30 -42 55 -57 59 -68 72 -68 85 0 14
-46 60 -60 60 -6 0 -38 27 -70 60 -32 33 -64 60 -70 60 -7 0 -24 13 -38 28
-15 16 -39 32 -54 36 -16 3 -28 13 -28 21 0 8 -7 15 -15 15 -8 0 -23 8 -33 18
-25 24 -77 52 -96 52 -9 0 -16 5 -16 10 0 6 -9 10 -20 10 -11 0 -20 5 -20 10
0 6 -9 10 -20 10 -11 0 -20 5 -20 10 0 6 -11 10 -25 10 -14 0 -25 5 -25 10 0
6 -9 10 -20 10 -11 0 -20 5 -20 10 0 6 -13 10 -30 10 -16 0 -30 5 -30 10 0 6
-13 10 -30 10 -16 0 -30 5 -30 10 0 6 -16 10 -35 10 -19 0 -35 5 -35 10 0 6
-18 10 -40 10 -22 0 -40 5 -40 10 0 6 -25 10 -55 10 -30 0 -55 5 -55 10 0 6
-38 10 -95 10 -57 0 -95 4 -95 10 0 7 -1062 10 -3165 10 -2103 0 -3165 -3
-3165 -10z"/>
<path d="M1148 4909 c-2 -6 -26 -11 -53 -11 -28 -1 -53 -5 -56 -11 -4 -5 -26
-9 -49 -9 -24 1 -49 -5 -57 -13 -7 -8 -20 -12 -28 -9 -8 3 -21 -1 -30 -10 -9
-8 -22 -13 -30 -10 -8 4 -15 1 -15 -5 0 -6 -6 -11 -14 -11 -17 0 -100 -42
-104 -52 -2 -5 -11 -8 -21 -8 -9 0 -23 -9 -31 -20 -8 -11 -21 -20 -30 -20 -9
0 -22 -9 -30 -20 -8 -11 -20 -20 -28 -20 -7 0 -35 -22 -62 -50 -27 -27 -54
-50 -60 -50 -6 0 -26 -16 -46 -35 -19 -19 -39 -35 -44 -35 -6 0 -10 -10 -10
-21 0 -12 -18 -38 -39 -59 -22 -21 -37 -41 -33 -44 3 -4 -4 -13 -16 -22 -12
-8 -22 -24 -22 -35 0 -10 -4 -19 -10 -19 -5 0 -10 -8 -10 -18 0 -10 -9 -24
-20 -32 -11 -8 -20 -22 -20 -32 0 -10 -4 -18 -10 -18 -5 0 -10 -13 -10 -30 0
-16 -4 -30 -10 -30 -5 0 -10 -9 -10 -20 0 -11 -4 -20 -10 -20 -5 0 -10 -13
-10 -30 0 -16 -4 -30 -10 -30 -5 0 -10 -16 -10 -35 0 -19 -4 -35 -10 -35 -5 0
-10 -22 -10 -50 0 -27 -4 -50 -10 -50 -6 0 -10 -72 -10 -195 0 -123 4 -195 10
-195 6 0 10 -22 10 -50 0 -27 5 -50 10 -50 6 0 10 -18 10 -40 0 -22 5 -40 10
-40 6 0 10 -13 10 -30 0 -16 5 -30 10 -30 6 0 10 -9 10 -20 0 -11 5 -20 10
-20 6 0 10 -9 10 -20 0 -11 5 -20 10 -20 6 0 10 -9 10 -20 0 -11 5 -20 10 -20
6 0 10 -9 10 -20 0 -11 5 -20 10 -20 6 0 10 -7 10 -16 0 -8 7 -22 15 -30 8 -9
15 -24 15 -35 0 -10 7 -19 15 -19 9 0 18 -12 22 -30 3 -16 9 -30 13 -30 4 0
42 -34 84 -75 42 -41 81 -75 87 -75 6 0 24 -13 39 -30 15 -16 34 -30 42 -30 7
0 20 -9 28 -20 8 -11 20 -20 28 -20 7 0 24 -11 37 -25 l25 -24 0 -1196 c0
-790 3 -1195 10 -1195 6 0 10 -13 10 -30 0 -16 4 -30 10 -30 5 0 13 -12 16
-27 8 -32 27 -53 46 -53 8 0 20 -9 28 -20 8 -11 25 -20 37 -20 13 0 23 -4 23
-10 0 -5 20 -10 45 -10 25 0 45 -4 45 -10 0 -7 222 -10 645 -10 423 0 645 3
645 10 0 6 18 10 40 10 22 0 40 5 40 10 0 6 9 10 20 10 11 0 20 5 20 10 0 6 7
10 15 10 20 0 85 65 85 85 0 8 5 15 10 15 6 0 10 9 10 20 0 11 5 20 10 20 6 0
10 75 10 205 l0 205 3675 0 3675 0 0 -205 c0 -130 4 -205 10 -205 6 0 10 -9
10 -20 0 -11 5 -20 11 -20 6 0 8 -7 5 -16 -6 -15 14 -44 31 -44 5 0 15 -9 23
-20 8 -11 20 -20 27 -20 7 0 13 -4 13 -10 0 -5 9 -10 20 -10 11 0 20 -4 20
-10 0 -5 18 -10 40 -10 22 0 40 -4 40 -10 0 -7 223 -10 650 -10 427 0 650 3
650 10 0 6 20 10 45 10 25 0 45 5 45 10 0 6 8 10 18 10 10 0 24 9 32 20 8 11
22 20 32 20 10 0 18 7 18 16 0 9 14 29 30 44 18 17 30 38 30 54 0 14 5 26 10
26 7 0 10 405 10 1196 0 1251 -1 1224 39 1224 6 0 11 5 11 10 0 6 6 10 13 10
7 0 19 9 27 20 8 11 21 20 28 20 8 0 27 14 42 30 15 17 31 30 34 30 4 0 35 28
70 62 34 35 73 70 84 78 12 8 22 21 22 30 0 9 9 22 20 30 11 8 20 20 20 27 0
7 5 13 10 13 6 0 10 7 10 15 0 8 5 15 10 15 6 0 10 9 10 20 0 11 5 20 10 20 6
0 10 9 10 20 0 11 5 20 10 20 6 0 10 9 10 20 0 11 5 20 10 20 6 0 10 9 10 20
0 11 5 20 10 20 6 0 10 9 10 20 0 11 5 20 10 20 6 0 10 14 10 30 0 17 5 30 10
30 6 0 10 18 10 40 0 22 5 40 10 40 6 0 10 23 10 50 0 28 5 50 10 50 6 0 10
72 10 195 0 123 -4 195 -10 195 -5 0 -10 23 -10 50 0 28 -4 50 -10 50 -5 0
-10 16 -10 35 0 19 -4 35 -10 35 -5 0 -10 14 -10 30 0 17 -4 30 -10 30 -5 0
-10 9 -10 20 0 11 -4 20 -10 20 -5 0 -10 14 -10 30 0 17 -4 30 -10 30 -5 0
-10 8 -10 18 0 10 -9 24 -20 32 -11 8 -20 22 -20 32 0 10 -4 18 -10 18 -5 0
-10 7 -10 15 0 8 -4 15 -10 15 -5 0 -10 7 -10 15 0 8 -4 15 -10 15 -5 0 -10 5
-10 11 0 6 -14 24 -30 39 -17 15 -30 33 -30 39 0 6 -4 11 -10 11 -5 0 -10 7
-10 15 0 17 -74 95 -90 95 -6 0 -33 23 -60 50 -27 28 -55 50 -62 50 -8 0 -20
9 -28 20 -8 11 -21 20 -30 20 -9 0 -22 9 -30 20 -8 11 -22 20 -32 20 -10 0
-18 5 -18 10 0 6 -9 10 -20 10 -11 0 -20 5 -20 10 0 6 -9 10 -20 10 -11 0 -20
5 -20 10 0 6 -9 10 -20 10 -11 0 -20 5 -20 10 0 6 -13 10 -30 10 -16 0 -30 5
-30 11 0 6 -9 8 -20 4 -13 -4 -22 -1 -26 9 -4 11 -19 15 -51 14 -25 0 -48 4
-52 10 -3 5 -31 10 -61 10 -30 1 -56 6 -58 11 -5 15 -802 15 -802 1 0 -5 -21
-10 -46 -10 -27 0 -51 -6 -61 -15 -9 -9 -23 -13 -34 -10 -13 4 -19 2 -19 -8 0
-10 -7 -13 -20 -10 -14 4 -20 0 -20 -12 0 -11 -6 -15 -18 -11 -11 4 -23 -2
-32 -14 -8 -11 -20 -20 -28 -20 -15 0 -112 -96 -112 -111 0 -5 -5 -9 -11 -9
-18 0 -41 -30 -35 -45 3 -8 1 -15 -5 -15 -19 0 -39 -28 -39 -53 0 -14 -5 -27
-10 -29 -6 -2 -13 -27 -17 -56 -3 -28 -10 -52 -14 -52 -5 0 -9 -439 -9 -980
l0 -980 -3675 0 -3675 0 0 980 c0 647 -3 980 -10 980 -5 0 -10 16 -10 35 0 19
-4 35 -10 35 -5 0 -10 9 -10 20 0 11 -4 20 -10 20 -5 0 -10 9 -10 20 0 11 -4
20 -10 20 -5 0 -10 9 -10 20 0 11 -4 20 -10 20 -5 0 -10 7 -10 15 0 17 -144
165 -160 165 -5 0 -10 5 -10 10 0 6 -7 10 -15 10 -8 0 -15 5 -15 11 0 6 -7 9
-15 5 -9 -3 -15 0 -15 10 0 11 -6 15 -20 11 -14 -3 -20 0 -20 10 0 10 -6 14
-20 10 -11 -3 -27 1 -34 9 -8 8 -34 14 -60 14 -25 0 -46 5 -46 10 0 15 -807
14 -812 -1z"/>
</g>
</svg>
