<?xml version="1.0" standalone="no"?>
<!DOCTYPE svg PUBLIC "-//W3C//DTD SVG 20010904//EN"
 "http://www.w3.org/TR/2001/REC-SVG-20010904/DTD/svg10.dtd">
<svg version="1.0" xmlns="http://www.w3.org/2000/svg"
 width="1229.000000pt" height="737.000000pt" viewBox="0 0 1229.000000 737.000000"
 preserveAspectRatio="xMidYMid meet">

<g transform="translate(0.000000,737.000000) scale(0.100000,-0.100000)"
fill="#000000" stroke="none">
<path d="M0 3685 l0 -3685 6145 0 6145 0 0 3685 0 3685 -6145 0 -6145 0 0
-3685z m9330 3665 c0 -6 38 -10 95 -10 57 0 95 -4 95 -10 0 -5 25 -10 55 -10
30 0 55 -4 55 -10 0 -5 18 -10 40 -10 22 0 40 -4 40 -10 0 -5 16 -10 35 -10
19 0 35 -4 35 -10 0 -5 14 -10 30 -10 17 0 30 -4 30 -10 0 -5 14 -10 30 -10
17 0 30 -4 30 -10 0 -5 9 -10 20 -10 11 0 20 -4 20 -10 0 -5 11 -10 25 -10 14
0 25 -4 25 -10 0 -5 9 -10 20 -10 11 0 20 -4 20 -10 0 -5 9 -10 20 -10 11 0
20 -4 20 -10 0 -5 7 -10 16 -10 19 0 71 -28 96 -52 10 -10 25 -18 33 -18 8 0
15 -7 15 -15 0 -8 12 -18 28 -21 15 -4 39 -20 54 -36 14 -15 31 -28 38 -28 6
0 38 -27 70 -60 32 -33 64 -60 70 -60 14 0 60 -46 60 -60 0 -13 11 -26 68 -85
23 -25 42 -49 42 -55 0 -5 5 -10 10 -10 6 0 10 -5 10 -11 0 -6 14 -24 30 -39
17 -15 30 -33 30 -39 0 -6 5 -11 10 -11 6 0 10 -7 10 -15 0 -8 5 -15 10 -15 6
0 10 -7 10 -15 0 -8 5 -15 10 -15 6 0 10 -8 10 -18 0 -10 9 -24 20 -32 11 -8
20 -22 20 -32 0 -10 5 -18 10 -18 6 0 10 -9 10 -20 0 -11 5 -20 10 -20 6 0 10
-13 10 -30 0 -16 5 -30 10 -30 6 0 10 -7 10 -15 0 -8 5 -15 10 -15 6 0 10 -11
10 -25 0 -14 5 -25 10 -25 6 0 10 -11 10 -25 0 -14 5 -25 10 -25 6 0 10 -13
10 -30 0 -16 4 -30 9 -30 5 0 9 -14 9 -32 -1 -18 4 -34 10 -36 7 -2 12 -23 12
-48 0 -24 5 -44 10 -44 6 0 10 -22 10 -50 0 -27 5 -50 10 -50 6 0 10 -38 10
-95 0 -57 4 -95 10 -95 6 0 10 -28 10 -65 l0 -65 -415 0 c-288 0 -415 -3 -415
-11 0 -6 -10 -9 -22 -8 -38 3 -148 -13 -148 -22 0 -5 -11 -9 -25 -9 -14 0 -25
-4 -25 -10 0 -5 -9 -10 -20 -10 -11 0 -20 -4 -20 -10 0 -5 -11 -10 -25 -10
-14 0 -25 -4 -25 -10 0 -5 -9 -10 -20 -10 -11 0 -20 -4 -20 -10 0 -5 -8 -10
-18 -10 -10 0 -24 -9 -32 -20 -8 -11 -21 -20 -28 -20 -8 0 -27 -13 -42 -30
-15 -16 -34 -30 -40 -30 -13 0 -70 -59 -70 -72 0 -5 -7 -8 -15 -8 -20 0 -105
-85 -105 -105 0 -8 -4 -15 -9 -15 -15 0 -71 -57 -71 -72 0 -7 -9 -20 -20 -28
-11 -8 -20 -21 -20 -30 0 -9 -9 -22 -20 -30 -11 -8 -20 -22 -20 -32 0 -10 -4
-18 -10 -18 -5 0 -10 -9 -10 -20 0 -11 -4 -20 -10 -20 -5 0 -10 -9 -10 -20 0
-11 -4 -20 -9 -20 -5 0 -7 -9 -4 -20 3 -11 0 -20 -6 -20 -6 0 -11 -11 -11 -25
0 -14 -4 -25 -10 -25 -5 0 -10 -13 -10 -29 0 -16 -5 -31 -12 -33 -6 -2 -11
-21 -10 -41 1 -20 -3 -37 -8 -37 -6 0 -10 -25 -10 -55 0 -30 -4 -55 -10 -55
-7 0 -10 -231 -10 -674 0 -371 -3 -681 -6 -690 -6 -15 -284 -16 -3049 -16
-2765 0 -3043 1 -3049 16 -3 9 -6 319 -6 690 0 443 -3 674 -10 674 -5 0 -10
25 -10 55 0 30 -4 55 -10 55 -5 0 -10 18 -10 40 0 22 -4 40 -10 40 -5 0 -10
14 -10 30 0 17 -4 30 -10 30 -5 0 -10 11 -10 25 0 14 -4 25 -10 25 -5 0 -10 9
-10 20 0 11 -4 20 -10 20 -5 0 -10 9 -10 20 0 11 -5 20 -11 20 -6 0 -8 9 -4
20 5 14 2 20 -10 20 -12 0 -15 6 -10 20 5 14 2 20 -9 20 -9 0 -16 7 -16 15 0
8 -4 15 -10 15 -5 0 -7 7 -4 15 4 9 0 15 -10 15 -9 0 -19 12 -22 28 -7 26 -57
82 -75 82 -5 0 -9 7 -9 15 0 18 -64 85 -80 85 -6 0 -33 23 -60 50 -27 28 -53
50 -59 50 -6 0 -11 5 -11 10 0 6 -6 10 -13 10 -7 0 -18 9 -25 20 -7 11 -19 20
-27 20 -8 0 -15 5 -15 10 0 6 -9 10 -20 10 -11 0 -20 5 -20 10 0 6 -7 10 -15
10 -8 0 -15 5 -15 10 0 6 -7 10 -15 10 -8 0 -15 5 -15 10 0 6 -13 10 -30 10
-16 0 -30 5 -30 10 0 6 -9 10 -20 10 -11 0 -20 5 -20 10 0 6 -9 10 -20 10 -11
0 -20 4 -20 9 0 9 -95 23 -142 22 -16 -1 -28 3 -28 9 0 7 -141 10 -415 10
l-415 0 0 70 c0 40 4 70 10 70 6 0 10 37 10 90 0 53 4 90 10 90 6 0 10 25 10
55 0 30 5 55 10 55 6 0 10 20 10 45 0 25 5 45 10 45 6 0 10 14 10 30 0 17 5
30 10 30 6 0 10 14 10 30 0 17 5 30 10 30 6 0 10 11 10 25 0 14 5 25 10 25 6
0 10 11 10 25 0 14 5 25 10 25 6 0 10 11 10 25 0 14 5 25 10 25 6 0 10 9 10
20 0 11 5 20 10 20 6 0 10 9 10 20 0 11 5 20 10 20 6 0 10 8 10 18 0 10 9 24
20 32 11 8 20 22 20 32 0 10 5 18 10 18 6 0 10 9 10 20 0 11 8 25 19 31 10 7
17 19 15 28 -2 10 9 24 29 37 17 11 31 26 29 33 -1 6 25 38 58 71 33 32 60 64
60 70 0 14 66 80 80 80 6 0 38 27 70 60 32 33 64 60 70 60 7 0 25 14 40 30 15
17 33 30 39 30 7 0 24 13 39 28 15 16 33 27 40 24 7 -2 12 3 12 12 0 9 8 16
19 16 10 0 24 7 31 15 7 8 21 15 31 15 11 0 19 5 19 10 0 6 9 10 20 10 11 0
20 5 20 10 0 6 11 10 25 10 14 0 25 5 25 10 0 6 11 10 25 10 14 0 25 5 25 10
0 6 9 10 20 10 11 0 20 5 20 10 0 6 14 10 30 10 17 0 30 5 30 10 0 6 11 10 25
10 14 0 25 5 25 10 0 6 16 10 35 10 19 0 35 5 35 10 0 6 20 10 45 10 25 0 45
5 45 10 0 6 23 10 50 10 28 0 50 5 50 10 0 6 40 10 100 10 60 0 100 4 100 10
0 7 1062 10 3165 10 2103 0 3165 -3 3165 -10z m-7370 -2440 c0 -5 21 -10 46
-10 26 0 52 -6 60 -14 7 -8 23 -12 34 -9 14 4 20 0 20 -10 0 -10 6 -13 20 -10
14 4 20 0 20 -11 0 -10 6 -13 15 -10 8 4 15 1 15 -5 0 -6 7 -11 15 -11 8 0 15
-4 15 -10 0 -5 5 -10 10 -10 16 0 160 -148 160 -165 0 -8 5 -15 10 -15 6 0 10
-9 10 -20 0 -11 5 -20 10 -20 6 0 10 -9 10 -20 0 -11 5 -20 10 -20 6 0 10 -9
10 -20 0 -11 5 -20 10 -20 6 0 10 -16 10 -35 0 -19 5 -35 10 -35 7 0 10 -333
10 -980 l0 -980 3675 0 3675 0 0 980 c0 541 4 980 9 980 4 0 11 24 14 52 4 29
11 54 17 56 5 2 10 15 10 29 0 25 20 53 39 53 6 0 8 7 5 15 -6 15 17 45 35 45
6 0 11 4 11 9 0 15 97 111 112 111 8 0 20 9 28 20 9 12 21 18 32 14 12 -4 18
0 18 11 0 12 6 16 20 12 13 -3 20 0 20 10 0 10 6 12 19 8 11 -3 25 1 34 10 10
9 34 15 61 15 25 0 46 5 46 10 0 14 797 14 802 -1 2 -5 28 -10 58 -11 30 0 58
-5 61 -10 4 -6 27 -10 52 -10 32 1 47 -3 51 -14 4 -10 13 -13 26 -9 11 4 20 2
20 -4 0 -6 14 -11 30 -11 17 0 30 -4 30 -10 0 -5 9 -10 20 -10 11 0 20 -4 20
-10 0 -5 9 -10 20 -10 11 0 20 -4 20 -10 0 -5 9 -10 20 -10 11 0 20 -4 20 -10
0 -5 8 -10 18 -10 10 0 24 -9 32 -20 8 -11 21 -20 30 -20 9 0 22 -9 30 -20 8
-11 20 -20 28 -20 7 0 35 -22 62 -50 27 -27 54 -50 60 -50 16 0 90 -78 90 -95
0 -8 5 -15 10 -15 6 0 10 -5 10 -11 0 -6 13 -24 30 -39 16 -15 30 -33 30 -39
0 -6 5 -11 10 -11 6 0 10 -7 10 -15 0 -8 5 -15 10 -15 6 0 10 -7 10 -15 0 -8
5 -15 10 -15 6 0 10 -8 10 -18 0 -10 9 -24 20 -32 11 -8 20 -22 20 -32 0 -10
5 -18 10 -18 6 0 10 -13 10 -30 0 -16 5 -30 10 -30 6 0 10 -9 10 -20 0 -11 5
-20 10 -20 6 0 10 -13 10 -30 0 -16 5 -30 10 -30 6 0 10 -16 10 -35 0 -19 5
-35 10 -35 6 0 10 -22 10 -50 0 -27 5 -50 10 -50 6 0 10 -72 10 -195 0 -123
-4 -195 -10 -195 -5 0 -10 -22 -10 -50 0 -27 -4 -50 -10 -50 -5 0 -10 -18 -10
-40 0 -22 -4 -40 -10 -40 -5 0 -10 -13 -10 -30 0 -16 -4 -30 -10 -30 -5 0 -10
-9 -10 -20 0 -11 -4 -20 -10 -20 -5 0 -10 -9 -10 -20 0 -11 -4 -20 -10 -20 -5
0 -10 -9 -10 -20 0 -11 -4 -20 -10 -20 -5 0 -10 -9 -10 -20 0 -11 -4 -20 -10
-20 -5 0 -10 -9 -10 -20 0 -11 -4 -20 -10 -20 -5 0 -10 -7 -10 -15 0 -8 -4
-15 -10 -15 -5 0 -10 -6 -10 -13 0 -7 -9 -19 -20 -27 -11 -8 -20 -21 -20 -30
0 -9 -10 -22 -22 -30 -11 -8 -50 -43 -84 -78 -35 -34 -66 -62 -70 -62 -3 0
-19 -13 -34 -30 -15 -16 -34 -30 -42 -30 -7 0 -20 -9 -28 -20 -8 -11 -20 -20
-27 -20 -7 0 -13 -4 -13 -10 0 -5 -5 -10 -11 -10 -40 0 -39 27 -39 -1224 0
-791 -3 -1196 -10 -1196 -5 0 -10 -12 -10 -26 0 -16 -12 -37 -30 -54 -16 -15
-30 -35 -30 -44 0 -9 -8 -16 -18 -16 -10 0 -24 -9 -32 -20 -8 -11 -22 -20 -32
-20 -10 0 -18 -4 -18 -10 0 -5 -20 -10 -45 -10 -25 0 -45 -4 -45 -10 0 -7
-223 -10 -650 -10 -427 0 -650 3 -650 10 0 6 -18 10 -40 10 -22 0 -40 5 -40
10 0 6 -9 10 -20 10 -11 0 -20 5 -20 10 0 6 -6 10 -13 10 -7 0 -19 9 -27 20
-8 11 -18 20 -23 20 -17 0 -37 29 -31 44 3 9 1 16 -5 16 -6 0 -11 9 -11 20 0
11 -4 20 -10 20 -6 0 -10 75 -10 205 l0 205 -3675 0 -3675 0 0 -205 c0 -130
-4 -205 -10 -205 -5 0 -10 -9 -10 -20 0 -11 -4 -20 -10 -20 -5 0 -10 -7 -10
-15 0 -20 -65 -85 -85 -85 -8 0 -15 -4 -15 -10 0 -5 -9 -10 -20 -10 -11 0 -20
-4 -20 -10 0 -5 -18 -10 -40 -10 -22 0 -40 -4 -40 -10 0 -7 -222 -10 -645 -10
-423 0 -645 3 -645 10 0 6 -20 10 -45 10 -25 0 -45 5 -45 10 0 6 -10 10 -23
10 -12 0 -29 9 -37 20 -8 11 -20 20 -28 20 -19 0 -38 21 -46 53 -3 15 -11 27
-16 27 -6 0 -10 14 -10 30 0 17 -4 30 -10 30 -7 0 -10 405 -10 1195 l0 1196
-25 24 c-13 14 -30 25 -37 25 -8 0 -20 9 -28 20 -8 11 -21 20 -28 20 -8 0 -27
14 -42 30 -15 17 -33 30 -39 30 -6 0 -45 34 -87 75 -42 41 -80 75 -84 75 -4 0
-10 14 -13 30 -4 18 -13 30 -22 30 -8 0 -15 9 -15 19 0 11 -7 26 -15 35 -8 8
-15 22 -15 30 0 9 -4 16 -10 16 -5 0 -10 9 -10 20 0 11 -4 20 -10 20 -5 0 -10
9 -10 20 0 11 -4 20 -10 20 -5 0 -10 9 -10 20 0 11 -4 20 -10 20 -5 0 -10 9
-10 20 0 11 -4 20 -10 20 -5 0 -10 14 -10 30 0 17 -4 30 -10 30 -5 0 -10 18
-10 40 0 22 -4 40 -10 40 -5 0 -10 23 -10 50 0 28 -4 50 -10 50 -6 0 -10 72
-10 195 0 123 4 195 10 195 6 0 10 23 10 50 0 28 5 50 10 50 6 0 10 16 10 35
0 19 5 35 10 35 6 0 10 14 10 30 0 17 5 30 10 30 6 0 10 9 10 20 0 11 5 20 10
20 6 0 10 14 10 30 0 17 5 30 10 30 6 0 10 8 10 18 0 10 9 24 20 32 11 8 20
22 20 32 0 10 5 18 10 18 6 0 10 9 10 19 0 11 10 27 22 35 12 9 19 18 16 22
-4 3 11 23 33 44 21 21 39 47 39 59 0 11 4 21 10 21 5 0 25 16 44 35 20 19 40
35 46 35 6 0 33 23 60 50 27 28 55 50 62 50 8 0 20 9 28 20 8 11 21 20 30 20
9 0 22 9 30 20 8 11 22 20 31 20 10 0 19 3 21 8 4 10 87 52 104 52 8 0 14 5
14 11 0 6 7 9 15 5 8 -3 21 2 30 10 9 9 22 13 30 10 8 -3 21 1 28 9 8 8 33 14
57 13 23 0 45 4 49 9 3 6 28 10 56 11 27 0 51 5 53 11 5 15 812 16 812 1z"/>
</g>
</svg>
