<?xml version="1.0" encoding="UTF-8"?>
<svg xmlns="http://www.w3.org/2000/svg" xmlns:xlink="http://www.w3.org/1999/xlink" width="144pt" height="143.999998pt" viewBox="0 0 144 143.999998" version="1.2">
<defs>
<clipPath id="clip1">
  <path d="M 10 10 L 86 10 L 86 86 L 10 86 Z M 10 10 "/>
</clipPath>
<clipPath id="clip2">
  <path d="M 14.195312 -2.613281 L 97.777344 15.390625 L 80.71875 94.574219 L -2.863281 76.570312 Z M 14.195312 -2.613281 "/>
</clipPath>
<clipPath id="clip3">
  <path d="M 14.195312 -2.613281 L 97.777344 15.390625 L 80.71875 94.574219 L -2.863281 76.570312 Z M 14.195312 -2.613281 "/>
</clipPath>
<clipPath id="clip4">
  <path d="M 9 9 L 87 9 L 87 87 L 9 87 Z M 9 9 "/>
</clipPath>
<clipPath id="clip5">
  <path d="M 14.195312 -2.613281 L 97.777344 15.390625 L 80.71875 94.574219 L -2.863281 76.570312 Z M 14.195312 -2.613281 "/>
</clipPath>
<clipPath id="clip6">
  <path d="M 14.195312 -2.613281 L 97.777344 15.390625 L 80.71875 94.574219 L -2.863281 76.570312 Z M 14.195312 -2.613281 "/>
</clipPath>
<clipPath id="clip7">
  <path d="M 31 25 L 49 25 L 49 39 L 31 39 Z M 31 25 "/>
</clipPath>
<clipPath id="clip8">
  <path d="M 14.195312 -2.613281 L 97.777344 15.390625 L 80.71875 94.574219 L -2.863281 76.570312 Z M 14.195312 -2.613281 "/>
</clipPath>
<clipPath id="clip9">
  <path d="M 14.195312 -2.613281 L 97.777344 15.390625 L 80.71875 94.574219 L -2.863281 76.570312 Z M 14.195312 -2.613281 "/>
</clipPath>
<clipPath id="clip10">
  <path d="M 6 29 L 42 29 L 42 65 L 6 65 Z M 6 29 "/>
</clipPath>
<clipPath id="clip11">
  <path d="M 14.195312 -2.613281 L 97.777344 15.390625 L 80.71875 94.574219 L -2.863281 76.570312 Z M 14.195312 -2.613281 "/>
</clipPath>
<clipPath id="clip12">
  <path d="M 14.195312 -2.613281 L 97.777344 15.390625 L 80.71875 94.574219 L -2.863281 76.570312 Z M 14.195312 -2.613281 "/>
</clipPath>
<clipPath id="clip13">
  <path d="M 9 32 L 39 32 L 39 62 L 9 62 Z M 9 32 "/>
</clipPath>
<clipPath id="clip14">
  <path d="M 14.195312 -2.613281 L 97.777344 15.390625 L 80.71875 94.574219 L -2.863281 76.570312 Z M 14.195312 -2.613281 "/>
</clipPath>
<clipPath id="clip15">
  <path d="M 14.195312 -2.613281 L 97.777344 15.390625 L 80.71875 94.574219 L -2.863281 76.570312 Z M 14.195312 -2.613281 "/>
</clipPath>
<clipPath id="clip16">
  <path d="M 8 31 L 39 31 L 39 62 L 8 62 Z M 8 31 "/>
</clipPath>
<clipPath id="clip17">
  <path d="M 14.195312 -2.613281 L 97.777344 15.390625 L 80.71875 94.574219 L -2.863281 76.570312 Z M 14.195312 -2.613281 "/>
</clipPath>
<clipPath id="clip18">
  <path d="M 14.195312 -2.613281 L 97.777344 15.390625 L 80.71875 94.574219 L -2.863281 76.570312 Z M 14.195312 -2.613281 "/>
</clipPath>
<clipPath id="clip19">
  <path d="M 13 36 L 36 36 L 36 57 L 13 57 Z M 13 36 "/>
</clipPath>
<clipPath id="clip20">
  <path d="M 14.195312 -2.613281 L 97.777344 15.390625 L 80.71875 94.574219 L -2.863281 76.570312 Z M 14.195312 -2.613281 "/>
</clipPath>
<clipPath id="clip21">
  <path d="M 14.195312 -2.613281 L 97.777344 15.390625 L 80.71875 94.574219 L -2.863281 76.570312 Z M 14.195312 -2.613281 "/>
</clipPath>
<clipPath id="clip22">
  <path d="M 43 10 L 79 10 L 79 46 L 43 46 Z M 43 10 "/>
</clipPath>
<clipPath id="clip23">
  <path d="M 14.195312 -2.613281 L 97.777344 15.390625 L 80.71875 94.574219 L -2.863281 76.570312 Z M 14.195312 -2.613281 "/>
</clipPath>
<clipPath id="clip24">
  <path d="M 14.195312 -2.613281 L 97.777344 15.390625 L 80.71875 94.574219 L -2.863281 76.570312 Z M 14.195312 -2.613281 "/>
</clipPath>
<clipPath id="clip25">
  <path d="M 46 13 L 76 13 L 76 42 L 46 42 Z M 46 13 "/>
</clipPath>
<clipPath id="clip26">
  <path d="M 14.195312 -2.613281 L 97.777344 15.390625 L 80.71875 94.574219 L -2.863281 76.570312 Z M 14.195312 -2.613281 "/>
</clipPath>
<clipPath id="clip27">
  <path d="M 14.195312 -2.613281 L 97.777344 15.390625 L 80.71875 94.574219 L -2.863281 76.570312 Z M 14.195312 -2.613281 "/>
</clipPath>
<clipPath id="clip28">
  <path d="M 45 12 L 77 12 L 77 43 L 45 43 Z M 45 12 "/>
</clipPath>
<clipPath id="clip29">
  <path d="M 14.195312 -2.613281 L 97.777344 15.390625 L 80.71875 94.574219 L -2.863281 76.570312 Z M 14.195312 -2.613281 "/>
</clipPath>
<clipPath id="clip30">
  <path d="M 14.195312 -2.613281 L 97.777344 15.390625 L 80.71875 94.574219 L -2.863281 76.570312 Z M 14.195312 -2.613281 "/>
</clipPath>
<clipPath id="clip31">
  <path d="M 50 17 L 73 17 L 73 38 L 50 38 Z M 50 17 "/>
</clipPath>
<clipPath id="clip32">
  <path d="M 14.195312 -2.613281 L 97.777344 15.390625 L 80.71875 94.574219 L -2.863281 76.570312 Z M 14.195312 -2.613281 "/>
</clipPath>
<clipPath id="clip33">
  <path d="M 14.195312 -2.613281 L 97.777344 15.390625 L 80.71875 94.574219 L -2.863281 76.570312 Z M 14.195312 -2.613281 "/>
</clipPath>
<clipPath id="clip34">
  <path d="M 29 42 L 77 42 L 77 80 L 29 80 Z M 29 42 "/>
</clipPath>
<clipPath id="clip35">
  <path d="M 14.195312 -2.613281 L 97.777344 15.390625 L 80.71875 94.574219 L -2.863281 76.570312 Z M 14.195312 -2.613281 "/>
</clipPath>
<clipPath id="clip36">
  <path d="M 14.195312 -2.613281 L 97.777344 15.390625 L 80.71875 94.574219 L -2.863281 76.570312 Z M 14.195312 -2.613281 "/>
</clipPath>
<clipPath id="clip37">
  <path d="M 28 41 L 78 41 L 78 81 L 28 81 Z M 28 41 "/>
</clipPath>
<clipPath id="clip38">
  <path d="M 14.195312 -2.613281 L 97.777344 15.390625 L 80.71875 94.574219 L -2.863281 76.570312 Z M 14.195312 -2.613281 "/>
</clipPath>
<clipPath id="clip39">
  <path d="M 14.195312 -2.613281 L 97.777344 15.390625 L 80.71875 94.574219 L -2.863281 76.570312 Z M 14.195312 -2.613281 "/>
</clipPath>
<clipPath id="clip40">
  <path d="M 40 59 L 54 59 L 54 85 L 40 85 Z M 40 59 "/>
</clipPath>
<clipPath id="clip41">
  <path d="M 14.195312 -2.613281 L 97.777344 15.390625 L 80.71875 94.574219 L -2.863281 76.570312 Z M 14.195312 -2.613281 "/>
</clipPath>
<clipPath id="clip42">
  <path d="M 14.195312 -2.613281 L 97.777344 15.390625 L 80.71875 94.574219 L -2.863281 76.570312 Z M 14.195312 -2.613281 "/>
</clipPath>
<clipPath id="clip43">
  <path d="M 39 58 L 55 58 L 55 85 L 39 85 Z M 39 58 "/>
</clipPath>
<clipPath id="clip44">
  <path d="M 14.195312 -2.613281 L 97.777344 15.390625 L 80.71875 94.574219 L -2.863281 76.570312 Z M 14.195312 -2.613281 "/>
</clipPath>
<clipPath id="clip45">
  <path d="M 14.195312 -2.613281 L 97.777344 15.390625 L 80.71875 94.574219 L -2.863281 76.570312 Z M 14.195312 -2.613281 "/>
</clipPath>
<clipPath id="clip46">
  <path d="M 54 51 L 81 51 L 81 80 L 54 80 Z M 54 51 "/>
</clipPath>
<clipPath id="clip47">
  <path d="M 14.195312 -2.613281 L 97.777344 15.390625 L 80.71875 94.574219 L -2.863281 76.570312 Z M 14.195312 -2.613281 "/>
</clipPath>
<clipPath id="clip48">
  <path d="M 14.195312 -2.613281 L 97.777344 15.390625 L 80.71875 94.574219 L -2.863281 76.570312 Z M 14.195312 -2.613281 "/>
</clipPath>
<clipPath id="clip49">
  <path d="M 53 50 L 82 50 L 82 81 L 53 81 Z M 53 50 "/>
</clipPath>
<clipPath id="clip50">
  <path d="M 14.195312 -2.613281 L 97.777344 15.390625 L 80.71875 94.574219 L -2.863281 76.570312 Z M 14.195312 -2.613281 "/>
</clipPath>
<clipPath id="clip51">
  <path d="M 14.195312 -2.613281 L 97.777344 15.390625 L 80.71875 94.574219 L -2.863281 76.570312 Z M 14.195312 -2.613281 "/>
</clipPath>
<clipPath id="clip52">
  <path d="M 56 51 L 133 51 L 133 128 L 56 128 Z M 56 51 "/>
</clipPath>
<clipPath id="clip53">
  <path d="M 58.664062 40.96875 L 144.09375 52.820312 L 132.863281 133.792969 L 47.429688 121.941406 Z M 58.664062 40.96875 "/>
</clipPath>
<clipPath id="clip54">
  <path d="M 143.992188 52.804688 L 58.558594 40.953125 L 47.324219 121.925781 L 132.757812 133.777344 Z M 143.992188 52.804688 "/>
</clipPath>
<clipPath id="clip55">
  <path d="M 55 50 L 134 50 L 134 129 L 55 129 Z M 55 50 "/>
</clipPath>
<clipPath id="clip56">
  <path d="M 58.664062 40.96875 L 144.09375 52.820312 L 132.863281 133.792969 L 47.429688 121.941406 Z M 58.664062 40.96875 "/>
</clipPath>
<clipPath id="clip57">
  <path d="M 143.992188 52.804688 L 58.558594 40.953125 L 47.324219 121.925781 L 132.757812 133.777344 Z M 143.992188 52.804688 "/>
</clipPath>
<clipPath id="clip58">
  <path d="M 100 69 L 116 69 L 116 85 L 100 85 Z M 100 69 "/>
</clipPath>
<clipPath id="clip59">
  <path d="M 58.664062 40.96875 L 144.09375 52.820312 L 132.863281 133.792969 L 47.429688 121.941406 Z M 58.664062 40.96875 "/>
</clipPath>
<clipPath id="clip60">
  <path d="M 143.992188 52.804688 L 58.558594 40.953125 L 47.324219 121.925781 L 132.757812 133.777344 Z M 143.992188 52.804688 "/>
</clipPath>
<clipPath id="clip61">
  <path d="M 100 78 L 136 78 L 136 114 L 100 114 Z M 100 78 "/>
</clipPath>
<clipPath id="clip62">
  <path d="M 58.664062 40.96875 L 144.09375 52.820312 L 132.863281 133.792969 L 47.429688 121.941406 Z M 58.664062 40.96875 "/>
</clipPath>
<clipPath id="clip63">
  <path d="M 143.992188 52.804688 L 58.558594 40.953125 L 47.324219 121.925781 L 132.757812 133.777344 Z M 143.992188 52.804688 "/>
</clipPath>
<clipPath id="clip64">
  <path d="M 103 81 L 133 81 L 133 111 L 103 111 Z M 103 81 "/>
</clipPath>
<clipPath id="clip65">
  <path d="M 58.664062 40.96875 L 144.09375 52.820312 L 132.863281 133.792969 L 47.429688 121.941406 Z M 58.664062 40.96875 "/>
</clipPath>
<clipPath id="clip66">
  <path d="M 143.992188 52.804688 L 58.558594 40.953125 L 47.324219 121.925781 L 132.757812 133.777344 Z M 143.992188 52.804688 "/>
</clipPath>
<clipPath id="clip67">
  <path d="M 102 80 L 134 80 L 134 112 L 102 112 Z M 102 80 "/>
</clipPath>
<clipPath id="clip68">
  <path d="M 58.664062 40.96875 L 144.09375 52.820312 L 132.863281 133.792969 L 47.429688 121.941406 Z M 58.664062 40.96875 "/>
</clipPath>
<clipPath id="clip69">
  <path d="M 143.992188 52.804688 L 58.558594 40.953125 L 47.324219 121.925781 L 132.757812 133.777344 Z M 143.992188 52.804688 "/>
</clipPath>
<clipPath id="clip70">
  <path d="M 105 86 L 129 86 L 129 107 L 105 107 Z M 105 86 "/>
</clipPath>
<clipPath id="clip71">
  <path d="M 58.664062 40.96875 L 144.09375 52.820312 L 132.863281 133.792969 L 47.429688 121.941406 Z M 58.664062 40.96875 "/>
</clipPath>
<clipPath id="clip72">
  <path d="M 143.992188 52.804688 L 58.558594 40.953125 L 47.324219 121.925781 L 132.757812 133.777344 Z M 143.992188 52.804688 "/>
</clipPath>
<clipPath id="clip73">
  <path d="M 71 47 L 107 47 L 107 83 L 71 83 Z M 71 47 "/>
</clipPath>
<clipPath id="clip74">
  <path d="M 58.664062 40.96875 L 144.09375 52.820312 L 132.863281 133.792969 L 47.429688 121.941406 Z M 58.664062 40.96875 "/>
</clipPath>
<clipPath id="clip75">
  <path d="M 143.992188 52.804688 L 58.558594 40.953125 L 47.324219 121.925781 L 132.757812 133.777344 Z M 143.992188 52.804688 "/>
</clipPath>
<clipPath id="clip76">
  <path d="M 74 50 L 104 50 L 104 80 L 74 80 Z M 74 50 "/>
</clipPath>
<clipPath id="clip77">
  <path d="M 58.664062 40.96875 L 144.09375 52.820312 L 132.863281 133.792969 L 47.429688 121.941406 Z M 58.664062 40.96875 "/>
</clipPath>
<clipPath id="clip78">
  <path d="M 143.992188 52.804688 L 58.558594 40.953125 L 47.324219 121.925781 L 132.757812 133.777344 Z M 143.992188 52.804688 "/>
</clipPath>
<clipPath id="clip79">
  <path d="M 73 49 L 105 49 L 105 81 L 73 81 Z M 73 49 "/>
</clipPath>
<clipPath id="clip80">
  <path d="M 58.664062 40.96875 L 144.09375 52.820312 L 132.863281 133.792969 L 47.429688 121.941406 Z M 58.664062 40.96875 "/>
</clipPath>
<clipPath id="clip81">
  <path d="M 143.992188 52.804688 L 58.558594 40.953125 L 47.324219 121.925781 L 132.757812 133.777344 Z M 143.992188 52.804688 "/>
</clipPath>
<clipPath id="clip82">
  <path d="M 76 55 L 100 55 L 100 76 L 76 76 Z M 76 55 "/>
</clipPath>
<clipPath id="clip83">
  <path d="M 58.664062 40.96875 L 144.09375 52.820312 L 132.863281 133.792969 L 47.429688 121.941406 Z M 58.664062 40.96875 "/>
</clipPath>
<clipPath id="clip84">
  <path d="M 143.992188 52.804688 L 58.558594 40.953125 L 47.324219 121.925781 L 132.757812 133.777344 Z M 143.992188 52.804688 "/>
</clipPath>
<clipPath id="clip85">
  <path d="M 63 75 L 107 75 L 107 120 L 63 120 Z M 63 75 "/>
</clipPath>
<clipPath id="clip86">
  <path d="M 58.664062 40.96875 L 144.09375 52.820312 L 132.863281 133.792969 L 47.429688 121.941406 Z M 58.664062 40.96875 "/>
</clipPath>
<clipPath id="clip87">
  <path d="M 143.992188 52.804688 L 58.558594 40.953125 L 47.324219 121.925781 L 132.757812 133.777344 Z M 143.992188 52.804688 "/>
</clipPath>
<clipPath id="clip88">
  <path d="M 62 75 L 108 75 L 108 121 L 62 121 Z M 62 75 "/>
</clipPath>
<clipPath id="clip89">
  <path d="M 58.664062 40.96875 L 144.09375 52.820312 L 132.863281 133.792969 L 47.429688 121.941406 Z M 58.664062 40.96875 "/>
</clipPath>
<clipPath id="clip90">
  <path d="M 143.992188 52.804688 L 58.558594 40.953125 L 47.324219 121.925781 L 132.757812 133.777344 Z M 143.992188 52.804688 "/>
</clipPath>
<clipPath id="clip91">
  <path d="M 76 98 L 96 98 L 96 125 L 76 125 Z M 76 98 "/>
</clipPath>
<clipPath id="clip92">
  <path d="M 58.664062 40.96875 L 144.09375 52.820312 L 132.863281 133.792969 L 47.429688 121.941406 Z M 58.664062 40.96875 "/>
</clipPath>
<clipPath id="clip93">
  <path d="M 143.992188 52.804688 L 58.558594 40.953125 L 47.324219 121.925781 L 132.757812 133.777344 Z M 143.992188 52.804688 "/>
</clipPath>
<clipPath id="clip94">
  <path d="M 75 97 L 97 97 L 97 126 L 75 126 Z M 75 97 "/>
</clipPath>
<clipPath id="clip95">
  <path d="M 58.664062 40.96875 L 144.09375 52.820312 L 132.863281 133.792969 L 47.429688 121.941406 Z M 58.664062 40.96875 "/>
</clipPath>
<clipPath id="clip96">
  <path d="M 143.992188 52.804688 L 58.558594 40.953125 L 47.324219 121.925781 L 132.757812 133.777344 Z M 143.992188 52.804688 "/>
</clipPath>
<clipPath id="clip97">
  <path d="M 58 86 L 85 86 L 85 115 L 58 115 Z M 58 86 "/>
</clipPath>
<clipPath id="clip98">
  <path d="M 58.664062 40.96875 L 144.09375 52.820312 L 132.863281 133.792969 L 47.429688 121.941406 Z M 58.664062 40.96875 "/>
</clipPath>
<clipPath id="clip99">
  <path d="M 143.992188 52.804688 L 58.558594 40.953125 L 47.324219 121.925781 L 132.757812 133.777344 Z M 143.992188 52.804688 "/>
</clipPath>
<clipPath id="clip100">
  <path d="M 57 85 L 86 85 L 86 116 L 57 116 Z M 57 85 "/>
</clipPath>
<clipPath id="clip101">
  <path d="M 58.664062 40.96875 L 144.09375 52.820312 L 132.863281 133.792969 L 47.429688 121.941406 Z M 58.664062 40.96875 "/>
</clipPath>
<clipPath id="clip102">
  <path d="M 143.992188 52.804688 L 58.558594 40.953125 L 47.324219 121.925781 L 132.757812 133.777344 Z M 143.992188 52.804688 "/>
</clipPath>
</defs>
<g id="surface1">
<g clip-path="url(#clip1)" clip-rule="nonzero">
<g clip-path="url(#clip2)" clip-rule="nonzero">
<g clip-path="url(#clip3)" clip-rule="nonzero">
<path style=" stroke:none;fill-rule:nonzero;fill:rgb(0%,0%,0%);fill-opacity:1;" d="M 40.164062 85.023438 C 29.027344 82.625 19.644531 75.464844 14.429688 65.382812 C 4.851562 46.878906 12.160156 24.085938 30.71875 14.578125 C 38.492188 10.59375 47.476562 9.414062 56.011719 11.253906 C 67.148438 13.652344 76.53125 20.8125 81.746094 30.894531 C 86.386719 39.859375 87.246094 50.078125 84.167969 59.675781 C 81.089844 69.269531 74.445312 77.09375 65.453125 81.699219 C 57.683594 85.679688 48.699219 86.863281 40.164062 85.023438 "/>
</g>
</g>
</g>
<g clip-path="url(#clip4)" clip-rule="nonzero">
<g clip-path="url(#clip5)" clip-rule="nonzero">
<g clip-path="url(#clip6)" clip-rule="nonzero">
<path style=" stroke:none;fill-rule:nonzero;fill:rgb(100%,100%,100%);fill-opacity:1;" d="M 56.175781 10.5 L 55.851562 12.007812 L 56.175781 10.5 C 51.894531 9.578125 47.53125 9.382812 43.207031 9.925781 C 38.730469 10.484375 34.410156 11.820312 30.367188 13.890625 C 21.191406 18.589844 14.410156 26.574219 11.269531 36.363281 C 8.128906 46.15625 9.007812 56.585938 13.742188 65.734375 C 19.066406 76.023438 28.636719 83.328125 40 85.777344 C 44.28125 86.699219 48.644531 86.890625 52.96875 86.351562 C 57.445312 85.792969 61.765625 84.457031 65.808594 82.386719 C 74.984375 77.6875 81.765625 69.703125 84.90625 59.914062 C 88.046875 50.121094 87.167969 39.6875 82.433594 30.539062 C 77.113281 20.253906 67.542969 12.949219 56.175781 10.5 Z M 55.847656 12.007812 C 66.332031 14.265625 75.757812 21.003906 81.058594 31.246094 C 90.453125 49.402344 83.308594 71.683594 65.101562 81.011719 C 57.160156 85.082031 48.429688 86.015625 40.328125 84.269531 C 29.84375 82.011719 20.417969 75.269531 15.117188 65.03125 C 5.722656 46.875 12.867188 24.59375 31.074219 15.261719 C 39.015625 11.195312 47.746094 10.261719 55.847656 12.007812 "/>
</g>
</g>
</g>
<g clip-path="url(#clip7)" clip-rule="nonzero">
<g clip-path="url(#clip8)" clip-rule="nonzero">
<g clip-path="url(#clip9)" clip-rule="nonzero">
<path style=" stroke:none;fill-rule:nonzero;fill:rgb(100%,100%,100%);fill-opacity:1;" d="M 48.589844 30.027344 C 43.21875 19.644531 27.597656 27.648438 32.972656 38.03125 C 34.457031 37.269531 35.945312 36.507812 37.433594 35.746094 C 35.128906 31.292969 41.824219 27.863281 44.128906 32.316406 C 45.617188 31.550781 47.101562 30.789062 48.589844 30.027344 "/>
</g>
</g>
</g>
<g clip-path="url(#clip10)" clip-rule="nonzero">
<g clip-path="url(#clip11)" clip-rule="nonzero">
<g clip-path="url(#clip12)" clip-rule="nonzero">
<path style=" stroke:none;fill-rule:nonzero;fill:rgb(100%,100%,100%);fill-opacity:1;" d="M 39.433594 38.652344 C 43.886719 47.261719 40.5 57.828125 31.863281 62.253906 C 23.226562 66.675781 12.617188 63.285156 8.160156 54.671875 C 3.703125 46.0625 7.09375 35.496094 15.726562 31.070312 C 24.363281 26.648438 34.976562 30.042969 39.433594 38.652344 "/>
</g>
</g>
</g>
<g clip-path="url(#clip13)" clip-rule="nonzero">
<g clip-path="url(#clip14)" clip-rule="nonzero">
<g clip-path="url(#clip15)" clip-rule="nonzero">
<path style=" stroke:none;fill-rule:nonzero;fill:rgb(0%,0%,0%);fill-opacity:1;" d="M 20.777344 60.707031 C 16.539062 59.792969 12.96875 57.066406 10.980469 53.226562 C 7.332031 46.183594 10.117188 37.503906 17.183594 33.882812 C 20.144531 32.367188 23.5625 31.917969 26.8125 32.617188 C 31.054688 33.53125 34.625 36.257812 36.613281 40.097656 C 40.257812 47.144531 37.476562 55.820312 30.410156 59.441406 C 27.449219 60.957031 24.027344 61.40625 20.777344 60.707031 "/>
</g>
</g>
</g>
<g clip-path="url(#clip16)" clip-rule="nonzero">
<g clip-path="url(#clip17)" clip-rule="nonzero">
<g clip-path="url(#clip18)" clip-rule="nonzero">
<path style=" stroke:none;fill-rule:nonzero;fill:rgb(100%,100%,100%);fill-opacity:1;" d="M 26.976562 31.863281 L 26.652344 33.371094 L 26.976562 31.863281 C 23.550781 31.125 19.945312 31.597656 16.828125 33.199219 C 9.382812 37.011719 6.449219 46.15625 10.292969 53.582031 C 12.386719 57.625 16.148438 60.5 20.617188 61.460938 C 24.042969 62.199219 27.644531 61.726562 30.765625 60.128906 C 38.210938 56.3125 41.144531 47.167969 37.300781 39.746094 C 35.207031 35.699219 31.445312 32.828125 26.976562 31.863281 Z M 26.652344 33.371094 C 30.507812 34.203125 33.976562 36.683594 35.925781 40.449219 C 39.378906 47.128906 36.753906 55.324219 30.054688 58.753906 C 27.132812 60.25 23.921875 60.59375 20.941406 59.953125 C 17.085938 59.121094 13.617188 56.644531 11.667969 52.875 C 8.210938 46.195312 10.839844 38 17.539062 34.570312 C 20.457031 33.074219 23.671875 32.730469 26.652344 33.371094 "/>
</g>
</g>
</g>
<g clip-path="url(#clip19)" clip-rule="nonzero">
<g clip-path="url(#clip20)" clip-rule="nonzero">
<g clip-path="url(#clip21)" clip-rule="nonzero">
<path style=" stroke:none;fill-rule:nonzero;fill:rgb(100%,100%,100%);fill-opacity:1;" d="M 22.175781 56.800781 C 25.226562 56.875 28.257812 55.324219 29.96875 52.808594 C 31.566406 50.078125 31.742188 46.710938 29.859375 44.125 C 28.308594 42.1875 26.003906 40.910156 23.609375 41.046875 C 19.363281 41.308594 15.828125 46.125 18.167969 50.113281 C 19.386719 51.945312 21.910156 53.113281 24.300781 52.433594 C 25.925781 51.875 26.777344 50.34375 27.085938 48.824219 C 27.066406 47.195312 25.949219 45.035156 23.765625 45.0625 C 22.679688 45.074219 21.066406 46.71875 22.496094 47.898438 C 23.035156 47.347656 23.351562 46.367188 24.332031 46.683594 C 25.316406 46.996094 25.660156 48.1875 25.5625 49.054688 C 25.140625 50.363281 24.0625 50.917969 22.753906 51.042969 C 20.359375 51.175781 18.585938 48.808594 18.992188 46.414062 C 19.398438 44.023438 21.449219 42.699219 23.519531 42.457031 C 27.105469 41.984375 29.984375 45.425781 29.808594 48.792969 C 29.632812 52.160156 26.945312 54.902344 23.570312 55.265625 C 19.980469 55.738281 16.796875 53.820312 15.339844 50.472656 C 14.105469 47.554688 14.605469 44.292969 16.535156 41.667969 C 18.679688 38.929688 21.933594 37.808594 25.425781 38.203125 C 30.554688 39.125 33.878906 43.429688 34.160156 48.203125 C 34.226562 49.761719 33.941406 51.253906 33.378906 52.617188 C 33.871094 52.410156 34.367188 52.234375 34.867188 52.078125 C 34.898438 51.699219 34.96875 51.136719 35.105469 50.269531 C 36.261719 42.210938 28.652344 34.914062 20.621094 37.386719 C 14.214844 39.304688 11.375 47.042969 15.039062 52.539062 C 16.59375 55.015625 19.226562 56.398438 22.175781 56.800781 "/>
</g>
</g>
</g>
<g clip-path="url(#clip22)" clip-rule="nonzero">
<g clip-path="url(#clip23)" clip-rule="nonzero">
<g clip-path="url(#clip24)" clip-rule="nonzero">
<path style=" stroke:none;fill-rule:nonzero;fill:rgb(100%,100%,100%);fill-opacity:1;" d="M 76.625 19.597656 C 81.082031 28.207031 77.695312 38.773438 69.058594 43.195312 C 60.425781 47.621094 49.8125 44.226562 45.355469 35.617188 C 40.902344 27.007812 44.289062 16.441406 52.925781 12.015625 C 61.558594 7.589844 72.171875 10.984375 76.625 19.597656 "/>
</g>
</g>
</g>
<g clip-path="url(#clip25)" clip-rule="nonzero">
<g clip-path="url(#clip26)" clip-rule="nonzero">
<g clip-path="url(#clip27)" clip-rule="nonzero">
<path style=" stroke:none;fill-rule:nonzero;fill:rgb(0%,0%,0%);fill-opacity:1;" d="M 57.972656 41.652344 C 53.734375 40.738281 50.160156 38.011719 48.175781 34.171875 C 46.410156 30.757812 46.082031 26.867188 47.253906 23.214844 C 48.425781 19.558594 50.957031 16.582031 54.378906 14.828125 C 57.339844 13.3125 60.757812 12.863281 64.007812 13.5625 C 68.25 14.476562 71.820312 17.203125 73.808594 21.039062 C 75.574219 24.453125 75.902344 28.347656 74.730469 32 C 73.558594 35.652344 71.027344 38.632812 67.605469 40.386719 C 64.644531 41.902344 61.222656 42.351562 57.972656 41.652344 "/>
</g>
</g>
</g>
<g clip-path="url(#clip28)" clip-rule="nonzero">
<g clip-path="url(#clip29)" clip-rule="nonzero">
<g clip-path="url(#clip30)" clip-rule="nonzero">
<path style=" stroke:none;fill-rule:nonzero;fill:rgb(100%,100%,100%);fill-opacity:1;" d="M 64.171875 12.808594 L 63.847656 14.316406 L 64.171875 12.808594 C 60.746094 12.070312 57.140625 12.542969 54.023438 14.140625 C 50.417969 15.988281 47.75 19.128906 46.515625 22.976562 C 45.28125 26.828125 45.625 30.929688 47.488281 34.523438 C 49.582031 38.570312 53.34375 41.441406 57.8125 42.40625 C 61.238281 43.144531 64.839844 42.667969 67.960938 41.070312 C 71.566406 39.222656 74.234375 36.085938 75.46875 32.234375 C 76.703125 28.386719 76.359375 24.285156 74.496094 20.6875 C 72.402344 16.640625 68.640625 13.769531 64.171875 12.808594 Z M 63.847656 14.316406 C 67.703125 15.148438 71.167969 17.625 73.121094 21.394531 C 76.574219 28.070312 73.949219 36.265625 67.25 39.699219 C 64.328125 41.195312 61.117188 41.539062 58.136719 40.894531 C 54.28125 40.066406 50.8125 37.585938 48.863281 33.820312 C 45.40625 27.140625 48.035156 18.945312 54.734375 15.515625 C 57.652344 14.019531 60.867188 13.675781 63.847656 14.316406 "/>
</g>
</g>
</g>
<g clip-path="url(#clip31)" clip-rule="nonzero">
<g clip-path="url(#clip32)" clip-rule="nonzero">
<g clip-path="url(#clip33)" clip-rule="nonzero">
<path style=" stroke:none;fill-rule:nonzero;fill:rgb(100%,100%,100%);fill-opacity:1;" d="M 59.371094 37.746094 C 62.421875 37.820312 65.453125 36.265625 67.164062 33.75 C 68.761719 31.019531 68.9375 27.652344 67.054688 25.070312 C 65.503906 23.132812 63.199219 21.855469 60.804688 21.988281 C 56.558594 22.253906 53.023438 27.070312 55.363281 31.058594 C 56.585938 32.890625 59.105469 34.058594 61.492188 33.378906 C 63.121094 32.820312 63.972656 31.289062 64.28125 29.765625 C 64.257812 28.136719 63.140625 25.980469 60.964844 26.003906 C 59.875 26.015625 58.261719 27.664062 59.691406 28.839844 C 60.230469 28.292969 60.542969 27.3125 61.527344 27.625 C 62.511719 27.941406 62.855469 29.132812 62.757812 30 C 62.339844 31.308594 61.257812 31.863281 59.949219 31.984375 C 57.554688 32.121094 55.78125 29.75 56.1875 27.359375 C 56.59375 24.96875 58.644531 23.640625 60.710938 23.402344 C 64.300781 22.929688 67.179688 26.371094 67.003906 29.738281 C 66.828125 33.105469 64.140625 35.847656 60.769531 36.210938 C 57.179688 36.683594 53.992188 34.765625 52.535156 31.414062 C 51.296875 28.496094 51.800781 25.234375 53.730469 22.609375 C 55.875 19.871094 59.128906 18.75 62.617188 19.148438 C 67.75 20.066406 71.074219 24.375 71.355469 29.148438 C 71.421875 30.707031 71.132812 32.195312 70.574219 33.5625 C 71.066406 33.355469 71.5625 33.175781 72.066406 33.023438 C 72.09375 32.640625 72.164062 32.078125 72.300781 31.214844 C 73.457031 23.152344 65.847656 15.855469 57.816406 18.332031 C 51.410156 20.246094 48.566406 27.984375 52.234375 33.480469 C 53.792969 35.960938 56.421875 37.34375 59.371094 37.746094 "/>
</g>
</g>
</g>
<g clip-path="url(#clip34)" clip-rule="nonzero">
<g clip-path="url(#clip35)" clip-rule="nonzero">
<g clip-path="url(#clip36)" clip-rule="nonzero">
<path style=" stroke:none;fill-rule:nonzero;fill:rgb(100%,100%,100%);fill-opacity:1;" d="M 44.464844 78.894531 C 43.019531 78.582031 41.644531 78.144531 40.371094 77.589844 C 34.578125 75.15625 30.542969 70.242188 29.59375 64.449219 C 29.550781 64.210938 29.628906 63.972656 29.792969 63.796875 C 29.957031 63.621094 30.195312 63.535156 30.4375 63.558594 C 46.71875 65.292969 62.433594 57.242188 70.472656 43.046875 C 70.589844 42.839844 70.800781 42.695312 71.039062 42.664062 C 71.132812 42.652344 71.222656 42.65625 71.308594 42.671875 C 71.453125 42.703125 71.585938 42.777344 71.691406 42.878906 C 75.875 47.015625 77.554688 53.140625 76.179688 59.253906 C 74.6875 66.285156 69.394531 72.839844 62.371094 76.351562 C 56.882812 79.230469 50.351562 80.160156 44.464844 78.894531 "/>
</g>
</g>
</g>
<g clip-path="url(#clip37)" clip-rule="nonzero">
<g clip-path="url(#clip38)" clip-rule="nonzero">
<g clip-path="url(#clip39)" clip-rule="nonzero">
<path style=" stroke:none;fill-rule:nonzero;fill:rgb(100%,100%,100%);fill-opacity:1;" d="M 71.472656 41.917969 C 71.296875 41.882812 71.113281 41.875 70.933594 41.898438 C 70.453125 41.964844 70.035156 42.25 69.796875 42.667969 C 61.910156 56.59375 46.492188 64.496094 30.519531 62.792969 C 30.039062 62.742188 29.5625 62.914062 29.230469 63.265625 C 28.898438 63.617188 28.75 64.097656 28.828125 64.574219 C 29.824219 70.625 34.023438 75.757812 40.074219 78.300781 C 41.390625 78.875 42.8125 79.324219 44.300781 79.648438 C 50.359375 80.953125 57.074219 80 62.734375 77.03125 C 69.953125 73.417969 75.394531 66.671875 76.9375 59.414062 C 78.367188 53.042969 76.609375 46.65625 72.238281 42.335938 C 72.023438 42.121094 71.757812 41.980469 71.472656 41.917969 Z M 71.148438 43.429688 C 74.851562 47.089844 76.832031 52.824219 75.421875 59.085938 C 74.113281 65.261719 69.414062 71.964844 62.023438 75.660156 C 56.242188 78.695312 49.902344 79.273438 44.628906 78.140625 C 43.226562 77.835938 41.898438 77.414062 40.679688 76.886719 C 34.742188 74.386719 31.199219 69.453125 30.355469 64.328125 C 46.933594 66.09375 62.960938 57.882812 71.148438 43.429688 "/>
</g>
</g>
</g>
<g clip-path="url(#clip40)" clip-rule="nonzero">
<g clip-path="url(#clip41)" clip-rule="nonzero">
<g clip-path="url(#clip42)" clip-rule="nonzero">
<path style=" stroke:none;fill-rule:nonzero;fill:rgb(0%,0%,0%);fill-opacity:1;" d="M 41.863281 83.5625 C 41.519531 83.488281 41.261719 83.191406 41.25 82.832031 L 40.640625 64.105469 C 40.628906 63.734375 40.886719 63.40625 41.25 63.328125 C 44.652344 62.59375 48.257812 61.710938 51.570312 60.21875 L 52.523438 59.777344 C 52.679688 59.707031 52.847656 59.6875 53.011719 59.722656 C 53.097656 59.742188 53.183594 59.777344 53.261719 59.828125 C 53.484375 59.96875 53.621094 60.210938 53.625 60.472656 L 53.867188 83.328125 C 53.871094 83.539062 53.785156 83.742188 53.632812 83.890625 C 53.476562 84.039062 53.269531 84.117188 53.058594 84.105469 L 41.988281 83.578125 C 41.945312 83.578125 41.902344 83.570312 41.863281 83.5625 "/>
</g>
</g>
</g>
<g clip-path="url(#clip43)" clip-rule="nonzero">
<g clip-path="url(#clip44)" clip-rule="nonzero">
<g clip-path="url(#clip45)" clip-rule="nonzero">
<path style=" stroke:none;fill-rule:nonzero;fill:rgb(100%,100%,100%);fill-opacity:1;" d="M 53.175781 58.96875 C 52.847656 58.898438 52.503906 58.933594 52.195312 59.078125 L 51.246094 59.515625 C 47.996094 60.980469 44.445312 61.851562 41.085938 62.574219 C 40.355469 62.734375 39.84375 63.386719 39.867188 64.132812 L 40.476562 82.855469 C 40.5 83.574219 41.015625 84.167969 41.699219 84.316406 C 41.78125 84.335938 41.867188 84.34375 41.953125 84.351562 L 53.023438 84.875 C 53.449219 84.898438 53.863281 84.742188 54.167969 84.449219 C 54.476562 84.152344 54.648438 83.746094 54.640625 83.320312 L 54.398438 60.464844 C 54.390625 59.941406 54.121094 59.453125 53.675781 59.175781 C 53.519531 59.078125 53.351562 59.007812 53.175781 58.96875 Z M 52.847656 60.476562 L 53.09375 83.335938 L 42.023438 82.808594 L 41.414062 64.082031 C 44.875 63.335938 48.539062 62.429688 51.890625 60.921875 L 52.847656 60.476562 "/>
</g>
</g>
</g>
<g clip-path="url(#clip46)" clip-rule="nonzero">
<g clip-path="url(#clip47)" clip-rule="nonzero">
<g clip-path="url(#clip48)" clip-rule="nonzero">
<path style=" stroke:none;fill-rule:nonzero;fill:rgb(0%,0%,0%);fill-opacity:1;" d="M 61.253906 79.789062 C 61.003906 79.71875 60.804688 79.53125 60.726562 79.285156 L 54.304688 59.59375 C 54.191406 59.246094 54.339844 58.863281 54.660156 58.683594 L 55.574219 58.164062 C 58.710938 56.355469 61.53125 53.949219 64.109375 51.617188 C 64.300781 51.445312 64.554688 51.382812 64.792969 51.4375 C 64.902344 51.460938 65.007812 51.503906 65.101562 51.578125 L 80.066406 62.945312 C 80.25 63.085938 80.363281 63.304688 80.371094 63.539062 C 80.378906 63.769531 80.277344 63.996094 80.101562 64.144531 L 61.964844 79.632812 C 61.78125 79.792969 61.535156 79.851562 61.296875 79.800781 C 61.285156 79.796875 61.269531 79.792969 61.253906 79.789062 "/>
</g>
</g>
</g>
<g clip-path="url(#clip49)" clip-rule="nonzero">
<g clip-path="url(#clip50)" clip-rule="nonzero">
<g clip-path="url(#clip51)" clip-rule="nonzero">
<path style=" stroke:none;fill-rule:nonzero;fill:rgb(100%,100%,100%);fill-opacity:1;" d="M 64.957031 50.683594 C 64.480469 50.578125 63.96875 50.703125 63.589844 51.046875 C 61.042969 53.34375 58.265625 55.71875 55.183594 57.5 L 54.277344 58.011719 C 53.636719 58.375 53.339844 59.132812 53.566406 59.828125 L 59.988281 79.523438 C 60.148438 80.011719 60.542969 80.390625 61.042969 80.53125 C 61.074219 80.542969 61.105469 80.550781 61.136719 80.554688 C 61.609375 80.65625 62.101562 80.535156 62.472656 80.21875 L 80.605469 64.730469 C 80.960938 64.429688 81.160156 63.980469 81.144531 63.515625 C 81.128906 63.050781 80.90625 62.613281 80.535156 62.332031 L 65.570312 50.964844 C 65.382812 50.820312 65.171875 50.726562 64.957031 50.683594 Z M 64.632812 52.191406 L 79.597656 63.558594 L 61.460938 79.046875 L 55.042969 59.355469 L 55.957031 58.835938 C 59.140625 57 62.011719 54.558594 64.632812 52.191406 "/>
</g>
</g>
</g>
<g clip-path="url(#clip52)" clip-rule="nonzero">
<g clip-path="url(#clip53)" clip-rule="nonzero">
<g clip-path="url(#clip54)" clip-rule="nonzero">
<path style=" stroke:none;fill-rule:nonzero;fill:rgb(0%,0%,0%);fill-opacity:1;" d="M 89.058594 126.902344 C 100.441406 128.484375 111.808594 124.941406 120.242188 117.1875 C 135.71875 102.957031 136.679688 78.820312 122.382812 63.382812 C 116.394531 56.917969 108.292969 52.691406 99.566406 51.480469 C 88.179688 49.902344 76.816406 53.441406 68.382812 61.195312 C 60.886719 68.089844 56.535156 77.484375 56.128906 87.644531 C 55.726562 97.808594 59.316406 107.523438 66.242188 115 C 72.230469 121.464844 80.332031 125.695312 89.058594 126.902344 "/>
</g>
</g>
</g>
<g clip-path="url(#clip55)" clip-rule="nonzero">
<g clip-path="url(#clip56)" clip-rule="nonzero">
<g clip-path="url(#clip57)" clip-rule="nonzero">
<path style=" stroke:none;fill-rule:nonzero;fill:rgb(100%,100%,100%);fill-opacity:1;" d="M 99.671875 50.710938 L 99.457031 52.25 L 99.671875 50.710938 C 104.046875 51.316406 108.25 52.644531 112.160156 54.652344 C 116.207031 56.730469 119.839844 59.492188 122.957031 62.855469 C 130.023438 70.488281 133.6875 80.402344 133.273438 90.769531 C 132.863281 101.140625 128.421875 110.726562 120.769531 117.761719 C 112.167969 125.671875 100.566406 129.285156 88.953125 127.675781 C 84.578125 127.070312 80.375 125.742188 76.464844 123.734375 C 72.417969 121.652344 68.785156 118.894531 65.667969 115.53125 C 58.601562 107.898438 54.9375 97.984375 55.347656 87.613281 C 55.761719 77.242188 60.203125 67.65625 67.855469 60.625 C 76.457031 52.710938 88.054688 49.097656 99.671875 50.710938 Z M 99.457031 52.25 C 88.746094 50.765625 77.480469 53.894531 68.914062 61.769531 C 53.730469 75.730469 52.789062 99.328125 66.816406 114.472656 C 72.933594 121.078125 80.882812 124.984375 89.164062 126.132812 C 99.878906 127.621094 111.144531 124.492188 119.710938 116.617188 C 134.894531 102.652344 135.832031 79.054688 121.808594 63.910156 C 115.691406 57.308594 107.738281 53.402344 99.457031 52.25 "/>
</g>
</g>
</g>
<g clip-path="url(#clip58)" clip-rule="nonzero">
<g clip-path="url(#clip59)" clip-rule="nonzero">
<g clip-path="url(#clip60)" clip-rule="nonzero">
<path style=" stroke:none;fill-rule:nonzero;fill:rgb(100%,100%,100%);fill-opacity:1;" d="M 100.101562 71.847656 C 108.785156 63.863281 120.816406 76.855469 112.132812 84.839844 C 110.988281 83.605469 109.84375 82.367188 108.699219 81.128906 C 112.421875 77.707031 107.261719 72.136719 103.539062 75.558594 C 102.394531 74.324219 101.246094 73.085938 100.101562 71.847656 "/>
</g>
</g>
</g>
<g clip-path="url(#clip61)" clip-rule="nonzero">
<g clip-path="url(#clip62)" clip-rule="nonzero">
<g clip-path="url(#clip63)" clip-rule="nonzero">
<path style=" stroke:none;fill-rule:nonzero;fill:rgb(100%,100%,100%);fill-opacity:1;" d="M 105.796875 83.195312 C 98.59375 89.816406 98.152344 101.007812 104.800781 108.1875 C 111.457031 115.371094 122.683594 115.828125 129.886719 109.207031 C 137.085938 102.582031 137.535156 91.394531 130.882812 84.210938 C 124.230469 77.027344 113 76.574219 105.796875 83.195312 "/>
</g>
</g>
</g>
<g clip-path="url(#clip64)" clip-rule="nonzero">
<g clip-path="url(#clip65)" clip-rule="nonzero">
<g clip-path="url(#clip66)" clip-rule="nonzero">
<path style=" stroke:none;fill-rule:nonzero;fill:rgb(0%,0%,0%);fill-opacity:1;" d="M 115.839844 110.558594 C 120.175781 111.160156 124.503906 109.8125 127.714844 106.859375 C 133.605469 101.441406 133.972656 92.25 128.53125 86.371094 C 126.25 83.910156 123.164062 82.300781 119.839844 81.839844 C 115.507812 81.238281 111.179688 82.585938 107.96875 85.539062 C 102.074219 90.957031 101.710938 100.148438 107.152344 106.027344 C 109.433594 108.488281 112.519531 110.097656 115.839844 110.558594 "/>
</g>
</g>
</g>
<g clip-path="url(#clip67)" clip-rule="nonzero">
<g clip-path="url(#clip68)" clip-rule="nonzero">
<g clip-path="url(#clip69)" clip-rule="nonzero">
<path style=" stroke:none;fill-rule:nonzero;fill:rgb(100%,100%,100%);fill-opacity:1;" d="M 119.949219 81.070312 L 119.734375 82.609375 L 119.949219 81.070312 C 123.449219 81.554688 126.699219 83.25 129.101562 85.84375 C 134.839844 92.039062 134.453125 101.722656 128.242188 107.433594 C 124.859375 110.542969 120.300781 111.964844 115.734375 111.332031 C 112.234375 110.84375 108.980469 109.148438 106.578125 106.554688 C 100.84375 100.359375 101.230469 90.675781 107.4375 84.96875 C 110.820312 81.855469 115.382812 80.433594 119.949219 81.070312 Z M 119.734375 82.609375 C 115.792969 82.0625 111.648438 83.214844 108.5 86.109375 C 102.914062 91.246094 102.566406 99.925781 107.726562 105.5 C 109.976562 107.925781 112.902344 109.363281 115.949219 109.789062 C 119.890625 110.335938 124.03125 109.183594 127.183594 106.285156 C 132.769531 101.152344 133.113281 92.46875 127.957031 86.898438 C 125.707031 84.46875 122.78125 83.035156 119.734375 82.609375 "/>
</g>
</g>
</g>
<g clip-path="url(#clip70)" clip-rule="nonzero">
<g clip-path="url(#clip71)" clip-rule="nonzero">
<g clip-path="url(#clip72)" clip-rule="nonzero">
<path style=" stroke:none;fill-rule:nonzero;fill:rgb(100%,100%,100%);fill-opacity:1;" d="M 115.871094 106.371094 C 112.953125 105.386719 110.617188 102.867188 109.867188 99.890625 C 109.296875 96.746094 110.296875 93.496094 112.976562 91.695312 C 115.113281 90.394531 117.742188 89.984375 119.964844 90.941406 C 123.894531 92.660156 125.578125 98.445312 121.980469 101.417969 C 120.191406 102.734375 117.398438 102.96875 115.367188 101.5 C 114.019531 100.40625 113.742188 98.660156 113.976562 97.109375 C 114.558594 95.574219 116.367188 93.914062 118.421875 94.691406 C 119.449219 95.078125 120.410156 97.195312 118.644531 97.820312 C 118.328125 97.113281 118.367188 96.074219 117.324219 96.03125 C 116.285156 95.988281 115.546875 97 115.339844 97.859375 C 115.285156 99.242188 116.117188 100.140625 117.3125 100.710938 C 119.535156 101.667969 122.035156 100.035156 122.480469 97.625 C 122.921875 95.21875 121.4375 93.25 119.558594 92.308594 C 116.324219 90.617188 112.40625 92.886719 111.40625 96.140625 C 110.410156 99.390625 112.007812 102.921875 115.078125 104.433594 C 118.316406 106.125 121.996094 105.40625 124.539062 102.738281 C 126.71875 100.398438 127.367188 97.132812 126.453125 93.976562 C 125.367188 90.636719 122.671875 88.449219 119.226562 87.617188 C 114.042969 86.714844 109.40625 89.644531 107.488281 94.074219 C 106.882812 95.527344 106.640625 97.042969 106.699219 98.527344 C 106.304688 98.164062 105.898438 97.824219 105.476562 97.503906 C 105.578125 97.128906 105.707031 96.574219 105.875 95.707031 C 107.570312 87.664062 117.308594 83.378906 124.0625 88.503906 C 129.464844 92.539062 129.480469 100.855469 124.105469 104.800781 C 121.773438 106.609375 118.800781 107.011719 115.871094 106.371094 "/>
</g>
</g>
</g>
<g clip-path="url(#clip73)" clip-rule="nonzero">
<g clip-path="url(#clip74)" clip-rule="nonzero">
<g clip-path="url(#clip75)" clip-rule="nonzero">
<path style=" stroke:none;fill-rule:nonzero;fill:rgb(100%,100%,100%);fill-opacity:1;" d="M 77.144531 52.257812 C 69.941406 58.878906 69.496094 70.066406 76.148438 77.25 C 82.800781 84.433594 94.03125 84.886719 101.234375 78.265625 C 108.433594 71.644531 108.878906 60.453125 102.226562 53.273438 C 95.574219 46.089844 84.347656 45.632812 77.144531 52.257812 "/>
</g>
</g>
</g>
<g clip-path="url(#clip76)" clip-rule="nonzero">
<g clip-path="url(#clip77)" clip-rule="nonzero">
<g clip-path="url(#clip78)" clip-rule="nonzero">
<path style=" stroke:none;fill-rule:nonzero;fill:rgb(0%,0%,0%);fill-opacity:1;" d="M 87.1875 79.621094 C 91.523438 80.222656 95.851562 78.875 99.0625 75.921875 C 101.917969 73.296875 103.574219 69.71875 103.726562 65.851562 C 103.882812 61.980469 102.511719 58.28125 99.875 55.433594 C 97.597656 52.972656 94.511719 51.363281 91.1875 50.902344 C 86.855469 50.300781 82.527344 51.648438 79.316406 54.601562 C 76.460938 57.226562 74.804688 60.804688 74.652344 64.671875 C 74.496094 68.542969 75.863281 72.242188 78.5 75.089844 C 80.78125 77.550781 83.867188 79.160156 87.1875 79.621094 "/>
</g>
</g>
</g>
<g clip-path="url(#clip79)" clip-rule="nonzero">
<g clip-path="url(#clip80)" clip-rule="nonzero">
<g clip-path="url(#clip81)" clip-rule="nonzero">
<path style=" stroke:none;fill-rule:nonzero;fill:rgb(100%,100%,100%);fill-opacity:1;" d="M 91.296875 50.128906 L 91.082031 51.671875 L 91.296875 50.128906 C 94.796875 50.617188 98.050781 52.3125 100.449219 54.90625 C 103.230469 57.90625 104.671875 61.804688 104.507812 65.882812 C 104.347656 69.957031 102.601562 73.726562 99.589844 76.492188 C 96.207031 79.605469 91.648438 81.027344 87.082031 80.390625 C 83.582031 79.90625 80.332031 78.210938 77.925781 75.617188 C 75.148438 72.617188 73.707031 68.71875 73.871094 64.640625 C 74.03125 60.5625 75.777344 56.796875 78.785156 54.027344 C 82.167969 50.917969 86.726562 49.496094 91.296875 50.128906 Z M 91.082031 51.671875 C 87.140625 51.125 82.996094 52.277344 79.847656 55.175781 C 74.261719 60.308594 73.914062 68.988281 79.074219 74.5625 C 81.324219 76.988281 84.25 78.425781 87.296875 78.847656 C 91.238281 79.394531 95.382812 78.246094 98.53125 75.347656 C 104.117188 70.210938 104.460938 61.53125 99.300781 55.960938 C 97.054688 53.535156 94.128906 52.097656 91.082031 51.671875 "/>
</g>
</g>
</g>
<g clip-path="url(#clip82)" clip-rule="nonzero">
<g clip-path="url(#clip83)" clip-rule="nonzero">
<g clip-path="url(#clip84)" clip-rule="nonzero">
<path style=" stroke:none;fill-rule:nonzero;fill:rgb(100%,100%,100%);fill-opacity:1;" d="M 87.21875 75.433594 C 84.300781 74.449219 81.964844 71.929688 81.214844 68.953125 C 80.644531 65.808594 81.644531 62.554688 84.324219 60.757812 C 86.460938 59.457031 89.085938 59.046875 91.3125 60 C 95.242188 61.71875 96.925781 67.507812 93.328125 70.484375 C 91.535156 71.796875 88.746094 72.03125 86.714844 70.5625 C 85.367188 69.464844 85.089844 67.722656 85.324219 66.171875 C 85.910156 64.636719 87.714844 62.976562 89.769531 63.753906 C 90.796875 64.140625 91.757812 66.257812 89.992188 66.882812 C 89.671875 66.175781 89.714844 65.136719 88.671875 65.09375 C 87.628906 65.050781 86.894531 66.0625 86.6875 66.921875 C 86.632812 68.304688 87.464844 69.207031 88.660156 69.773438 C 90.882812 70.730469 93.382812 69.097656 93.828125 66.691406 C 94.269531 64.28125 92.785156 62.316406 90.910156 61.371094 C 87.671875 59.679688 83.753906 61.949219 82.753906 65.199219 C 81.753906 68.453125 83.355469 71.984375 86.425781 73.496094 C 89.664062 75.1875 93.34375 74.46875 95.886719 71.800781 C 98.066406 69.460938 98.71875 66.195312 97.800781 63.035156 C 96.714844 59.699219 94.019531 57.511719 90.574219 56.679688 C 85.390625 55.777344 80.75 58.707031 78.835938 63.136719 C 78.230469 64.59375 77.992188 66.105469 78.046875 67.59375 C 77.652344 67.226562 77.246094 66.886719 76.824219 66.5625 C 76.925781 66.195312 77.054688 65.636719 77.222656 64.769531 C 78.917969 56.726562 88.652344 52.441406 95.40625 57.566406 C 100.8125 61.597656 100.832031 69.917969 95.457031 73.863281 C 93.121094 75.671875 90.148438 76.074219 87.21875 75.433594 "/>
</g>
</g>
</g>
<g clip-path="url(#clip85)" clip-rule="nonzero">
<g clip-path="url(#clip86)" clip-rule="nonzero">
<g clip-path="url(#clip87)" clip-rule="nonzero">
<path style=" stroke:none;fill-rule:nonzero;fill:rgb(100%,100%,100%);fill-opacity:1;" d="M 87.105469 119.605469 C 88.582031 119.808594 90.035156 119.871094 91.433594 119.785156 C 97.765625 119.484375 103.289062 116.21875 106.195312 111.058594 C 106.316406 110.847656 106.328125 110.589844 106.230469 110.367188 C 106.132812 110.144531 105.9375 109.980469 105.703125 109.921875 C 89.671875 105.933594 77.566406 92.859375 74.863281 76.621094 C 74.824219 76.382812 74.671875 76.175781 74.457031 76.058594 C 74.375 76.015625 74.289062 75.988281 74.199219 75.976562 C 74.050781 75.957031 73.902344 75.976562 73.761719 76.039062 C 68.367188 78.511719 64.660156 83.738281 63.847656 90.011719 C 62.828125 97.191406 65.574219 105.238281 71.015625 110.996094 C 75.222656 115.628906 81.089844 118.769531 87.101562 119.605469 C 87.101562 119.605469 87.101562 119.605469 87.105469 119.605469 "/>
</g>
</g>
</g>
<g clip-path="url(#clip88)" clip-rule="nonzero">
<g clip-path="url(#clip89)" clip-rule="nonzero">
<g clip-path="url(#clip90)" clip-rule="nonzero">
<path style=" stroke:none;fill-rule:nonzero;fill:rgb(100%,100%,100%);fill-opacity:1;" d="M 74.304688 75.203125 C 74.484375 75.230469 74.660156 75.285156 74.824219 75.371094 C 75.253906 75.601562 75.550781 76.015625 75.632812 76.496094 C 78.289062 92.425781 90.164062 105.25 105.890625 109.167969 C 106.363281 109.28125 106.753906 109.613281 106.949219 110.058594 C 107.140625 110.507812 107.113281 111.015625 106.875 111.441406 C 103.839844 116.832031 98.082031 120.246094 91.472656 120.5625 C 90.027344 120.652344 88.519531 120.585938 86.996094 120.375 C 80.808594 119.515625 74.773438 116.289062 70.4375 111.519531 C 64.847656 105.59375 62.027344 97.3125 63.074219 89.902344 C 63.925781 83.363281 67.796875 77.917969 73.4375 75.332031 C 73.710938 75.207031 74.011719 75.164062 74.304688 75.203125 Z M 74.089844 76.746094 C 69.316406 78.9375 65.453125 83.691406 64.621094 90.113281 C 63.726562 96.421875 65.859375 104.402344 71.585938 110.464844 C 76.011719 115.339844 81.820312 118.085938 87.210938 118.832031 C 88.644531 119.03125 90.046875 119.089844 91.382812 119.007812 C 97.875 118.699219 102.941406 115.246094 105.511719 110.675781 C 89.195312 106.613281 76.847656 93.28125 74.089844 76.746094 "/>
</g>
</g>
</g>
<g clip-path="url(#clip91)" clip-rule="nonzero">
<g clip-path="url(#clip92)" clip-rule="nonzero">
<g clip-path="url(#clip93)" clip-rule="nonzero">
<path style=" stroke:none;fill-rule:nonzero;fill:rgb(0%,0%,0%);fill-opacity:1;" d="M 87.957031 124.933594 C 88.304688 124.980469 88.652344 124.789062 88.789062 124.449219 L 95.84375 106.910156 C 95.984375 106.558594 95.851562 106.160156 95.535156 105.960938 C 92.566406 104.085938 89.457031 102 86.832031 99.4375 L 86.082031 98.695312 C 85.960938 98.570312 85.804688 98.496094 85.636719 98.472656 C 85.546875 98.460938 85.457031 98.464844 85.367188 98.484375 C 85.105469 98.539062 84.890625 98.722656 84.800781 98.96875 L 76.660156 120.554688 C 76.585938 120.757812 76.59375 120.980469 76.6875 121.171875 C 76.785156 121.363281 76.953125 121.507812 77.160156 121.574219 L 87.828125 124.90625 C 87.871094 124.917969 87.914062 124.925781 87.957031 124.933594 "/>
</g>
</g>
</g>
<g clip-path="url(#clip94)" clip-rule="nonzero">
<g clip-path="url(#clip95)" clip-rule="nonzero">
<g clip-path="url(#clip96)" clip-rule="nonzero">
<path style=" stroke:none;fill-rule:nonzero;fill:rgb(100%,100%,100%);fill-opacity:1;" d="M 85.746094 97.703125 C 86.078125 97.75 86.390625 97.898438 86.636719 98.144531 L 87.382812 98.886719 C 89.957031 101.398438 93.023438 103.453125 95.953125 105.300781 C 96.589844 105.703125 96.847656 106.503906 96.566406 107.199219 L 89.511719 124.742188 C 89.242188 125.414062 88.546875 125.800781 87.851562 125.703125 C 87.765625 125.691406 87.679688 125.671875 87.597656 125.648438 L 76.925781 122.316406 C 76.515625 122.1875 76.175781 121.898438 75.988281 121.511719 C 75.796875 121.128906 75.777344 120.683594 75.929688 120.28125 L 84.066406 98.695312 C 84.253906 98.199219 84.679688 97.832031 85.199219 97.722656 C 85.378906 97.683594 85.566406 97.675781 85.746094 97.703125 Z M 85.53125 99.246094 L 77.390625 120.828125 L 88.0625 124.160156 L 95.117188 106.617188 C 92.097656 104.714844 88.9375 102.585938 86.285156 99.996094 L 85.53125 99.246094 "/>
</g>
</g>
</g>
<g clip-path="url(#clip97)" clip-rule="nonzero">
<g clip-path="url(#clip98)" clip-rule="nonzero">
<g clip-path="url(#clip99)" clip-rule="nonzero">
<path style=" stroke:none;fill-rule:nonzero;fill:rgb(0%,0%,0%);fill-opacity:1;" d="M 70.886719 114.644531 C 71.144531 114.664062 71.398438 114.554688 71.5625 114.351562 L 84.457031 97.902344 C 84.6875 97.609375 84.675781 97.199219 84.4375 96.917969 L 83.746094 96.109375 C 81.402344 93.304688 79.5625 90.046875 77.925781 86.945312 C 77.804688 86.71875 77.582031 86.570312 77.339844 86.539062 C 77.230469 86.523438 77.113281 86.53125 77.003906 86.566406 L 58.886719 92.164062 C 58.664062 92.234375 58.480469 92.402344 58.394531 92.621094 C 58.304688 92.839844 58.324219 93.085938 58.4375 93.289062 L 70.265625 114.25 C 70.382812 114.464844 70.597656 114.605469 70.839844 114.640625 C 70.855469 114.644531 70.871094 114.644531 70.886719 114.644531 "/>
</g>
</g>
</g>
<g clip-path="url(#clip100)" clip-rule="nonzero">
<g clip-path="url(#clip101)" clip-rule="nonzero">
<g clip-path="url(#clip102)" clip-rule="nonzero">
<path style=" stroke:none;fill-rule:nonzero;fill:rgb(100%,100%,100%);fill-opacity:1;" d="M 77.445312 85.765625 C 77.933594 85.835938 78.375 86.128906 78.617188 86.585938 C 80.234375 89.644531 82.046875 92.859375 84.347656 95.613281 L 85.03125 96.414062 C 85.511719 96.976562 85.53125 97.800781 85.074219 98.378906 L 72.175781 114.828125 C 71.855469 115.238281 71.347656 115.460938 70.828125 115.421875 C 70.796875 115.417969 70.761719 115.417969 70.730469 115.410156 C 70.25 115.34375 69.824219 115.058594 69.582031 114.632812 L 57.757812 93.671875 C 57.527344 93.261719 57.492188 92.769531 57.667969 92.332031 C 57.84375 91.898438 58.207031 91.5625 58.65625 91.421875 L 76.769531 85.824219 C 76.996094 85.753906 77.226562 85.734375 77.445312 85.765625 Z M 77.234375 87.308594 L 59.121094 92.910156 L 70.945312 113.871094 L 83.84375 97.421875 L 83.152344 96.613281 C 80.773438 93.769531 78.898438 90.460938 77.234375 87.308594 "/>
</g>
</g>
</g>
</g>
</svg>
