<?xml version="1.0" encoding="UTF-8"?>
<svg xmlns="http://www.w3.org/2000/svg" xmlns:xlink="http://www.w3.org/1999/xlink" width="144pt" height="143.999998pt" viewBox="0 0 144 143.999998" version="1.2">
<defs>
<clipPath id="clip1">
  <path d="M 17.585938 6.242188 L 126.335938 6.242188 L 126.335938 137.492188 L 17.585938 137.492188 Z M 17.585938 6.242188 "/>
</clipPath>
</defs>
<g id="surface1">
<g clip-path="url(#clip1)" clip-rule="nonzero">
<path style=" stroke:none;fill-rule:evenodd;fill:rgb(100%,100%,100%);fill-opacity:1;" d="M 53.828125 6.242188 C 53.6875 6.523438 53.546875 6.800781 53.4375 7.058594 C 52.457031 9.351562 52.011719 10.914062 51.566406 13.398438 C 49.988281 22.269531 54.652344 33.316406 47.953125 41.203125 C 47.78125 41.40625 47.480469 41.867188 47.335938 41.992188 C 44.597656 43.839844 41.179688 45.542969 40.777344 50.535156 C 40.636719 52.277344 40.582031 53.75 41.023438 55.46875 C 41.34375 56.707031 41.839844 58.460938 42.378906 59.597656 C 42.578125 60.015625 42.949219 60.683594 43.050781 61.175781 C 42.921875 61.523438 42.90625 61.859375 42.921875 62.339844 C 42.957031 63.492188 43.613281 64.695312 44.460938 65.414062 C 45.1875 66.03125 45.214844 64.96875 46.09375 66.515625 C 46.40625 67.058594 46.125 66.925781 46.722656 67.28125 C 47.121094 67.515625 47.304688 69.382812 48.296875 69.59375 C 48.359375 69.292969 48.226562 68.976562 48.191406 68.652344 C 48.15625 68.332031 48.175781 68 48.175781 67.679688 C 48.359375 67.765625 48.269531 67.753906 48.398438 68.039062 L 49.003906 69.15625 C 49.265625 69.5625 49.78125 69.949219 50.082031 70.425781 C 50.6875 71.390625 51.351562 72.527344 51.453125 73.703125 C 51.039062 73.648438 50.859375 73.480469 50.546875 73.257812 C 50.367188 73.457031 50.507812 73.683594 50.644531 73.925781 C 50.882812 74.339844 50.820312 74.074219 50.929688 74.59375 C 51.375 74.714844 51.792969 75.382812 51.976562 75.800781 C 52.117188 76.121094 52.21875 77.316406 52.503906 77.464844 C 53.21875 77.847656 55.648438 76.914062 56.390625 76.433594 L 57.351562 75.75 C 58.105469 75.058594 58.777344 74.972656 59.054688 74.011719 C 59.21875 73.429688 59.402344 71.320312 59.503906 71.109375 C 59.6875 71.394531 60.488281 74.410156 60.46875 74.753906 C 59.886719 75.449219 60.121094 74.792969 60.136719 75.796875 C 60.140625 76.042969 59.871094 76.6875 59.664062 76.808594 C 59.46875 76.917969 59.328125 76.859375 59.085938 77.019531 C 58.695312 77.277344 58.207031 77.683594 57.957031 78.074219 C 56.566406 80.226562 55.984375 81.3125 56.191406 83.78125 C 56.214844 84.070312 56.351562 84.742188 56.242188 84.949219 C 56.089844 85.238281 55.222656 86.316406 54.964844 86.648438 C 53.53125 88.480469 53.410156 88.980469 53.175781 90.902344 C 53.105469 91.480469 53.132812 93.625 53.109375 93.726562 C 53.0625 93.933594 52.261719 95.320312 52.09375 95.660156 C 51.355469 97.148438 50.582031 98.753906 49.757812 100.316406 C 49.160156 101.460938 48.484375 102.582031 48.015625 103.625 C 46.558594 106.863281 46.605469 105.539062 46.167969 106.238281 C 46.023438 106.46875 46.125 106.570312 45.863281 106.703125 C 45.640625 106.8125 45.625 106.710938 45.359375 106.910156 C 45.136719 107.3125 45.367188 107.398438 45.113281 107.6875 C 44.582031 108.277344 45.167969 108.273438 44.011719 108.695312 C 43.640625 108.828125 43.726562 108.414062 43.21875 108.582031 C 42.480469 108.832031 42.242188 108.953125 41.425781 109.070312 C 40.910156 107.832031 39.09375 106.664062 37.875 105.980469 C 35.308594 104.535156 33.523438 103.792969 29.804688 105.078125 C 29.417969 105.230469 29.46875 105.253906 28.988281 105.273438 C 27.980469 105.308594 26.726562 106.058594 26.152344 106.878906 C 24.976562 108.554688 25.5625 108.804688 24.597656 109.777344 C 23.960938 110.425781 23.160156 111.484375 22.578125 112.210938 C 22.21875 112.660156 21.988281 113.050781 21.730469 113.5625 C 21.59375 113.84375 21.441406 113.953125 21.285156 114.207031 C 20.996094 114.664062 21.097656 114.449219 20.734375 114.746094 C 20.535156 115.425781 20.726562 115.152344 20.351562 115.855469 C 19.804688 116.875 19.578125 117.949219 19.351562 119.074219 C 19.1875 119.886719 19.035156 120.65625 18.933594 121.476562 C 18.839844 122.261719 18.636719 121.992188 18.472656 122.417969 C 18.253906 122.976562 18.65625 122.980469 18.871094 123.320312 C 18.914062 124.167969 18.769531 125.285156 18.582031 126.121094 C 18.34375 127.179688 17.671875 127.785156 18.027344 128.347656 C 18.621094 128.292969 19.941406 127.335938 20.3125 126.832031 C 20.867188 126.085938 20.863281 124.558594 20.851562 123.609375 C 21.285156 123.253906 21.109375 123.335938 21.085938 122.832031 C 21.046875 121.996094 21.886719 120.238281 22.25 119.390625 C 22.566406 118.648438 23.175781 117.820312 23.367188 117.050781 C 23.4375 117.339844 22.992188 121.492188 22.886719 122.289062 C 22.78125 123.085938 22.226562 122.90625 22.945312 123.53125 C 22.875 124.605469 22.382812 125.585938 22.039062 126.605469 C 21.976562 126.785156 21.921875 126.882812 21.859375 127.046875 C 21.742188 127.347656 21.75 127.4375 21.871094 127.539062 C 22.3125 127.726562 22.773438 127.425781 23.117188 127.132812 C 23.46875 126.832031 23.800781 126.660156 24.070312 126.289062 C 24.441406 125.769531 24.976562 124.113281 24.71875 123.457031 L 25.214844 123.066406 C 25.226562 122.558594 25.085938 122.195312 25.167969 121.546875 C 25.230469 121.058594 25.265625 120.621094 25.34375 120.140625 C 25.421875 119.636719 25.578125 117.980469 25.792969 117.527344 L 25.859375 117.429688 C 25.921875 118.015625 26.023438 120.414062 26.316406 120.730469 C 26.632812 121.078125 26.511719 120.769531 26.632812 121.355469 C 26.789062 122.097656 26.75 123.578125 26.886719 123.914062 C 27.40625 124.039062 27.394531 123.851562 27.644531 123.523438 C 28.132812 122.871094 28.460938 121.839844 28.117188 121.035156 C 27.800781 120.285156 27.996094 120.8125 27.945312 120.261719 C 27.925781 120.058594 27.105469 118.683594 27.960938 116.503906 C 28.085938 116.179688 27.960938 115.960938 28.105469 115.550781 C 28.296875 115.007812 28.53125 114.519531 28.753906 114.011719 C 29.121094 113.175781 29.449219 111.644531 30.3125 111.164062 C 30.875 111.230469 31.339844 111.769531 31.625 112.222656 C 31.941406 112.730469 32.140625 113.328125 32.421875 113.769531 C 32.800781 114.363281 34.164062 115.507812 35.085938 115.800781 C 35.105469 116.285156 34.898438 116.753906 34.671875 117.183594 C 34.484375 117.550781 34.019531 117.960938 33.9375 118.207031 L 34.507812 118.476562 C 34.511719 118.902344 34.074219 118.976562 33.738281 119.453125 C 33.386719 119.957031 33.28125 119.996094 32.816406 120.324219 C 32.179688 120.777344 31.710938 121.296875 31.117188 121.765625 C 31.023438 121.835938 31.0625 121.804688 30.988281 121.878906 L 30.925781 121.976562 C 31.460938 122.167969 33.863281 121.960938 34.519531 121.867188 C 35.167969 121.773438 35.324219 121.671875 35.839844 121.3125 C 37.046875 120.472656 36.398438 121.402344 37.511719 120.410156 C 37.675781 120.265625 37.855469 120.109375 38.003906 119.960938 C 39.535156 118.402344 39.921875 116.789062 40.238281 116.433594 C 40.75 117.144531 40.847656 118.101562 42.042969 117.851562 C 42.246094 117.808594 42.4375 117.714844 42.640625 117.679688 C 43.8125 117.476562 47.164062 116.660156 47.839844 116.035156 C 48.101562 115.792969 48.148438 115.234375 48.207031 114.914062 C 48.664062 114.878906 48.839844 114.773438 49.1875 114.484375 C 49.59375 114.140625 49.710938 114.246094 50.175781 114.140625 C 51.40625 113.859375 52.390625 112.324219 52.609375 111.175781 C 52.890625 109.699219 52.796875 110 52.222656 109.214844 C 52.574219 108.308594 53.253906 107.609375 53.410156 107.292969 C 53.546875 107.019531 53.601562 106.914062 53.765625 106.652344 C 54.234375 106.765625 54.445312 107.195312 54.960938 107.339844 C 55.390625 107.0625 55.792969 106.269531 56.050781 105.789062 C 56.222656 105.472656 56.882812 104.582031 57.140625 104.34375 C 57.292969 104.621094 57.488281 105.925781 57.648438 106.421875 C 57.535156 106.699219 57.203125 106.984375 57.304688 107.28125 C 57.582031 107.378906 57.808594 107.121094 58.105469 106.980469 C 58.367188 106.855469 58.742188 106.722656 58.957031 106.578125 C 58.960938 106.332031 58.824219 105.917969 58.785156 105.578125 C 58.738281 105.164062 58.699219 104.996094 58.839844 104.566406 L 59.335938 104.648438 C 59.546875 105.410156 59.40625 107.378906 59.089844 108.113281 C 57.859375 108.410156 56.523438 108.371094 55.898438 109.707031 C 55.613281 109.726562 55.382812 109.625 55.234375 109.832031 C 55.421875 110.011719 55.535156 109.933594 55.835938 109.953125 C 55.878906 110.261719 55.835938 110.519531 56.058594 110.730469 C 56.289062 110.308594 55.792969 110.433594 56.3125 109.796875 C 56.480469 109.589844 56.699219 109.296875 56.914062 109.15625 C 57.1875 108.976562 58.519531 108.574219 58.84375 108.5625 C 58.714844 109.386719 58.027344 110.332031 57.730469 111.132812 C 57.371094 112.101562 57.105469 113.101562 56.984375 114.125 C 56.9375 114.511719 56.960938 114.933594 56.933594 115.328125 C 56.90625 115.753906 56.820312 116.246094 56.921875 116.40625 C 57.265625 116.277344 57.015625 116.15625 57.308594 115.804688 C 57.324219 115.828125 57.335938 115.855469 57.34375 115.878906 C 57.351562 115.902344 57.363281 115.929688 57.371094 115.957031 L 57.4375 116.394531 C 57.484375 116.613281 57.46875 116.628906 57.660156 116.683594 C 57.765625 116.320312 57.609375 116.304688 57.632812 116.007812 C 57.667969 115.601562 57.789062 116.007812 57.828125 115.488281 C 57.851562 115.210938 57.804688 115.015625 57.855469 114.722656 C 58.019531 113.796875 58.070312 112.734375 58.554688 111.886719 C 58.558594 111.875 58.644531 111.746094 58.652344 111.734375 L 58.730469 111.636719 C 58.480469 113.316406 59.113281 112.648438 58.980469 115.488281 C 58.960938 115.9375 58.660156 116.78125 58.457031 117.175781 C 57.3125 119.425781 57.089844 119.128906 56.703125 122.003906 C 56.65625 122.355469 56.59375 123.722656 56.640625 124.042969 C 56.800781 125.1875 56.800781 125.132812 57.535156 125.261719 C 57.378906 125.644531 57.285156 125.542969 57.066406 125.796875 C 56.667969 126.257812 57.257812 126.417969 57.808594 125.742188 C 58.097656 125.390625 57.886719 125.300781 58.265625 125.167969 C 58.5625 125.351562 58.980469 126.519531 59.496094 125.804688 C 59.132812 125.378906 59.078125 125.816406 58.761719 125.050781 C 59.039062 124.726562 59.429688 124.480469 59.613281 124.082031 C 58.964844 121.921875 59.609375 120.769531 60.296875 118.785156 C 60.304688 118.804688 60.859375 121.160156 60.9375 121.457031 C 61.160156 122.328125 61.492188 123.257812 61.667969 124.109375 C 61.917969 125.324219 61.453125 126.996094 60.832031 128.066406 C 60.636719 128.40625 60.1875 128.746094 60.164062 128.980469 C 61.054688 129.585938 61.949219 126.539062 62.058594 125.867188 C 62.203125 124.988281 62.167969 124.425781 61.953125 123.582031 C 61.800781 122.96875 61.492188 122.1875 61.40625 121.578125 C 61.953125 122.175781 62.691406 123.886719 62.738281 124.699219 C 62.832031 126.21875 62.085938 127.933594 62.199219 128.421875 C 62.730469 128.488281 62.816406 127.484375 62.914062 127.078125 C 63.394531 125.117188 63.09375 123.910156 62.160156 122.128906 C 62.046875 121.910156 61.882812 121.6875 61.746094 121.445312 C 61.351562 120.75 61.078125 120.015625 60.921875 119.207031 C 60.617188 117.648438 61.40625 117.230469 61.40625 115.765625 L 62.082031 115.789062 C 62.445312 116.914062 62.09375 117.421875 62.097656 118.53125 C 62.101562 119.070312 62.089844 119.476562 62.171875 120.003906 C 62.226562 120.355469 62.265625 121 62.632812 121.109375 C 62.746094 120.859375 62.457031 119.90625 62.410156 119.550781 C 62.332031 118.898438 62.421875 118.265625 62.445312 117.644531 C 62.628906 117.859375 62.675781 118.21875 62.761719 118.488281 C 62.855469 118.78125 62.96875 118.980469 63.074219 119.257812 C 63.308594 119.863281 63.371094 120.292969 63.542969 120.902344 C 63.667969 120.746094 63.667969 120.5625 63.636719 120.359375 C 63.570312 119.929688 63.421875 119.46875 63.273438 119.058594 C 63.09375 118.5625 62.703125 117.863281 62.839844 117.332031 C 62.878906 117.746094 63.535156 118.929688 63.808594 119.3125 C 64.210938 119.875 64.789062 120.417969 65.203125 120.953125 C 64.976562 121.335938 64.605469 121.148438 64.707031 121.78125 C 64.839844 122.589844 64.960938 122.046875 64.613281 122.855469 C 63.96875 124.375 64.121094 126.789062 63.308594 128.582031 C 63.148438 128.9375 62.964844 129.113281 62.828125 129.5625 L 63.183594 129.867188 C 63.140625 130.480469 62.667969 131.613281 62.347656 132.160156 C 62.160156 132.484375 61.855469 132.710938 61.601562 132.976562 C 61.273438 133.3125 60.964844 133.523438 61.074219 133.871094 C 62.050781 134.273438 63.328125 133.320312 64.105469 132.894531 C 65.351562 132.203125 65.40625 131.417969 65.390625 130.015625 C 66.046875 129.355469 65.746094 129.492188 66.144531 128.757812 C 66.273438 128.515625 66.433594 128.398438 66.558594 128.15625 C 67.21875 126.898438 67.546875 125.828125 67.730469 124.398438 L 67.859375 124.71875 C 67.882812 124.855469 67.882812 125.011719 67.898438 125.148438 C 68.089844 126.730469 68.265625 127.269531 67.65625 128.863281 C 67.457031 129.386719 67.40625 129.644531 67.257812 130.1875 C 66.898438 131.507812 66.480469 135.378906 66.710938 136.652344 C 67.03125 136.765625 67.195312 136.796875 67.542969 136.65625 C 67.617188 136.339844 67.613281 135.570312 67.640625 135.175781 C 67.671875 134.75 67.691406 134.195312 67.703125 133.773438 C 67.804688 130.15625 69.296875 128.515625 68.96875 126.269531 C 68.84375 125.394531 68.753906 124.570312 68.589844 123.691406 C 68.351562 122.378906 68.550781 122.695312 69.253906 121.707031 C 69.671875 121.125 70.011719 120.542969 70.457031 119.9375 C 70.871094 119.378906 71.070312 118.355469 71.414062 117.890625 C 71.667969 117.949219 71.886719 118.183594 72.097656 118.375 C 72.078125 119.023438 72.214844 119.683594 71.96875 120.277344 C 71.546875 121.300781 71.097656 122.324219 70.804688 123.394531 C 70.492188 124.535156 70.628906 124.269531 70.449219 125.152344 C 70.351562 125.628906 70.230469 125.511719 70.386719 126.027344 C 70.519531 126.460938 70.398438 126.402344 70.253906 126.84375 C 70.085938 127.375 69.9375 127.945312 69.78125 128.488281 C 69.566406 129.25 69.605469 129.703125 69.609375 130.488281 C 69.613281 131.210938 69.179688 131.613281 69.832031 132.046875 C 69.679688 132.320312 69.699219 132.417969 69.601562 132.605469 C 69.3125 133.140625 69.085938 133.199219 68.886719 133.988281 C 68.753906 134.53125 68.492188 136.121094 68.710938 136.601562 C 69.164062 136.738281 69.445312 136.210938 69.738281 135.863281 C 70.933594 134.433594 71.703125 134.003906 71.871094 132.496094 C 72.664062 132.464844 72.605469 132.253906 72.28125 131.640625 C 72.023438 131.15625 72.570312 129.457031 72.640625 128.820312 C 72.699219 128.316406 72.617188 127.738281 72.699219 127.253906 C 73.128906 127.234375 73.496094 127.308594 73.542969 126.738281 C 73.597656 126.039062 73.183594 126.421875 73.363281 125.820312 C 73.558594 125.167969 73.742188 124.492188 73.882812 123.828125 C 73.972656 123.386719 74.105469 123.203125 74.210938 122.824219 C 74.300781 122.503906 74.359375 122.140625 74.441406 121.8125 C 74.652344 120.945312 74.890625 121.058594 75.472656 120.351562 C 75.96875 120.714844 76.851562 120.847656 77.449219 120.921875 C 77.613281 121.425781 77.171875 121.972656 77.035156 122.453125 C 76.734375 123.496094 76.472656 124.644531 76.425781 125.722656 C 76.382812 126.730469 76.515625 126.457031 75.980469 127.273438 C 75.894531 127.5625 76.140625 127.332031 75.964844 127.867188 C 75.804688 128.347656 75.667969 130.664062 75.203125 131.472656 C 74.859375 132.078125 74.847656 132.140625 75.359375 132.613281 C 74.953125 133.402344 73.519531 136.371094 73.855469 137.175781 C 74.890625 137.476562 76.625 135.902344 76.929688 134.917969 C 77.113281 134.320312 77.042969 133.933594 77.160156 133.4375 C 77.457031 133.292969 77.539062 133.453125 77.71875 133.125 C 77.933594 132.730469 77.742188 132.757812 77.671875 132.492188 C 77.5625 132.085938 78.664062 129.144531 78.757812 128.472656 C 79.777344 128.378906 78.929688 127.71875 79.253906 127 C 79.464844 126.53125 79.699219 125.902344 79.839844 125.40625 C 80 124.851562 80.171875 124.199219 80.269531 123.644531 C 80.375 123.035156 80.425781 122.402344 80.699219 121.875 C 81.355469 121.972656 81.75 122.03125 82.402344 121.765625 C 82.472656 122.183594 82.101562 123.003906 81.953125 123.441406 C 81.460938 124.910156 81.214844 126.453125 81.164062 127.984375 C 81.144531 128.589844 81.171875 128.292969 80.886719 128.699219 C 81.023438 128.996094 80.992188 128.707031 81.03125 129.105469 C 80.546875 129.671875 80.402344 130.355469 80.007812 131.035156 C 79.472656 131.957031 79.144531 132.167969 79.535156 133.015625 C 79.21875 133.519531 78.609375 134.445312 78.628906 135.070312 C 79.359375 135.375 80.34375 134.558594 80.722656 134.019531 C 81.054688 133.546875 80.695312 133.671875 81.359375 132.933594 C 81.65625 132.601562 81.757812 132.304688 82.0625 131.992188 C 82.972656 131.066406 82.691406 130.695312 83.222656 129.824219 C 83.535156 129.300781 83.683594 129.863281 83.59375 128.765625 C 83.539062 128.105469 83.785156 127.988281 83.949219 127.46875 C 84.230469 126.5625 84.484375 125.808594 84.714844 124.878906 C 84.894531 124.144531 84.777344 123.914062 84.859375 123.296875 C 84.894531 123.0625 85.160156 122.523438 85.265625 122.144531 C 85.382812 121.71875 85.296875 121.082031 85.089844 120.699219 C 84.730469 120.023438 84.851562 120.265625 85.09375 119.472656 C 85.347656 118.652344 85.671875 117.847656 85.957031 117.039062 C 87.011719 117.113281 87.410156 117.566406 88.5 117.238281 C 89.578125 116.917969 90.03125 117.542969 90.851562 117.292969 C 91.25 117.171875 94.082031 115.09375 94.492188 114.710938 C 95.019531 114.222656 96.425781 112.871094 96.925781 112.464844 C 97.210938 112.234375 97.582031 112.089844 97.839844 111.839844 C 98.382812 111.308594 97.875 110.550781 98.226562 109.808594 C 98.5625 109.109375 99.246094 108.75 99.75 108.246094 C 101.390625 106.601562 99.480469 103.214844 97.902344 102.070312 C 97.132812 101.511719 96.917969 101.335938 96.371094 100.546875 C 95.945312 99.933594 95.457031 99.367188 95.050781 98.734375 C 94.648438 98.105469 94.296875 97.492188 93.871094 96.867188 C 91.453125 93.3125 88.855469 89.191406 86.625 85.507812 C 85.84375 84.21875 85.109375 82.882812 84.398438 81.554688 C 82.90625 78.769531 82.507812 78.972656 83.535156 77.671875 C 84.449219 76.523438 85.3125 75.28125 86.402344 74.28125 C 88.660156 72.210938 90.09375 69.4375 91.117188 66.640625 C 91.457031 65.707031 91.488281 65.335938 92.449219 64.847656 C 93.058594 64.542969 93.878906 64.164062 94.4375 63.800781 C 96.121094 62.699219 100.609375 59.199219 101.886719 57.371094 C 102.304688 56.777344 102.792969 56.261719 103.203125 55.660156 C 103.796875 54.789062 105.425781 52.71875 105.78125 52.058594 C 106.21875 51.25 106.324219 50.851562 106.902344 50.050781 C 107.355469 49.417969 107.699219 48.777344 108.113281 48.128906 C 109.65625 45.714844 110.527344 42.269531 111.414062 39.558594 C 111.6875 38.71875 111.875 37.949219 112.085938 37.097656 C 112.289062 36.296875 112.5625 35.507812 112.746094 34.710938 C 112.949219 33.839844 113.089844 32.96875 113.261719 32.09375 C 113.417969 31.285156 113.460938 30.09375 113.679688 29.394531 C 113.921875 28.621094 114.589844 28.265625 115.058594 27.644531 C 115.480469 27.082031 115.851562 26.363281 116.214844 25.753906 C 118.027344 22.730469 121.679688 17.105469 123.027344 13.953125 C 123.960938 11.769531 124.980469 9.675781 125.898438 7.527344 C 126.03125 7.210938 126.136719 6.695312 126.265625 6.238281 L 125.316406 6.238281 C 124.578125 8.394531 122.488281 12.945312 121.867188 14.359375 C 121.597656 14.972656 120.097656 17.742188 119.621094 18.601562 C 118.398438 20.800781 116.835938 23.214844 115.59375 25.363281 C 115.113281 26.195312 114.601562 27.320312 113.816406 27.878906 C 113.773438 27.207031 113.925781 24.996094 114.410156 22.578125 C 115 19.671875 115.980469 16.46875 116.488281 15.308594 C 116.765625 14.671875 117 14.003906 117.269531 13.367188 C 118.214844 11.125 119.589844 8.113281 121.175781 6.242188 L 117.28125 6.242188 C 116.621094 7.378906 115.621094 9.039062 115.449219 9.285156 C 115.210938 9.628906 113.515625 12.902344 113.199219 13.523438 C 111.792969 16.292969 110.542969 20.566406 109.746094 32.242188 C 109.054688 33.09375 108.445312 34.109375 107.652344 34.941406 C 107.046875 35.574219 105.84375 36.648438 105.214844 37.125 C 104.367188 37.765625 103.289062 38.382812 102.542969 39.140625 C 101.765625 39.933594 94.710938 44.488281 93.898438 44.308594 C 93.652344 43.964844 92.269531 38.726562 92.050781 37.898438 C 91.890625 37.308594 92.265625 36.972656 92.632812 36.507812 C 92.933594 36.121094 93.160156 35.6875 93.429688 35.277344 C 94.777344 33.230469 97.160156 29.820312 98.570312 27.984375 C 103.550781 21.488281 104.570312 21.027344 108.957031 13.273438 C 110.070312 11.308594 110.769531 9.496094 111.671875 7.460938 C 111.898438 6.949219 112.070312 6.550781 112.207031 6.242188 L 109.800781 6.242188 C 109.574219 6.78125 109.21875 7.589844 108.789062 8.800781 C 108.277344 10.230469 107.5 11.714844 106.777344 13.050781 C 103.101562 19.890625 100.652344 21.96875 96.496094 27.710938 C 95.609375 28.9375 94.589844 29.933594 93.722656 31.191406 C 93.429688 31.617188 91.089844 34.882812 90.875 34.972656 C 90.777344 34.910156 90.675781 33.90625 90.578125 33.722656 C 90.390625 33.371094 90.378906 32.832031 90.3125 32.425781 C 89.949219 30.140625 89.707031 25.671875 90.097656 23.597656 C 90.277344 22.640625 90.285156 22.050781 90.585938 21.101562 C 91.96875 16.800781 95.78125 10.558594 98.167969 6.875 C 98.296875 6.679688 98.425781 6.457031 98.558594 6.242188 L 95.867188 6.242188 C 95.269531 7.222656 94.355469 8.613281 94.179688 8.90625 C 93.417969 10.179688 92.613281 11.402344 91.867188 12.691406 C 90.078125 15.78125 89.085938 17.648438 88.234375 21.171875 C 87.398438 24.640625 87.582031 28.617188 88.117188 32.191406 C 88.246094 33.046875 88.394531 33.945312 88.589844 34.789062 C 88.753906 35.519531 89.125 36.53125 89.226562 37.203125 C 89.292969 37.636719 88.554688 38.695312 88.3125 39.152344 C 87.960938 39.800781 87.65625 40.457031 87.28125 41.09375 C 86.511719 42.394531 86.007812 44.328125 85.933594 45.832031 C 85.839844 47.703125 85.707031 46.855469 84.714844 47.671875 C 84.265625 48.042969 83.605469 48.765625 83.203125 49.210938 C 82.078125 50.460938 81.726562 51.710938 81.117188 53.222656 C 80.542969 54.640625 79.992188 56.167969 79.484375 57.613281 C 78.742188 59.742188 73.820312 66.195312 71.890625 68.03125 C 71.070312 68.808594 70.910156 68.84375 69.960938 69.359375 C 69.3125 69.710938 68.980469 70.132812 68.179688 70.355469 C 68.058594 69.515625 67.785156 69.050781 67.070312 68.542969 C 66.074219 67.832031 66.523438 69.511719 65.652344 65.820312 C 64.484375 60.875 64.371094 63.933594 65.429688 59.90625 C 65.542969 59.476562 65.519531 59.050781 65.554688 58.710938 C 65.761719 58.710938 66.066406 58.683594 66.21875 58.6875 C 66.4375 58.691406 66.566406 58.722656 66.859375 58.679688 C 66.746094 55.960938 66.507812 55.75 65.542969 53.566406 L 66.550781 52.816406 C 66.402344 52.347656 66.128906 52.441406 65.488281 51.289062 C 64.96875 50.351562 64.171875 48.785156 63.832031 47.785156 C 63.1875 45.902344 63.238281 46.691406 62.992188 46.042969 C 64.203125 44.746094 65.46875 44.125 66.265625 42.851562 C 68.179688 39.78125 68.472656 36.082031 68.980469 32.433594 C 69.535156 28.488281 69.015625 23.863281 69.386719 19.777344 C 69.5625 17.851562 69.804688 16.03125 70.332031 14.164062 C 71.109375 11.410156 71.199219 10.832031 72.644531 8.273438 L 73.816406 6.242188 L 72.847656 6.242188 C 72.28125 7.328125 71.394531 8.875 71.136719 9.34375 C 70.167969 11.121094 70.019531 12.207031 69.480469 14.085938 C 68.917969 16.039062 68.863281 17.636719 68.5625 19.589844 C 67.996094 23.320312 68.515625 28.128906 68.207031 31.953125 C 68.128906 32.890625 67.890625 33.832031 67.816406 34.765625 C 67.644531 37.050781 66.898438 40.394531 65.75 42.257812 C 65.285156 43.011719 63.324219 45 62.542969 45.351562 C 61.761719 43.929688 60.347656 42.394531 60.316406 42.355469 C 60.496094 41.792969 61.113281 41.304688 61.4375 40.601562 C 62.40625 38.488281 63.03125 36.691406 63.453125 34.332031 C 63.523438 33.945312 63.667969 33.636719 63.742188 33.222656 C 64.3125 30.097656 64.351562 27.535156 64.527344 24.375 C 64.617188 23.636719 64.644531 22.476562 64.640625 21.714844 C 64.632812 18.90625 64.5625 16.453125 64.816406 13.664062 C 64.964844 12.066406 65.265625 10.542969 65.703125 8.996094 C 65.804688 8.652344 66.246094 7.246094 66.667969 6.242188 L 65.789062 6.242188 C 65.636719 6.597656 65.476562 6.945312 65.425781 7.082031 C 63.167969 12.914062 63.9375 18.1875 63.714844 24.289062 C 63.582031 27.96875 63.445312 30.554688 62.761719 34.179688 C 62.378906 36.195312 61.253906 40.507812 59.605469 41.773438 C 59.246094 41.613281 58.703125 41.046875 58.253906 40.777344 C 57.109375 40.085938 54.941406 39.535156 52.597656 39.691406 C 52.664062 39.371094 52.703125 39.484375 52.902344 39.195312 C 56.886719 33.410156 53.457031 18.765625 54.253906 11.957031 C 54.453125 10.242188 54.984375 8.695312 55.703125 7.136719 C 55.796875 6.9375 55.910156 6.589844 56.054688 6.242188 L 55.230469 6.242188 C 54.808594 7.328125 54.164062 8.929688 54.050781 9.308594 C 51.816406 16.769531 57.164062 33.167969 52.027344 39.332031 C 51.722656 39.699219 51.6875 39.832031 51.21875 40 C 50.023438 40.414062 49.078125 41.019531 48.421875 41.371094 C 54.898438 34.535156 50.730469 21.453125 52.300781 12.882812 C 52.582031 11.355469 52.9375 10.003906 53.542969 8.578125 C 53.796875 7.984375 54.199219 6.980469 54.566406 6.242188 Z M 69.898438 73.972656 C 69.582031 73.941406 69.328125 73.652344 69.054688 73.433594 C 68.429688 72.9375 68.78125 73.148438 68.628906 72.628906 C 68.546875 72.351562 67.878906 71.019531 69.253906 71.03125 C 69.378906 71.566406 69.492188 72.054688 69.683594 72.574219 C 69.855469 73.054688 70.265625 73.5625 69.898438 73.972656 Z M 60.269531 70.070312 C 60.730469 69.367188 61.484375 68.9375 61.917969 68.121094 C 62.269531 67.460938 62.777344 66.382812 63.1875 65.8125 C 63.527344 66.257812 64.5 70.667969 64.828125 71.648438 C 65.507812 73.664062 65.105469 73.433594 64.296875 74.089844 C 63.503906 74.734375 62.675781 75.304688 61.589844 74.871094 C 61.496094 74.792969 60.320312 70.398438 60.269531 70.070312 Z M 54.644531 67.707031 C 54.925781 67.535156 55.046875 66.644531 55.128906 66.265625 C 55.351562 65.195312 54.738281 65.054688 55.335938 64.949219 C 55.546875 65.320312 55.441406 65.773438 55.917969 66.320312 C 56.421875 66.894531 56.695312 66.875 57.015625 67.097656 C 57.832031 67.660156 58.027344 69.269531 57.90625 69.976562 C 57.285156 70.105469 56.601562 69.207031 55.898438 69.351562 C 55.84375 69.449219 55.847656 69.402344 55.839844 69.527344 C 55.820312 69.789062 56.140625 70.203125 56.253906 70.515625 C 56.429688 70.988281 56.574219 71.328125 56.128906 71.640625 C 55.695312 71.453125 55.574219 70.960938 55.050781 70.953125 C 55.050781 72.277344 55.402344 72.671875 54.730469 72.96875 C 54.402344 72.746094 53.953125 71.960938 53.535156 72.101562 C 53.492188 72.28125 53.566406 73.078125 53.554688 73.371094 C 53.53125 73.929688 53.128906 73.996094 52.96875 73.550781 C 52.753906 72.941406 52.777344 71.988281 52.539062 71.242188 C 51.976562 69.488281 50.867188 68.222656 50.660156 67.714844 C 51.464844 67.902344 51.335938 68.523438 51.726562 68.652344 C 52.222656 67.683594 51.019531 67.339844 52.34375 66.914062 C 52.671875 67.210938 52.710938 67.714844 53 68.007812 C 53.207031 67.890625 53.199219 67.902344 53.269531 67.605469 C 53.402344 67.027344 53.199219 66.546875 53.636719 66.253906 C 54.15625 66.464844 54.394531 67.585938 54.644531 67.707031 Z M 75.023438 84.898438 L 75.03125 84.890625 C 75.046875 84.875 75.066406 84.851562 75.09375 84.828125 C 75.085938 84.859375 75.078125 84.890625 75.074219 84.925781 C 75.386719 84.894531 75.210938 84.882812 75.519531 84.730469 L 75.878906 85.289062 C 76.292969 85.324219 76.324219 85.175781 76.699219 85.003906 C 76.734375 84.496094 76.570312 84.542969 76.5 84.152344 L 76.851562 83.867188 L 77.21875 84.425781 C 77.535156 84.421875 77.792969 84.21875 77.957031 83.972656 C 78.289062 83.460938 77.902344 83.613281 77.933594 83.171875 C 78.210938 82.875 78.15625 83.125 78.441406 82.699219 C 78.785156 83.121094 79.03125 83.601562 79.300781 84.070312 C 79.609375 84.59375 80.75 86.429688 80.925781 86.816406 C 81.019531 87.023438 81.121094 88.375 80.757812 88.644531 C 80.566406 88.570312 80.625 88.46875 80.355469 88.332031 C 80.046875 88.179688 79.089844 87.976562 78.703125 87.792969 C 77.429688 87.179688 76.300781 86.257812 75.3125 85.242188 C 75.226562 85.15625 75.128906 85.035156 75.023438 84.898438 Z M 75.644531 84.507812 L 75.949219 85.066406 L 75.953125 85.070312 L 75.949219 85.070312 Z M 64.820312 114.394531 C 65.304688 113.558594 65.753906 112.667969 65.742188 111.652344 C 65.726562 110.078125 64.992188 110.570312 65.148438 109.628906 C 65.1875 109.394531 65.195312 109.148438 65.300781 108.914062 L 65.6875 108.902344 C 66.007812 109.355469 65.84375 110.847656 66.027344 111.382812 C 66.398438 111.730469 66.804688 111.441406 67.292969 111.53125 C 67.328125 112.414062 67.234375 111.90625 66.902344 112.328125 C 66.695312 112.597656 66.714844 112.976562 66.824219 113.269531 L 67.386719 113.449219 C 67.375 113.6875 66.828125 115.015625 66.667969 116.257812 C 66.59375 116.832031 66.625 118.113281 66.714844 118.6875 C 66.761719 119.011719 66.828125 119.058594 66.617188 119.328125 C 66.25 119.28125 65.859375 118.8125 65.617188 118.519531 C 65.105469 117.902344 65.503906 118.085938 65.511719 117.285156 C 65.515625 116.609375 65.589844 116.324219 65.320312 115.699219 C 65.148438 115.292969 64.964844 114.804688 64.820312 114.394531 Z M 86.167969 114.074219 C 86.582031 114.167969 86.859375 114.382812 87.347656 114.234375 C 87.695312 114.128906 87.792969 113.796875 88.140625 113.664062 C 88.007812 114.042969 87.894531 114.179688 87.824219 114.640625 C 87.757812 115.101562 87.902344 115.351562 87.875 115.691406 C 87.574219 115.703125 86.4375 115.375 86.203125 115.144531 Z M 49.429688 106.015625 C 49.378906 105.613281 49.847656 105.203125 50.035156 104.832031 C 50.753906 103.351562 51.691406 102.101562 54.066406 97.195312 C 54.457031 98.945312 55.257812 99.449219 54.878906 100.242188 C 54.691406 100.636719 54.433594 101.394531 54.230469 101.695312 C 53.933594 102.132812 53.671875 102.449219 53.425781 102.925781 C 52.878906 103.972656 52.476562 104.328125 52.738281 105.285156 C 52.871094 105.777344 52.875 105.503906 52.667969 106 C 52.40625 106.632812 51.527344 108.078125 51.085938 108.523438 C 51.039062 108.09375 51.113281 108.011719 50.804688 107.683594 C 50.46875 107.328125 50.609375 107.457031 50.460938 107.007812 C 50.179688 106.183594 49.695312 106.214844 49.429688 106.015625 Z M 45.019531 111.160156 L 45.894531 111.027344 C 46.167969 111.300781 46.179688 111.570312 46.710938 111.457031 C 46.847656 112.242188 47.1875 112.210938 47.867188 112.265625 L 47.773438 113.460938 C 47.273438 113.34375 47.179688 112.445312 46.496094 112.574219 C 44.996094 112.855469 45.035156 113.269531 43.113281 113.730469 C 42.792969 113.804688 42.496094 113.832031 42.167969 113.890625 C 42.054688 113.910156 41.832031 113.96875 41.734375 113.96875 C 41.5625 113.96875 41.46875 113.917969 41.371094 113.835938 L 41.601562 112.925781 C 41.910156 112.8125 42.269531 112.773438 42.496094 112.652344 C 43.761719 111.957031 43.363281 112.335938 44.851562 111.714844 Z M 63.597656 115.488281 L 63.84375 115.226562 C 64.101562 115.640625 64.34375 116.160156 64.261719 116.652344 C 63.984375 116.46875 63.671875 115.828125 63.597656 115.488281 Z M 67.574219 117.921875 C 67.453125 117.355469 67.710938 115.394531 67.894531 114.722656 C 68.027344 114.230469 67.964844 114.257812 68.386719 114.058594 C 68.425781 114.53125 68.992188 114.417969 69.347656 114.550781 C 69.320312 115.3125 68.917969 114.785156 68.378906 116.140625 C 68.175781 116.65625 68.089844 117.621094 67.574219 117.921875 Z M 73.050781 104.710938 C 73.871094 104.636719 74.394531 104.742188 75.03125 104.109375 C 75.4375 103.703125 75.890625 103.277344 76.28125 102.851562 C 77.125 101.929688 77.714844 100.878906 78.242188 99.738281 L 79.734375 96.144531 L 80.644531 93.304688 C 80.746094 92.976562 80.773438 92.648438 80.894531 92.304688 C 82.082031 94.339844 81.785156 93.898438 83.285156 96.035156 C 83.785156 96.746094 84.726562 98.117188 85.273438 98.742188 C 85.503906 99.003906 85.652344 99.304688 85.957031 99.59375 L 86.71875 99.335938 C 86.984375 99.742188 87.125 99.832031 87.640625 99.683594 L 88.210938 100.242188 C 88.207031 100.917969 88.191406 101.039062 88.878906 101.152344 C 89.601562 101.269531 89.609375 100.886719 90.109375 100.875 C 90.789062 100.859375 91.179688 102.011719 91.472656 102.550781 C 91.835938 103.222656 92.199219 103.90625 92.570312 104.578125 C 93.324219 105.933594 93.054688 105.675781 93.292969 106.203125 C 93.429688 106.5 93.507812 106.332031 93.519531 106.625 C 93.246094 106.765625 90.695312 107.746094 90.320312 107.855469 L 89.796875 107.40625 C 89.792969 107.40625 84.09375 108.804688 83.4375 109.148438 C 82.695312 108.457031 80.359375 108.179688 79.375 108.238281 C 77.027344 108.378906 73.578125 110.574219 71.78125 112.039062 C 71.609375 112.175781 71.457031 112.355469 71.269531 112.480469 C 70.753906 111.558594 71.34375 111.546875 71.496094 110.753906 C 71.621094 110.09375 71.386719 109.335938 71.300781 108.765625 C 71.65625 108.542969 71.953125 108.632812 72.234375 108.191406 C 72.453125 107.847656 72.628906 107.6875 72.902344 107.378906 C 73.804688 106.355469 73.472656 106.425781 72.621094 105.71875 C 72.671875 105.375 72.816406 104.976562 73.050781 104.710938 Z M 80.046875 81.378906 C 80.585938 80 80.742188 80.683594 81.46875 79.890625 C 84.539062 85.023438 88.84375 92.785156 93.316406 98.363281 C 94 99.320312 94.589844 100.496094 95.277344 101.40625 C 95.53125 101.738281 96.113281 102.5625 96.28125 102.90625 C 96.5625 103.492188 97.167969 103.84375 97.089844 104.515625 C 96.546875 104.828125 96.261719 104.707031 95.675781 105.183594 C 95.121094 105.636719 94.195312 105.269531 94.164062 105.25 C 93.820312 104.921875 92.742188 103.007812 92.417969 102.46875 C 92.136719 102.003906 91.8125 101.5 91.582031 101.03125 C 91.289062 100.4375 91.4375 99.945312 90.535156 99.894531 C 89.953125 98 88.804688 99.828125 88.292969 98.738281 C 88.769531 98.203125 89.476562 98.308594 89.578125 97.296875 C 88.800781 97.246094 89.175781 97.175781 88.757812 96.507812 C 88.558594 96.183594 88.285156 95.824219 88.066406 95.480469 C 87.582031 94.71875 87.222656 94.082031 86.664062 93.359375 C 85.976562 92.46875 84.390625 90.214844 83.828125 89.246094 C 83.9375 88.851562 84.222656 88.503906 84.046875 88.085938 C 83.871094 87.660156 83.503906 87.703125 83.269531 87.292969 C 82.914062 86.660156 82.394531 86.085938 82.011719 85.425781 C 81.292969 84.191406 80.308594 82.734375 79.738281 81.457031 Z M 60.382812 107.492188 L 60.554688 105.292969 C 60.679688 105.410156 60.769531 105.625 60.898438 105.804688 C 61.097656 106.085938 61.109375 106.058594 61.019531 106.445312 C 60.917969 106.886719 60.738281 107.265625 60.382812 107.492188 Z M 60.273438 107.964844 C 61.160156 107.683594 61.066406 107.269531 61.414062 106.542969 C 61.417969 106.546875 62.953125 107.902344 63.25 108.070312 C 63.542969 108.234375 63.6875 108.195312 63.910156 108.488281 L 63.796875 108.980469 C 62.894531 108.472656 61.832031 108.402344 60.820312 108.746094 C 60.296875 108.921875 60.421875 108.925781 60.019531 109.152344 C 60.023438 108.652344 60.199219 108.433594 60.273438 107.964844 Z M 88.953125 62.234375 L 89.394531 61.699219 C 89.445312 62.074219 89.375 62.277344 88.953125 62.234375 Z M 79.5625 72.328125 C 79.855469 71.527344 83.789062 67.75 84.460938 67.394531 C 85.769531 66.707031 86.253906 67.007812 87.398438 66.527344 L 88.730469 65.921875 C 88.691406 66.210938 87.796875 68.519531 87.519531 68.992188 C 86.914062 70.023438 86.375 70.539062 85.75 71.445312 C 85.644531 71.597656 81.882812 75.820312 81.722656 75.863281 C 81.378906 75.300781 81.132812 74.644531 80.773438 74.085938 C 80.5625 73.757812 80.523438 73.519531 80.246094 73.210938 C 80.03125 72.96875 79.683594 72.644531 79.5625 72.328125 Z M 94.015625 45.070312 C 95.371094 44.769531 101.21875 41.222656 102.410156 40.179688 C 102.691406 39.9375 103.054688 39.546875 103.300781 39.351562 C 104.183594 38.660156 105.28125 37.992188 106.117188 37.234375 C 106.769531 36.640625 107.242188 36.351562 107.890625 35.652344 C 108.285156 35.222656 109.074219 34.121094 109.464844 33.886719 C 109.464844 34.691406 109.070312 35.425781 108.917969 36.207031 C 108.300781 39.371094 106.277344 43.636719 104.777344 46.609375 C 103.734375 48.675781 102.394531 50.699219 100.839844 52.753906 C 100.453125 53.265625 97.566406 56.714844 97.027344 57.15625 C 96.613281 57.496094 96.097656 58.132812 95.671875 58.535156 C 95.359375 58.828125 94.457031 59.363281 94.042969 59.640625 C 93.433594 60.050781 93.023438 60.460938 92.273438 60.644531 C 92.238281 59.769531 92.21875 58.84375 91.839844 58.054688 L 93.339844 55.503906 C 93.59375 54.96875 93.757812 54.6875 93.957031 54.089844 C 94.523438 52.398438 94.535156 50.414062 94.449219 48.597656 C 94.421875 47.996094 94.367188 47.34375 94.289062 46.765625 C 94.21875 46.246094 93.972656 45.554688 94.015625 45.070312 Z M 70.054688 70.289062 C 70.175781 70.109375 71.253906 69.636719 71.574219 69.476562 C 73 68.765625 78.171875 61.746094 79.078125 60.328125 C 80.480469 58.128906 82.105469 51.90625 83.382812 50.328125 C 83.785156 49.832031 85.183594 47.957031 85.828125 48.097656 L 86.222656 50.082031 C 86.222656 50.230469 86.976562 52.261719 87.691406 54.128906 C 88.167969 55.367188 88.679688 56.53125 88.738281 57.027344 C 88.792969 57.640625 88.921875 57.597656 88.613281 58.074219 C 88.496094 58.261719 88.519531 58.628906 88.375 58.910156 C 87.835938 59.960938 87.167969 60.917969 86.523438 61.902344 C 85.605469 63.316406 84.40625 62.886719 83.027344 63.324219 C 81.859375 63.699219 80.746094 64.320312 79.710938 64.945312 C 78.78125 65.507812 77.464844 66.140625 76.726562 66.890625 C 76.324219 67.296875 75.863281 67.605469 75.449219 68.035156 C 75.117188 68.382812 74.726562 69.101562 74.417969 69.421875 C 74.003906 69.484375 73.695312 69.488281 73.234375 69.578125 L 71.085938 70.085938 C 70.625 70.273438 70.628906 70.472656 70.054688 70.289062 Z M 88.558594 47.007812 C 88.925781 46.9375 89.226562 46.789062 89.617188 46.707031 C 90.203125 46.585938 90.71875 46.109375 92.132812 45.914062 C 92.703125 48.40625 92.539062 52.917969 90.734375 55.316406 C 90.539062 55.027344 90.46875 54.625 90.328125 54.300781 C 89.203125 51.703125 88.519531 49.941406 88.558594 47.007812 Z M 88.578125 46.058594 C 88.421875 45.019531 89.753906 41.109375 90.363281 40.28125 C 90.78125 40.867188 91.882812 44.710938 91.8125 45.132812 C 91.125 45.300781 88.925781 46.195312 88.578125 46.058594 Z M 88.578125 46.058594 "/>
</g>
</g>
</svg>
