<?xml version="1.0" encoding="UTF-8"?>
<svg xmlns="http://www.w3.org/2000/svg" xmlns:xlink="http://www.w3.org/1999/xlink" width="144pt" height="143.999998pt" viewBox="0 0 144 143.999998" version="1.2">
<defs>
<clipPath id="clip1">
  <path d="M 10.199219 15 L 133.949219 15 L 133.949219 126.96875 L 10.199219 126.96875 Z M 10.199219 15 "/>
</clipPath>
<clipPath id="clip2">
  <path d="M 93 9.21875 L 117 9.21875 L 117 36 L 93 36 Z M 93 9.21875 "/>
</clipPath>
<clipPath id="clip3">
  <path d="M 29 9.21875 L 53 9.21875 L 53 36 L 29 36 Z M 29 9.21875 "/>
</clipPath>
</defs>
<g id="surface1">
<g clip-path="url(#clip1)" clip-rule="nonzero">
<path style=" stroke:none;fill-rule:nonzero;fill:rgb(100%,100%,100%);fill-opacity:1;" d="M 118.730469 63.03125 C 118.644531 51.023438 115.640625 42.054688 111.203125 35.355469 C 110.441406 35.882812 109.636719 36.273438 108.792969 36.515625 C 107.839844 36.789062 106.847656 36.929688 105.847656 36.929688 C 105.84375 36.929688 105.84375 36.929688 105.84375 36.929688 C 99.277344 36.929688 94.003906 31.042969 93.414062 30.359375 C 92.511719 29.46875 92.1875 28.558594 92.445312 27.652344 C 92.957031 25.839844 95.339844 25.230469 100.03125 24.183594 C 87.210938 15.578125 72.511719 15.570312 72.511719 15.570312 C 72.511719 15.570312 58.007812 15.570312 45.25 24.003906 C 45.285156 24.011719 45.316406 24.019531 45.351562 24.027344 C 50.515625 25.175781 53.109375 25.75 53.648438 27.652344 C 53.902344 28.558594 53.578125 29.46875 52.675781 30.359375 C 52.085938 31.042969 46.8125 36.929688 40.246094 36.929688 C 39.242188 36.929688 38.25 36.789062 37.296875 36.515625 C 36.183594 36.195312 35.140625 35.621094 34.175781 34.8125 C 29.363281 41.824219 26.140625 51.390625 26.292969 64.441406 C 23.136719 59.042969 17.507812 50.957031 10.238281 47.003906 C 10.238281 47.003906 15.832031 91.007812 26.144531 91.488281 C 26.144531 91.488281 29.804688 91.75 31.382812 88.890625 C 32.773438 94.105469 34.109375 98.722656 34.847656 100.222656 C 34.9375 100.402344 35.042969 100.605469 35.15625 100.820312 C 35.191406 100.890625 35.234375 100.96875 35.273438 101.042969 C 35.359375 101.195312 35.445312 101.351562 35.535156 101.519531 C 35.589844 101.613281 35.648438 101.714844 35.707031 101.8125 C 35.796875 101.972656 35.890625 102.136719 35.992188 102.308594 C 36.058594 102.417969 36.128906 102.53125 36.199219 102.648438 C 36.300781 102.820312 36.410156 102.996094 36.523438 103.179688 C 36.601562 103.300781 36.679688 103.425781 36.757812 103.554688 C 36.878906 103.742188 37.003906 103.933594 37.128906 104.128906 C 37.214844 104.261719 37.300781 104.390625 37.386719 104.523438 C 37.527344 104.734375 37.671875 104.945312 37.820312 105.164062 C 37.90625 105.292969 37.992188 105.421875 38.085938 105.550781 C 38.253906 105.800781 38.433594 106.050781 38.613281 106.304688 C 38.695312 106.414062 38.769531 106.523438 38.851562 106.632812 C 39.386719 107.375 39.972656 108.144531 40.597656 108.933594 C 40.679688 109.035156 40.765625 109.140625 40.847656 109.242188 C 41.085938 109.535156 41.320312 109.828125 41.566406 110.121094 C 41.679688 110.257812 41.800781 110.394531 41.917969 110.53125 C 42.140625 110.800781 42.371094 111.0625 42.605469 111.332031 C 42.738281 111.480469 42.871094 111.632812 43.007812 111.785156 C 43.238281 112.042969 43.472656 112.300781 43.714844 112.558594 C 43.855469 112.714844 44.003906 112.871094 44.148438 113.023438 C 44.394531 113.28125 44.640625 113.539062 44.890625 113.792969 C 45.042969 113.949219 45.191406 114.101562 45.347656 114.253906 C 45.609375 114.519531 45.882812 114.78125 46.15625 115.042969 C 46.304688 115.1875 46.449219 115.332031 46.601562 115.472656 C 46.910156 115.761719 47.222656 116.046875 47.539062 116.328125 C 47.667969 116.445312 47.789062 116.558594 47.917969 116.671875 C 54.238281 122.238281 62.570312 126.960938 72.511719 126.960938 C 80.804688 126.960938 87.976562 123.671875 93.796875 119.347656 L 93.796875 119.351562 C 93.796875 119.347656 93.796875 119.347656 93.796875 119.347656 C 98.84375 115.601562 102.875 111.082031 105.722656 107.246094 C 105.730469 107.234375 105.738281 107.226562 105.746094 107.214844 C 106.058594 106.792969 106.355469 106.382812 106.640625 105.980469 C 106.640625 105.980469 106.640625 105.980469 106.644531 105.976562 C 107.214844 105.164062 107.734375 104.394531 108.1875 103.679688 C 108.191406 103.675781 108.195312 103.667969 108.199219 103.660156 C 108.40625 103.339844 108.597656 103.03125 108.777344 102.730469 C 108.824219 102.65625 108.863281 102.585938 108.910156 102.515625 C 109.042969 102.289062 109.171875 102.070312 109.292969 101.863281 C 109.339844 101.777344 109.386719 101.695312 109.433594 101.613281 C 109.542969 101.421875 109.644531 101.238281 109.738281 101.0625 C 109.777344 100.996094 109.816406 100.921875 109.851562 100.859375 C 109.972656 100.628906 110.085938 100.414062 110.179688 100.222656 C 110.878906 98.808594 112.105469 94.613281 113.410156 89.757812 C 115.164062 91.695312 118.03125 91.488281 118.03125 91.488281 C 128.34375 91.007812 133.9375 47.003906 133.9375 47.003906 C 127.277344 50.628906 121.996094 57.714844 118.730469 63.03125 "/>
</g>
<g clip-path="url(#clip2)" clip-rule="nonzero">
<path style=" stroke:none;fill-rule:nonzero;fill:rgb(100%,100%,100%);fill-opacity:1;" d="M 94.445312 29.402344 C 94.445312 29.402344 101.074219 37.273438 108.402344 35.164062 C 115.730469 33.054688 118.550781 17.648438 115.449219 11.503906 C 115.449219 11.503906 114.566406 9.222656 112.945312 9.925781 C 111.328125 10.628906 112.242188 12.5625 111.75 15.269531 C 111.253906 17.976562 109.125 23.582031 102.570312 25.058594 C 96.019531 26.535156 92.125 27.160156 94.445312 29.402344 "/>
</g>
<g clip-path="url(#clip3)" clip-rule="nonzero">
<path style=" stroke:none;fill-rule:nonzero;fill:rgb(100%,100%,100%);fill-opacity:1;" d="M 51.644531 29.402344 C 51.644531 29.402344 45.015625 37.273438 37.6875 35.164062 C 30.359375 33.054688 27.542969 17.648438 30.640625 11.503906 C 30.640625 11.503906 31.523438 9.222656 33.144531 9.925781 C 34.761719 10.628906 33.847656 12.5625 34.339844 15.269531 C 34.835938 17.976562 36.964844 23.582031 43.519531 25.058594 C 50.074219 26.535156 53.964844 27.160156 51.644531 29.402344 "/>
</g>
<path style=" stroke:none;fill-rule:nonzero;fill:rgb(0%,0%,0%);fill-opacity:1;" d="M 101 73.410156 C 99.046875 73.054688 97.183594 72.875 95.464844 72.875 C 85.082031 72.875 82.566406 79.246094 82.464844 79.519531 L 82.203125 80.214844 L 82.886719 80.511719 C 85.46875 81.628906 87.925781 82.195312 90.179688 82.195312 C 98.496094 82.195312 101.558594 74.535156 101.589844 74.457031 L 101.929688 73.578125 L 101 73.410156 "/>
<path style=" stroke:none;fill-rule:nonzero;fill:rgb(0%,0%,0%);fill-opacity:1;" d="M 49.683594 72.875 C 47.964844 72.875 46.101562 73.054688 44.148438 73.410156 L 43.214844 73.578125 L 43.558594 74.457031 C 43.585938 74.535156 46.648438 82.195312 54.964844 82.195312 C 57.222656 82.195312 59.675781 81.628906 62.261719 80.511719 L 62.941406 80.214844 L 62.679688 79.519531 C 62.578125 79.246094 60.0625 72.875 49.683594 72.875 "/>
</g>
</svg>
