<?xml version="1.0" encoding="UTF-8"?>
<svg xmlns="http://www.w3.org/2000/svg" xmlns:xlink="http://www.w3.org/1999/xlink" width="144pt" height="143.999998pt" viewBox="0 0 144 143.999998" version="1.2">
<defs>
<clipPath id="clip1">
  <path d="M 14.398438 0 L 131 0 L 131 144 L 14.398438 144 Z M 14.398438 0 "/>
</clipPath>
<clipPath id="clip2">
  <path d="M 14.398438 0 L 132 0 L 132 144 L 14.398438 144 Z M 14.398438 0 "/>
</clipPath>
<clipPath id="clip3">
  <path d="M 14.398438 0 L 131 0 L 131 144 L 14.398438 144 Z M 14.398438 0 "/>
</clipPath>
<clipPath id="clip4">
  <path d="M 126 40 L 132.898438 40 L 132.898438 46 L 126 46 Z M 126 40 "/>
</clipPath>
<clipPath id="clip5">
  <path d="M 125 40 L 132.898438 40 L 132.898438 46 L 125 46 Z M 125 40 "/>
</clipPath>
<clipPath id="clip6">
  <path d="M 126 40 L 132.898438 40 L 132.898438 46 L 126 46 Z M 126 40 "/>
</clipPath>
</defs>
<g id="surface1">
<g clip-path="url(#clip1)" clip-rule="nonzero">
<path style=" stroke:none;fill-rule:nonzero;fill:rgb(100%,100%,100%);fill-opacity:1;" d="M 111.011719 145.226562 L 73.925781 145.226562 L 31.421875 144.320312 L 30.003906 97.660156 L 27.046875 79.433594 L 14.867188 82.574219 L 26.351562 46.144531 L 33.832031 54.570312 L 33.984375 57.136719 L 34.753906 57.089844 L 34.660156 55.503906 L 51.207031 74.140625 L 42.289062 76.25 L 43.597656 89.328125 L 43.582031 89.335938 L 43.601562 89.378906 L 44.019531 93.53125 L 44.035156 93.707031 L 47.085938 92.828125 L 46.992188 94.121094 L 48 94.195312 L 48.121094 92.527344 L 54.78125 90.605469 L 55.128906 91.644531 L 56.085938 91.324219 L 55.753906 90.324219 L 58.671875 89.480469 L 58.355469 83.675781 L 58.390625 83.660156 L 58.347656 83.570312 L 56.472656 49.636719 L 49.855469 52.027344 L 66.996094 0.570312 L 100.175781 33.859375 L 94.480469 35.917969 L 87.023438 79.316406 L 86.957031 79.421875 L 87 79.449219 L 85.898438 85.863281 L 85.878906 85.964844 L 89.46875 88.234375 L 89.265625 88.9375 L 90.238281 89.21875 L 90.355469 88.796875 L 95.511719 92.058594 L 95.214844 93.621094 L 96.210938 93.808594 L 96.429688 92.640625 L 101.105469 95.601562 L 101.867188 87.996094 L 101.960938 87.84375 L 101.886719 87.796875 L 103.222656 74.421875 L 94.304688 72.308594 L 119.160156 44.316406 L 123.859375 59.226562 L 123.683594 59.226562 L 122.503906 66.460938 L 123.734375 66.660156 L 124.578125 61.5 L 130.648438 80.75 L 118.464844 77.605469 L 114.199219 103.890625 L 116.449219 105.3125 L 111.011719 145.226562 M 96.628906 133.363281 L 96.347656 138.671875 L 97.890625 138.753906 L 98.175781 133.363281 L 102.347656 133.363281 L 104.613281 122.53125 L 108.125 123.296875 L 108.453125 121.785156 L 104.929688 121.019531 L 108.289062 104.941406 L 99.570312 107.179688 L 99.792969 103.046875 L 98.25 102.960938 L 98.003906 107.582031 L 89.75 109.699219 L 90.574219 117.890625 L 84.449219 116.554688 L 84.117188 118.0625 L 90.734375 119.503906 L 92.128906 133.363281 L 96.628906 133.363281 M 42.136719 134.550781 L 41.917969 138.671875 L 43.460938 138.753906 L 43.703125 134.183594 L 47.207031 133.363281 L 50.554688 122.625 L 54.902344 122.121094 L 54.722656 120.585938 L 51.058594 121.011719 L 53.621094 112.789062 L 45.09375 108.074219 L 45.363281 103.046875 L 43.820312 102.960938 L 43.589844 107.242188 L 35.558594 102.800781 L 38.023438 122.527344 L 34.28125 122.960938 L 34.460938 124.496094 L 38.214844 124.0625 L 39.597656 135.144531 L 42.136719 134.550781 M 70.886719 113.878906 L 70.886719 118.972656 L 72.433594 118.972656 L 72.433594 114 L 81.191406 114.691406 L 82.066406 109.515625 L 85.417969 109.753906 L 85.527344 108.214844 L 82.324219 107.984375 L 84.285156 96.328125 L 72.433594 98.65625 L 72.433594 94.792969 L 70.886719 94.792969 L 70.886719 98.960938 L 59.035156 101.289062 L 60.796875 106.433594 L 56.292969 106.113281 L 56.183594 107.65625 L 61.335938 108.027344 L 63.128906 113.265625 L 70.886719 113.878906 M 109.339844 92.160156 L 108.902344 95.035156 L 109.734375 95.164062 L 110.179688 92.246094 L 112.445312 92.46875 L 114.253906 86.699219 L 116.125 87.300781 L 116.382812 86.5 L 114.507812 85.890625 L 117.191406 77.332031 L 112.332031 78.082031 L 112.671875 75.847656 L 111.835938 75.71875 L 111.457031 78.21875 L 106.859375 78.929688 L 106.871094 83.425781 L 103.609375 82.371094 L 103.351562 83.175781 L 106.871094 84.3125 L 106.890625 91.921875 L 109.339844 92.160156 M 37.085938 87.820312 L 37.464844 90.699219 L 38.300781 90.589844 L 37.914062 87.664062 L 40.15625 87.246094 L 40.289062 81.203125 L 42.253906 81.265625 L 42.28125 80.417969 L 40.308594 80.359375 L 40.507812 71.386719 L 36.050781 73.460938 L 35.753906 71.21875 L 34.917969 71.332031 L 35.25 73.835938 L 31.027344 75.796875 L 32.289062 80.113281 L 28.863281 80.007812 L 28.839844 80.851562 L 32.535156 80.964844 L 34.667969 88.269531 L 37.085938 87.820312 M 73.710938 62.929688 L 72.753906 86.589844 L 80.597656 86.589844 L 84.617188 60.304688 L 87.785156 59.539062 L 87.199219 57.113281 L 85.027344 57.636719 L 87.492188 41.5 L 74.65625 39.535156 L 73.816406 60.335938 L 72.0625 60.757812 L 72.753906 40.347656 L 61.226562 50.949219 L 61.953125 63.195312 L 59.035156 63.898438 L 59.617188 66.324219 L 62.101562 65.726562 L 63.128906 83.117188 L 71.210938 85.78125 L 71.972656 63.347656 L 73.710938 62.929688 "/>
</g>
<g clip-path="url(#clip2)" clip-rule="nonzero">
<path style=" stroke:none;fill-rule:nonzero;fill:rgb(100%,100%,100%);fill-opacity:1;" d="M 111.273438 145.519531 L 73.921875 145.519531 L 31.136719 144.613281 L 29.707031 97.675781 L 26.804688 79.800781 L 14.421875 83 L 26.226562 45.554688 L 26.402344 45.75 L 33.804688 54.089844 L 33.820312 54.328125 L 26.289062 45.847656 L 14.644531 82.785156 L 26.925781 79.617188 L 29.855469 97.664062 L 31.28125 144.464844 L 73.921875 145.375 L 111.140625 145.375 L 116.609375 105.238281 L 114.363281 103.816406 L 118.585938 77.789062 L 130.871094 80.957031 L 124.628906 61.171875 L 124.683594 60.847656 L 131.089844 81.171875 L 118.707031 77.972656 L 114.523438 103.742188 L 116.769531 105.164062 L 111.273438 145.519531 M 100.980469 95.347656 L 96.460938 92.484375 L 96.488281 92.328125 L 100.859375 95.09375 L 101.511719 88.546875 L 101.6875 88.269531 L 100.980469 95.347656 M 44.164062 93.515625 L 43.792969 89.792969 L 43.984375 90.210938 L 44.292969 93.324219 L 47.109375 92.511719 L 47.097656 92.667969 L 44.164062 93.515625 M 48.136719 92.371094 L 48.144531 92.210938 L 54.6875 90.324219 L 54.734375 90.464844 L 48.136719 92.371094 M 95.542969 91.902344 L 90.398438 88.648438 L 90.441406 88.5 L 95.570312 91.746094 L 95.542969 91.902344 M 55.707031 90.183594 L 55.660156 90.042969 L 58.363281 89.261719 L 58.0625 83.8125 L 58.210938 83.742188 L 58.519531 89.371094 L 55.707031 90.183594 M 43.738281 89.265625 L 42.453125 76.367188 L 51.484375 74.226562 L 34.648438 55.265625 L 34.632812 55.023438 L 51.757812 74.3125 L 42.613281 76.480469 L 43.882812 89.199219 L 43.738281 89.265625 M 89.507812 88.085938 L 86.042969 85.890625 L 87.136719 79.535156 L 87.269531 79.625 L 86.207031 85.820312 L 89.550781 87.9375 L 89.507812 88.085938 M 101.746094 87.707031 L 101.605469 87.617188 L 102.898438 74.652344 L 93.753906 72.484375 L 119.285156 43.726562 L 119.367188 43.976562 L 124.175781 59.226562 L 124.015625 59.226562 L 119.222656 44.019531 L 94.027344 72.398438 L 103.0625 74.539062 L 101.746094 87.707031 M 58.179688 83.203125 L 58.007812 82.832031 L 56.199219 50.050781 L 49.378906 52.515625 L 66.867188 0.0195312 L 100.714844 33.984375 L 94.742188 36.136719 L 87.433594 78.675781 L 87.226562 78.996094 L 94.613281 36.027344 L 100.445312 33.921875 L 66.933594 0.292969 L 49.617188 52.273438 L 56.335938 49.84375 L 58.179688 83.203125 "/>
</g>
<g clip-path="url(#clip3)" clip-rule="nonzero">
<path style=" stroke:none;fill-rule:nonzero;fill:rgb(100%,100%,100%);fill-opacity:1;" d="M 111.140625 145.375 L 73.921875 145.375 L 31.28125 144.464844 L 29.855469 97.664062 L 26.925781 79.617188 L 14.644531 82.785156 L 26.289062 45.847656 L 33.820312 54.328125 L 33.832031 54.570312 L 26.351562 46.144531 L 14.867188 82.574219 L 27.046875 79.433594 L 30.003906 97.660156 L 31.421875 144.320312 L 73.925781 145.226562 L 111.011719 145.226562 L 116.449219 105.3125 L 114.199219 103.890625 L 118.464844 77.605469 L 130.648438 80.75 L 124.578125 61.5 L 124.628906 61.171875 L 130.871094 80.957031 L 118.585938 77.789062 L 114.363281 103.816406 L 116.609375 105.238281 L 111.140625 145.375 M 101.105469 95.601562 L 96.429688 92.640625 L 96.460938 92.484375 L 100.980469 95.347656 L 101.6875 88.269531 L 101.867188 87.996094 L 101.105469 95.601562 M 44.035156 93.707031 L 44.019531 93.53125 L 43.601562 89.378906 L 43.792969 89.792969 L 44.164062 93.515625 L 47.097656 92.667969 L 47.085938 92.828125 L 44.035156 93.707031 M 48.121094 92.527344 L 48.136719 92.371094 L 54.734375 90.464844 L 54.78125 90.605469 L 48.121094 92.527344 M 95.511719 92.058594 L 90.355469 88.796875 L 90.398438 88.648438 L 95.542969 91.902344 L 95.511719 92.058594 M 55.753906 90.324219 L 55.707031 90.183594 L 58.519531 89.371094 L 58.210938 83.742188 L 58.355469 83.675781 L 58.671875 89.480469 L 55.753906 90.324219 M 43.597656 89.328125 L 42.289062 76.25 L 51.207031 74.140625 L 34.660156 55.503906 L 34.648438 55.265625 L 51.484375 74.226562 L 42.453125 76.367188 L 43.738281 89.265625 L 43.597656 89.328125 M 89.46875 88.234375 L 85.878906 85.964844 L 85.898438 85.863281 L 87 79.449219 L 87.136719 79.535156 L 86.042969 85.890625 L 89.507812 88.085938 L 89.46875 88.234375 M 101.886719 87.796875 L 101.746094 87.707031 L 103.0625 74.539062 L 94.027344 72.398438 L 119.222656 44.019531 L 124.015625 59.226562 L 123.859375 59.226562 L 119.160156 44.316406 L 94.304688 72.308594 L 103.222656 74.421875 L 101.886719 87.796875 M 58.347656 83.570312 L 58.179688 83.203125 L 56.335938 49.84375 L 49.617188 52.273438 L 66.933594 0.292969 L 100.445312 33.921875 L 94.613281 36.027344 L 87.226562 78.996094 L 87.023438 79.316406 L 94.480469 35.917969 L 100.175781 33.859375 L 66.996094 0.570312 L 49.855469 52.027344 L 56.472656 49.636719 L 58.347656 83.570312 "/>
</g>
<path style=" stroke:none;fill-rule:nonzero;fill:rgb(0%,0%,0%);fill-opacity:1;" d="M 65.980469 145.375 L 63.128906 125.828125 L 76.914062 121.351562 L 73.921875 145.375 L 65.980469 145.375 "/>
<path style=" stroke:none;fill-rule:nonzero;fill:rgb(0%,0%,0%);fill-opacity:1;" d="M 39.597656 135.144531 L 47.207031 133.363281 L 53.621094 112.789062 L 35.558594 102.800781 L 39.597656 135.144531 "/>
<path style=" stroke:none;fill-rule:nonzero;fill:rgb(0%,0%,0%);fill-opacity:1;" d="M 63.128906 83.117188 L 71.210938 85.78125 L 72.753906 40.347656 L 61.226562 50.949219 L 63.128906 83.117188 "/>
<path style=" stroke:none;fill-rule:nonzero;fill:rgb(0%,0%,0%);fill-opacity:1;" d="M 74.65625 39.535156 L 72.753906 86.589844 L 80.597656 86.589844 L 87.492188 41.5 L 74.65625 39.535156 "/>
<path style=" stroke:none;fill-rule:nonzero;fill:rgb(100%,100%,100%);fill-opacity:1;" d="M 124.484375 60.21875 L 124.265625 59.523438 L 126.859375 59.523438 L 126.859375 56.574219 L 130.542969 56.574219 L 130.542969 52.101562 L 128.386719 47.789062 L 128.839844 45.511719 L 129.507812 45.511719 L 129.074219 47.695312 L 131.195312 51.945312 L 131.195312 57.226562 L 127.511719 57.226562 L 127.511719 60.179688 L 124.492188 60.179688 L 124.484375 60.21875 "/>
<path style=" stroke:none;fill-rule:nonzero;fill:rgb(100%,100%,100%);fill-opacity:1;" d="M 123.492188 66.320312 L 122.847656 66.210938 L 123.9375 59.523438 L 123.953125 59.523438 L 124.378906 60.871094 L 123.492188 66.320312 "/>
<path style=" stroke:none;fill-rule:nonzero;fill:rgb(100%,100%,100%);fill-opacity:1;" d="M 124.433594 60.542969 L 124.109375 59.523438 L 124.265625 59.523438 L 124.484375 60.21875 L 124.433594 60.542969 "/>
<path style=" stroke:none;fill-rule:nonzero;fill:rgb(100%,100%,100%);fill-opacity:1;" d="M 124.378906 60.871094 L 123.953125 59.523438 L 124.109375 59.523438 L 124.433594 60.542969 L 124.378906 60.871094 "/>
<path style=" stroke:none;fill-rule:nonzero;fill:rgb(100%,100%,100%);fill-opacity:1;" d="M 124.683594 60.847656 L 124.585938 60.535156 L 124.617188 60.328125 L 127.660156 60.328125 L 127.660156 57.375 L 131.34375 57.375 L 131.34375 51.910156 L 129.226562 47.675781 L 129.660156 45.511719 L 129.8125 45.511719 L 129.382812 47.65625 L 131.492188 51.878906 L 131.492188 57.523438 L 127.808594 57.523438 L 127.808594 60.476562 L 124.746094 60.476562 L 124.683594 60.847656 M 126.710938 59.375 L 124.21875 59.375 L 124.175781 59.226562 L 126.5625 59.226562 L 126.5625 56.277344 L 130.246094 56.277344 L 130.246094 52.167969 L 128.078125 47.828125 L 128.085938 47.777344 L 128.539062 45.511719 L 128.691406 45.511719 L 128.230469 47.808594 L 130.394531 52.136719 L 130.394531 56.425781 L 126.710938 56.425781 L 126.710938 59.375 "/>
<path style=" stroke:none;fill-rule:nonzero;fill:rgb(100%,100%,100%);fill-opacity:1;" d="M 123.734375 66.660156 L 122.503906 66.460938 L 123.683594 59.226562 L 123.859375 59.226562 L 123.90625 59.375 L 123.8125 59.375 L 122.675781 66.335938 L 123.613281 66.488281 L 124.480469 61.183594 L 124.578125 61.5 L 123.734375 66.660156 "/>
<path style=" stroke:none;fill-rule:nonzero;fill:rgb(100%,100%,100%);fill-opacity:1;" d="M 124.628906 61.171875 L 124.53125 60.859375 L 124.585938 60.535156 L 124.683594 60.847656 L 124.628906 61.171875 M 124.21875 59.375 L 124.0625 59.375 L 124.015625 59.226562 L 124.175781 59.226562 L 124.21875 59.375 "/>
<path style=" stroke:none;fill-rule:nonzero;fill:rgb(100%,100%,100%);fill-opacity:1;" d="M 124.578125 61.5 L 124.480469 61.183594 L 124.53125 60.859375 L 124.628906 61.171875 L 124.578125 61.5 M 124.0625 59.375 L 123.90625 59.375 L 123.859375 59.226562 L 124.015625 59.226562 L 124.0625 59.375 "/>
<path style=" stroke:none;fill-rule:nonzero;fill:rgb(100%,100%,100%);fill-opacity:1;" d="M 124.585938 60.535156 L 124.484375 60.21875 L 124.492188 60.179688 L 127.511719 60.179688 L 127.511719 57.226562 L 131.195312 57.226562 L 131.195312 51.945312 L 129.074219 47.695312 L 129.507812 45.511719 L 129.660156 45.511719 L 129.226562 47.675781 L 131.34375 51.910156 L 131.34375 57.375 L 127.660156 57.375 L 127.660156 60.328125 L 124.617188 60.328125 L 124.585938 60.535156 M 126.859375 59.523438 L 124.265625 59.523438 L 124.21875 59.375 L 126.710938 59.375 L 126.710938 56.425781 L 130.394531 56.425781 L 130.394531 52.136719 L 128.230469 47.808594 L 128.691406 45.511719 L 128.839844 45.511719 L 128.386719 47.789062 L 130.542969 52.101562 L 130.542969 56.574219 L 126.859375 56.574219 L 126.859375 59.523438 "/>
<path style=" stroke:none;fill-rule:nonzero;fill:rgb(100%,100%,100%);fill-opacity:1;" d="M 123.613281 66.488281 L 122.675781 66.335938 L 123.8125 59.375 L 123.90625 59.375 L 123.953125 59.523438 L 123.9375 59.523438 L 122.847656 66.210938 L 123.492188 66.320312 L 124.378906 60.871094 L 124.480469 61.183594 L 123.613281 66.488281 "/>
<path style=" stroke:none;fill-rule:nonzero;fill:rgb(100%,100%,100%);fill-opacity:1;" d="M 124.53125 60.859375 L 124.433594 60.542969 L 124.484375 60.21875 L 124.585938 60.535156 L 124.53125 60.859375 M 124.265625 59.523438 L 124.109375 59.523438 L 124.0625 59.375 L 124.21875 59.375 L 124.265625 59.523438 "/>
<path style=" stroke:none;fill-rule:nonzero;fill:rgb(100%,100%,100%);fill-opacity:1;" d="M 124.480469 61.183594 L 124.378906 60.871094 L 124.433594 60.542969 L 124.53125 60.859375 L 124.480469 61.183594 M 124.109375 59.523438 L 123.953125 59.523438 L 123.90625 59.375 L 124.0625 59.375 L 124.109375 59.523438 "/>
<g clip-path="url(#clip4)" clip-rule="nonzero">
<path style=" stroke:none;fill-rule:nonzero;fill:rgb(100%,100%,100%);fill-opacity:1;" d="M 132.621094 45.214844 L 129.871094 45.214844 L 130.082031 44.152344 L 128.859375 43.90625 L 128.597656 45.214844 L 126.3125 45.214844 L 127.128906 42.273438 L 132.621094 40.683594 L 132.621094 45.214844 "/>
</g>
<path style=" stroke:none;fill-rule:nonzero;fill:rgb(100%,100%,100%);fill-opacity:1;" d="M 129.570312 45.214844 L 128.902344 45.214844 L 129.09375 44.253906 L 129.734375 44.386719 L 129.570312 45.214844 "/>
<path style=" stroke:none;fill-rule:nonzero;fill:rgb(100%,100%,100%);fill-opacity:1;" d="M 129.871094 45.214844 L 129.722656 45.214844 L 129.910156 44.269531 L 128.976562 44.082031 L 128.75 45.214844 L 128.597656 45.214844 L 128.859375 43.90625 L 130.082031 44.152344 L 129.871094 45.214844 "/>
<path style=" stroke:none;fill-rule:nonzero;fill:rgb(100%,100%,100%);fill-opacity:1;" d="M 129.722656 45.214844 L 129.570312 45.214844 L 129.734375 44.386719 L 129.09375 44.253906 L 128.902344 45.214844 L 128.75 45.214844 L 128.976562 44.082031 L 129.910156 44.269531 L 129.722656 45.214844 "/>
<g clip-path="url(#clip5)" clip-rule="nonzero">
<path style=" stroke:none;fill-rule:nonzero;fill:rgb(100%,100%,100%);fill-opacity:1;" d="M 132.917969 45.511719 L 129.8125 45.511719 L 129.839844 45.363281 L 132.769531 45.363281 L 132.769531 40.488281 L 127.011719 42.152344 L 126.113281 45.363281 L 128.570312 45.363281 L 128.539062 45.511719 L 125.917969 45.511719 L 126.890625 42.03125 L 132.917969 40.289062 L 132.917969 45.511719 "/>
</g>
<path style=" stroke:none;fill-rule:nonzero;fill:rgb(100%,100%,100%);fill-opacity:1;" d="M 129.507812 45.511719 L 128.839844 45.511719 L 128.871094 45.363281 L 129.539062 45.363281 L 129.507812 45.511719 "/>
<path style=" stroke:none;fill-rule:nonzero;fill:rgb(100%,100%,100%);fill-opacity:1;" d="M 129.8125 45.511719 L 129.660156 45.511719 L 129.691406 45.363281 L 129.839844 45.363281 L 129.8125 45.511719 M 128.691406 45.511719 L 128.539062 45.511719 L 128.570312 45.363281 L 128.722656 45.363281 L 128.691406 45.511719 "/>
<path style=" stroke:none;fill-rule:nonzero;fill:rgb(100%,100%,100%);fill-opacity:1;" d="M 129.660156 45.511719 L 129.507812 45.511719 L 129.539062 45.363281 L 129.691406 45.363281 L 129.660156 45.511719 M 128.839844 45.511719 L 128.691406 45.511719 L 128.722656 45.363281 L 128.871094 45.363281 L 128.839844 45.511719 "/>
<g clip-path="url(#clip6)" clip-rule="nonzero">
<path style=" stroke:none;fill-rule:nonzero;fill:rgb(100%,100%,100%);fill-opacity:1;" d="M 132.769531 45.363281 L 129.839844 45.363281 L 129.871094 45.214844 L 132.621094 45.214844 L 132.621094 40.683594 L 127.128906 42.273438 L 126.3125 45.214844 L 128.597656 45.214844 L 128.570312 45.363281 L 126.113281 45.363281 L 127.011719 42.152344 L 132.769531 40.488281 L 132.769531 45.363281 "/>
</g>
<path style=" stroke:none;fill-rule:nonzero;fill:rgb(100%,100%,100%);fill-opacity:1;" d="M 129.539062 45.363281 L 128.871094 45.363281 L 128.902344 45.214844 L 129.570312 45.214844 L 129.539062 45.363281 "/>
<path style=" stroke:none;fill-rule:nonzero;fill:rgb(100%,100%,100%);fill-opacity:1;" d="M 129.839844 45.363281 L 129.691406 45.363281 L 129.722656 45.214844 L 129.871094 45.214844 L 129.839844 45.363281 M 128.722656 45.363281 L 128.570312 45.363281 L 128.597656 45.214844 L 128.75 45.214844 L 128.722656 45.363281 "/>
<path style=" stroke:none;fill-rule:nonzero;fill:rgb(100%,100%,100%);fill-opacity:1;" d="M 129.691406 45.363281 L 129.539062 45.363281 L 129.570312 45.214844 L 129.722656 45.214844 L 129.691406 45.363281 M 128.871094 45.363281 L 128.722656 45.363281 L 128.75 45.214844 L 128.902344 45.214844 L 128.871094 45.363281 "/>
<path style=" stroke:none;fill-rule:nonzero;fill:rgb(100%,100%,100%);fill-opacity:1;" d="M 59.617188 66.324219 L 59.035156 63.898438 L 61.953125 63.195312 L 62.101562 65.726562 L 59.617188 66.324219 M 71.972656 63.347656 L 72.0625 60.757812 L 73.816406 60.335938 L 73.710938 62.929688 L 71.972656 63.347656 M 84.617188 60.304688 L 85.027344 57.636719 L 87.199219 57.113281 L 87.785156 59.539062 L 84.617188 60.304688 "/>
<path style=" stroke:none;fill-rule:nonzero;fill:rgb(100%,100%,100%);fill-opacity:1;" d="M 62.101562 65.726562 L 61.953125 63.195312 L 72.0625 60.757812 L 71.972656 63.347656 L 62.101562 65.726562 "/>
<path style=" stroke:none;fill-rule:nonzero;fill:rgb(100%,100%,100%);fill-opacity:1;" d="M 73.710938 62.929688 L 73.816406 60.335938 L 85.027344 57.636719 L 84.617188 60.304688 L 73.710938 62.929688 "/>
<path style=" stroke:none;fill-rule:nonzero;fill:rgb(100%,100%,100%);fill-opacity:1;" d="M 43.460938 138.753906 L 41.917969 138.671875 L 42.136719 134.550781 L 43.703125 134.183594 L 43.460938 138.753906 "/>
<path style=" stroke:none;fill-rule:nonzero;fill:rgb(100%,100%,100%);fill-opacity:1;" d="M 42.136719 134.550781 L 42.722656 123.535156 L 44.28125 123.355469 L 43.703125 134.183594 L 42.136719 134.550781 "/>
<path style=" stroke:none;fill-rule:nonzero;fill:rgb(100%,100%,100%);fill-opacity:1;" d="M 45.09375 108.074219 L 43.589844 107.242188 L 43.820312 102.960938 L 45.363281 103.046875 L 45.09375 108.074219 "/>
<path style=" stroke:none;fill-rule:nonzero;fill:rgb(100%,100%,100%);fill-opacity:1;" d="M 42.808594 121.972656 L 43.589844 107.242188 L 45.09375 108.074219 L 44.363281 121.789062 L 42.808594 121.972656 "/>
<path style=" stroke:none;fill-rule:nonzero;fill:rgb(100%,100%,100%);fill-opacity:1;" d="M 34.460938 124.496094 L 34.28125 122.960938 L 38.023438 122.527344 L 38.214844 124.0625 L 34.460938 124.496094 "/>
<path style=" stroke:none;fill-rule:nonzero;fill:rgb(100%,100%,100%);fill-opacity:1;" d="M 38.214844 124.0625 L 38.023438 122.527344 L 42.808594 121.972656 L 42.722656 123.535156 L 38.214844 124.0625 "/>
<path style=" stroke:none;fill-rule:nonzero;fill:rgb(100%,100%,100%);fill-opacity:1;" d="M 50.554688 122.625 L 51.058594 121.011719 L 54.722656 120.585938 L 54.902344 122.121094 L 50.554688 122.625 "/>
<path style=" stroke:none;fill-rule:nonzero;fill:rgb(100%,100%,100%);fill-opacity:1;" d="M 44.28125 123.355469 L 44.363281 121.789062 L 51.058594 121.011719 L 50.554688 122.625 L 44.28125 123.355469 "/>
<path style=" stroke:none;fill-rule:nonzero;fill:rgb(100%,100%,100%);fill-opacity:1;" d="M 42.722656 123.535156 L 42.808594 121.972656 L 44.363281 121.789062 L 44.28125 123.355469 L 42.722656 123.535156 "/>
<path style=" stroke:none;fill-rule:nonzero;fill:rgb(0%,0%,0%);fill-opacity:1;" d="M 92.128906 133.363281 L 89.75 109.699219 L 108.289062 104.941406 L 102.347656 133.363281 L 92.128906 133.363281 "/>
<path style=" stroke:none;fill-rule:nonzero;fill:rgb(100%,100%,100%);fill-opacity:1;" d="M 97.890625 138.753906 L 96.347656 138.671875 L 96.628906 133.363281 L 98.175781 133.363281 L 97.890625 138.753906 "/>
<path style=" stroke:none;fill-rule:nonzero;fill:rgb(100%,100%,100%);fill-opacity:1;" d="M 98.175781 133.363281 L 96.628906 133.363281 L 97.292969 120.933594 L 98.820312 121.269531 L 98.175781 133.363281 "/>
<path style=" stroke:none;fill-rule:nonzero;fill:rgb(100%,100%,100%);fill-opacity:1;" d="M 98.003906 107.582031 L 98.25 102.960938 L 99.792969 103.046875 L 99.570312 107.179688 L 98.003906 107.582031 "/>
<path style=" stroke:none;fill-rule:nonzero;fill:rgb(100%,100%,100%);fill-opacity:1;" d="M 98.902344 119.703125 L 97.375 119.371094 L 98.003906 107.582031 L 99.570312 107.179688 L 98.902344 119.703125 "/>
<path style=" stroke:none;fill-rule:nonzero;fill:rgb(100%,100%,100%);fill-opacity:1;" d="M 108.125 123.296875 L 104.613281 122.53125 L 104.929688 121.019531 L 108.453125 121.785156 L 108.125 123.296875 "/>
<path style=" stroke:none;fill-rule:nonzero;fill:rgb(100%,100%,100%);fill-opacity:1;" d="M 104.613281 122.53125 L 98.820312 121.269531 L 98.902344 119.703125 L 104.929688 121.019531 L 104.613281 122.53125 "/>
<path style=" stroke:none;fill-rule:nonzero;fill:rgb(100%,100%,100%);fill-opacity:1;" d="M 90.734375 119.503906 L 84.117188 118.0625 L 84.449219 116.554688 L 90.574219 117.890625 L 90.734375 119.503906 "/>
<path style=" stroke:none;fill-rule:nonzero;fill:rgb(100%,100%,100%);fill-opacity:1;" d="M 97.292969 120.933594 L 90.734375 119.503906 L 90.574219 117.890625 L 97.375 119.371094 L 97.292969 120.933594 "/>
<path style=" stroke:none;fill-rule:nonzero;fill:rgb(100%,100%,100%);fill-opacity:1;" d="M 98.820312 121.269531 L 97.292969 120.933594 L 97.375 119.371094 L 98.902344 119.703125 L 98.820312 121.269531 "/>
<path style=" stroke:none;fill-rule:nonzero;fill:rgb(0%,0%,0%);fill-opacity:1;" d="M 106.890625 91.921875 L 106.859375 78.929688 L 117.191406 77.332031 L 112.445312 92.46875 L 106.890625 91.921875 "/>
<path style=" stroke:none;fill-rule:nonzero;fill:rgb(100%,100%,100%);fill-opacity:1;" d="M 109.734375 95.164062 L 108.902344 95.035156 L 109.339844 92.160156 L 110.179688 92.246094 L 109.734375 95.164062 M 111.457031 78.21875 L 111.835938 75.71875 L 112.671875 75.847656 L 112.332031 78.082031 L 111.457031 78.21875 "/>
<path style=" stroke:none;fill-rule:nonzero;fill:rgb(100%,100%,100%);fill-opacity:1;" d="M 110.179688 92.246094 L 109.339844 92.160156 L 110.359375 85.441406 L 111.175781 85.703125 L 110.179688 92.246094 M 111.304688 84.859375 L 110.488281 84.59375 L 111.457031 78.21875 L 112.332031 78.082031 L 111.304688 84.859375 "/>
<path style=" stroke:none;fill-rule:nonzero;fill:rgb(100%,100%,100%);fill-opacity:1;" d="M 116.125 87.300781 L 114.253906 86.699219 L 114.507812 85.890625 L 116.382812 86.5 L 116.125 87.300781 M 106.871094 84.3125 L 103.351562 83.175781 L 103.609375 82.371094 L 106.871094 83.425781 L 106.871094 84.3125 "/>
<path style=" stroke:none;fill-rule:nonzero;fill:rgb(100%,100%,100%);fill-opacity:1;" d="M 114.253906 86.699219 L 111.175781 85.703125 L 111.304688 84.859375 L 114.507812 85.890625 L 114.253906 86.699219 M 110.359375 85.441406 L 106.871094 84.3125 L 106.871094 83.425781 L 110.488281 84.59375 L 110.359375 85.441406 "/>
<path style=" stroke:none;fill-rule:nonzero;fill:rgb(100%,100%,100%);fill-opacity:1;" d="M 111.175781 85.703125 L 110.359375 85.441406 L 110.488281 84.59375 L 111.304688 84.859375 L 111.175781 85.703125 "/>
<path style=" stroke:none;fill-rule:nonzero;fill:rgb(0%,0%,0%);fill-opacity:1;" d="M 34.667969 88.269531 L 31.027344 75.796875 L 40.507812 71.386719 L 40.15625 87.246094 L 34.667969 88.269531 "/>
<path style=" stroke:none;fill-rule:nonzero;fill:rgb(100%,100%,100%);fill-opacity:1;" d="M 37.464844 90.699219 L 37.085938 87.820312 L 37.914062 87.664062 L 38.300781 90.589844 L 37.464844 90.699219 "/>
<path style=" stroke:none;fill-rule:nonzero;fill:rgb(100%,100%,100%);fill-opacity:1;" d="M 37.085938 87.820312 L 36.199219 81.078125 L 37.054688 81.105469 L 37.914062 87.664062 L 37.085938 87.820312 "/>
<path style=" stroke:none;fill-rule:nonzero;fill:rgb(100%,100%,100%);fill-opacity:1;" d="M 35.25 73.835938 L 34.917969 71.332031 L 35.753906 71.21875 L 36.050781 73.460938 L 35.25 73.835938 "/>
<path style=" stroke:none;fill-rule:nonzero;fill:rgb(100%,100%,100%);fill-opacity:1;" d="M 36.941406 80.257812 L 36.089844 80.230469 L 35.25 73.835938 L 36.050781 73.460938 L 36.941406 80.257812 "/>
<path style=" stroke:none;fill-rule:nonzero;fill:rgb(100%,100%,100%);fill-opacity:1;" d="M 42.253906 81.265625 L 40.289062 81.203125 L 40.308594 80.359375 L 42.28125 80.417969 L 42.253906 81.265625 "/>
<path style=" stroke:none;fill-rule:nonzero;fill:rgb(100%,100%,100%);fill-opacity:1;" d="M 40.289062 81.203125 L 37.054688 81.105469 L 36.941406 80.257812 L 40.308594 80.359375 L 40.289062 81.203125 "/>
<path style=" stroke:none;fill-rule:nonzero;fill:rgb(100%,100%,100%);fill-opacity:1;" d="M 32.535156 80.964844 L 28.839844 80.851562 L 28.863281 80.007812 L 32.289062 80.113281 L 32.535156 80.964844 "/>
<path style=" stroke:none;fill-rule:nonzero;fill:rgb(100%,100%,100%);fill-opacity:1;" d="M 36.199219 81.078125 L 32.535156 80.964844 L 32.289062 80.113281 L 36.089844 80.230469 L 36.199219 81.078125 "/>
<path style=" stroke:none;fill-rule:nonzero;fill:rgb(100%,100%,100%);fill-opacity:1;" d="M 37.054688 81.105469 L 36.199219 81.078125 L 36.089844 80.230469 L 36.941406 80.257812 L 37.054688 81.105469 "/>
<path style=" stroke:none;fill-rule:nonzero;fill:rgb(0%,0%,0%);fill-opacity:1;" d="M 59.035156 101.289062 L 63.128906 113.265625 L 81.191406 114.691406 L 84.285156 96.328125 L 59.035156 101.289062 "/>
<path style=" stroke:none;fill-rule:nonzero;fill:rgb(100%,100%,100%);fill-opacity:1;" d="M 72.433594 118.972656 L 70.886719 118.972656 L 70.886719 113.878906 L 72.433594 114 L 72.433594 118.972656 "/>
<path style=" stroke:none;fill-rule:nonzero;fill:rgb(100%,100%,100%);fill-opacity:1;" d="M 72.433594 114 L 70.886719 113.878906 L 70.886719 108.710938 L 72.433594 108.824219 L 72.433594 114 "/>
<path style=" stroke:none;fill-rule:nonzero;fill:rgb(100%,100%,100%);fill-opacity:1;" d="M 70.886719 98.960938 L 70.886719 94.792969 L 72.433594 94.792969 L 72.433594 98.65625 L 70.886719 98.960938 "/>
<path style=" stroke:none;fill-rule:nonzero;fill:rgb(100%,100%,100%);fill-opacity:1;" d="M 72.433594 107.273438 L 70.886719 107.160156 L 70.886719 98.960938 L 72.433594 98.65625 L 72.433594 107.273438 "/>
<path style=" stroke:none;fill-rule:nonzero;fill:rgb(100%,100%,100%);fill-opacity:1;" d="M 85.417969 109.753906 L 82.066406 109.515625 L 82.324219 107.984375 L 85.527344 108.214844 L 85.417969 109.753906 "/>
<path style=" stroke:none;fill-rule:nonzero;fill:rgb(100%,100%,100%);fill-opacity:1;" d="M 82.066406 109.515625 L 72.433594 108.824219 L 72.433594 107.273438 L 82.324219 107.984375 L 82.066406 109.515625 "/>
<path style=" stroke:none;fill-rule:nonzero;fill:rgb(100%,100%,100%);fill-opacity:1;" d="M 61.335938 108.027344 L 56.183594 107.65625 L 56.292969 106.113281 L 60.796875 106.433594 L 61.335938 108.027344 "/>
<path style=" stroke:none;fill-rule:nonzero;fill:rgb(100%,100%,100%);fill-opacity:1;" d="M 70.886719 108.710938 L 61.335938 108.027344 L 60.796875 106.433594 L 70.886719 107.160156 L 70.886719 108.710938 "/>
<path style=" stroke:none;fill-rule:nonzero;fill:rgb(100%,100%,100%);fill-opacity:1;" d="M 72.433594 108.824219 L 70.886719 108.710938 L 70.886719 107.160156 L 72.433594 107.273438 L 72.433594 108.824219 "/>
<path style=" stroke:none;fill-rule:nonzero;fill:rgb(100%,100%,100%);fill-opacity:1;" d="M 34.632812 55.023438 L 33.804688 54.089844 L 32.789062 36.863281 L 33.53125 36.394531 L 34.632812 55.023438 "/>
<path style=" stroke:none;fill-rule:nonzero;fill:rgb(100%,100%,100%);fill-opacity:1;" d="M 33.984375 57.136719 L 33.832031 54.570312 L 34.660156 55.503906 L 34.753906 57.089844 L 33.984375 57.136719 "/>
<path style=" stroke:none;fill-rule:nonzero;fill:rgb(100%,100%,100%);fill-opacity:1;" d="M 34.648438 55.265625 L 33.820312 54.328125 L 33.804688 54.089844 L 34.632812 55.023438 L 34.648438 55.265625 "/>
<path style=" stroke:none;fill-rule:nonzero;fill:rgb(100%,100%,100%);fill-opacity:1;" d="M 34.660156 55.503906 L 33.832031 54.570312 L 33.820312 54.328125 L 34.648438 55.265625 L 34.660156 55.503906 "/>
<path style=" stroke:none;fill-rule:nonzero;fill:rgb(100%,100%,100%);fill-opacity:1;" d="M 32.734375 35.984375 L 32.535156 32.621094 L 33.277344 32.039062 L 33.480469 35.511719 L 32.734375 35.984375 M 32.480469 31.679688 L 32.421875 30.652344 L 33.214844 31.035156 L 33.222656 31.097656 L 32.480469 31.679688 M 33.164062 30.152344 L 32.367188 29.765625 L 32.320312 28.972656 L 33.089844 28.925781 L 33.164062 30.152344 "/>
<path style=" stroke:none;fill-rule:nonzero;fill:rgb(100%,100%,100%);fill-opacity:1;" d="M 40.34375 34.480469 L 38.199219 33.445312 L 38.96875 32.957031 L 40.679688 33.785156 L 40.34375 34.480469 M 37.378906 33.046875 L 34.042969 31.4375 L 34.71875 30.902344 L 38.148438 32.5625 L 37.378906 33.046875 M 33.269531 31.0625 L 33.214844 31.035156 L 33.164062 30.152344 L 33.945312 30.53125 L 33.269531 31.0625 M 32.421875 30.652344 L 29.230469 29.109375 L 29.953125 28.601562 L 32.367188 29.765625 L 32.421875 30.652344 M 28.433594 28.726562 L 26.214844 27.652344 L 26.835938 27.09375 L 29.160156 28.214844 L 28.433594 28.726562 M 25.464844 27.289062 L 23.269531 26.230469 L 23.605469 25.535156 L 26.085938 26.730469 L 25.464844 27.289062 "/>
<path style=" stroke:none;fill-rule:nonzero;fill:rgb(100%,100%,100%);fill-opacity:1;" d="M 33.214844 31.035156 L 32.421875 30.652344 L 32.367188 29.765625 L 33.164062 30.152344 L 33.214844 31.035156 "/>
<path style=" stroke:none;fill-rule:nonzero;fill:rgb(100%,100%,100%);fill-opacity:1;" d="M 22.269531 31.195312 L 21.753906 30.621094 L 25.464844 27.289062 L 26.214844 27.652344 L 22.269531 31.195312 M 26.835938 27.09375 L 26.085938 26.730469 L 28.578125 24.492188 L 29.097656 25.066406 L 26.835938 27.09375 "/>
<path style=" stroke:none;fill-rule:nonzero;fill:rgb(100%,100%,100%);fill-opacity:1;" d="M 26.214844 27.652344 L 25.464844 27.289062 L 26.085938 26.730469 L 26.835938 27.09375 L 26.214844 27.652344 "/>
<path style=" stroke:none;fill-rule:nonzero;fill:rgb(100%,100%,100%);fill-opacity:1;" d="M 24.609375 32.34375 L 24.167969 31.710938 L 28.433594 28.726562 L 29.230469 29.109375 L 24.609375 32.34375 M 29.953125 28.601562 L 29.160156 28.214844 L 33.316406 25.308594 L 33.757812 25.941406 L 29.953125 28.601562 "/>
<path style=" stroke:none;fill-rule:nonzero;fill:rgb(100%,100%,100%);fill-opacity:1;" d="M 29.230469 29.109375 L 28.433594 28.726562 L 29.160156 28.214844 L 29.953125 28.601562 L 29.230469 29.109375 "/>
<path style=" stroke:none;fill-rule:nonzero;fill:rgb(100%,100%,100%);fill-opacity:1;" d="M 27.714844 36.40625 L 27.238281 35.796875 L 32.480469 31.679688 L 32.535156 32.621094 L 27.714844 36.40625 M 33.277344 32.039062 L 33.222656 31.097656 L 33.269531 31.0625 L 34.042969 31.4375 L 33.277344 32.039062 M 34.71875 30.902344 L 33.945312 30.53125 L 38.0625 27.296875 L 38.539062 27.90625 L 34.71875 30.902344 "/>
<path style=" stroke:none;fill-rule:nonzero;fill:rgb(100%,100%,100%);fill-opacity:1;" d="M 32.535156 32.621094 L 32.480469 31.679688 L 33.222656 31.097656 L 33.277344 32.039062 L 32.535156 32.621094 "/>
<path style=" stroke:none;fill-rule:nonzero;fill:rgb(100%,100%,100%);fill-opacity:1;" d="M 34.042969 31.4375 L 33.269531 31.0625 L 33.945312 30.53125 L 34.71875 30.902344 L 34.042969 31.4375 "/>
<path style=" stroke:none;fill-rule:nonzero;fill:rgb(100%,100%,100%);fill-opacity:1;" d="M 31.234375 37.847656 L 30.820312 37.191406 L 32.734375 35.984375 L 32.789062 36.863281 L 31.234375 37.847656 M 33.53125 36.394531 L 33.480469 35.511719 L 37.378906 33.046875 L 38.199219 33.445312 L 33.53125 36.394531 M 38.96875 32.957031 L 38.148438 32.5625 L 44.386719 28.621094 L 44.796875 29.277344 L 38.96875 32.957031 "/>
<path style=" stroke:none;fill-rule:nonzero;fill:rgb(100%,100%,100%);fill-opacity:1;" d="M 32.789062 36.863281 L 32.734375 35.984375 L 33.480469 35.511719 L 33.53125 36.394531 L 32.789062 36.863281 "/>
<path style=" stroke:none;fill-rule:nonzero;fill:rgb(100%,100%,100%);fill-opacity:1;" d="M 38.199219 33.445312 L 37.378906 33.046875 L 38.148438 32.5625 L 38.96875 32.957031 L 38.199219 33.445312 "/>
<path style=" stroke:none;fill-rule:nonzero;fill:rgb(100%,100%,100%);fill-opacity:1;" d="M 101.417969 88.695312 L 97.632812 86.269531 L 97.773438 85.535156 L 96.78125 85.347656 L 96.71875 85.679688 L 92.097656 82.71875 L 92.285156 82.066406 L 91.3125 81.789062 L 91.210938 82.148438 L 87.269531 79.625 L 87.433594 78.675781 L 87.5 78.570312 L 101.605469 87.617188 L 101.511719 88.546875 L 101.417969 88.695312 "/>
<path style=" stroke:none;fill-rule:nonzero;fill:rgb(100%,100%,100%);fill-opacity:1;" d="M 101.867188 87.996094 L 101.886719 87.796875 L 101.960938 87.84375 L 101.867188 87.996094 M 87 79.449219 L 86.957031 79.421875 L 87.023438 79.316406 L 87 79.449219 "/>
<path style=" stroke:none;fill-rule:nonzero;fill:rgb(100%,100%,100%);fill-opacity:1;" d="M 101.511719 88.546875 L 101.605469 87.617188 L 101.746094 87.707031 L 101.6875 88.269531 L 101.511719 88.546875 M 87.269531 79.625 L 87.136719 79.535156 L 87.226562 78.996094 L 87.433594 78.675781 L 87.269531 79.625 "/>
<path style=" stroke:none;fill-rule:nonzero;fill:rgb(100%,100%,100%);fill-opacity:1;" d="M 101.6875 88.269531 L 101.746094 87.707031 L 101.886719 87.796875 L 101.867188 87.996094 L 101.6875 88.269531 M 87.136719 79.535156 L 87 79.449219 L 87.023438 79.316406 L 87.226562 78.996094 L 87.136719 79.535156 "/>
<path style=" stroke:none;fill-rule:nonzero;fill:rgb(100%,100%,100%);fill-opacity:1;" d="M 44.003906 90.253906 L 43.984375 90.210938 L 43.882812 89.199219 L 57.96875 82.742188 L 58.007812 82.832031 L 58.0625 83.8125 L 54.183594 85.589844 L 54.101562 85.34375 L 53.144531 85.664062 L 53.257812 86.011719 L 48.441406 88.21875 L 48.464844 87.921875 L 47.457031 87.847656 L 47.390625 88.699219 L 44.003906 90.253906 "/>
<path style=" stroke:none;fill-rule:nonzero;fill:rgb(100%,100%,100%);fill-opacity:1;" d="M 43.601562 89.378906 L 43.582031 89.335938 L 43.597656 89.328125 L 43.601562 89.378906 M 58.355469 83.675781 L 58.347656 83.570312 L 58.390625 83.660156 L 58.355469 83.675781 "/>
<path style=" stroke:none;fill-rule:nonzero;fill:rgb(100%,100%,100%);fill-opacity:1;" d="M 43.984375 90.210938 L 43.792969 89.792969 L 43.738281 89.265625 L 43.882812 89.199219 L 43.984375 90.210938 M 58.0625 83.8125 L 58.007812 82.832031 L 58.179688 83.203125 L 58.210938 83.742188 L 58.0625 83.8125 "/>
<path style=" stroke:none;fill-rule:nonzero;fill:rgb(100%,100%,100%);fill-opacity:1;" d="M 43.792969 89.792969 L 43.601562 89.378906 L 43.597656 89.328125 L 43.738281 89.265625 L 43.792969 89.792969 M 58.210938 83.742188 L 58.179688 83.203125 L 58.347656 83.570312 L 58.355469 83.675781 L 58.210938 83.742188 "/>
<path style=" stroke:none;fill-rule:nonzero;fill:rgb(100%,100%,100%);fill-opacity:1;" d="M 90.441406 88.5 L 89.550781 87.9375 L 91.210938 82.148438 L 92.097656 82.71875 L 90.441406 88.5 "/>
<path style=" stroke:none;fill-rule:nonzero;fill:rgb(100%,100%,100%);fill-opacity:1;" d="M 90.238281 89.21875 L 89.265625 88.9375 L 89.46875 88.234375 L 90.355469 88.796875 L 90.238281 89.21875 "/>
<path style=" stroke:none;fill-rule:nonzero;fill:rgb(100%,100%,100%);fill-opacity:1;" d="M 90.398438 88.648438 L 89.507812 88.085938 L 89.550781 87.9375 L 90.441406 88.5 L 90.398438 88.648438 "/>
<path style=" stroke:none;fill-rule:nonzero;fill:rgb(100%,100%,100%);fill-opacity:1;" d="M 90.355469 88.796875 L 89.46875 88.234375 L 89.507812 88.085938 L 90.398438 88.648438 L 90.355469 88.796875 "/>
<path style=" stroke:none;fill-rule:nonzero;fill:rgb(100%,100%,100%);fill-opacity:1;" d="M 92.097656 82.71875 L 91.210938 82.148438 L 91.3125 81.789062 L 92.285156 82.066406 L 92.097656 82.71875 "/>
<path style=" stroke:none;fill-rule:nonzero;fill:rgb(100%,100%,100%);fill-opacity:1;" d="M 96.488281 92.328125 L 95.570312 91.746094 L 96.71875 85.679688 L 97.632812 86.269531 L 96.488281 92.328125 "/>
<path style=" stroke:none;fill-rule:nonzero;fill:rgb(100%,100%,100%);fill-opacity:1;" d="M 96.210938 93.808594 L 95.214844 93.621094 L 95.511719 92.058594 L 96.429688 92.640625 L 96.210938 93.808594 "/>
<path style=" stroke:none;fill-rule:nonzero;fill:rgb(100%,100%,100%);fill-opacity:1;" d="M 96.460938 92.484375 L 95.542969 91.902344 L 95.570312 91.746094 L 96.488281 92.328125 L 96.460938 92.484375 "/>
<path style=" stroke:none;fill-rule:nonzero;fill:rgb(100%,100%,100%);fill-opacity:1;" d="M 96.429688 92.640625 L 95.511719 92.058594 L 95.542969 91.902344 L 96.460938 92.484375 L 96.429688 92.640625 "/>
<path style=" stroke:none;fill-rule:nonzero;fill:rgb(100%,100%,100%);fill-opacity:1;" d="M 97.632812 86.269531 L 96.71875 85.679688 L 96.78125 85.347656 L 97.773438 85.535156 L 97.632812 86.269531 "/>
<path style=" stroke:none;fill-rule:nonzero;fill:rgb(100%,100%,100%);fill-opacity:1;" d="M 47.109375 92.511719 L 47.390625 88.699219 L 48.441406 88.21875 L 48.144531 92.210938 L 47.109375 92.511719 "/>
<path style=" stroke:none;fill-rule:nonzero;fill:rgb(100%,100%,100%);fill-opacity:1;" d="M 48 94.195312 L 46.992188 94.121094 L 47.085938 92.828125 L 48.121094 92.527344 L 48 94.195312 "/>
<path style=" stroke:none;fill-rule:nonzero;fill:rgb(100%,100%,100%);fill-opacity:1;" d="M 47.097656 92.667969 L 47.109375 92.511719 L 48.144531 92.210938 L 48.136719 92.371094 L 47.097656 92.667969 "/>
<path style=" stroke:none;fill-rule:nonzero;fill:rgb(100%,100%,100%);fill-opacity:1;" d="M 47.085938 92.828125 L 47.097656 92.667969 L 48.136719 92.371094 L 48.121094 92.527344 L 47.085938 92.828125 "/>
<path style=" stroke:none;fill-rule:nonzero;fill:rgb(100%,100%,100%);fill-opacity:1;" d="M 47.390625 88.699219 L 47.457031 87.847656 L 48.464844 87.921875 L 48.441406 88.21875 L 47.390625 88.699219 "/>
<path style=" stroke:none;fill-rule:nonzero;fill:rgb(100%,100%,100%);fill-opacity:1;" d="M 54.6875 90.324219 L 53.257812 86.011719 L 54.183594 85.589844 L 55.660156 90.042969 L 54.6875 90.324219 "/>
<path style=" stroke:none;fill-rule:nonzero;fill:rgb(100%,100%,100%);fill-opacity:1;" d="M 55.128906 91.644531 L 54.78125 90.605469 L 55.753906 90.324219 L 56.085938 91.324219 L 55.128906 91.644531 "/>
<path style=" stroke:none;fill-rule:nonzero;fill:rgb(100%,100%,100%);fill-opacity:1;" d="M 54.734375 90.464844 L 54.6875 90.324219 L 55.660156 90.042969 L 55.707031 90.183594 L 54.734375 90.464844 "/>
<path style=" stroke:none;fill-rule:nonzero;fill:rgb(100%,100%,100%);fill-opacity:1;" d="M 54.78125 90.605469 L 54.734375 90.464844 L 55.707031 90.183594 L 55.753906 90.324219 L 54.78125 90.605469 "/>
<path style=" stroke:none;fill-rule:nonzero;fill:rgb(100%,100%,100%);fill-opacity:1;" d="M 53.257812 86.011719 L 53.144531 85.664062 L 54.101562 85.34375 L 54.183594 85.589844 L 53.257812 86.011719 "/>
</g>
</svg>
