<?xml version="1.0" standalone="no"?>
<!DOCTYPE svg PUBLIC "-//W3C//DTD SVG 20010904//EN"
 "http://www.w3.org/TR/2001/REC-SVG-20010904/DTD/svg10.dtd">
<svg version="1.0" xmlns="http://www.w3.org/2000/svg"
 width="352.000000pt" height="352.000000pt" viewBox="0 0 352.000000 352.000000"
 preserveAspectRatio="xMidYMid meet">

<g transform="translate(0.000000,352.000000) scale(0.100000,-0.100000)"
fill="#000000" stroke="none">
<path d="M1620 3509 c-211 -24 -390 -183 -445 -396 -28 -105 -17 -214 31 -330
l26 -61 -102 -139 c-56 -76 -114 -165 -130 -198 -60 -126 -60 -129 -60 -754 0
-314 -2 -571 -5 -571 -3 0 -23 9 -45 20 -22 11 -46 20 -55 20 -13 0 -15 70
-15 635 0 622 0 635 -20 655 -46 46 -109 13 -244 -130 -47 -50 -80 -98 -107
-154 -63 -131 -69 -185 -69 -608 l0 -370 29 -29 c27 -27 35 -29 102 -29 l73 0
-33 -24 c-43 -32 -87 -93 -106 -146 -20 -56 -20 -223 0 -279 32 -91 118 -177
198 -196 26 -7 27 -10 27 -66 0 -72 28 -112 79 -112 51 0 74 31 79 108 2 36 9
65 14 65 5 0 28 9 50 20 23 11 43 20 45 20 2 0 3 -94 3 -209 l0 -210 26 -20
c26 -21 36 -21 520 -21 l493 0 20 26 c21 26 21 36 21 508 0 264 3 511 6 548
l7 67 80 -40 c102 -52 283 -112 412 -138 128 -25 334 -45 402 -38 63 7 90 26
148 105 54 72 65 133 40 218 -32 109 -152 187 -305 197 -175 12 -376 84 -509
182 -127 94 -243 241 -315 397 -51 110 -67 183 -93 438 l-5 45 47 23 c102 49
208 180 246 301 25 82 27 213 3 291 -74 251 -309 409 -564 379z"/>
</g>
</svg>
