<?xml version="1.0" encoding="UTF-8" standalone="no"?>
<svg
   xmlns:dc="http://purl.org/dc/elements/1.1/"
   xmlns:cc="http://creativecommons.org/ns#"
   xmlns:rdf="http://www.w3.org/1999/02/22-rdf-syntax-ns#"
   xmlns:svg="http://www.w3.org/2000/svg"
   xmlns="http://www.w3.org/2000/svg"
   xmlns:sodipodi="http://sodipodi.sourceforge.net/DTD/sodipodi-0.dtd"
   xmlns:inkscape="http://www.inkscape.org/namespaces/inkscape"
   height="100px"
   width="100px"
   fill="#000000"
   version="1.1"
   x="0px"
   y="0px"
   viewBox="0 0 100 100"
   enable-background="new 0 0 100 100"
   xml:space="preserve"
   id="svg84"
   sodipodi:docname="hollywood-star.svg"
   inkscape:version="0.92.3 (2405546, 2018-03-11)"><metadata
     id="metadata90"><rdf:RDF><cc:Work
         rdf:about=""><dc:format>image/svg+xml</dc:format><dc:type
           rdf:resource="http://purl.org/dc/dcmitype/StillImage" /><dc:title></dc:title></cc:Work></rdf:RDF></metadata><defs
     id="defs88" /><sodipodi:namedview
     pagecolor="#ffffff"
     bordercolor="#666666"
     borderopacity="1"
     objecttolerance="10"
     gridtolerance="10"
     guidetolerance="10"
     inkscape:pageopacity="0"
     inkscape:pageshadow="2"
     inkscape:window-width="2495"
     inkscape:window-height="1056"
     id="namedview86"
     showgrid="false"
     inkscape:zoom="9.14"
     inkscape:cx="51.367615"
     inkscape:cy="50"
     inkscape:window-x="65"
     inkscape:window-y="24"
     inkscape:window-maximized="1"
     inkscape:current-layer="svg84" /><g
     id="g82"><path
       fill-rule="evenodd"
       clip-rule="evenodd"
       d="M83.999,42.789l-25.794-0.281L50,17.25l-8.205,25.258l-25.794,0.281L36.71,58.726   l-7.699,25.46L50,68.73l20.989,15.456L63.29,58.726L83.999,42.789z M50.024,63.965c-5.364,0-9.728-4.364-9.728-9.729   c0-5.364,4.364-9.729,9.728-9.729c5.365,0,9.729,4.365,9.729,9.729C59.753,59.601,55.389,63.965,50.024,63.965z"
       id="path76" /><path
       fill-rule="evenodd"
       clip-rule="evenodd"
       d="M95.012,39.528l-34.126-0.371L50,5.642L39.114,39.158L4.988,39.528l27.398,21.085   L22.181,94.357L50,73.873l27.819,20.484L67.614,60.613L95.012,39.528z M73.32,87.486L50,70.314L26.68,87.487L35.235,59.2   l-22.93-17.646l28.561-0.312L50,13.12l9.135,28.122l28.561,0.312L64.765,59.2L73.32,87.486z"
       id="path78" /></g><circle
     id="path94"
     cx="49.398251"
     cy="53.774616"
     r="11.214442" /></svg>