<?xml version="1.0" standalone="no"?>
<!DOCTYPE svg PUBLIC "-//W3C//DTD SVG 20010904//EN"
 "http://www.w3.org/TR/2001/REC-SVG-20010904/DTD/svg10.dtd">
<svg version="1.0" xmlns="http://www.w3.org/2000/svg"
 width="121.000000pt" height="121.000000pt" viewBox="0 0 121.000000 121.000000"
 preserveAspectRatio="xMidYMid meet">

<g transform="translate(0.000000,121.000000) scale(0.100000,-0.100000)"
fill="#000000" stroke="none">
<path d="M359 1177 c-19 -7 -46 -20 -58 -29 -28 -19 -71 -77 -71 -95 0 -41
221 28 273 85 18 20 18 21 -2 31 -33 18 -104 22 -142 8z"/>
<path d="M508 1122 c-21 -15 -38 -31 -38 -35 0 -9 24 4 60 32 38 30 20 33 -22
3z"/>
<path d="M566 1112 c-13 -21 -118 -84 -171 -102 -31 -11 -82 -22 -115 -26 -66
-7 -70 -13 -49 -73 10 -28 15 -31 56 -31 44 0 81 -13 95 -34 14 -20 8 -25 -34
-28 l-43 -4 37 -17 c144 -66 305 63 276 222 -9 49 -42 109 -52 93z m-207 -188
c-9 -11 -15 -12 -25 -3 -11 9 -12 15 -3 25 9 11 15 12 25 3 11 -9 12 -15 3
-25z"/>
<path d="M362 1049 c-18 -6 -59 -14 -90 -18 l-57 -9 48 -1 c54 -1 137 17 137
30 0 5 -1 9 -2 8 -2 0 -18 -5 -36 -10z"/>
<path d="M215 1000 c-7 -11 35 -11 80 0 26 7 23 8 -22 9 -28 0 -55 -3 -58 -9z"/>
<path d="M582 840 c-32 -36 -56 -53 -87 -63 -40 -11 -64 -36 -252 -251 -243
-279 -246 -281 -238 -320 8 -43 23 -56 66 -56 41 0 57 15 186 165 179 209 262
300 272 298 6 -2 13 9 17 25 19 83 27 103 51 121 37 30 79 27 114 -8 34 -34
34 -46 9 -166 -10 -49 -18 -90 -17 -90 2 -1 98 -75 111 -86 5 -4 -23 -23 -61
-42 l-69 -35 4 35 c3 20 0 38 -7 42 -8 5 -4 42 14 131 30 148 31 174 5 200
-26 26 -81 26 -103 2 -10 -11 -28 -74 -43 -148 -14 -71 -32 -132 -39 -137 -8
-4 -16 -20 -20 -37 -4 -19 -19 -37 -41 -50 -19 -12 -34 -26 -34 -31 0 -5 -54
-36 -120 -69 -120 -60 -140 -78 -140 -124 0 -27 41 -66 72 -66 10 0 72 27 138
60 66 33 120 56 120 50 0 -6 -11 -16 -25 -22 -39 -18 -35 -70 9 -114 l35 -35
321 3 322 3 29 33 c67 75 9 192 -96 192 l-27 0 39 38 c110 107 96 202 -54 358
-115 119 -287 229 -376 239 -40 5 -44 4 -85 -45z m288 -129 c0 -27 -19 -36
-37 -18 -18 18 -9 37 18 37 12 0 19 -7 19 -19z m41 -54 c-13 -13 -26 -3 -16
12 3 6 11 8 17 5 6 -4 6 -10 -1 -17z m-64 -23 c-9 -9 -28 6 -21 18 4 6 10 6
17 -1 6 -6 8 -13 4 -17z m-207 1 c0 -8 -7 -15 -15 -15 -8 0 -15 7 -15 15 0 8
7 15 15 15 8 0 15 -7 15 -15z m20 -70 c0 -8 -7 -15 -15 -15 -8 0 -15 7 -15 15
0 8 7 15 15 15 8 0 15 -7 15 -15z m-380 -91 c0 -8 -5 -12 -10 -9 -6 4 -8 11
-5 16 9 14 15 11 15 -7z m10 -54 c0 -5 -4 -10 -10 -10 -5 0 -10 5 -10 10 0 6
5 10 10 10 6 0 10 -4 10 -10z m318 -11 c58 -20 62 -22 56 -47 -10 -48 -13 -52
-31 -46 -16 5 -16 4 1 -10 28 -23 9 -20 -31 5 -19 12 -36 19 -39 16 -3 -3 8
-13 24 -21 47 -24 46 -32 -5 -62 -30 -17 -48 -23 -51 -16 -2 7 -8 12 -13 12
-4 0 -6 -7 -3 -15 4 -8 3 -15 0 -15 -6 0 -66 115 -66 127 0 4 14 -14 30 -42
16 -27 30 -44 30 -36 0 7 -10 29 -21 48 l-21 34 21 23 c11 12 21 28 21 34 0
16 20 15 65 -4 20 -8 40 -13 43 -10 8 8 3 11 -48 29 -25 8 -40 16 -34 16 5 1
38 -8 72 -20z m-370 -11 c-2 -13 -10 -23 -18 -23 -8 0 -16 10 -18 23 -3 17 2
22 18 22 16 0 21 -5 18 -22z"/>
</g>
</svg>
