<?xml version="1.0" encoding="UTF-8"?>
<svg xmlns="http://www.w3.org/2000/svg" xmlns:xlink="http://www.w3.org/1999/xlink" width="144pt" height="143.999998pt" viewBox="0 0 144 143.999998" version="1.2">
<defs>
<clipPath id="clip1">
  <path d="M 72 34 L 142 34 L 142 134.59375 L 72 134.59375 Z M 72 34 "/>
</clipPath>
<clipPath id="clip2">
  <path d="M 2 33 L 73 33 L 73 134.59375 L 2 134.59375 Z M 2 33 "/>
</clipPath>
<clipPath id="clip3">
  <path d="M 24 4.84375 L 59 4.84375 L 59 40 L 24 40 Z M 24 4.84375 "/>
</clipPath>
</defs>
<g id="surface1">
<g clip-path="url(#clip1)" clip-rule="nonzero">
<path style=" stroke:none;fill-rule:nonzero;fill:rgb(100%,100%,100%);fill-opacity:1;" d="M 111.34375 88.027344 C 110.363281 87.636719 109.398438 87.011719 108.492188 86.140625 L 74.925781 53.691406 C 70.9375 49.839844 72.140625 45.886719 77.597656 44.90625 L 134.71875 34.644531 C 140.171875 33.664062 142.675781 36.953125 140.277344 41.949219 L 120.097656 84.054688 C 119.5 85.300781 118.726562 86.292969 117.84375 87.023438 C 117.996094 91.644531 118.273438 97.121094 118.746094 99.757812 C 119.382812 103.304688 122.144531 111.542969 123.726562 116.117188 L 138.796875 125.554688 C 140.214844 126.929688 139.789062 128.339844 137.84375 128.6875 L 107.382812 134.160156 C 105.4375 134.507812 104.546875 133.335938 105.398438 131.554688 L 116.140625 117.597656 C 115.878906 112.804688 115.335938 104.050781 114.695312 100.480469 C 114.21875 97.824219 112.683594 92.472656 111.34375 88.027344 Z M 111.34375 88.027344 "/>
</g>
<path style=" stroke:none;fill-rule:nonzero;fill:rgb(0%,0%,0%);fill-opacity:1;" d="M 130.828125 50.160156 L 117.980469 76.964844 C 115.921875 81.261719 111.433594 82.066406 108.007812 78.753906 L 86.636719 58.097656 Z M 130.828125 50.160156 "/>
<path style=" stroke:none;fill-rule:nonzero;fill:rgb(100%,100%,100%);fill-opacity:1;" d="M 115.425781 73.8125 L 125.136719 26.222656 C 125.273438 25.542969 125.941406 25.101562 126.621094 25.242188 C 127.300781 25.378906 127.738281 26.046875 127.601562 26.726562 C 127.597656 26.746094 127.589844 26.769531 127.585938 26.789062 Z M 115.425781 73.8125 "/>
<path style=" stroke:none;fill-rule:nonzero;fill:rgb(100%,100%,100%);fill-opacity:1;" d="M 122.355469 62.164062 C 122.355469 62.445312 122.328125 62.722656 122.273438 62.996094 C 122.21875 63.273438 122.136719 63.539062 122.03125 63.796875 C 121.921875 64.058594 121.792969 64.300781 121.636719 64.535156 C 121.480469 64.769531 121.304688 64.984375 121.105469 65.183594 C 120.90625 65.378906 120.691406 65.558594 120.457031 65.710938 C 120.226562 65.867188 119.980469 66 119.722656 66.105469 C 119.460938 66.214844 119.195312 66.292969 118.921875 66.347656 C 118.648438 66.402344 118.371094 66.429688 118.089844 66.429688 C 117.808594 66.429688 117.53125 66.402344 117.257812 66.347656 C 116.984375 66.292969 116.714844 66.214844 116.457031 66.105469 C 116.199219 66 115.953125 65.867188 115.71875 65.710938 C 115.488281 65.558594 115.273438 65.378906 115.074219 65.183594 C 114.875 64.984375 114.699219 64.769531 114.542969 64.535156 C 114.386719 64.300781 114.257812 64.058594 114.148438 63.796875 C 114.042969 63.539062 113.960938 63.273438 113.90625 62.996094 C 113.851562 62.722656 113.824219 62.445312 113.824219 62.164062 C 113.824219 61.886719 113.851562 61.609375 113.90625 61.332031 C 113.960938 61.058594 114.042969 60.792969 114.148438 60.53125 C 114.257812 60.273438 114.386719 60.027344 114.542969 59.796875 C 114.699219 59.5625 114.875 59.347656 115.074219 59.148438 C 115.273438 58.949219 115.488281 58.773438 115.71875 58.617188 C 115.953125 58.464844 116.199219 58.332031 116.457031 58.222656 C 116.714844 58.117188 116.984375 58.035156 117.257812 57.980469 C 117.53125 57.925781 117.808594 57.898438 118.089844 57.898438 C 118.371094 57.898438 118.648438 57.925781 118.921875 57.980469 C 119.195312 58.035156 119.460938 58.117188 119.722656 58.222656 C 119.980469 58.332031 120.226562 58.464844 120.457031 58.617188 C 120.691406 58.773438 120.90625 58.949219 121.105469 59.148438 C 121.304688 59.347656 121.480469 59.5625 121.636719 59.796875 C 121.792969 60.027344 121.921875 60.273438 122.03125 60.53125 C 122.136719 60.792969 122.21875 61.058594 122.273438 61.332031 C 122.328125 61.609375 122.355469 61.886719 122.355469 62.164062 Z M 122.355469 62.164062 "/>
<path style=" stroke:none;fill-rule:nonzero;fill:rgb(100%,100%,100%);fill-opacity:1;" d="M 124.40625 53.984375 C 124.40625 54.265625 124.378906 54.542969 124.324219 54.820312 C 124.269531 55.09375 124.1875 55.359375 124.082031 55.617188 C 123.972656 55.878906 123.84375 56.125 123.6875 56.355469 C 123.53125 56.589844 123.355469 56.804688 123.15625 57.003906 C 122.960938 57.199219 122.742188 57.378906 122.511719 57.53125 C 122.277344 57.6875 122.03125 57.820312 121.773438 57.925781 C 121.515625 58.035156 121.25 58.117188 120.972656 58.171875 C 120.699219 58.226562 120.421875 58.253906 120.140625 58.253906 C 119.863281 58.253906 119.585938 58.226562 119.308594 58.171875 C 119.035156 58.117188 118.769531 58.035156 118.507812 57.925781 C 118.25 57.820312 118.003906 57.6875 117.773438 57.53125 C 117.539062 57.378906 117.324219 57.199219 117.125 57.003906 C 116.925781 56.804688 116.75 56.589844 116.59375 56.355469 C 116.441406 56.125 116.308594 55.878906 116.203125 55.617188 C 116.09375 55.359375 116.011719 55.09375 115.957031 54.820312 C 115.902344 54.542969 115.875 54.265625 115.875 53.984375 C 115.875 53.707031 115.902344 53.429688 115.957031 53.152344 C 116.011719 52.878906 116.09375 52.613281 116.203125 52.355469 C 116.308594 52.09375 116.441406 51.847656 116.59375 51.617188 C 116.75 51.382812 116.925781 51.167969 117.125 50.96875 C 117.324219 50.773438 117.539062 50.59375 117.773438 50.4375 C 118.003906 50.285156 118.25 50.152344 118.507812 50.046875 C 118.769531 49.9375 119.035156 49.855469 119.308594 49.800781 C 119.585938 49.746094 119.863281 49.71875 120.140625 49.71875 C 120.421875 49.71875 120.699219 49.746094 120.972656 49.800781 C 121.25 49.855469 121.515625 49.9375 121.773438 50.046875 C 122.03125 50.152344 122.277344 50.285156 122.511719 50.4375 C 122.742188 50.59375 122.960938 50.773438 123.15625 50.96875 C 123.355469 51.167969 123.53125 51.382812 123.6875 51.617188 C 123.84375 51.847656 123.976562 52.09375 124.082031 52.355469 C 124.1875 52.613281 124.269531 52.878906 124.324219 53.152344 C 124.378906 53.429688 124.40625 53.707031 124.40625 53.984375 Z M 124.40625 53.984375 "/>
<g clip-path="url(#clip2)" clip-rule="nonzero">
<path style=" stroke:none;fill-rule:nonzero;fill:rgb(100%,100%,100%);fill-opacity:1;" d="M 32.167969 87.867188 C 33.167969 87.519531 34.160156 86.9375 35.097656 86.105469 L 70.027344 55.125 C 74.171875 51.445312 73.140625 47.445312 67.734375 46.230469 L 11.101562 33.53125 C 5.695312 32.320312 3.054688 35.496094 5.234375 40.59375 L 23.59375 83.523438 C 24.136719 84.792969 24.867188 85.820312 25.71875 86.585938 C 25.367188 91.199219 24.859375 96.65625 24.273438 99.269531 C 23.484375 102.785156 20.371094 110.898438 18.59375 115.402344 L 3.132812 124.1875 C 1.65625 125.496094 2.023438 126.921875 3.949219 127.355469 L 34.152344 134.128906 C 36.078125 134.558594 37.019531 133.425781 36.242188 131.613281 L 26.113281 117.207031 C 26.578125 112.429688 27.492188 103.707031 28.285156 100.167969 C 28.878906 97.53125 30.640625 92.253906 32.167969 87.867188 Z M 32.167969 87.867188 "/>
</g>
<path style=" stroke:none;fill-rule:nonzero;fill:rgb(0%,0%,0%);fill-opacity:1;" d="M 14.324219 49.199219 L 26.011719 76.53125 C 27.886719 80.910156 32.335938 81.910156 35.898438 78.746094 L 58.136719 59.023438 Z M 14.324219 49.199219 "/>
<path style=" stroke:none;fill-rule:nonzero;fill:rgb(100%,100%,100%);fill-opacity:1;" d="M 28.699219 73.492188 L 18.566406 25.992188 C 18.421875 25.3125 18.855469 24.644531 19.53125 24.5 C 20.210938 24.355469 20.878906 24.789062 21.027344 25.46875 C 21.03125 25.488281 21.035156 25.511719 21.035156 25.53125 Z M 28.699219 73.492188 "/>
<path style=" stroke:none;fill-rule:nonzero;fill:rgb(100%,100%,100%);fill-opacity:1;" d="M 29.707031 58.886719 C 31.285156 60.636719 31.140625 63.335938 29.394531 64.914062 C 27.644531 66.488281 24.945312 66.347656 23.371094 64.597656 C 21.792969 62.847656 21.933594 60.148438 23.683594 58.574219 C 25.433594 56.996094 28.128906 57.136719 29.707031 58.886719 Z M 29.707031 58.886719 "/>
<path style=" stroke:none;fill-rule:nonzero;fill:rgb(100%,100%,100%);fill-opacity:1;" d="M 28.003906 50.625 C 29.582031 52.375 29.441406 55.074219 27.691406 56.648438 C 25.941406 58.226562 23.246094 58.085938 21.667969 56.339844 C 20.09375 54.585938 20.234375 51.890625 21.984375 50.3125 C 23.734375 48.734375 26.429688 48.878906 28.003906 50.625 Z M 28.003906 50.625 "/>
<g clip-path="url(#clip3)" clip-rule="nonzero">
<path style=" stroke:none;fill-rule:nonzero;fill:rgb(100%,100%,100%);fill-opacity:1;" d="M 58.378906 21.984375 C 44.375 23.671875 43.003906 25.042969 41.316406 39.050781 C 39.625 25.042969 38.253906 23.671875 24.25 21.984375 C 38.253906 20.289062 39.625 18.917969 41.316406 4.910156 C 43.003906 18.917969 44.378906 20.289062 58.378906 21.984375 Z M 58.378906 21.984375 "/>
</g>
<path style=" stroke:none;fill-rule:nonzero;fill:rgb(100%,100%,100%);fill-opacity:1;" d="M 113.824219 112.691406 C 99.820312 114.382812 98.449219 115.753906 96.757812 129.757812 C 95.070312 115.753906 93.699219 114.382812 79.695312 112.691406 C 93.699219 111 95.070312 109.628906 96.757812 95.621094 C 98.449219 109.628906 99.820312 111 113.824219 112.691406 Z M 113.824219 112.691406 "/>
</g>
</svg>
