<?xml version="1.0" encoding="UTF-8"?>
<svg xmlns="http://www.w3.org/2000/svg" xmlns:xlink="http://www.w3.org/1999/xlink" width="144pt" height="143.999998pt" viewBox="0 0 144 143.999998" version="1.2">
<defs>
<clipPath id="clip1">
  <path d="M 15 14 L 129.542969 14 L 129.542969 129.847656 L 15 129.847656 Z M 15 14 "/>
</clipPath>
</defs>
<g id="surface1">
<g clip-path="url(#clip1)" clip-rule="nonzero">
<path style=" stroke:none;fill-rule:nonzero;fill:rgb(100%,100%,100%);fill-opacity:1;" d="M 76.445312 129.4375 C 76.445312 129.4375 76.449219 129.4375 76.445312 129.4375 L 68.890625 129.4375 C 49.753906 129.4375 29.980469 129.445312 24.359375 111.679688 C 18.691406 109.558594 15.101562 105.351562 15.101562 100.703125 C 15.101562 96.082031 18.597656 91.929688 24.140625 89.789062 C 24.546875 52.332031 38.292969 29.4375 63.015625 24.953125 L 63.015625 23.9375 C 63.015625 19.148438 67.765625 14.457031 72.597656 14.457031 C 77.433594 14.457031 82.179688 19.148438 82.179688 23.9375 L 82.179688 25.09375 C 106.5 29.855469 120.027344 52.699219 120.429688 89.785156 C 125.976562 91.925781 129.464844 96.078125 129.464844 100.695312 C 129.464844 105.34375 125.871094 109.554688 120.203125 111.675781 C 114.601562 129.4375 95.210938 129.4375 76.445312 129.4375 Z M 72.679688 124.648438 L 76.453125 124.648438 C 98.464844 124.648438 112.097656 123.609375 115.953125 109.191406 C 116.164062 108.394531 116.777344 107.757812 117.570312 107.515625 C 121.890625 106.199219 124.683594 103.511719 124.683594 100.6875 C 124.683594 97.832031 121.746094 95.066406 117.382812 93.789062 C 116.359375 93.488281 115.65625 92.554688 115.65625 91.496094 C 115.65625 70.367188 110.957031 34.222656 79.433594 29.464844 C 78.261719 29.292969 77.398438 28.285156 77.398438 27.101562 L 77.398438 23.933594 C 77.398438 21.777344 74.800781 19.242188 72.609375 19.242188 C 70.414062 19.242188 67.816406 21.777344 67.816406 23.933594 L 67.816406 27 C 67.816406 28.199219 66.929688 29.214844 65.742188 29.363281 C 33.707031 33.726562 28.925781 70.164062 28.925781 91.5 C 28.925781 92.566406 28.226562 93.5 27.199219 93.792969 C 22.832031 95.085938 19.898438 97.863281 19.898438 100.691406 C 19.898438 103.519531 22.691406 106.199219 27.015625 107.519531 C 27.804688 107.773438 28.414062 108.410156 28.628906 109.203125 C 32.484375 123.625 46.414062 124.664062 68.894531 124.664062 Z M 72.679688 124.648438 "/>
</g>
<path style=" stroke:none;fill-rule:nonzero;fill:rgb(100%,100%,100%);fill-opacity:1;" d="M 72.597656 43.265625 C 72.519531 43.265625 72.40625 43.257812 72.335938 43.25 C 71.058594 43.128906 70.085938 42.03125 70.148438 40.753906 C 70.207031 39.535156 71.15625 38.5625 72.355469 38.476562 L 72.359375 38.476562 C 72.359375 38.476562 72.359375 38.476562 72.363281 38.476562 C 72.367188 38.476562 72.367188 38.476562 72.371094 38.476562 L 72.390625 38.476562 C 72.390625 38.476562 72.398438 38.476562 72.398438 38.472656 C 72.398438 38.472656 72.402344 38.472656 72.40625 38.472656 L 72.425781 38.472656 C 72.425781 38.472656 72.425781 38.472656 72.429688 38.472656 L 72.453125 38.472656 C 72.453125 38.472656 72.453125 38.472656 72.460938 38.472656 C 72.460938 38.472656 72.460938 38.472656 72.464844 38.472656 C 72.464844 38.472656 72.464844 38.472656 72.46875 38.472656 C 72.46875 38.472656 72.472656 38.472656 72.476562 38.472656 C 73.800781 38.472656 74.949219 39.542969 74.949219 40.867188 C 74.949219 42.1875 73.953125 43.257812 72.632812 43.257812 Z M 72.597656 43.265625 "/>
<path style=" stroke:none;fill-rule:nonzero;fill:rgb(100%,100%,100%);fill-opacity:1;" d="M 92.132812 105.5 L 79.789062 105.5 C 77.015625 105.5 74.941406 104.664062 73.632812 103.007812 C 71.15625 99.917969 72.242188 95.210938 73.386719 90.234375 C 74.222656 86.617188 75.265625 82.128906 73.925781 80.433594 C 73.339844 79.71875 72.089844 79.339844 70.207031 79.339844 C 68.324219 79.339844 67.074219 79.710938 66.488281 80.433594 C 65.152344 82.128906 66.191406 86.617188 67.027344 90.234375 C 68.171875 95.210938 69.257812 99.910156 66.78125 103.007812 C 65.472656 104.664062 63.398438 105.5 60.625 105.5 L 53.070312 105.5 C 45.34375 105.5 39.058594 99.210938 39.058594 91.5 C 39.058594 70.226562 47.992188 38.542969 72.59375 38.476562 C 97.210938 38.558594 106.136719 70.226562 106.136719 91.5 C 106.136719 99.210938 99.855469 105.5 92.132812 105.5 Z M 70.203125 74.554688 C 73.617188 74.554688 76.128906 75.539062 77.675781 77.460938 C 80.445312 80.953125 79.230469 86.214844 78.058594 91.324219 C 77.292969 94.617188 76.347656 98.738281 77.375 100.035156 C 77.820312 100.585938 78.933594 100.710938 79.785156 100.710938 L 92.128906 100.710938 C 97.210938 100.710938 101.34375 96.578125 101.34375 91.5 C 101.34375 72.890625 93.539062 43.328125 72.59375 43.265625 C 51.660156 43.339844 43.851562 72.890625 43.851562 91.5 C 43.851562 96.578125 47.984375 100.710938 53.070312 100.710938 L 60.621094 100.710938 C 61.472656 100.710938 62.585938 100.601562 63.03125 100.035156 C 64.066406 98.738281 63.117188 94.621094 62.347656 91.324219 C 61.175781 86.226562 59.957031 80.953125 62.734375 77.460938 C 64.28125 75.539062 66.792969 74.554688 70.203125 74.554688 Z M 70.203125 74.554688 "/>
<path style=" stroke:none;fill-rule:nonzero;fill:rgb(100%,100%,100%);fill-opacity:1;" d="M 105.988281 31.140625 C 105.3125 31.140625 104.648438 30.855469 104.171875 30.304688 C 103.308594 29.304688 103.429688 27.792969 104.429688 26.929688 L 109.671875 22.4375 C 110.683594 21.582031 112.1875 21.703125 113.050781 22.703125 C 113.917969 23.703125 113.796875 25.214844 112.796875 26.078125 L 107.550781 30.566406 C 107.101562 30.949219 106.539062 31.140625 105.988281 31.140625 Z M 105.988281 31.140625 "/>
<path style=" stroke:none;fill-rule:nonzero;fill:rgb(100%,100%,100%);fill-opacity:1;" d="M 115.570312 40.71875 C 114.894531 40.71875 114.230469 40.429688 113.753906 39.878906 C 112.890625 38.878906 113.011719 37.367188 114.011719 36.503906 L 119.253906 32.015625 C 120.261719 31.152344 121.769531 31.277344 122.632812 32.277344 C 123.5 33.277344 123.378906 34.789062 122.378906 35.652344 L 117.132812 40.144531 C 116.683594 40.527344 116.121094 40.71875 115.570312 40.71875 Z M 115.570312 40.71875 "/>
<path style=" stroke:none;fill-rule:nonzero;fill:rgb(100%,100%,100%);fill-opacity:1;" d="M 39.355469 31.140625 C 38.804688 31.140625 38.25 30.957031 37.800781 30.566406 L 32.558594 26.078125 C 31.550781 25.210938 31.4375 23.703125 32.300781 22.703125 C 33.160156 21.703125 34.675781 21.585938 35.675781 22.441406 L 40.917969 26.933594 C 41.925781 27.800781 42.039062 29.308594 41.175781 30.308594 C 40.703125 30.855469 40.035156 31.140625 39.355469 31.140625 Z M 39.355469 31.140625 "/>
<path style=" stroke:none;fill-rule:nonzero;fill:rgb(100%,100%,100%);fill-opacity:1;" d="M 29.773438 40.71875 C 29.222656 40.71875 28.667969 40.53125 28.21875 40.144531 L 22.976562 35.652344 C 21.96875 34.785156 21.855469 33.277344 22.714844 32.277344 C 23.578125 31.277344 25.09375 31.15625 26.09375 32.019531 L 31.335938 36.507812 C 32.34375 37.375 32.457031 38.882812 31.59375 39.882812 C 31.121094 40.429688 30.453125 40.71875 29.773438 40.71875 Z M 29.773438 40.71875 "/>
</g>
</svg>
