<?xml version="1.0" encoding="UTF-8"?>
<svg xmlns="http://www.w3.org/2000/svg" xmlns:xlink="http://www.w3.org/1999/xlink" width="144pt" height="143.999998pt" viewBox="0 0 144 143.999998" version="1.2">
<defs>
<clipPath id="clip1">
  <path d="M 19.429688 9.847656 L 129.679688 9.847656 L 129.679688 129.847656 L 19.429688 129.847656 Z M 19.429688 9.847656 "/>
</clipPath>
</defs>
<g id="surface1">
<g clip-path="url(#clip1)" clip-rule="nonzero">
<path style=" stroke:none;fill-rule:nonzero;fill:rgb(100%,100%,100%);fill-opacity:1;" d="M 35.183594 65.1875 L 23.550781 57.523438 L 35.183594 46.234375 Z M 122.835938 126.714844 L 26.28125 126.714844 L 74.558594 94.894531 Z M 106.894531 12.980469 L 106.894531 69.828125 L 89.179688 81.503906 C 88.460938 81.980469 88.257812 82.953125 88.734375 83.675781 C 89.035156 84.132812 89.535156 84.378906 90.042969 84.378906 C 90.335938 84.378906 90.636719 84.296875 90.902344 84.121094 L 109.308594 71.984375 C 109.324219 71.976562 109.335938 71.96875 109.347656 71.960938 L 126.492188 60.660156 L 126.492188 125.375 L 75.417969 91.710938 C 74.894531 91.363281 74.222656 91.363281 73.699219 91.710938 L 22.625 125.375 L 22.625 60.660156 L 58.214844 84.121094 C 58.480469 84.296875 58.78125 84.378906 59.074219 84.378906 C 59.582031 84.378906 60.082031 84.132812 60.382812 83.675781 C 60.859375 82.953125 60.660156 81.980469 59.9375 81.503906 L 38.3125 67.25 L 38.3125 12.980469 Z M 125.367188 57.652344 L 110.023438 67.765625 L 110.023438 45.730469 Z M 129.472656 128.945312 C 129.484375 128.921875 129.492188 128.902344 129.503906 128.878906 C 129.515625 128.851562 129.523438 128.820312 129.535156 128.792969 C 129.542969 128.773438 129.546875 128.753906 129.554688 128.734375 C 129.5625 128.703125 129.570312 128.667969 129.578125 128.636719 C 129.582031 128.621094 129.585938 128.601562 129.589844 128.585938 C 129.597656 128.546875 129.601562 128.511719 129.609375 128.472656 C 129.609375 128.460938 129.613281 128.449219 129.613281 128.433594 C 129.617188 128.390625 129.617188 128.351562 129.617188 128.308594 C 129.621094 128.296875 129.621094 128.289062 129.621094 128.28125 L 129.621094 128.269531 C 129.621094 128.265625 129.621094 128.265625 129.621094 128.261719 L 129.621094 57.753906 C 129.621094 57.722656 129.617188 57.691406 129.617188 57.660156 C 129.613281 57.644531 129.613281 57.632812 129.613281 57.617188 C 129.601562 57.496094 129.578125 57.378906 129.542969 57.269531 C 129.542969 57.261719 129.539062 57.253906 129.535156 57.25 C 129.519531 57.199219 129.5 57.152344 129.480469 57.109375 C 129.472656 57.09375 129.46875 57.082031 129.460938 57.070312 C 129.441406 57.03125 129.421875 56.992188 129.398438 56.953125 C 129.390625 56.941406 129.382812 56.925781 129.375 56.914062 C 129.351562 56.875 129.324219 56.839844 129.296875 56.804688 C 129.289062 56.792969 129.28125 56.78125 129.273438 56.773438 C 129.238281 56.726562 129.199219 56.683594 129.15625 56.640625 C 129.15625 56.640625 129.152344 56.636719 129.148438 56.636719 C 129.113281 56.597656 129.070312 56.5625 129.027344 56.527344 C 129.023438 56.523438 129.019531 56.519531 129.015625 56.515625 L 110.023438 41.765625 L 110.023438 11.414062 C 110.023438 10.550781 109.324219 9.847656 108.460938 9.847656 L 36.75 9.847656 C 35.886719 9.847656 35.183594 10.550781 35.183594 11.414062 L 35.183594 41.871094 L 19.972656 56.632812 C 19.972656 56.632812 19.96875 56.632812 19.96875 56.636719 C 19.941406 56.664062 19.917969 56.6875 19.890625 56.71875 C 19.878906 56.730469 19.871094 56.738281 19.859375 56.75 C 19.859375 56.753906 19.855469 56.757812 19.851562 56.761719 C 19.847656 56.769531 19.84375 56.773438 19.839844 56.777344 C 19.824219 56.796875 19.808594 56.820312 19.792969 56.84375 C 19.785156 56.851562 19.777344 56.863281 19.769531 56.875 C 19.765625 56.878906 19.761719 56.882812 19.757812 56.886719 C 19.757812 56.890625 19.757812 56.890625 19.753906 56.894531 C 19.746094 56.90625 19.742188 56.917969 19.734375 56.929688 C 19.714844 56.960938 19.695312 56.988281 19.679688 57.019531 C 19.667969 57.042969 19.660156 57.066406 19.648438 57.085938 C 19.636719 57.109375 19.625 57.132812 19.617188 57.15625 C 19.601562 57.1875 19.59375 57.214844 19.582031 57.246094 C 19.578125 57.265625 19.570312 57.28125 19.566406 57.300781 C 19.554688 57.335938 19.542969 57.371094 19.535156 57.410156 C 19.535156 57.421875 19.53125 57.433594 19.527344 57.445312 C 19.519531 57.492188 19.511719 57.53125 19.507812 57.578125 C 19.507812 57.585938 19.503906 57.589844 19.503906 57.597656 C 19.5 57.648438 19.496094 57.699219 19.496094 57.75 C 19.496094 57.753906 19.496094 57.753906 19.496094 57.753906 L 19.496094 57.757812 C 19.496094 57.765625 19.496094 57.773438 19.496094 57.78125 L 19.496094 128.253906 C 19.496094 128.261719 19.496094 128.273438 19.496094 128.28125 C 19.496094 128.335938 19.5 128.386719 19.503906 128.4375 C 19.503906 128.445312 19.507812 128.449219 19.507812 128.457031 C 19.511719 128.5 19.519531 128.546875 19.527344 128.589844 C 19.53125 128.601562 19.535156 128.613281 19.535156 128.625 C 19.542969 128.664062 19.554688 128.699219 19.566406 128.738281 C 19.570312 128.753906 19.574219 128.769531 19.582031 128.785156 C 19.589844 128.816406 19.601562 128.847656 19.617188 128.878906 C 19.625 128.898438 19.632812 128.917969 19.644531 128.9375 C 19.65625 128.964844 19.667969 128.992188 19.679688 129.015625 C 19.695312 129.042969 19.710938 129.066406 19.722656 129.089844 C 19.734375 129.105469 19.742188 129.125 19.753906 129.140625 C 19.757812 129.144531 19.757812 129.148438 19.761719 129.148438 C 19.777344 129.175781 19.792969 129.199219 19.8125 129.222656 C 19.828125 129.242188 19.839844 129.257812 19.855469 129.277344 C 19.863281 129.289062 19.871094 129.296875 19.878906 129.304688 C 20.003906 129.449219 20.152344 129.570312 20.3125 129.65625 C 20.3125 129.65625 20.316406 129.65625 20.316406 129.660156 C 20.355469 129.679688 20.394531 129.699219 20.4375 129.71875 C 20.441406 129.71875 20.449219 129.722656 20.453125 129.726562 C 20.644531 129.804688 20.851562 129.847656 21.0625 129.847656 L 128.058594 129.847656 C 128.117188 129.847656 128.175781 129.84375 128.234375 129.835938 C 128.25 129.835938 128.261719 129.832031 128.273438 129.832031 C 128.320312 129.824219 128.367188 129.816406 128.414062 129.804688 C 128.429688 129.800781 128.441406 129.796875 128.457031 129.792969 C 128.5 129.78125 128.542969 129.769531 128.585938 129.753906 C 128.601562 129.746094 128.617188 129.742188 128.628906 129.738281 C 128.675781 129.71875 128.722656 129.699219 128.765625 129.675781 C 128.773438 129.671875 128.785156 129.667969 128.792969 129.664062 C 128.84375 129.636719 128.894531 129.605469 128.941406 129.574219 C 128.957031 129.5625 128.96875 129.550781 128.984375 129.542969 C 129.015625 129.515625 129.046875 129.492188 129.078125 129.464844 C 129.097656 129.449219 129.113281 129.433594 129.128906 129.421875 C 129.160156 129.390625 129.183594 129.363281 129.210938 129.335938 C 129.226562 129.320312 129.238281 129.304688 129.25 129.289062 C 129.289062 129.246094 129.324219 129.199219 129.359375 129.148438 C 129.359375 129.148438 129.363281 129.144531 129.363281 129.140625 C 129.375 129.125 129.382812 129.105469 129.394531 129.089844 C 129.410156 129.066406 129.425781 129.042969 129.4375 129.015625 C 129.449219 128.992188 129.460938 128.96875 129.472656 128.945312 "/>
</g>
<path style=" stroke:none;fill-rule:nonzero;fill:rgb(100%,100%,100%);fill-opacity:1;" d="M 76.265625 41.007812 C 78.285156 41.007812 79.925781 39.367188 79.925781 37.34375 C 79.925781 35.320312 78.285156 33.675781 76.265625 33.675781 C 74.242188 33.675781 72.605469 35.320312 72.605469 37.34375 C 72.605469 39.367188 74.242188 41.007812 76.265625 41.007812 "/>
<path style=" stroke:none;fill-rule:nonzero;fill:rgb(100%,100%,100%);fill-opacity:1;" d="M 67.359375 41.007812 C 69.382812 41.007812 71.019531 39.367188 71.019531 37.34375 C 71.019531 35.320312 69.382812 33.675781 67.359375 33.675781 C 65.339844 33.675781 63.699219 35.320312 63.699219 37.34375 C 63.699219 39.367188 65.339844 41.007812 67.359375 41.007812 "/>
<path style=" stroke:none;fill-rule:nonzero;fill:rgb(100%,100%,100%);fill-opacity:1;" d="M 53.410156 32.515625 C 52.777344 32.515625 52.128906 32.652344 51.511719 32.925781 C 50.410156 33.417969 48.808594 33.324219 47.722656 32.015625 C 46.941406 31.078125 46.773438 29.710938 47.3125 28.609375 C 47.785156 27.640625 48.519531 27.199219 49.050781 26.996094 C 50.515625 26.433594 51.535156 25.171875 51.769531 23.617188 C 51.855469 23.054688 52.132812 22.242188 52.976562 21.574219 C 53.9375 20.820312 55.308594 20.6875 56.390625 21.253906 C 57.894531 22.042969 58.324219 23.589844 58.078125 24.773438 C 57.734375 26.445312 58.296875 28.105469 59.542969 29.113281 L 60.070312 29.542969 C 59.039062 31.105469 58.339844 32.921875 57.976562 34.984375 L 56.058594 33.4375 C 55.304688 32.828125 54.375 32.515625 53.410156 32.515625 Z M 82.640625 34.6875 C 82.894531 35.71875 83.035156 36.847656 83.0625 38.0625 C 83.066406 38.109375 83.070312 38.15625 83.078125 38.203125 C 83.078125 38.300781 83.082031 38.402344 83.082031 38.5 C 83.082031 41.023438 82.601562 43.398438 81.757812 45.472656 C 81.742188 45.507812 81.722656 45.539062 81.710938 45.574219 C 80.613281 48.210938 78.953125 50.328125 76.910156 51.691406 C 76.855469 51.726562 76.800781 51.769531 76.75 51.8125 C 75.292969 52.742188 73.660156 53.261719 71.9375 53.261719 C 70.214844 53.261719 68.582031 52.742188 67.125 51.8125 C 67.074219 51.769531 67.023438 51.726562 66.964844 51.691406 C 64.921875 50.328125 63.261719 48.210938 62.167969 45.574219 C 62.152344 45.539062 62.136719 45.507812 62.121094 45.472656 C 61.277344 43.394531 60.796875 41.023438 60.796875 38.5 C 60.796875 38.402344 60.800781 38.304688 60.800781 38.203125 C 60.804688 38.15625 60.8125 38.109375 60.8125 38.0625 C 60.84375 36.855469 60.980469 35.730469 61.230469 34.703125 C 62.464844 29.722656 66.277344 26.855469 71.9375 26.855469 C 77.59375 26.855469 81.402344 29.71875 82.640625 34.6875 Z M 84.332031 29.113281 C 85.582031 28.105469 86.140625 26.445312 85.796875 24.773438 C 85.550781 23.589844 85.980469 22.042969 87.488281 21.253906 C 88.566406 20.6875 89.941406 20.816406 90.898438 21.574219 C 91.742188 22.242188 92.019531 23.054688 92.105469 23.617188 C 92.34375 25.171875 93.359375 26.433594 94.828125 26.996094 C 95.359375 27.199219 96.09375 27.640625 96.566406 28.609375 C 97.101562 29.710938 96.9375 31.078125 96.15625 32.015625 C 95.066406 33.324219 93.464844 33.414062 92.363281 32.925781 C 90.804688 32.234375 89.0625 32.429688 87.820312 33.4375 L 85.902344 34.984375 C 85.539062 32.921875 84.835938 31.101562 83.804688 29.542969 Z M 92.363281 52.464844 C 93.464844 51.976562 95.0625 52.066406 96.15625 53.375 C 96.9375 54.3125 97.101562 55.679688 96.566406 56.78125 C 96.09375 57.746094 95.359375 58.191406 94.828125 58.394531 C 93.359375 58.953125 92.34375 60.214844 92.105469 61.773438 C 92.019531 62.335938 91.742188 63.148438 90.898438 63.816406 C 89.941406 64.574219 88.570312 64.699219 87.488281 64.136719 C 85.980469 63.347656 85.550781 61.800781 85.796875 60.617188 C 86.140625 58.945312 85.582031 57.285156 84.335938 56.277344 L 80.292969 53.011719 C 81.628906 51.808594 82.78125 50.332031 83.710938 48.632812 L 87.820312 51.953125 C 89.0625 52.960938 90.804688 53.15625 92.363281 52.464844 Z M 59.542969 56.277344 C 58.292969 57.285156 57.734375 58.945312 58.082031 60.617188 C 58.324219 61.796875 57.898438 63.34375 56.390625 64.136719 C 55.308594 64.699219 53.9375 64.570312 52.976562 63.816406 C 52.132812 63.148438 51.855469 62.335938 51.769531 61.773438 C 51.535156 60.214844 50.515625 58.953125 49.050781 58.394531 C 48.519531 58.191406 47.785156 57.746094 47.3125 56.777344 C 46.773438 55.679688 46.941406 54.3125 47.722656 53.375 C 48.425781 52.527344 49.34375 52.191406 50.203125 52.191406 C 50.671875 52.191406 51.125 52.292969 51.515625 52.464844 C 53.074219 53.15625 54.8125 52.960938 56.058594 51.953125 L 60.167969 48.636719 C 61.097656 50.332031 62.25 51.808594 63.582031 53.011719 Z M 54.09375 49.511719 C 53.757812 49.78125 53.265625 49.816406 52.78125 49.601562 C 50.164062 48.433594 47.167969 49.148438 45.320312 51.367188 C 43.757812 53.238281 43.429688 55.964844 44.5 58.15625 C 45.21875 59.628906 46.441406 60.75 47.9375 61.324219 C 48.347656 61.480469 48.609375 61.808594 48.675781 62.242188 C 48.917969 63.828125 49.757812 65.261719 51.039062 66.277344 C 52.15625 67.15625 53.550781 67.609375 54.953125 67.609375 C 55.945312 67.609375 56.941406 67.382812 57.839844 66.914062 C 60.398438 65.574219 61.722656 62.789062 61.144531 59.980469 C 61.035156 59.460938 61.171875 58.988281 61.503906 58.714844 L 66.230469 54.898438 C 67.980469 55.859375 69.910156 56.398438 71.9375 56.398438 C 73.96875 56.398438 75.898438 55.859375 77.644531 54.898438 L 82.371094 58.714844 C 82.703125 58.988281 82.839844 59.460938 82.734375 59.980469 C 82.152344 62.789062 83.480469 65.574219 86.039062 66.914062 C 86.933594 67.382812 87.929688 67.609375 88.921875 67.609375 C 90.324219 67.609375 91.71875 67.15625 92.835938 66.273438 C 94.121094 65.261719 94.960938 63.828125 95.199219 62.242188 C 95.265625 61.808594 95.527344 61.480469 95.941406 61.324219 C 97.4375 60.75 98.65625 59.628906 99.375 58.15625 C 100.445312 55.964844 100.117188 53.238281 98.558594 51.367188 C 96.710938 49.148438 93.710938 48.4375 91.09375 49.601562 C 90.609375 49.816406 90.117188 49.78125 89.78125 49.511719 L 85.015625 45.664062 C 85.753906 43.542969 86.175781 41.214844 86.207031 38.765625 L 89.78125 35.875 C 90.117188 35.605469 90.605469 35.574219 91.09375 35.789062 C 93.710938 36.953125 96.710938 36.242188 98.558594 34.023438 C 100.117188 32.152344 100.445312 29.425781 99.375 27.234375 C 98.65625 25.761719 97.4375 24.636719 95.941406 24.066406 C 95.527344 23.910156 95.265625 23.582031 95.199219 23.148438 C 94.960938 21.5625 94.121094 20.128906 92.835938 19.113281 C 90.925781 17.605469 88.191406 17.351562 86.035156 18.476562 C 83.480469 19.816406 82.152344 22.601562 82.734375 25.40625 C 82.839844 25.929688 82.707031 26.402344 82.371094 26.671875 L 81.742188 27.183594 C 79.292969 24.964844 75.945312 23.722656 71.9375 23.722656 C 67.933594 23.722656 64.582031 24.964844 62.136719 27.183594 L 61.503906 26.671875 C 61.171875 26.402344 61.035156 25.929688 61.144531 25.410156 C 61.722656 22.605469 60.398438 19.820312 57.839844 18.480469 C 55.683594 17.347656 52.953125 17.605469 51.039062 19.117188 C 49.753906 20.132812 48.917969 21.5625 48.675781 23.148438 C 48.609375 23.582031 48.347656 23.910156 47.9375 24.066406 C 46.441406 24.636719 45.21875 25.761719 44.5 27.234375 C 43.433594 29.421875 43.761719 32.152344 45.320312 34.023438 C 47.167969 36.246094 50.171875 36.953125 52.78125 35.789062 C 53.265625 35.574219 53.757812 35.605469 54.09375 35.875 L 57.671875 38.765625 C 57.699219 41.214844 58.121094 43.542969 58.863281 45.664062 L 54.09375 49.511719 "/>
</g>
</svg>
