<?xml version="1.0" encoding="UTF-8"?>
<svg xmlns="http://www.w3.org/2000/svg" xmlns:xlink="http://www.w3.org/1999/xlink" width="144pt" height="143.999998pt" viewBox="0 0 144 143.999998" version="1.2">
<defs>
<clipPath id="clip1">
  <path d="M 7.699219 9.476562 L 137.148438 9.476562 L 137.148438 139.226562 L 7.699219 139.226562 Z M 7.699219 9.476562 "/>
</clipPath>
</defs>
<g id="surface1">
<g clip-path="url(#clip1)" clip-rule="nonzero">
<path style=" stroke:none;fill-rule:nonzero;fill:rgb(100%,100%,100%);fill-opacity:1;" d="M 44.546875 30.429688 C 46.082031 30.417969 47.589844 30.878906 48.855469 31.730469 C 49.269531 32.019531 49.386719 32.585938 49.121094 33 C 46.839844 36.523438 42.140625 37.539062 38.628906 35.257812 C 38.582031 35.234375 38.535156 35.199219 38.488281 35.175781 C 38.0625 34.886719 37.949219 34.324219 38.222656 33.898438 C 39.617188 31.742188 41.992188 30.441406 44.558594 30.429688 Z M 24.816406 30.429688 C 27.398438 30.417969 29.816406 31.730469 31.222656 33.898438 C 31.484375 34.324219 31.371094 34.886719 30.945312 35.175781 C 27.476562 37.527344 22.753906 36.617188 20.40625 33.136719 C 20.382812 33.089844 20.347656 33.046875 20.324219 33 C 20.046875 32.585938 20.175781 32.019531 20.589844 31.730469 C 21.832031 30.890625 23.308594 30.429688 24.816406 30.429688 Z M 10.246094 9.476562 C 8.886719 9.441406 7.746094 10.515625 7.699219 11.875 C 7.699219 11.898438 7.699219 11.929688 7.699219 11.953125 L 7.699219 35.578125 C 7.699219 43.148438 11.8125 50.117188 18.445312 53.78125 C 18.816406 53.988281 19.058594 54.378906 19.078125 54.804688 C 19.597656 67.210938 21.683594 79.5 25.289062 91.390625 C 25.378906 91.664062 25.449219 91.953125 25.496094 92.242188 C 27.292969 103.796875 27.398438 115.542969 25.820312 127.132812 C 25.597656 128.722656 24.460938 130.035156 22.914062 130.449219 C 20.382812 131.152344 18.609375 133.398438 18.503906 136.027344 C 18.433594 137.730469 19.769531 139.160156 21.476562 139.226562 C 21.511719 139.226562 21.554688 139.226562 21.589844 139.226562 L 31.566406 139.226562 C 32.878906 139.226562 34.054688 138.386719 34.480469 137.132812 L 43.453125 110.867188 C 43.914062 109.507812 45.390625 108.78125 46.738281 109.253906 C 47.011719 109.347656 47.265625 109.484375 47.496094 109.660156 C 47.75 109.84375 47.820312 110.175781 47.679688 110.441406 C 44.800781 115.808594 44.859375 122.273438 47.832031 127.59375 C 47.992188 127.894531 47.890625 128.261719 47.589844 128.433594 C 47.53125 128.46875 47.449219 128.503906 47.382812 128.503906 C 43.671875 129.035156 40.667969 131.796875 39.835938 135.449219 C 39.457031 137.109375 40.492188 138.765625 42.152344 139.148438 C 42.382812 139.203125 42.613281 139.226562 42.84375 139.226562 L 75.707031 139.226562 C 82.894531 139.226562 89.75 136.175781 94.550781 130.832031 C 103.296875 140.082031 117.902344 140.484375 127.164062 131.730469 C 128.695312 130.289062 130.007812 128.628906 131.089844 126.820312 C 142.066406 110.453125 137.691406 88.289062 121.324219 77.324219 C 121 77.105469 120.6875 76.898438 120.355469 76.691406 C 108.558594 68.730469 100.808594 56.027344 99.113281 41.878906 C 98.320312 32.203125 105.519531 23.714844 115.195312 22.921875 C 121.367188 22.414062 127.359375 25.191406 130.953125 30.234375 C 135.59375 37.445312 133.507812 47.050781 126.296875 51.695312 C 124.375 52.9375 122.1875 53.734375 119.894531 54.03125 C 119.097656 54.136719 118.546875 54.863281 118.636719 55.65625 C 118.742188 56.453125 119.480469 57.015625 120.261719 56.914062 C 130.351562 55.609375 137.484375 46.363281 136.183594 36.269531 C 135.824219 33.539062 134.855469 30.914062 133.347656 28.597656 C 126.816406 19.371094 114.019531 17.183594 104.792969 23.726562 C 98.871094 27.929688 95.601562 34.945312 96.222656 42.179688 C 98.007812 57.1875 106.234375 70.679688 118.765625 79.132812 C 134.144531 88.695312 138.84375 108.910156 129.28125 124.265625 C 129.074219 124.609375 128.867188 124.945312 128.636719 125.265625 C 122.957031 134.839844 110.574219 137.996094 101.003906 132.304688 C 99.273438 131.28125 97.71875 130.011719 96.371094 128.539062 C 98.859375 125 100.414062 120.902344 100.875 116.617188 C 103.191406 95.214844 92.972656 74.398438 74.660156 63.097656 C 68.230469 59.757812 62.289062 55.578125 56.964844 50.667969 C 56.46875 50.21875 56.425781 49.472656 56.839844 48.964844 C 59.996094 45.222656 61.722656 40.488281 61.722656 35.578125 L 61.722656 11.953125 C 61.722656 10.582031 60.628906 9.476562 59.257812 9.476562 C 58.75 9.476562 58.246094 9.640625 57.828125 9.9375 L 47.601562 17.171875 C 39.320312 13.9375 30.113281 13.9375 21.832031 17.171875 L 11.605469 9.9375 C 11.210938 9.652344 10.738281 9.5 10.257812 9.476562 L 10.246094 9.476562 "/>
</g>
</g>
</svg>
