<?xml version="1.0" encoding="UTF-8" standalone="no"?>
<svg
   style="height: 512px; width: 512px;"
   viewBox="0 0 512 512"
   version="1.1"
   id="svg6"
   sodipodi:docname="ink-swirl.svg"
   inkscape:version="1.2.2 (b0a84865, 2022-12-01)"
   xmlns:inkscape="http://www.inkscape.org/namespaces/inkscape"
   xmlns:sodipodi="http://sodipodi.sourceforge.net/DTD/sodipodi-0.dtd"
   xmlns="http://www.w3.org/2000/svg"
   xmlns:svg="http://www.w3.org/2000/svg">
  <defs
     id="defs10" />
  <sodipodi:namedview
     id="namedview8"
     pagecolor="#ffffff"
     bordercolor="#000000"
     borderopacity="0.25"
     inkscape:showpageshadow="2"
     inkscape:pageopacity="0.0"
     inkscape:pagecheckerboard="0"
     inkscape:deskcolor="#d1d1d1"
     showgrid="false"
     inkscape:zoom="0.4609375"
     inkscape:cx="256"
     inkscape:cy="256"
     inkscape:window-width="1309"
     inkscape:window-height="456"
     inkscape:window-x="0"
     inkscape:window-y="38"
     inkscape:window-maximized="0"
     inkscape:current-layer="g4" />
  <g
     class=""
     transform="matrix(0,1,1,0,-2.7188858,2.71888)"
     id="g4">
    <path
       d="m 353.48372,41.633283 c -3.2726,-1.331732 -6.59043,-2.576164 -9.91725,-3.747382 32.23686,19.910265 59.31585,50.239834 75.08209,85.250279 C 377.30883,77.497474 309.76916,47.983697 247.63533,47.710763 260.95925,42.742571 274.4863,39.973608 287.89848,39.267435 132.4924,14.793732 36.347593,101.4321 37.880528,261.25555 c -4.8266,-31.056 -5.370283,-62.51676 -0.141574,-91.87627 -33.4342855,66.28457 -22.603405,136.84447 18.248189,221.66694 0.031,0.0813 0.06569,0.16412 0.09893,0.24526 6.482608,15.86099 13.839231,29.69745 19.879724,37.63221 C 121.1316,488.2731 212.36956,417.3589 167.91745,358.95352 159.9002,348.41814 142.49487,332.89013 123.04111,319.69268 66.358199,256.60013 96.647487,139.62906 197.32073,89.857677 184.68514,102.80102 173.16841,117.50968 163.0084,133.35365 c 122.44476,-95.066016 337.93769,1.55538 271.11718,191.68964 13.91749,-60.9798 -5.55822,-125.74783 -59.34412,-171.5941 43.03866,43.98464 57.99317,110.75655 32.68871,171.16907 -36.41325,86.93396 -124.50546,108.74495 -206.57826,93.03958 38.37176,18.60942 92.67395,23.82765 129.72811,14.96718 -36.8348,27.48315 -92.46077,34.00069 -145.20344,27.64245 68.17183,25.51449 141.81184,14.78982 199.40669,-22.04825 -14.01665,6.76182 -29.46902,11.55189 -45.88921,14.35583 64.2783,-32.99566 118.60149,-99.90667 137.77754,-170.23904 1.48247,18.27573 -0.41786,36.15582 -5.29116,53.48236 C 528.30575,199.63357 454.91221,82.883935 353.4841,41.63236 Z"
       fill="#000000"
       fill-opacity="1"
       id="path2" />
  </g>
</svg>
