<?xml version="1.0" encoding="UTF-8"?>
<svg xmlns="http://www.w3.org/2000/svg" xmlns:xlink="http://www.w3.org/1999/xlink" width="144pt" height="143.999998pt" viewBox="0 0 144 143.999998" version="1.2">
<defs>
<clipPath id="clip1">
  <path d="M 11.839844 34 L 96 34 L 96 132.953125 L 11.839844 132.953125 Z M 11.839844 34 "/>
</clipPath>
<clipPath id="clip2">
  <path d="M 87 12.953125 L 131.839844 12.953125 L 131.839844 132.953125 L 87 132.953125 Z M 87 12.953125 "/>
</clipPath>
</defs>
<g id="surface1">
<g clip-path="url(#clip1)" clip-rule="nonzero">
<path style=" stroke:none;fill-rule:nonzero;fill:rgb(100%,100%,100%);fill-opacity:1;" d="M 91.839844 84.953125 C 91.839844 88.742188 89.152344 92.039062 85.441406 92.789062 C 84.511719 92.984375 83.839844 93.796875 83.839844 94.75 L 83.839844 120.953125 L 23.839844 120.953125 L 23.839844 94.75 C 23.839844 93.796875 23.167969 92.984375 22.238281 92.789062 C 18.527344 92.039062 15.839844 88.742188 15.839844 84.953125 C 15.839844 80.539062 19.425781 76.953125 23.839844 76.953125 C 28.253906 76.953125 31.839844 80.539062 31.839844 84.953125 L 31.839844 110.953125 C 31.839844 112.054688 32.738281 112.953125 33.839844 112.953125 L 73.839844 112.953125 C 74.941406 112.953125 75.839844 112.054688 75.839844 110.953125 L 75.839844 84.953125 C 75.839844 80.539062 79.425781 76.953125 83.839844 76.953125 C 88.253906 76.953125 91.839844 80.539062 91.839844 84.953125 Z M 78.277344 128.953125 L 75.402344 128.953125 L 74.402344 124.953125 L 79.277344 124.953125 Z M 32.277344 128.953125 L 29.402344 128.953125 L 28.402344 124.953125 L 33.277344 124.953125 Z M 71.839844 84.953125 L 71.839844 96.953125 L 35.839844 96.953125 L 35.839844 84.953125 C 35.839844 81.40625 34.285156 78.234375 31.839844 76.03125 L 31.839844 68.953125 C 31.839844 56.820312 41.707031 46.953125 53.839844 46.953125 C 65.972656 46.953125 75.839844 56.820312 75.839844 68.953125 L 75.839844 76.03125 C 73.394531 78.234375 71.839844 81.40625 71.839844 84.953125 Z M 35.839844 100.953125 L 71.839844 100.953125 L 71.839844 108.953125 L 35.839844 108.953125 Z M 23.839844 68.953125 C 23.839844 52.40625 37.292969 38.953125 53.839844 38.953125 C 70.386719 38.953125 83.839844 52.40625 83.839844 68.953125 L 83.839844 72.953125 C 82.433594 72.953125 81.097656 73.210938 79.839844 73.648438 L 79.839844 68.953125 C 79.839844 54.617188 68.175781 42.953125 53.839844 42.953125 C 39.503906 42.953125 27.839844 54.617188 27.839844 68.953125 L 27.839844 73.648438 C 26.589844 73.210938 25.246094 72.953125 23.839844 72.953125 Z M 53.839844 34.953125 C 35.089844 34.953125 19.839844 50.203125 19.839844 68.953125 L 19.839844 73.648438 C 15.191406 75.304688 11.839844 79.742188 11.839844 84.953125 C 11.839844 90.070312 15.121094 94.601562 19.839844 96.265625 L 19.839844 122.953125 C 19.839844 124.054688 20.738281 124.953125 21.839844 124.953125 L 24.277344 124.953125 L 25.902344 131.4375 C 26.121094 132.328125 26.925781 132.953125 27.839844 132.953125 L 33.839844 132.953125 C 34.761719 132.953125 35.558594 132.328125 35.777344 131.4375 L 37.402344 124.953125 L 70.277344 124.953125 L 71.902344 131.4375 C 72.121094 132.328125 72.917969 132.953125 73.839844 132.953125 L 79.839844 132.953125 C 80.761719 132.953125 81.558594 132.328125 81.777344 131.4375 L 83.402344 124.953125 L 85.839844 124.953125 C 86.941406 124.953125 87.839844 124.054688 87.839844 122.953125 L 87.839844 96.265625 C 92.558594 94.601562 95.839844 90.070312 95.839844 84.953125 C 95.839844 79.742188 92.496094 75.304688 87.839844 73.648438 L 87.839844 68.953125 C 87.839844 50.203125 72.589844 34.953125 53.839844 34.953125 "/>
</g>
<path style=" stroke:none;fill-rule:nonzero;fill:rgb(100%,100%,100%);fill-opacity:1;" d="M 55.261719 57.53125 C 54.503906 56.789062 53.160156 56.789062 52.417969 57.53125 C 52.238281 57.734375 52.097656 57.929688 52.003906 58.195312 C 51.878906 58.429688 51.839844 58.695312 51.839844 58.953125 C 51.839844 59.210938 51.878906 59.476562 52.003906 59.710938 C 52.097656 59.953125 52.238281 60.171875 52.417969 60.375 C 52.800781 60.75 53.300781 60.953125 53.839844 60.953125 C 54.378906 60.953125 54.878906 60.75 55.261719 60.375 C 55.441406 60.171875 55.582031 59.953125 55.675781 59.710938 C 55.777344 59.476562 55.839844 59.210938 55.839844 58.953125 C 55.839844 58.695312 55.777344 58.429688 55.675781 58.195312 C 55.582031 57.929688 55.441406 57.734375 55.261719 57.53125 "/>
<path style=" stroke:none;fill-rule:nonzero;fill:rgb(100%,100%,100%);fill-opacity:1;" d="M 49.261719 65.53125 C 48.519531 64.789062 47.160156 64.789062 46.417969 65.53125 C 46.238281 65.734375 46.097656 65.929688 46.003906 66.195312 C 45.902344 66.429688 45.839844 66.695312 45.839844 66.953125 C 45.839844 67.210938 45.902344 67.476562 46.003906 67.710938 C 46.097656 67.953125 46.238281 68.171875 46.417969 68.375 C 46.621094 68.554688 46.839844 68.695312 47.082031 68.789062 C 47.316406 68.890625 47.582031 68.953125 47.839844 68.953125 C 48.378906 68.953125 48.878906 68.75 49.261719 68.375 C 49.441406 68.171875 49.582031 67.953125 49.675781 67.710938 C 49.777344 67.476562 49.839844 67.210938 49.839844 66.953125 C 49.839844 66.695312 49.777344 66.429688 49.675781 66.195312 C 49.582031 65.929688 49.441406 65.734375 49.261719 65.53125 "/>
<path style=" stroke:none;fill-rule:nonzero;fill:rgb(100%,100%,100%);fill-opacity:1;" d="M 61.261719 65.53125 C 60.519531 64.789062 59.160156 64.789062 58.417969 65.53125 C 58.058594 65.914062 57.839844 66.429688 57.839844 66.953125 C 57.839844 67.210938 57.878906 67.476562 57.980469 67.710938 C 58.097656 67.953125 58.238281 68.171875 58.417969 68.375 C 58.800781 68.75 59.300781 68.953125 59.839844 68.953125 C 60.378906 68.953125 60.878906 68.75 61.261719 68.375 C 61.636719 67.992188 61.839844 67.492188 61.839844 66.953125 C 61.839844 66.695312 61.777344 66.429688 61.675781 66.195312 C 61.582031 65.929688 61.441406 65.734375 61.261719 65.53125 "/>
<path style=" stroke:none;fill-rule:nonzero;fill:rgb(100%,100%,100%);fill-opacity:1;" d="M 55.261719 73.53125 C 54.503906 72.789062 53.160156 72.789062 52.417969 73.53125 C 52.238281 73.734375 52.097656 73.953125 52.003906 74.195312 C 51.878906 74.429688 51.839844 74.695312 51.839844 74.953125 C 51.839844 75.210938 51.878906 75.476562 52.003906 75.710938 C 52.097656 75.953125 52.238281 76.171875 52.417969 76.375 C 52.621094 76.554688 52.839844 76.695312 53.082031 76.789062 C 53.316406 76.890625 53.582031 76.953125 53.839844 76.953125 C 54.378906 76.953125 54.878906 76.75 55.261719 76.375 C 55.441406 76.171875 55.582031 75.953125 55.675781 75.710938 C 55.777344 75.476562 55.839844 75.210938 55.839844 74.953125 C 55.839844 74.695312 55.777344 74.429688 55.675781 74.195312 C 55.582031 73.953125 55.441406 73.734375 55.261719 73.53125 "/>
<path style=" stroke:none;fill-rule:nonzero;fill:rgb(100%,100%,100%);fill-opacity:1;" d="M 43.261719 73.53125 C 43.058594 73.351562 42.839844 73.210938 42.597656 73.117188 C 41.863281 72.789062 40.980469 72.976562 40.417969 73.53125 C 40.238281 73.734375 40.097656 73.929688 40.003906 74.195312 C 39.902344 74.429688 39.839844 74.695312 39.839844 74.953125 C 39.839844 75.210938 39.902344 75.476562 40.003906 75.710938 C 40.097656 75.953125 40.238281 76.171875 40.417969 76.375 C 40.621094 76.554688 40.839844 76.695312 41.082031 76.789062 C 41.316406 76.890625 41.582031 76.953125 41.839844 76.953125 C 42.097656 76.953125 42.363281 76.890625 42.597656 76.789062 C 42.839844 76.695312 43.058594 76.554688 43.261719 76.375 C 43.441406 76.171875 43.582031 75.953125 43.675781 75.710938 C 43.777344 75.476562 43.839844 75.210938 43.839844 74.953125 C 43.839844 74.695312 43.777344 74.429688 43.675781 74.195312 C 43.582031 73.953125 43.441406 73.734375 43.261719 73.53125 "/>
<path style=" stroke:none;fill-rule:nonzero;fill:rgb(100%,100%,100%);fill-opacity:1;" d="M 67.261719 73.53125 C 66.503906 72.789062 65.160156 72.789062 64.417969 73.53125 C 64.238281 73.734375 64.097656 73.953125 64.003906 74.195312 C 63.878906 74.429688 63.839844 74.695312 63.839844 74.953125 C 63.839844 75.210938 63.878906 75.476562 64.003906 75.710938 C 64.097656 75.953125 64.238281 76.171875 64.417969 76.375 C 64.621094 76.554688 64.839844 76.695312 65.082031 76.789062 C 65.316406 76.890625 65.582031 76.953125 65.839844 76.953125 C 66.097656 76.953125 66.363281 76.890625 66.597656 76.789062 C 66.839844 76.695312 67.058594 76.554688 67.261719 76.375 C 67.441406 76.171875 67.582031 75.953125 67.675781 75.710938 C 67.777344 75.476562 67.839844 75.210938 67.839844 74.953125 C 67.839844 74.695312 67.777344 74.429688 67.675781 74.195312 C 67.582031 73.953125 67.441406 73.734375 67.261719 73.53125 "/>
<path style=" stroke:none;fill-rule:nonzero;fill:rgb(100%,100%,100%);fill-opacity:1;" d="M 49.261719 81.53125 C 49.160156 81.453125 49.058594 81.351562 48.941406 81.289062 C 48.839844 81.210938 48.722656 81.148438 48.597656 81.117188 C 48.480469 81.054688 48.363281 81.015625 48.222656 80.992188 C 47.980469 80.929688 47.699219 80.929688 47.441406 80.992188 C 47.316406 81.015625 47.199219 81.054688 47.082031 81.117188 C 46.957031 81.148438 46.839844 81.210938 46.722656 81.289062 C 46.621094 81.351562 46.519531 81.453125 46.417969 81.53125 C 46.238281 81.734375 46.097656 81.929688 46.003906 82.195312 C 45.902344 82.429688 45.839844 82.695312 45.839844 82.953125 C 45.839844 83.492188 46.035156 83.992188 46.417969 84.375 C 46.621094 84.554688 46.839844 84.695312 47.082031 84.789062 C 47.316406 84.914062 47.582031 84.953125 47.839844 84.953125 C 48.363281 84.953125 48.878906 84.75 49.261719 84.375 C 49.636719 83.992188 49.839844 83.492188 49.839844 82.953125 C 49.839844 82.695312 49.777344 82.429688 49.675781 82.195312 C 49.582031 81.929688 49.441406 81.734375 49.261719 81.53125 "/>
<path style=" stroke:none;fill-rule:nonzero;fill:rgb(100%,100%,100%);fill-opacity:1;" d="M 59.082031 81.117188 C 58.816406 81.210938 58.621094 81.351562 58.417969 81.53125 C 58.238281 81.734375 58.097656 81.929688 58.003906 82.195312 C 57.878906 82.429688 57.839844 82.695312 57.839844 82.953125 C 57.839844 83.492188 58.035156 83.992188 58.417969 84.375 C 58.800781 84.75 59.300781 84.953125 59.839844 84.953125 C 60.097656 84.953125 60.363281 84.914062 60.597656 84.789062 C 60.839844 84.695312 61.058594 84.554688 61.261719 84.375 C 61.441406 84.171875 61.582031 83.953125 61.675781 83.710938 C 61.800781 83.476562 61.839844 83.210938 61.839844 82.953125 C 61.839844 82.429688 61.621094 81.914062 61.261719 81.53125 C 60.699219 80.976562 59.800781 80.789062 59.082031 81.117188 "/>
<path style=" stroke:none;fill-rule:nonzero;fill:rgb(100%,100%,100%);fill-opacity:1;" d="M 55.261719 89.53125 C 55.160156 89.453125 55.058594 89.351562 54.941406 89.289062 C 54.839844 89.210938 54.722656 89.148438 54.597656 89.117188 C 54.480469 89.054688 54.363281 89.015625 54.222656 88.992188 C 53.980469 88.929688 53.699219 88.929688 53.441406 88.992188 C 53.316406 89.015625 53.199219 89.054688 53.082031 89.117188 C 52.957031 89.148438 52.839844 89.210938 52.722656 89.289062 C 52.621094 89.351562 52.519531 89.453125 52.417969 89.53125 C 52.238281 89.734375 52.097656 89.953125 52.003906 90.195312 C 51.878906 90.429688 51.839844 90.695312 51.839844 90.953125 C 51.839844 91.492188 52.035156 91.992188 52.417969 92.375 C 52.800781 92.75 53.300781 92.953125 53.839844 92.953125 C 54.378906 92.953125 54.878906 92.75 55.261719 92.375 C 55.636719 91.992188 55.839844 91.492188 55.839844 90.953125 C 55.839844 90.695312 55.777344 90.429688 55.675781 90.195312 C 55.582031 89.953125 55.441406 89.734375 55.261719 89.53125 "/>
<path style=" stroke:none;fill-rule:nonzero;fill:rgb(100%,100%,100%);fill-opacity:1;" d="M 43.261719 89.53125 C 42.519531 88.789062 41.160156 88.789062 40.417969 89.53125 C 40.238281 89.734375 40.097656 89.953125 40.003906 90.195312 C 39.902344 90.429688 39.839844 90.695312 39.839844 90.953125 C 39.839844 91.492188 40.035156 91.992188 40.417969 92.375 C 40.621094 92.554688 40.839844 92.695312 41.082031 92.789062 C 41.316406 92.890625 41.582031 92.953125 41.839844 92.953125 C 42.378906 92.953125 42.878906 92.75 43.261719 92.375 C 43.636719 91.992188 43.839844 91.492188 43.839844 90.953125 C 43.839844 90.695312 43.777344 90.429688 43.675781 90.195312 C 43.582031 89.953125 43.441406 89.734375 43.261719 89.53125 "/>
<path style=" stroke:none;fill-rule:nonzero;fill:rgb(100%,100%,100%);fill-opacity:1;" d="M 67.261719 89.53125 C 66.699219 88.976562 65.816406 88.8125 65.082031 89.117188 C 64.816406 89.210938 64.621094 89.351562 64.417969 89.53125 C 64.238281 89.734375 64.097656 89.953125 64.003906 90.195312 C 63.878906 90.429688 63.839844 90.695312 63.839844 90.953125 C 63.839844 91.492188 64.035156 91.992188 64.417969 92.375 C 64.800781 92.75 65.300781 92.953125 65.839844 92.953125 C 66.097656 92.953125 66.363281 92.890625 66.597656 92.789062 C 66.839844 92.695312 67.058594 92.554688 67.261719 92.375 C 67.636719 91.992188 67.839844 91.492188 67.839844 90.953125 C 67.839844 90.695312 67.777344 90.429688 67.675781 90.195312 C 67.582031 89.953125 67.441406 89.734375 67.261719 89.53125 "/>
<path style=" stroke:none;fill-rule:nonzero;fill:rgb(100%,100%,100%);fill-opacity:1;" d="M 43.261719 57.53125 C 42.503906 56.789062 41.175781 56.789062 40.417969 57.53125 C 40.238281 57.734375 40.097656 57.929688 40.003906 58.195312 C 39.878906 58.429688 39.839844 58.695312 39.839844 58.953125 C 39.839844 59.210938 39.878906 59.476562 40.003906 59.710938 C 40.097656 59.953125 40.238281 60.171875 40.417969 60.375 C 40.800781 60.75 41.300781 60.953125 41.839844 60.953125 C 42.378906 60.953125 42.878906 60.75 43.261719 60.375 C 43.441406 60.171875 43.582031 59.953125 43.675781 59.710938 C 43.777344 59.476562 43.839844 59.210938 43.839844 58.953125 C 43.839844 58.695312 43.777344 58.429688 43.675781 58.195312 C 43.582031 57.929688 43.441406 57.734375 43.261719 57.53125 "/>
<path style=" stroke:none;fill-rule:nonzero;fill:rgb(100%,100%,100%);fill-opacity:1;" d="M 66.597656 57.117188 C 65.878906 56.8125 64.980469 56.992188 64.417969 57.53125 C 64.238281 57.734375 64.097656 57.929688 64.003906 58.195312 C 63.902344 58.429688 63.839844 58.695312 63.839844 58.953125 C 63.839844 59.210938 63.878906 59.476562 64.003906 59.710938 C 64.097656 59.953125 64.238281 60.171875 64.417969 60.375 C 64.800781 60.75 65.300781 60.953125 65.839844 60.953125 C 66.378906 60.953125 66.878906 60.75 67.261719 60.375 C 67.441406 60.171875 67.582031 59.953125 67.675781 59.710938 C 67.777344 59.476562 67.839844 59.210938 67.839844 58.953125 C 67.839844 58.429688 67.621094 57.914062 67.261719 57.53125 C 67.058594 57.351562 66.863281 57.210938 66.597656 57.117188 "/>
<g clip-path="url(#clip2)" clip-rule="nonzero">
<path style=" stroke:none;fill-rule:nonzero;fill:rgb(100%,100%,100%);fill-opacity:1;" d="M 95.605469 16.953125 L 124.074219 16.953125 L 127.574219 44.953125 L 92.105469 44.953125 Z M 119.839844 126.953125 L 119.839844 128.953125 L 99.839844 128.953125 L 99.839844 126.953125 C 99.839844 125.851562 100.738281 124.953125 101.839844 124.953125 L 117.839844 124.953125 C 118.941406 124.953125 119.839844 125.851562 119.839844 126.953125 Z M 129.839844 48.953125 C 130.410156 48.953125 130.957031 48.710938 131.339844 48.273438 C 131.722656 47.84375 131.894531 47.273438 131.824219 46.703125 L 127.824219 14.703125 C 127.699219 13.703125 126.847656 12.953125 125.839844 12.953125 L 93.839844 12.953125 C 92.832031 12.953125 91.980469 13.703125 91.855469 14.703125 L 87.855469 46.703125 C 87.785156 47.273438 87.957031 47.84375 88.339844 48.273438 C 88.722656 48.710938 89.269531 48.953125 89.839844 48.953125 L 107.839844 48.953125 L 107.839844 120.953125 L 101.839844 120.953125 C 98.527344 120.953125 95.839844 123.640625 95.839844 126.953125 L 95.839844 130.953125 C 95.839844 132.054688 96.738281 132.953125 97.839844 132.953125 L 121.839844 132.953125 C 122.941406 132.953125 123.839844 132.054688 123.839844 130.953125 L 123.839844 126.953125 C 123.839844 123.640625 121.152344 120.953125 117.839844 120.953125 L 111.839844 120.953125 L 111.839844 48.953125 L 129.839844 48.953125 "/>
</g>
</g>
</svg>
