<?xml version="1.0" encoding="UTF-8"?>
<svg xmlns="http://www.w3.org/2000/svg" xmlns:xlink="http://www.w3.org/1999/xlink" width="144pt" height="143.999998pt" viewBox="0 0 144 143.999998" version="1.2">
<defs>
<clipPath id="clip1">
  <path d="M 43 8.457031 L 134.398438 8.457031 L 134.398438 92 L 43 92 Z M 43 8.457031 "/>
</clipPath>
<clipPath id="clip2">
  <path d="M 14.398438 85 L 49 85 L 49 123.207031 L 14.398438 123.207031 Z M 14.398438 85 "/>
</clipPath>
</defs>
<g id="surface1">
<g clip-path="url(#clip1)" clip-rule="nonzero">
<path style=" stroke:none;fill-rule:nonzero;fill:rgb(100%,100%,100%);fill-opacity:1;" d="M 114.355469 8.488281 L 108.164062 14.804688 C 105.753906 15.960938 94.023438 22.140625 92.390625 23 C 88.945312 23.492188 82.828125 24.34375 79.203125 24.746094 C 76.519531 25.054688 71.761719 28.625 66.617188 31.40625 C 61.679688 34.082031 56.457031 35.25 56.160156 37.042969 C 55.34375 41.96875 62.96875 41.75 63.863281 41.664062 C 68.792969 41.183594 74.28125 38.960938 77.542969 37.453125 L 71.488281 43.378906 C 71.425781 43.433594 71.359375 43.480469 71.296875 43.539062 L 45.210938 67.789062 C 43.316406 69.527344 43.039062 72.3125 44.605469 74.007812 C 46.167969 75.695312 48.972656 75.65625 50.875 73.914062 L 75.460938 52.648438 L 76.070312 53.316406 L 48.25 80.507812 C 46.378906 82.273438 46.195312 85.117188 47.847656 86.851562 C 49.496094 88.582031 52.355469 88.550781 54.226562 86.785156 L 83.257812 60.535156 L 83.855469 60.976562 L 60.875 83.664062 C 58.835938 85.636719 58.621094 88.710938 60.394531 90.527344 C 62.167969 92.34375 65.257812 92.214844 67.296875 90.238281 L 92.058594 67.089844 L 92.515625 67.433594 L 80.226562 80.894531 C 78.480469 82.632812 78.257812 85.230469 79.726562 86.691406 C 81.195312 88.152344 83.800781 87.929688 85.546875 86.191406 L 99.035156 71.847656 C 99.132812 71.753906 99.226562 71.65625 99.320312 71.558594 L 99.359375 71.582031 C 99.359375 71.582031 111.0625 61.820312 117.128906 54.917969 C 123.101562 48.125 125.40625 43.730469 129.582031 36.496094 L 134.28125 32.414062 C 129.429688 23.074219 122.605469 14.917969 114.355469 8.488281 Z M 114.355469 8.488281 "/>
</g>
<g clip-path="url(#clip2)" clip-rule="nonzero">
<path style=" stroke:none;fill-rule:nonzero;fill:rgb(100%,100%,100%);fill-opacity:1;" d="M 45.46875 99.851562 L 40.058594 105.007812 L 40.019531 104.984375 L 39.796875 104.703125 L 47.363281 96.253906 C 48.238281 95.3125 48.261719 93.917969 47.414062 93.136719 C 46.566406 92.359375 45.171875 92.492188 44.296875 93.433594 L 36.988281 101.160156 L 36.671875 100.757812 L 45.640625 90.398438 C 46.421875 89.53125 46.402344 88.242188 45.597656 87.519531 C 44.789062 86.792969 43.5 86.90625 42.71875 87.769531 L 33.371094 97.753906 L 33 97.445312 L 39.945312 89.054688 C 40.71875 88.175781 40.703125 86.910156 39.914062 86.222656 C 39.128906 85.539062 37.863281 85.695312 37.09375 86.570312 L 29.59375 94.996094 L 26.414062 98.023438 L 26.347656 98.101562 C 26.898438 96.851562 27.746094 94.65625 27.890625 92.707031 C 27.914062 92.363281 27.921875 89.4375 26.027344 89.796875 C 25.335938 89.929688 24.9375 91.945312 23.949219 93.863281 C 22.921875 95.863281 21.589844 97.726562 21.496094 98.757812 C 21.320312 100.777344 20.835938 104.820312 20.835938 104.820312 C 20.835938 104.820312 19.816406 107.609375 19.277344 108.792969 L 14.515625 113.65625 C 17.625 117.1875 21.066406 120.414062 24.800781 123.292969 L 29.386719 118.207031 C 32.628906 116.238281 34.054688 116.546875 37.074219 113.773438 C 39.703125 111.363281 42.359375 107.914062 43.070312 106.964844 L 47.9375 102.191406 C 48.707031 101.382812 48.78125 100.207031 48.097656 99.558594 C 47.417969 98.914062 46.238281 99.042969 45.46875 99.851562 Z M 45.46875 99.851562 "/>
</g>
</g>
</svg>
