<?xml version="1.0" encoding="UTF-8"?>
<svg xmlns="http://www.w3.org/2000/svg" xmlns:xlink="http://www.w3.org/1999/xlink" width="144pt" height="143.999998pt" viewBox="0 0 144 143.999998" version="1.2">
<defs>
<clipPath id="clip1">
  <path d="M 65 82 L 76 82 L 76 90 L 65 90 Z M 65 82 "/>
</clipPath>
<clipPath id="clip2">
  <path d="M 21.609375 18.652344 L 148.136719 77.390625 L 129.507812 117.527344 L 2.976562 58.789062 Z M 21.609375 18.652344 "/>
</clipPath>
<clipPath id="clip3">
  <path d="M 21.609375 18.652344 L 148.136719 77.390625 L 129.507812 117.527344 L 2.976562 58.789062 Z M 21.609375 18.652344 "/>
</clipPath>
<clipPath id="clip4">
  <path d="M 66.195312 81.925781 L 76.035156 86.492188 L 73.65625 91.613281 L 63.820312 87.046875 Z M 66.195312 81.925781 "/>
</clipPath>
<clipPath id="clip5">
  <path d="M 66.195312 81.925781 L 76.035156 86.492188 L 73.660156 91.605469 L 63.824219 87.039062 Z M 66.195312 81.925781 "/>
</clipPath>
<clipPath id="clip6">
  <path d="M 65 82 L 76 82 L 76 89 L 65 89 Z M 65 82 "/>
</clipPath>
<clipPath id="clip7">
  <path d="M 21.609375 18.652344 L 148.136719 77.390625 L 129.507812 117.527344 L 2.976562 58.789062 Z M 21.609375 18.652344 "/>
</clipPath>
<clipPath id="clip8">
  <path d="M 21.609375 18.652344 L 148.136719 77.390625 L 129.507812 117.527344 L 2.976562 58.789062 Z M 21.609375 18.652344 "/>
</clipPath>
<clipPath id="clip9">
  <path d="M 14 32 L 144 32 L 144 105 L 14 105 Z M 14 32 "/>
</clipPath>
<clipPath id="clip10">
  <path d="M 21.609375 18.652344 L 148.136719 77.390625 L 129.507812 117.527344 L 2.976562 58.789062 Z M 21.609375 18.652344 "/>
</clipPath>
<clipPath id="clip11">
  <path d="M 21.609375 18.652344 L 148.136719 77.390625 L 129.507812 117.527344 L 2.976562 58.789062 Z M 21.609375 18.652344 "/>
</clipPath>
<clipPath id="clip12">
  <path d="M 20.550781 21.339844 L 146.851562 79.972656 L 131.03125 114.054688 L 4.730469 55.421875 Z M 20.550781 21.339844 "/>
</clipPath>
<clipPath id="clip13">
  <path d="M 20.550781 21.339844 L 146.769531 79.933594 L 130.945312 114.015625 L 4.730469 55.421875 Z M 20.550781 21.339844 "/>
</clipPath>
<clipPath id="clip14">
  <path d="M 69 48 L 94 48 L 94 63 L 69 63 Z M 69 48 "/>
</clipPath>
<clipPath id="clip15">
  <path d="M 21.609375 18.652344 L 148.136719 77.390625 L 129.507812 117.527344 L 2.976562 58.789062 Z M 21.609375 18.652344 "/>
</clipPath>
<clipPath id="clip16">
  <path d="M 21.609375 18.652344 L 148.136719 77.390625 L 129.507812 117.527344 L 2.976562 58.789062 Z M 21.609375 18.652344 "/>
</clipPath>
<clipPath id="clip17">
  <path d="M 30 58 L 40 58 L 40 73 L 30 73 Z M 30 58 "/>
</clipPath>
<clipPath id="clip18">
  <path d="M 21.609375 18.652344 L 148.136719 77.390625 L 129.507812 117.527344 L 2.976562 58.789062 Z M 21.609375 18.652344 "/>
</clipPath>
<clipPath id="clip19">
  <path d="M 21.609375 18.652344 L 148.136719 77.390625 L 129.507812 117.527344 L 2.976562 58.789062 Z M 21.609375 18.652344 "/>
</clipPath>
<clipPath id="clip20">
  <path d="M 23 37 L 30 37 L 30 44 L 23 44 Z M 23 37 "/>
</clipPath>
<clipPath id="clip21">
  <path d="M 21.609375 18.652344 L 148.136719 77.390625 L 129.507812 117.527344 L 2.976562 58.789062 Z M 21.609375 18.652344 "/>
</clipPath>
<clipPath id="clip22">
  <path d="M 21.609375 18.652344 L 148.136719 77.390625 L 129.507812 117.527344 L 2.976562 58.789062 Z M 21.609375 18.652344 "/>
</clipPath>
<clipPath id="clip23">
  <path d="M 24 37 L 29 37 L 29 42 L 24 42 Z M 24 37 "/>
</clipPath>
<clipPath id="clip24">
  <path d="M 21.609375 18.652344 L 148.136719 77.390625 L 129.507812 117.527344 L 2.976562 58.789062 Z M 21.609375 18.652344 "/>
</clipPath>
<clipPath id="clip25">
  <path d="M 21.609375 18.652344 L 148.136719 77.390625 L 129.507812 117.527344 L 2.976562 58.789062 Z M 21.609375 18.652344 "/>
</clipPath>
<clipPath id="clip26">
  <path d="M 17 33 L 20 33 L 20 39 L 17 39 Z M 17 33 "/>
</clipPath>
<clipPath id="clip27">
  <path d="M 21.609375 18.652344 L 148.136719 77.390625 L 129.507812 117.527344 L 2.976562 58.789062 Z M 21.609375 18.652344 "/>
</clipPath>
<clipPath id="clip28">
  <path d="M 21.609375 18.652344 L 148.136719 77.390625 L 129.507812 117.527344 L 2.976562 58.789062 Z M 21.609375 18.652344 "/>
</clipPath>
<clipPath id="clip29">
  <path d="M 14 32 L 144 32 L 144 105 L 14 105 Z M 14 32 "/>
</clipPath>
<clipPath id="clip30">
  <path d="M 21.609375 18.652344 L 148.136719 77.390625 L 129.507812 117.527344 L 2.976562 58.789062 Z M 21.609375 18.652344 "/>
</clipPath>
<clipPath id="clip31">
  <path d="M 21.609375 18.652344 L 148.136719 77.390625 L 129.507812 117.527344 L 2.976562 58.789062 Z M 21.609375 18.652344 "/>
</clipPath>
<clipPath id="clip32">
  <path d="M 20.550781 21.339844 L 146.851562 79.972656 L 131.03125 114.054688 L 4.730469 55.421875 Z M 20.550781 21.339844 "/>
</clipPath>
<clipPath id="clip33">
  <path d="M 20.550781 21.339844 L 146.769531 79.933594 L 130.945312 114.015625 L 4.730469 55.421875 Z M 20.550781 21.339844 "/>
</clipPath>
<clipPath id="clip34">
  <path d="M 79 48 L 94 48 L 94 60 L 79 60 Z M 79 48 "/>
</clipPath>
<clipPath id="clip35">
  <path d="M 21.609375 18.652344 L 148.136719 77.390625 L 129.507812 117.527344 L 2.976562 58.789062 Z M 21.609375 18.652344 "/>
</clipPath>
<clipPath id="clip36">
  <path d="M 21.609375 18.652344 L 148.136719 77.390625 L 129.507812 117.527344 L 2.976562 58.789062 Z M 21.609375 18.652344 "/>
</clipPath>
<clipPath id="clip37">
  <path d="M 40 56 L 103 56 L 103 83 L 40 83 Z M 40 56 "/>
</clipPath>
<clipPath id="clip38">
  <path d="M 21.609375 18.652344 L 148.136719 77.390625 L 129.507812 117.527344 L 2.976562 58.789062 Z M 21.609375 18.652344 "/>
</clipPath>
<clipPath id="clip39">
  <path d="M 21.609375 18.652344 L 148.136719 77.390625 L 129.507812 117.527344 L 2.976562 58.789062 Z M 21.609375 18.652344 "/>
</clipPath>
<clipPath id="clip40">
  <path d="M 42 40 L 112 40 L 112 79 L 42 79 Z M 42 40 "/>
</clipPath>
<clipPath id="clip41">
  <path d="M 21.609375 18.652344 L 148.136719 77.390625 L 129.507812 117.527344 L 2.976562 58.789062 Z M 21.609375 18.652344 "/>
</clipPath>
<clipPath id="clip42">
  <path d="M 21.609375 18.652344 L 148.136719 77.390625 L 129.507812 117.527344 L 2.976562 58.789062 Z M 21.609375 18.652344 "/>
</clipPath>
<clipPath id="clip43">
  <path d="M 20 41 L 39 41 L 39 52 L 20 52 Z M 20 41 "/>
</clipPath>
<clipPath id="clip44">
  <path d="M 21.609375 18.652344 L 148.136719 77.390625 L 129.507812 117.527344 L 2.976562 58.789062 Z M 21.609375 18.652344 "/>
</clipPath>
<clipPath id="clip45">
  <path d="M 21.609375 18.652344 L 148.136719 77.390625 L 129.507812 117.527344 L 2.976562 58.789062 Z M 21.609375 18.652344 "/>
</clipPath>
<clipPath id="clip46">
  <path d="M 32 42 L 43 42 L 43 55 L 32 55 Z M 32 42 "/>
</clipPath>
<clipPath id="clip47">
  <path d="M 21.609375 18.652344 L 148.136719 77.390625 L 129.507812 117.527344 L 2.976562 58.789062 Z M 21.609375 18.652344 "/>
</clipPath>
<clipPath id="clip48">
  <path d="M 21.609375 18.652344 L 148.136719 77.390625 L 129.507812 117.527344 L 2.976562 58.789062 Z M 21.609375 18.652344 "/>
</clipPath>
<clipPath id="clip49">
  <path d="M 122 79 L 140 79 L 140 85 L 122 85 Z M 122 79 "/>
</clipPath>
<clipPath id="clip50">
  <path d="M 21.609375 18.652344 L 148.136719 77.390625 L 129.507812 117.527344 L 2.976562 58.789062 Z M 21.609375 18.652344 "/>
</clipPath>
<clipPath id="clip51">
  <path d="M 21.609375 18.652344 L 148.136719 77.390625 L 129.507812 117.527344 L 2.976562 58.789062 Z M 21.609375 18.652344 "/>
</clipPath>
<clipPath id="clip52">
  <path d="M 121 84 L 134 84 L 134 100 L 121 100 Z M 121 84 "/>
</clipPath>
<clipPath id="clip53">
  <path d="M 21.609375 18.652344 L 148.136719 77.390625 L 129.507812 117.527344 L 2.976562 58.789062 Z M 21.609375 18.652344 "/>
</clipPath>
<clipPath id="clip54">
  <path d="M 21.609375 18.652344 L 148.136719 77.390625 L 129.507812 117.527344 L 2.976562 58.789062 Z M 21.609375 18.652344 "/>
</clipPath>
</defs>
<g id="surface1">
<g clip-path="url(#clip1)" clip-rule="nonzero">
<g clip-path="url(#clip2)" clip-rule="nonzero">
<g clip-path="url(#clip3)" clip-rule="nonzero">
<g clip-path="url(#clip4)" clip-rule="nonzero">
<g clip-path="url(#clip5)" clip-rule="nonzero">
<path style=" stroke:none;fill-rule:nonzero;fill:rgb(100%,100%,100%);fill-opacity:1;" d="M 75.007812 88.550781 C 74.769531 88.675781 74.527344 88.789062 74.28125 88.882812 C 71.636719 89.925781 68.753906 89.328125 68.753906 89.328125 C 68.007812 88.054688 67.421875 86.875 66.964844 85.882812 C 66.964844 85.878906 66.964844 85.878906 66.960938 85.875 C 66.207031 84.222656 65.824219 83.09375 65.734375 82.957031 L 71.5625 84.535156 C 73.964844 86.585938 75.007812 88.550781 75.007812 88.550781 "/>
</g>
</g>
</g>
</g>
</g>
<g clip-path="url(#clip6)" clip-rule="nonzero">
<g clip-path="url(#clip7)" clip-rule="nonzero">
<g clip-path="url(#clip8)" clip-rule="nonzero">
<path style=" stroke:none;fill-rule:nonzero;fill:rgb(100%,100%,100%);fill-opacity:1;" d="M 75.007812 88.550781 C 74.769531 88.675781 74.527344 88.789062 74.28125 88.882812 C 71.464844 85.652344 66.441406 84.640625 66.960938 85.875 C 66.207031 84.222656 65.824219 83.09375 65.734375 82.957031 L 71.5625 84.535156 C 73.964844 86.585938 75.007812 88.550781 75.007812 88.550781 "/>
</g>
</g>
</g>
<g clip-path="url(#clip9)" clip-rule="nonzero">
<g clip-path="url(#clip10)" clip-rule="nonzero">
<g clip-path="url(#clip11)" clip-rule="nonzero">
<g clip-path="url(#clip12)" clip-rule="nonzero">
<g clip-path="url(#clip13)" clip-rule="nonzero">
<path style=" stroke:none;fill-rule:nonzero;fill:rgb(100%,100%,100%);fill-opacity:1;" d="M 135.257812 104.726562 C 135.257812 104.726562 131.203125 102.007812 127.988281 98.269531 C 124.769531 94.535156 121.140625 86.921875 113.652344 86.515625 C 112.421875 86.449219 111.183594 86.460938 109.917969 86.53125 C 108.007812 86.632812 106.027344 86.855469 103.882812 87.101562 C 98.820312 87.6875 92.867188 88.402344 84.84375 87.964844 C 71.183594 87.214844 57.605469 80.175781 46.753906 74.082031 C 46.519531 73.949219 46.289062 73.820312 46.0625 73.683594 C 35.574219 67.5625 28.183594 57.910156 25.558594 55.195312 C 25.558594 55.195312 24.902344 54.449219 23.929688 53.242188 C 23.753906 53.023438 23.566406 52.792969 23.371094 52.542969 C 21.707031 50.445312 19.429688 47.371094 17.765625 44.371094 C 16.34375 41.800781 15.023438 38.9375 14.472656 36.953125 C 14.113281 35.660156 14.082031 34.746094 14.558594 34.53125 C 15.773438 33.988281 16.992188 35.753906 16.992188 35.753906 C 16.992188 35.753906 16.691406 34.113281 17.09375 33.144531 C 17.492188 32.171875 19.503906 33.074219 19.867188 33.796875 C 19.867188 33.796875 27.035156 34.5 35.449219 35.960938 C 43.863281 37.425781 54.75 40.488281 71.789062 49.660156 C 84.398438 56.445312 100.898438 67.945312 109.0625 73.6875 C 117.230469 79.425781 119.460938 80.984375 124.753906 80.109375 C 130.046875 79.234375 139.886719 77.648438 145.441406 79.417969 C 145.441406 79.417969 141.933594 81.335938 138.324219 84.261719 C 134.710938 87.1875 132.257812 88.5625 129.488281 87.496094 C 129.488281 87.496094 132.726562 89.375 133.480469 93.648438 C 134.230469 97.921875 134.449219 101.457031 135.257812 104.726562 "/>
</g>
</g>
</g>
</g>
</g>
<g clip-path="url(#clip14)" clip-rule="nonzero">
<g clip-path="url(#clip15)" clip-rule="nonzero">
<g clip-path="url(#clip16)" clip-rule="nonzero">
<path style=" stroke:none;fill-rule:nonzero;fill:rgb(100%,100%,100%);fill-opacity:1;" d="M 93.605469 59.042969 C 93.605469 59.042969 88.246094 59.296875 84.726562 61.855469 C 81.210938 64.410156 69.707031 49.964844 69.707031 49.964844 C 69.707031 49.964844 77.15625 47.882812 86.3125 48.691406 C 86.3125 48.691406 89.984375 55.742188 93.605469 59.042969 "/>
</g>
</g>
</g>
<g clip-path="url(#clip17)" clip-rule="nonzero">
<g clip-path="url(#clip18)" clip-rule="nonzero">
<g clip-path="url(#clip19)" clip-rule="nonzero">
<path style=" stroke:none;fill-rule:nonzero;fill:rgb(100%,100%,100%);fill-opacity:1;" d="M 39.957031 72.589844 C 39.957031 72.589844 39.421875 72.625 38.570312 72.542969 C 36.8125 72.375 33.703125 71.71875 31.1875 69.273438 C 31.1875 69.273438 30.601562 63.976562 30.96875 60.542969 C 30.972656 60.542969 30.972656 60.542969 30.972656 60.539062 C 31.003906 60.210938 31.050781 59.902344 31.105469 59.613281 C 31.515625 57.425781 33.875 57.523438 36.015625 61.210938 C 38.15625 64.894531 38.605469 69.925781 39.957031 72.589844 "/>
<path style=" stroke:none;fill-rule:nonzero;fill:rgb(100%,100%,100%);fill-opacity:1;" d="M 39.957031 72.589844 C 39.957031 72.589844 39.421875 72.625 38.570312 72.542969 C 35.46875 69.789062 34.722656 65.96875 33.621094 62.289062 C 32.519531 58.613281 31.457031 58.515625 30.972656 60.539062 C 31.003906 60.210938 31.050781 59.902344 31.105469 59.613281 C 31.515625 57.425781 33.875 57.523438 36.015625 61.210938 C 38.15625 64.894531 38.605469 69.925781 39.957031 72.589844 "/>
</g>
</g>
</g>
<g clip-path="url(#clip20)" clip-rule="nonzero">
<g clip-path="url(#clip21)" clip-rule="nonzero">
<g clip-path="url(#clip22)" clip-rule="nonzero">
<path style=" stroke:none;fill-rule:nonzero;fill:rgb(100%,100%,100%);fill-opacity:1;" d="M 27.875 37.484375 C 26.238281 36.726562 24.296875 37.433594 23.539062 39.070312 C 22.78125 40.703125 23.492188 42.644531 25.128906 43.40625 C 26.761719 44.164062 28.703125 43.457031 29.464844 41.820312 C 30.222656 40.1875 29.511719 38.246094 27.875 37.484375 "/>
<path style=" stroke:none;fill-rule:nonzero;fill:rgb(0%,0%,0%);fill-opacity:1;" d="M 25.410156 42.796875 C 24.109375 42.191406 23.546875 40.652344 24.148438 39.351562 C 24.75 38.054688 26.292969 37.492188 27.59375 38.09375 C 28.890625 38.699219 29.457031 40.238281 28.855469 41.539062 C 28.25 42.835938 26.710938 43.398438 25.410156 42.796875 "/>
</g>
</g>
</g>
<g clip-path="url(#clip23)" clip-rule="nonzero">
<g clip-path="url(#clip24)" clip-rule="nonzero">
<g clip-path="url(#clip25)" clip-rule="nonzero">
<path style=" stroke:none;fill-rule:nonzero;fill:rgb(100%,100%,100%);fill-opacity:1;" d="M 28.65625 40.570312 C 28.1875 41.574219 26.996094 42.007812 25.992188 41.542969 C 24.988281 41.074219 24.550781 39.882812 25.015625 38.882812 C 25.484375 37.878906 26.675781 37.441406 27.679688 37.910156 C 28.683594 38.375 29.121094 39.566406 28.65625 40.570312 "/>
</g>
</g>
</g>
<g clip-path="url(#clip26)" clip-rule="nonzero">
<g clip-path="url(#clip27)" clip-rule="nonzero">
<g clip-path="url(#clip28)" clip-rule="nonzero">
<path style=" stroke:none;fill-rule:nonzero;fill:rgb(100%,100%,100%);fill-opacity:1;" d="M 18.160156 33.441406 C 17.457031 33.410156 17.316406 34.640625 18.015625 36.25 C 18.710938 37.859375 18.734375 38.125 18.734375 38.125 C 18.734375 38.125 19.554688 36.613281 19.535156 35.6875 C 19.507812 34.300781 18.851562 33.472656 18.160156 33.441406 "/>
</g>
</g>
</g>
<g clip-path="url(#clip29)" clip-rule="nonzero">
<g clip-path="url(#clip30)" clip-rule="nonzero">
<g clip-path="url(#clip31)" clip-rule="nonzero">
<g clip-path="url(#clip32)" clip-rule="nonzero">
<g clip-path="url(#clip33)" clip-rule="nonzero">
<path style=" stroke:none;fill-rule:nonzero;fill:rgb(100%,100%,100%);fill-opacity:1;" d="M 133.480469 93.648438 C 132.726562 89.375 129.488281 87.496094 129.488281 87.496094 C 132.257812 88.5625 134.710938 87.1875 138.324219 84.261719 C 141.933594 81.335938 145.441406 79.417969 145.441406 79.417969 C 139.886719 77.648438 130.046875 79.234375 124.753906 80.109375 C 119.460938 80.984375 117.230469 79.425781 109.0625 73.6875 C 100.898438 67.945312 84.398438 56.445312 71.789062 49.660156 C 54.75 40.488281 43.863281 37.425781 35.449219 35.960938 C 27.035156 34.5 19.867188 33.796875 19.867188 33.796875 C 19.503906 33.074219 17.492188 32.171875 17.09375 33.144531 C 16.691406 34.113281 16.992188 35.753906 16.992188 35.753906 C 16.992188 35.753906 15.773438 33.988281 14.558594 34.53125 C 14.082031 34.746094 14.113281 35.660156 14.472656 36.953125 L 14.527344 36.96875 C 14.300781 35.261719 16.570312 35.492188 18.257812 39.410156 C 19.894531 43.207031 20.296875 44.691406 20.320312 44.777344 C 20.300781 44.625 19.726562 39.332031 21.007812 37.382812 C 22.308594 35.402344 25.460938 35.90625 27.800781 37 C 30.140625 38.09375 32.6875 41.996094 32.644531 44.964844 C 32.605469 47.933594 36.523438 47.242188 36.675781 43.875 C 36.828125 40.507812 37.046875 39.132812 38.105469 40.351562 C 39.160156 41.574219 39.648438 46.582031 36.101562 50.277344 C 32.289062 54.253906 26.609375 51.472656 23.371094 52.542969 C 23.566406 52.792969 23.753906 53.023438 23.929688 53.242188 C 24.675781 52.886719 25.910156 52.613281 27.820312 53.023438 C 31.488281 53.8125 35.210938 53.804688 38.144531 49.785156 C 41.527344 45.152344 39.269531 41.03125 39.210938 40.921875 C 39.320312 41.007812 43.695312 44.550781 42.519531 49.546875 C 41.332031 54.613281 37.480469 54.902344 35.257812 54.96875 C 33.035156 55.035156 28.378906 54.429688 27.449219 55.679688 C 27.449219 55.679688 30.214844 55.628906 33.609375 56.546875 C 37.414062 57.582031 40.675781 56.054688 42.605469 54.058594 C 44.539062 52.066406 46.105469 48.988281 56.207031 54.535156 C 66.308594 60.078125 81.917969 68.8125 95.601562 74.054688 C 109.285156 79.296875 117.804688 82.90625 113.804688 83.804688 C 112.625 84.074219 111.597656 84.351562 110.644531 84.644531 L 110.65625 84.609375 C 104.238281 85.835938 77.5625 90.800781 47.066406 74.226562 C 46.71875 74.035156 46.382812 73.855469 46.0625 73.683594 C 46.289062 73.820312 46.519531 73.949219 46.753906 74.082031 C 57.605469 80.175781 71.183594 87.214844 84.84375 87.964844 C 92.867188 88.402344 98.820312 87.6875 103.882812 87.101562 C 104.148438 87.070312 104.414062 87.042969 104.671875 87.011719 C 104.679688 87.011719 104.6875 87.011719 104.691406 87.007812 C 104.929688 86.980469 105.164062 86.957031 105.398438 86.929688 C 105.441406 86.925781 105.488281 86.921875 105.53125 86.914062 C 106.710938 86.785156 107.894531 86.664062 109.074219 86.582031 C 109.164062 86.578125 109.253906 86.570312 109.34375 86.566406 C 109.484375 86.554688 109.625 86.546875 109.761719 86.539062 C 111.085938 86.464844 112.371094 86.445312 113.652344 86.515625 C 121.140625 86.921875 124.769531 94.535156 127.988281 98.269531 C 131.203125 102.007812 135.257812 104.726562 135.257812 104.726562 C 134.449219 101.457031 134.230469 97.921875 133.480469 93.648438 "/>
</g>
</g>
</g>
</g>
</g>
<g clip-path="url(#clip34)" clip-rule="nonzero">
<g clip-path="url(#clip35)" clip-rule="nonzero">
<g clip-path="url(#clip36)" clip-rule="nonzero">
<path style=" stroke:none;fill-rule:nonzero;fill:rgb(0%,0%,0%);fill-opacity:1;" d="M 93.605469 59.042969 C 92.109375 58.832031 88.636719 57.699219 82.257812 53.652344 C 75.882812 49.605469 81.136719 49.449219 86.3125 48.691406 C 86.3125 48.691406 89.984375 55.742188 93.605469 59.042969 "/>
</g>
</g>
</g>
<g clip-path="url(#clip37)" clip-rule="nonzero">
<g clip-path="url(#clip38)" clip-rule="nonzero">
<g clip-path="url(#clip39)" clip-rule="nonzero">
<path style=" stroke:none;fill-rule:nonzero;fill:rgb(0%,0%,0%);fill-opacity:1;" d="M 51.15625 56.984375 C 45.792969 55.148438 34.207031 57.046875 43.683594 64.417969 C 53.15625 71.792969 62.804688 77.8125 79.359375 80.53125 C 95.914062 83.253906 109.585938 82.097656 98.050781 78.273438 C 86.519531 74.445312 59.703125 59.910156 51.15625 56.984375 "/>
</g>
</g>
</g>
<g clip-path="url(#clip40)" clip-rule="nonzero">
<g clip-path="url(#clip41)" clip-rule="nonzero">
<g clip-path="url(#clip42)" clip-rule="nonzero">
<path style=" stroke:none;fill-rule:nonzero;fill:rgb(0%,0%,0%);fill-opacity:1;" d="M 103.085938 72.199219 C 105.871094 74.105469 109.3125 76.605469 111.8125 78.386719 C 111.464844 78.21875 111.089844 78.042969 110.6875 77.859375 C 108.222656 76.714844 105.011719 75.292969 101.609375 73.789062 C 97.4375 71.941406 92.710938 69.847656 88.257812 67.78125 C 81.875 64.820312 77.292969 62.476562 74.257812 60.628906 C 69.996094 58.03125 64.761719 55.300781 58.261719 52.28125 C 55.652344 51.070312 53.296875 50.027344 51.402344 49.183594 C 50.183594 48.644531 49.125 48.171875 48.375 47.824219 C 47.953125 47.628906 47.648438 47.480469 47.441406 47.371094 C 46.472656 46.859375 46.195312 46.179688 45.738281 45.050781 C 45.269531 43.90625 44.691406 42.484375 43.167969 40.988281 C 42.789062 40.617188 42.507812 40.316406 42.304688 40.078125 C 42.375 40.089844 42.453125 40.101562 42.535156 40.117188 C 47.777344 41.015625 53.785156 43.0625 60.898438 46.363281 C 64.035156 47.820312 67.472656 49.5625 71.117188 51.550781 C 79.824219 56.292969 93.820312 65.867188 103.085938 72.199219 "/>
</g>
</g>
</g>
<g clip-path="url(#clip43)" clip-rule="nonzero">
<g clip-path="url(#clip44)" clip-rule="nonzero">
<g clip-path="url(#clip45)" clip-rule="nonzero">
<path style=" stroke:none;fill-rule:nonzero;fill:rgb(0%,0%,0%);fill-opacity:1;" d="M 21.929688 44.410156 C 24.679688 44.445312 25.1875 46.554688 27.179688 45.855469 C 29.046875 45.199219 29.238281 42.640625 30.074219 43.125 C 30.792969 43.542969 30.78125 44.769531 31.492188 45.792969 C 32.136719 46.730469 33.816406 47.941406 34.980469 47.519531 C 36.140625 47.101562 37.878906 45.105469 37.894531 41.515625 C 37.894531 41.515625 39.269531 46.957031 34.484375 50.4375 C 32.070312 52.191406 26.222656 51.785156 24.246094 50.554688 C 21.503906 48.851562 19.179688 44.378906 21.929688 44.410156 "/>
</g>
</g>
</g>
<g clip-path="url(#clip46)" clip-rule="nonzero">
<g clip-path="url(#clip47)" clip-rule="nonzero">
<g clip-path="url(#clip48)" clip-rule="nonzero">
<path style=" stroke:none;fill-rule:nonzero;fill:rgb(0%,0%,0%);fill-opacity:1;" d="M 40.148438 42.21875 C 40.148438 42.21875 43.554688 46.75 41.144531 50.867188 C 38.734375 54.980469 32.640625 54.132812 32.640625 54.132812 C 42.851562 50.421875 40.148438 42.21875 40.148438 42.21875 "/>
</g>
</g>
</g>
<g clip-path="url(#clip49)" clip-rule="nonzero">
<g clip-path="url(#clip50)" clip-rule="nonzero">
<g clip-path="url(#clip51)" clip-rule="nonzero">
<path style=" stroke:none;fill-rule:nonzero;fill:rgb(0%,0%,0%);fill-opacity:1;" d="M 122.601562 81.421875 C 126.328125 82.175781 133.914062 78.625 139.832031 80.136719 C 139.832031 80.136719 137.8125 81.675781 135.304688 83.214844 C 132.632812 84.851562 130.871094 84.644531 128.101562 83.976562 C 124.703125 83.15625 122.601562 81.421875 122.601562 81.421875 "/>
</g>
</g>
</g>
<g clip-path="url(#clip52)" clip-rule="nonzero">
<g clip-path="url(#clip53)" clip-rule="nonzero">
<g clip-path="url(#clip54)" clip-rule="nonzero">
<path style=" stroke:none;fill-rule:nonzero;fill:rgb(0%,0%,0%);fill-opacity:1;" d="M 121.214844 84.410156 C 124.203125 85.457031 130.410156 88.339844 131.5 92.574219 C 132.585938 96.804688 133.539062 99.871094 133.539062 99.871094 C 133.539062 99.871094 128.808594 96.898438 126.433594 91.246094 C 124.058594 85.59375 121.214844 84.410156 121.214844 84.410156 "/>
</g>
</g>
</g>
</g>
</svg>
