<?xml version="1.0" encoding="UTF-8"?>
<svg xmlns="http://www.w3.org/2000/svg" xmlns:xlink="http://www.w3.org/1999/xlink" width="144pt" height="143.999998pt" viewBox="0 0 144 143.999998" version="1.2">
<defs>
<clipPath id="clip1">
  <path d="M 29 64 L 107 64 L 107 126.898438 L 29 126.898438 Z M 29 64 "/>
</clipPath>
<clipPath id="clip2">
  <path d="M 72 14.398438 L 131 14.398438 L 131 52 L 72 52 Z M 72 14.398438 "/>
</clipPath>
<clipPath id="clip3">
  <path d="M 14.398438 24 L 73 24 L 73 62 L 14.398438 62 Z M 14.398438 24 "/>
</clipPath>
</defs>
<g id="surface1">
<g clip-path="url(#clip1)" clip-rule="nonzero">
<path style=" stroke:none;fill-rule:nonzero;fill:rgb(100%,100%,100%);fill-opacity:1;" d="M 101.328125 69.5625 L 98.769531 69.5625 L 98.769531 66.476562 L 101.328125 66.476562 Z M 101.277344 119.8125 C 101.277344 120.523438 100.707031 121.097656 100 121.097656 C 99.292969 121.097656 98.722656 120.523438 98.722656 119.8125 L 98.722656 74.175781 C 98.722656 73.464844 99.292969 72.890625 100 72.890625 C 100.707031 72.890625 101.277344 73.464844 101.277344 74.175781 Z M 92.113281 69.5625 L 89.554688 69.5625 L 89.554688 66.476562 L 92.113281 66.476562 Z M 92.070312 119.8125 C 92.070312 120.523438 91.5 121.097656 90.792969 121.097656 C 90.085938 121.097656 89.511719 120.523438 89.511719 119.8125 L 89.511719 74.175781 C 89.511719 73.464844 90.085938 72.890625 90.792969 72.890625 C 91.5 72.890625 92.070312 73.464844 92.070312 74.175781 Z M 82.894531 69.5625 L 80.339844 69.5625 L 80.339844 66.476562 L 82.894531 66.476562 Z M 82.863281 119.8125 C 82.863281 120.523438 82.289062 121.097656 81.582031 121.097656 C 80.878906 121.097656 80.304688 120.523438 80.304688 119.8125 L 80.304688 74.175781 C 80.304688 73.464844 80.878906 72.890625 81.582031 72.890625 C 82.289062 72.890625 82.863281 73.464844 82.863281 74.175781 Z M 73.679688 69.5625 L 71.125 69.5625 L 71.125 66.476562 L 73.679688 66.476562 Z M 73.65625 119.8125 C 73.65625 120.523438 73.082031 121.097656 72.375 121.097656 C 71.667969 121.097656 71.097656 120.523438 71.097656 119.8125 L 71.097656 74.175781 C 71.097656 73.464844 71.667969 72.890625 72.375 72.890625 C 73.082031 72.890625 73.65625 73.464844 73.65625 74.175781 Z M 64.464844 69.5625 L 61.90625 69.5625 L 61.90625 66.476562 L 64.464844 66.476562 Z M 64.445312 119.8125 C 64.445312 120.523438 63.875 121.097656 63.167969 121.097656 C 62.460938 121.097656 61.886719 120.523438 61.886719 119.8125 L 61.886719 74.175781 C 61.886719 73.464844 62.460938 72.890625 63.167969 72.890625 C 63.875 72.890625 64.445312 73.464844 64.445312 74.175781 Z M 55.25 69.5625 L 52.695312 69.5625 L 52.695312 66.476562 L 55.25 66.476562 Z M 55.238281 119.8125 C 55.238281 120.523438 54.664062 121.097656 53.957031 121.097656 C 53.253906 121.097656 52.679688 120.523438 52.679688 119.8125 L 52.679688 74.175781 C 52.679688 73.464844 53.253906 72.890625 53.957031 72.890625 C 54.664062 72.890625 55.238281 73.464844 55.238281 74.175781 Z M 46.035156 69.5625 L 43.480469 69.5625 L 43.480469 66.476562 L 46.035156 66.476562 Z M 46.03125 119.8125 C 46.03125 120.523438 45.457031 121.097656 44.75 121.097656 C 44.042969 121.097656 43.472656 120.523438 43.472656 119.8125 L 43.472656 74.175781 C 43.472656 73.464844 44.042969 72.890625 44.75 72.890625 C 45.457031 72.890625 46.03125 73.464844 46.03125 74.175781 Z M 36.820312 69.5625 L 34.265625 69.5625 L 34.265625 66.476562 L 36.820312 66.476562 Z M 36.820312 119.8125 C 36.820312 120.523438 36.25 121.097656 35.542969 121.097656 C 34.835938 121.097656 34.265625 120.523438 34.265625 119.8125 L 34.265625 74.175781 C 34.265625 73.464844 34.835938 72.890625 35.542969 72.890625 C 36.25 72.890625 36.820312 73.464844 36.820312 74.175781 Z M 29.105469 64.144531 L 29.105469 126.917969 L 106.4375 126.917969 L 106.4375 64.144531 L 29.105469 64.144531 "/>
</g>
<g clip-path="url(#clip2)" clip-rule="nonzero">
<path style=" stroke:none;fill-rule:nonzero;fill:rgb(100%,100%,100%);fill-opacity:1;" d="M 84.847656 44.433594 L 129.964844 17.8125 C 130.769531 17.335938 131.039062 16.292969 130.570312 15.484375 C 130.097656 14.671875 129.058594 14.402344 128.253906 14.878906 L 83.136719 41.496094 C 81.351562 40.117188 78.546875 40.015625 76.136719 41.4375 C 73.113281 43.21875 71.863281 46.71875 73.339844 49.25 C 74.816406 51.78125 78.464844 52.390625 81.484375 50.609375 C 83.894531 49.1875 85.175781 46.675781 84.847656 44.433594 "/>
</g>
<g clip-path="url(#clip3)" clip-rule="nonzero">
<path style=" stroke:none;fill-rule:nonzero;fill:rgb(100%,100%,100%);fill-opacity:1;" d="M 60.589844 53.886719 L 15.472656 27.269531 C 14.667969 26.792969 14.398438 25.75 14.871094 24.941406 C 15.34375 24.128906 16.378906 23.859375 17.183594 24.332031 L 62.300781 50.953125 C 64.089844 49.570312 66.894531 49.472656 69.300781 50.894531 C 72.324219 52.675781 73.578125 56.171875 72.101562 58.707031 C 70.621094 61.238281 66.976562 61.847656 63.953125 60.0625 C 61.546875 58.640625 60.261719 56.132812 60.589844 53.886719 "/>
</g>
</g>
</svg>
