<?xml version="1.0" encoding="UTF-8" standalone="no"?>
<svg
   xmlns:dc="http://purl.org/dc/elements/1.1/"
   xmlns:cc="http://creativecommons.org/ns#"
   xmlns:rdf="http://www.w3.org/1999/02/22-rdf-syntax-ns#"
   xmlns:svg="http://www.w3.org/2000/svg"
   xmlns="http://www.w3.org/2000/svg"
   xmlns:sodipodi="http://sodipodi.sourceforge.net/DTD/sodipodi-0.dtd"
   xmlns:inkscape="http://www.inkscape.org/namespaces/inkscape"
   id="svg"
   width="400"
   height="382.4817518248175"
   viewBox="0, 0, 400,382.4817518248175"
   version="1.1"
   sodipodi:docname="lycan.svg"
   inkscape:version="0.92.3 (2405546, 2018-03-11)">
  <metadata
     id="metadata86">
    <rdf:RDF>
      <cc:Work
         rdf:about="">
        <dc:format>image/svg+xml</dc:format>
        <dc:type
           rdf:resource="http://purl.org/dc/dcmitype/StillImage" />
      </cc:Work>
    </rdf:RDF>
  </metadata>
  <defs
     id="defs84" />
  <sodipodi:namedview
     pagecolor="#ffffff"
     bordercolor="#666666"
     borderopacity="1"
     objecttolerance="10"
     gridtolerance="10"
     guidetolerance="10"
     inkscape:pageopacity="0"
     inkscape:pageshadow="2"
     inkscape:window-width="2495"
     inkscape:window-height="1056"
     id="namedview82"
     showgrid="false"
     inkscape:zoom="1.6897423"
     inkscape:cx="269.9226"
     inkscape:cy="197.21211"
     inkscape:window-x="65"
     inkscape:window-y="24"
     inkscape:window-maximized="1"
     inkscape:current-layer="svg" />
  <g
     id="svgg">
    <path
       id="path0"
       d="m 141.43189,21.114369 c -5.03359,16.894161 -4.65743,23.151765 1.25526,20.869568 2.66139,-1.027305 8.18744,-1.867061 12.27802,-1.867061 7.40579,0 7.41731,-0.05268 2.66558,-11.536371 C 149.55437,9.0617119 145.56962,7.2252069 141.43189,21.114369 m 103.65383,2.420225 c -7.65935,16.38525 -8.14343,15.149323 7.00449,17.905661 l 11.75832,2.138902 -2.2056,-10.190865 C 255.76586,6.2210819 253.74153,5.0157109 245.08572,23.534594 m -9.7738,31.419725 c -32.77492,16.455844 -36.58888,93.759751 -5.47366,110.967901 16.12656,8.91911 39.20103,-7.39239 45.38404,-32.08458 12.12191,-48.40977 -10.71366,-93.542698 -39.91038,-78.883321 m -97.73171,3.890062 C 100.86035,95.769413 133.86055,193.6036 172.67808,162.89825 206.13512,136.43488 192.5746,52.422408 154.84677,52.422408 c -6.95315,0 -13.18541,2.318021 -17.26656,6.421973 M 57.693427,83.87585 c -0.731359,2.15892 -1.67961,9.725153 -2.108157,16.81514 l -0.778509,12.89136 10.163578,-3.60031 c 5.589968,-1.9798 10.60889,-3.84581 11.153742,-4.14504 1.800106,-0.99043 -8.149723,-18.413524 -12.667801,-22.184523 -3.472381,-2.898581 -4.722396,-2.850113 -5.762853,0.223373 m 275.107123,5.198689 c -10.92218,13.053621 -10.52297,16.528551 2.36905,20.586141 11.60011,3.65088 13.75646,-2.55509 8.03342,-23.129642 l -2.06415,-7.420829 -8.33832,9.96433 M 64.426535,120.93996 c -16.98051,8.49133 -24.996116,40.57275 -17.025565,68.1435 9.946685,34.40681 35.185889,50.40221 51.880355,32.87903 32.262555,-33.86208 2.624725,-119.76373 -34.85479,-101.02253 m 250.858085,0.22759 c -20.02956,11.42315 -27.01371,40.25305 -27.40709,60.51616 -0.33424,61.21156 49.86755,65.9456 65.08882,6.13748 10.61936,-41.72754 -11.35597,-80.5997 -37.68173,-66.65364 m -150.09825,89.82648 c -69.312465,21.47752 -95.712623,124.94346 -39.47345,154.70053 14.27721,7.55359 16.39165,7.56623 53.9225,0.3182 14.48048,-2.79638 23.68743,-2.80059 39.76998,-0.0147 39.65681,6.86977 41.61514,6.84765 55.87349,-0.63113 33.58486,-17.61591 38.34498,-81.96313 8.83917,-119.49822 -27.12838,-34.51323 -74.89615,-48.51934 -118.93169,-34.87463"
       inkscape:connector-curvature="0"
       style="fill:#000000;fill-rule:evenodd;stroke:none;stroke-width:1.05071473"
       sodipodi:nodetypes="ccscccccccccccccscccccccccccccccccccccccccscc" />
  </g>
</svg>
