<svg id="svg" version="1.1" xmlns="http://www.w3.org/2000/svg" xmlns:xlink="http://www.w3.org/1999/xlink" width="400" height="387.06199460916446" viewBox="0, 0, 400,387.06199460916446"><g id="svgg"><path id="path0" d="M182.471 20.150 C 181.407 22.747,181.436 236.893,182.500 240.701 C 183.510 244.310,189.915 245.075,191.529 241.779 C 192.700 239.388,193.319 45.404,192.204 30.189 L 191.375 18.868 187.323 18.533 C 184.224 18.276,183.083 18.657,182.471 20.150 M197.565 20.150 C 196.502 22.747,196.530 236.893,197.595 240.701 C 198.604 244.310,205.009 245.075,206.623 241.779 C 207.781 239.415,208.416 34.156,207.293 25.337 L 206.469 18.868 202.417 18.533 C 199.318 18.276,198.177 18.657,197.565 20.150 M190.836 20.485 C 190.836 21.078,189.137 21.563,187.062 21.563 C 184.987 21.563,183.288 21.078,183.288 20.485 C 183.288 19.892,184.987 19.407,187.062 19.407 C 189.137 19.407,190.836 19.892,190.836 20.485 M205.930 20.485 C 205.930 21.078,204.232 21.563,202.156 21.563 C 200.081 21.563,198.383 21.078,198.383 20.485 C 198.383 19.892,200.081 19.407,202.156 19.407 C 204.232 19.407,205.930 19.892,205.930 20.485 M168.455 36.323 C 167.391 38.919,167.419 236.893,168.484 240.701 C 169.494 244.311,175.905 245.077,177.503 241.779 C 178.667 239.378,179.311 53.958,178.193 43.127 L 177.358 35.040 173.307 34.705 C 170.208 34.449,169.067 34.829,168.455 36.323 M211.582 36.323 C 210.518 38.919,210.546 236.893,211.611 240.701 C 212.620 244.310,219.025 245.075,220.639 241.779 C 221.818 239.373,222.464 48.905,221.321 40.970 C 220.380 34.440,213.666 31.236,211.582 36.323 M175.484 36.320 C 174.453 36.590,172.513 36.600,171.172 36.342 C 169.830 36.084,170.674 35.863,173.046 35.851 C 175.418 35.839,176.515 36.050,175.484 36.320 M218.611 36.320 C 217.580 36.590,215.639 36.600,214.298 36.342 C 212.957 36.084,213.801 35.863,216.173 35.851 C 218.544 35.839,219.642 36.050,218.611 36.320 M156.624 49.326 C 155.541 53.199,155.541 236.828,156.624 240.701 C 157.317 243.177,158.046 243.666,161.048 243.666 L 164.643 243.666 165.340 235.417 C 166.252 224.637,166.247 72.755,165.335 57.850 L 164.632 46.361 161.043 46.361 C 158.047 46.361,157.316 46.851,156.624 49.326 M223.884 57.850 C 222.972 72.755,222.967 224.637,223.878 235.417 L 224.575 243.666 228.170 243.666 C 233.537 243.666,233.423 245.804,233.423 145.013 C 233.423 44.239,233.536 46.361,228.176 46.361 L 224.586 46.361 223.884 57.850 M163.881 50.135 C 163.881 51.213,162.803 51.752,160.647 51.752 C 158.491 51.752,157.412 51.213,157.412 50.135 C 157.412 49.057,158.491 48.518,160.647 48.518 C 162.803 48.518,163.881 49.057,163.881 50.135 M231.806 50.135 C 231.806 51.213,230.728 51.752,228.571 51.752 C 226.415 51.752,225.337 51.213,225.337 50.135 C 225.337 49.057,226.415 48.518,228.571 48.518 C 230.728 48.518,231.806 49.057,231.806 50.135 M144.493 79.515 C 143.011 88.112,143.350 238.698,144.859 241.779 C 146.064 244.239,152.597 244.376,153.523 241.960 C 154.391 239.701,154.372 79.946,153.504 75.606 C 152.024 68.206,145.992 70.823,144.493 79.515 M235.714 75.606 C 234.846 79.946,234.828 239.701,235.695 241.960 C 236.622 244.376,243.154 244.239,244.359 241.779 C 245.868 238.698,246.208 88.112,244.725 79.515 C 243.226 70.823,237.194 68.206,235.714 75.606 M152.022 74.394 C 152.022 74.987,150.809 75.472,149.326 75.472 C 147.844 75.472,146.631 74.987,146.631 74.394 C 146.631 73.801,147.844 73.315,149.326 73.315 C 150.809 73.315,152.022 73.801,152.022 74.394 M242.588 74.394 C 242.588 74.987,241.375 75.472,239.892 75.472 C 238.410 75.472,237.197 74.987,237.197 74.394 C 237.197 73.801,238.410 73.315,239.892 73.315 C 241.375 73.315,242.588 73.801,242.588 74.394 M130.828 78.917 C 129.635 80.764,129.033 235.368,130.198 240.970 C 131.060 245.120,131.254 245.283,135.340 245.283 C 139.448 245.283,139.611 245.142,140.351 240.970 C 141.299 235.623,141.266 93.537,140.314 84.636 L 139.623 78.167 135.680 77.838 C 133.297 77.640,131.377 78.067,130.828 78.917 M249.426 78.917 C 248.228 80.771,247.587 233.004,248.748 239.929 L 249.646 245.283 253.923 245.283 C 257.803 245.283,258.264 244.983,258.891 242.049 C 259.840 237.611,259.900 87.849,258.955 82.480 C 258.141 77.856,251.674 75.438,249.426 78.917 M139.084 79.784 C 139.084 80.377,137.385 80.863,135.310 80.863 C 133.235 80.863,131.536 80.377,131.536 79.784 C 131.536 79.191,133.235 78.706,135.310 78.706 C 137.385 78.706,139.084 79.191,139.084 79.784 M257.682 79.784 C 257.682 80.377,255.984 80.863,253.908 80.863 C 251.833 80.863,250.135 80.377,250.135 79.784 C 250.135 79.191,251.833 78.706,253.908 78.706 C 255.984 78.706,257.682 79.191,257.682 79.784 M116.812 90.776 C 115.632 92.603,115.019 233.280,116.161 240.093 C 117.030 245.278,117.035 245.283,121.319 245.283 L 125.606 245.283 126.321 239.892 C 127.252 232.862,127.252 102.448,126.321 95.418 C 125.572 89.766,119.408 86.758,116.812 90.776 M263.442 90.776 C 262.279 92.577,261.665 230.204,262.782 238.814 L 263.621 245.283 267.911 245.283 C 272.069 245.283,272.224 245.151,272.965 240.970 C 273.911 235.640,273.862 97.735,272.913 93.261 C 272.148 89.654,265.324 87.864,263.442 90.776 M123.732 91.307 C 122.701 91.577,120.761 91.586,119.420 91.329 C 118.078 91.071,118.922 90.850,121.294 90.838 C 123.666 90.826,124.763 91.037,123.732 91.307 M270.363 91.307 C 269.332 91.577,267.391 91.586,266.050 91.329 C 264.709 91.071,265.553 90.850,267.925 90.838 C 270.296 90.826,271.394 91.037,270.363 91.307 M104.915 100.539 C 103.750 102.340,103.182 235.478,104.317 240.976 C 105.134 244.936,105.515 245.309,109.050 245.608 L 112.894 245.934 113.580 240.217 C 114.482 232.710,114.489 118.094,113.588 107.440 L 112.891 99.191 109.339 99.191 C 107.386 99.191,105.395 99.798,104.915 100.539 M275.635 107.385 C 274.731 118.079,274.733 232.687,275.638 240.217 L 276.324 245.934 280.206 245.608 C 285.635 245.153,285.459 247.594,285.459 172.507 C 285.459 97.431,285.634 99.860,280.212 99.406 L 276.337 99.081 275.635 107.385 M112.129 101.348 C 112.129 101.941,110.674 102.426,108.895 102.426 C 107.116 102.426,105.660 101.941,105.660 101.348 C 105.660 100.755,107.116 100.270,108.895 100.270 C 110.674 100.270,112.129 100.755,112.129 101.348 M283.558 101.348 C 283.558 101.941,282.102 102.426,280.323 102.426 C 278.544 102.426,277.089 101.941,277.089 101.348 C 277.089 100.755,278.544 100.270,280.323 100.270 C 282.102 100.270,283.558 100.755,283.558 101.348 M92.779 122.642 C 92.066 125.208,91.654 147.460,91.650 183.558 L 91.644 240.431 79.825 240.431 L 68.006 240.431 67.696 190.257 C 67.361 136.142,67.578 138.062,61.789 138.022 C 57.813 137.994,57.699 139.228,57.111 188.679 L 56.540 236.658 56.222 184.906 C 55.855 125.024,55.743 123.598,51.351 123.096 C 49.648 122.902,47.707 123.289,47.038 123.958 C 45.692 125.303,44.148 244.746,45.478 244.745 C 45.881 244.744,46.366 245.836,46.556 247.170 C 47.440 253.394,54.310 250.338,55.646 243.127 L 56.845 236.658 57.263 243.127 L 57.682 249.596 61.995 249.596 C 66.088 249.596,66.325 249.414,66.650 246.030 C 67.087 241.475,67.435 241.373,81.286 241.740 L 92.892 242.049 79.502 252.830 L 66.112 263.612 65.313 310.873 C 64.874 336.867,64.707 358.328,64.942 358.563 C 65.807 359.428,95.407 325.435,95.101 323.929 C 94.831 322.602,99.099 322.372,123.942 322.372 L 153.100 322.372 153.100 342.857 L 153.100 363.342 156.334 363.342 L 159.569 363.342 159.569 342.857 L 159.569 322.372 194.609 322.372 L 229.650 322.372 229.650 343.396 L 229.650 364.420 232.884 364.420 L 236.119 364.420 236.119 343.396 L 236.119 322.372 267.116 322.379 L 298.113 322.387 313.747 339.719 L 329.380 357.051 329.936 309.253 L 330.492 261.456 330.745 309.164 L 330.997 356.873 354.717 356.873 L 378.437 356.873 378.362 309.164 L 378.287 261.456 371.844 256.259 C 366.845 252.227,365.549 250.596,366.062 248.981 C 366.619 247.225,366.164 246.880,363.145 246.773 L 359.569 246.645 362.755 245.962 C 367.422 244.961,367.440 244.752,367.440 190.296 C 367.440 135.262,367.457 135.458,362.589 134.979 L 359.225 134.649 358.506 142.527 C 358.110 146.859,357.945 171.607,358.139 197.521 C 358.332 223.436,358.092 244.240,357.606 243.752 C 357.119 243.265,356.759 218.424,356.806 188.549 C 356.897 129.807,356.754 127.955,352.089 127.409 C 346.594 126.766,346.669 126.102,346.053 180.915 L 345.474 232.345 345.116 178.976 C 344.705 117.712,344.837 119.137,339.612 119.137 C 334.441 119.137,334.452 119.021,334.074 180.593 L 333.757 232.345 333.186 184.367 C 332.597 134.915,332.483 133.681,328.508 133.709 C 322.728 133.750,322.935 131.971,322.600 184.327 L 322.288 232.884 309.931 232.884 L 297.574 232.884 297.568 179.784 C 297.561 120.187,297.407 118.598,291.614 118.598 C 286.490 118.598,286.697 115.619,287.033 184.367 L 287.332 245.283 291.596 245.283 C 295.201 245.283,295.990 244.866,296.702 242.588 C 297.165 241.105,297.308 253.192,297.020 269.447 C 296.732 285.703,296.496 304.018,296.496 310.148 L 296.496 321.294 266.144 321.294 L 235.793 321.294 236.450 310.512 C 237.072 300.302,236.995 299.730,234.995 299.730 C 233.834 299.730,232.884 300.250,232.884 300.886 C 232.884 302.701,229.931 299.293,229.482 296.959 C 229.095 294.952,227.769 294.879,191.899 294.879 L 154.717 294.879 154.372 297.305 C 154.183 298.639,153.597 299.730,153.070 299.730 C 152.531 299.730,152.399 304.451,152.769 310.512 L 153.425 321.294 124.152 321.294 L 94.879 321.294 94.879 311.765 C 94.879 306.523,94.608 291.119,94.277 277.533 C 93.730 255.105,93.826 253.078,95.317 255.526 C 96.220 257.008,96.976 257.689,96.997 257.038 C 97.018 256.388,98.005 254.737,99.191 253.369 C 102.715 249.306,102.037 246.926,97.305 246.747 L 93.261 246.594 97.574 245.939 L 101.887 245.283 102.185 184.367 C 102.521 115.619,102.729 118.598,97.604 118.598 C 94.244 118.598,93.798 118.972,92.779 122.642 M341.509 120.420 C 340.472 120.691,338.774 120.691,337.736 120.420 C 336.698 120.149,337.547 119.927,339.623 119.927 C 341.698 119.927,342.547 120.149,341.509 120.420 M100.013 121.496 C 98.982 121.765,97.041 121.775,95.700 121.517 C 94.359 121.259,95.202 121.039,97.574 121.027 C 99.946 121.015,101.043 121.226,100.013 121.496 M294.083 121.496 C 293.052 121.765,291.111 121.775,289.770 121.517 C 288.429 121.259,289.272 121.039,291.644 121.027 C 294.016 121.015,295.113 121.226,294.083 121.496 M52.561 124.732 C 51.523 125.004,49.825 125.004,48.787 124.732 C 47.749 124.461,48.598 124.239,50.674 124.239 C 52.749 124.239,53.598 124.461,52.561 124.732 M353.369 129.045 C 352.332 129.316,350.633 129.316,349.596 129.045 C 348.558 128.774,349.407 128.552,351.482 128.552 C 353.558 128.552,354.407 128.774,353.369 129.045 M34.872 132.823 C 33.573 134.834,33.113 239.796,34.377 245.722 C 35.329 250.186,32.760 255.880,31.447 252.216 C 31.249 251.664,29.378 251.213,27.288 251.213 C 24.339 251.213,23.635 251.575,24.143 252.830 C 24.503 253.720,25.057 255.083,25.374 255.860 C 25.723 256.717,23.603 258.889,19.983 261.382 L 14.016 265.492 14.016 313.339 L 14.016 361.186 38.640 361.186 L 63.264 361.186 63.975 328.032 C 64.366 309.798,64.687 288.217,64.688 280.075 L 64.690 265.270 40.701 264.980 L 16.712 264.690 21.833 261.134 C 24.650 259.178,26.954 257.882,26.954 258.252 C 26.954 258.623,28.447 257.433,30.272 255.609 C 34.388 251.492,35.106 251.483,37.197 255.526 C 39.261 259.517,39.444 259.519,41.482 255.579 C 43.685 251.318,43.650 251.232,39.623 251.085 L 36.119 250.958 39.246 250.277 C 40.966 249.902,42.738 248.625,43.183 247.439 C 44.221 244.674,44.362 142.117,43.335 136.388 C 42.511 131.787,37.032 129.479,34.872 132.823 M40.701 133.358 C 39.663 133.629,37.965 133.629,36.927 133.358 C 35.889 133.087,36.739 132.865,38.814 132.865 C 40.889 132.865,41.739 133.087,40.701 133.358 M24.053 140.431 C 22.871 142.258,22.325 241.596,23.472 246.055 C 25.102 252.391,30.746 251.794,31.652 245.189 C 32.545 238.668,32.541 152.192,31.646 144.744 C 30.947 138.925,26.619 136.467,24.053 140.431 M191.708 149.596 C 191.435 151.015,190.284 151.482,187.062 151.482 C 183.840 151.482,182.689 151.015,182.415 149.596 C 182.112 148.017,182.871 147.709,187.062 147.709 C 191.253 147.709,192.012 148.017,191.708 149.596 M206.803 149.596 C 206.529 151.015,205.378 151.482,202.156 151.482 C 198.934 151.482,197.783 151.015,197.510 149.596 C 197.206 148.017,197.965 147.709,202.156 147.709 C 206.347 147.709,207.107 148.017,206.803 149.596 M369.227 151.213 C 368.942 151.954,368.836 173.423,368.991 198.922 L 369.272 245.283 372.777 245.621 C 375.718 245.904,376.455 245.503,377.359 243.125 C 378.784 239.378,378.808 156.372,377.385 152.631 C 376.239 149.616,370.239 148.573,369.227 151.213 M374.933 151.687 C 373.895 151.958,372.197 151.958,371.159 151.687 C 370.121 151.415,370.970 151.194,373.046 151.194 C 375.121 151.194,375.970 151.415,374.933 151.687 M177.898 152.472 C 177.898 154.944,176.110 156.334,172.930 156.334 C 170.918 156.334,169.272 156.131,169.272 155.883 C 169.272 155.635,168.978 154.665,168.618 153.727 C 168.079 152.324,168.844 152.022,172.930 152.022 C 175.662 152.022,177.898 152.224,177.898 152.472 M221.024 152.472 C 221.024 154.944,219.237 156.334,216.057 156.334 C 214.045 156.334,212.399 156.131,212.399 155.883 C 212.399 155.635,212.104 154.665,211.744 153.727 C 211.206 152.324,211.971 152.022,216.057 152.022 C 218.789 152.022,221.024 152.224,221.024 152.472 M12.937 156.875 C 11.491 160.680,11.491 243.632,12.937 247.438 C 13.842 249.816,14.578 250.217,17.520 249.934 L 21.024 249.596 21.024 202.156 L 21.024 154.717 17.520 154.379 C 14.578 154.096,13.842 154.497,12.937 156.875 M164.690 155.526 C 164.443 156.267,162.624 156.873,160.647 156.873 C 158.670 156.873,156.851 156.267,156.604 155.526 C 156.292 154.591,157.532 154.178,160.647 154.178 C 163.762 154.178,165.001 154.591,164.690 155.526 M232.615 155.526 C 232.367 156.267,230.548 156.873,228.571 156.873 C 226.595 156.873,224.775 156.267,224.528 155.526 C 224.217 154.591,225.457 154.178,228.571 154.178 C 231.686 154.178,232.926 154.591,232.615 155.526 M19.137 155.999 C 18.100 156.270,16.402 156.270,15.364 155.999 C 14.326 155.728,15.175 155.506,17.251 155.506 C 19.326 155.506,20.175 155.728,19.137 155.999 M152.334 158.491 C 151.941 159.991,150.863 160.647,148.787 160.647 C 146.711 160.647,145.633 159.991,145.240 158.491 C 144.749 156.613,145.207 156.334,148.787 156.334 C 152.367 156.334,152.825 156.613,152.334 158.491 M243.978 158.491 C 243.586 159.991,242.508 160.647,240.431 160.647 C 238.355 160.647,237.277 159.991,236.884 158.491 C 236.393 156.613,236.851 156.334,240.431 156.334 C 244.011 156.334,244.469 156.613,243.978 158.491 M139.892 176.011 C 139.637 176.776,137.658 177.358,135.310 177.358 C 132.962 177.358,130.983 176.776,130.728 176.011 C 130.411 175.061,131.764 174.663,135.310 174.663 C 138.856 174.663,140.209 175.061,139.892 176.011 M258.491 176.011 C 258.235 176.776,256.256 177.358,253.908 177.358 C 251.560 177.358,249.581 176.776,249.326 176.011 C 249.010 175.061,250.362 174.663,253.908 174.663 C 257.454 174.663,258.807 175.061,258.491 176.011 M125.606 178.976 C 125.240 179.569,123.299 180.054,121.294 180.054 C 119.288 180.054,117.348 179.569,116.981 178.976 C 116.574 178.316,118.249 177.898,121.294 177.898 C 124.339 177.898,126.014 178.316,125.606 178.976 M272.237 178.976 C 271.871 179.569,269.930 180.054,267.925 180.054 C 265.919 180.054,263.978 179.569,263.612 178.976 C 263.204 178.316,264.880 177.898,267.925 177.898 C 270.969 177.898,272.645 178.316,272.237 178.976 M112.668 180.054 C 112.302 180.647,110.604 181.132,108.895 181.132 C 107.186 181.132,105.488 180.647,105.121 180.054 C 104.718 179.402,106.209 178.976,108.895 178.976 C 111.580 178.976,113.071 179.402,112.668 180.054 M284.097 180.054 C 283.731 180.647,282.032 181.132,280.323 181.132 C 278.614 181.132,276.916 180.647,276.550 180.054 C 276.147 179.402,277.638 178.976,280.323 178.976 C 283.009 178.976,284.500 179.402,284.097 180.054 M100.582 182.210 C 100.189 183.711,99.111 184.367,97.035 184.367 C 94.959 184.367,93.881 183.711,93.488 182.210 C 92.997 180.332,93.455 180.054,97.035 180.054 C 100.615 180.054,101.073 180.332,100.582 182.210 M295.730 182.210 C 295.338 183.711,294.260 184.367,292.183 184.367 C 290.107 184.367,289.029 183.711,288.636 182.210 C 288.145 180.332,288.603 180.054,292.183 180.054 C 295.763 180.054,296.221 180.332,295.730 182.210 M343.396 192.992 C 343.030 193.585,341.332 194.070,339.623 194.070 C 337.914 194.070,336.216 193.585,335.849 192.992 C 335.446 192.340,336.937 191.914,339.623 191.914 C 342.308 191.914,343.799 192.340,343.396 192.992 M331.536 194.070 C 331.170 194.663,329.472 195.148,327.763 195.148 C 326.054 195.148,324.356 194.663,323.989 194.070 C 323.586 193.418,325.077 192.992,327.763 192.992 C 330.448 192.992,331.939 193.418,331.536 194.070 M355.256 195.148 C 354.890 195.741,353.191 196.226,351.482 196.226 C 349.773 196.226,348.075 195.741,347.709 195.148 C 347.306 194.496,348.797 194.070,351.482 194.070 C 354.168 194.070,355.659 194.496,355.256 195.148 M366.038 196.226 C 365.671 196.819,364.216 197.305,362.803 197.305 C 361.391 197.305,359.935 196.819,359.569 196.226 C 359.171 195.584,360.477 195.148,362.803 195.148 C 365.129 195.148,366.435 195.584,366.038 196.226 M54.447 197.305 C 54.081 197.898,52.383 198.383,50.674 198.383 C 48.965 198.383,47.267 197.898,46.900 197.305 C 46.497 196.652,47.988 196.226,50.674 196.226 C 53.359 196.226,54.850 196.652,54.447 197.305 M376.819 197.305 C 376.453 197.898,374.997 198.383,373.585 198.383 C 372.172 198.383,370.717 197.898,370.350 197.305 C 369.953 196.662,371.259 196.226,373.585 196.226 C 375.911 196.226,377.217 196.662,376.819 197.305 M66.307 198.383 C 65.941 198.976,64.243 199.461,62.534 199.461 C 60.825 199.461,59.127 198.976,58.760 198.383 C 58.357 197.731,59.848 197.305,62.534 197.305 C 65.219 197.305,66.710 197.731,66.307 198.383 M42.588 199.461 C 42.221 200.054,40.523 200.539,38.814 200.539 C 37.105 200.539,35.407 200.054,35.040 199.461 C 34.637 198.809,36.129 198.383,38.814 198.383 C 41.499 198.383,42.991 198.809,42.588 199.461 M30.728 200.539 C 30.361 201.132,28.906 201.617,27.493 201.617 C 26.081 201.617,24.625 201.132,24.259 200.539 C 23.861 199.896,25.167 199.461,27.493 199.461 C 29.819 199.461,31.125 199.896,30.728 200.539 M19.946 201.617 C 19.580 202.210,18.124 202.695,16.712 202.695 C 15.299 202.695,13.844 202.210,13.477 201.617 C 13.080 200.974,14.386 200.539,16.712 200.539 C 19.038 200.539,20.343 200.974,19.946 201.617 M338.945 245.637 C 343.071 246.108,343.859 245.096,344.734 238.192 L 345.475 232.345 346.618 238.814 C 347.811 245.572,351.296 248.030,355.151 244.831 C 356.895 243.384,357.543 244.056,360.231 250.097 C 362.107 254.314,362.584 254.747,363.696 253.245 C 364.836 251.704,365.602 252.046,370.334 256.210 L 375.682 260.916 352.531 260.898 L 329.380 260.879 313.747 247.845 C 305.148 240.676,297.911 234.620,297.664 234.387 C 297.417 234.153,302.838 233.962,309.711 233.962 L 322.207 233.962 323.108 239.623 L 324.009 245.283 328.312 245.283 L 332.615 245.283 333.033 238.814 L 333.451 232.345 334.650 238.814 C 335.760 244.803,336.079 245.309,338.945 245.637 M144.558 247.709 C 144.801 253.203,148.397 260.461,149.231 257.140 C 149.674 255.374,150.476 253.658,151.013 253.326 C 154.752 251.015,153.305 245.822,148.922 245.822 C 145.373 245.822,144.491 246.203,144.558 247.709 M156.334 247.075 C 156.334 249.214,159.924 259.838,160.647 259.838 C 161.370 259.838,164.960 249.214,164.960 247.075 C 164.960 246.332,163.204 245.822,160.647 245.822 C 158.090 245.822,156.334 246.332,156.334 247.075 M169.272 247.978 C 169.272 249.164,169.694 250.135,170.210 250.135 C 170.726 250.135,171.786 252.411,172.564 255.192 L 173.980 260.250 175.855 254.923 C 178.785 246.599,178.591 245.822,173.585 245.822 C 169.991 245.822,169.272 246.181,169.272 247.978 M182.294 247.709 C 182.340 248.747,183.221 251.993,184.252 254.923 L 186.127 260.250 187.543 255.192 C 188.322 252.411,189.382 250.135,189.898 250.135 C 190.413 250.135,190.836 249.164,190.836 247.978 C 190.836 246.181,190.117 245.822,186.523 245.822 C 183.103 245.822,182.228 246.212,182.294 247.709 M198.383 247.978 C 198.383 249.164,198.805 250.135,199.321 250.135 C 199.837 250.135,200.896 252.411,201.675 255.192 L 203.091 260.250 204.966 254.923 C 207.896 246.599,207.702 245.822,202.695 245.822 C 199.102 245.822,198.383 246.181,198.383 247.978 M211.675 248.942 C 212.018 250.658,212.979 253.690,213.810 255.680 L 215.321 259.299 216.726 254.717 C 217.499 252.197,218.539 250.135,219.039 250.135 C 219.538 250.135,219.946 249.164,219.946 247.978 C 219.946 246.171,219.227 245.822,215.499 245.822 C 211.168 245.822,211.068 245.904,211.675 248.942 M224.259 247.075 C 224.259 249.214,227.849 259.838,228.571 259.838 C 229.294 259.838,232.884 249.214,232.884 247.075 C 232.884 246.332,231.129 245.822,228.571 245.822 C 226.014 245.822,224.259 246.332,224.259 247.075 M236.539 249.273 C 236.919 251.170,237.669 252.995,238.206 253.326 C 238.743 253.658,239.545 255.374,239.988 257.140 C 240.791 260.341,240.799 260.335,242.685 254.973 C 245.648 246.551,245.458 245.822,240.296 245.822 C 235.868 245.822,235.852 245.837,236.539 249.273 M104.582 248.481 C 104.582 250.449,107.973 257.682,108.895 257.682 C 109.817 257.682,113.208 250.449,113.208 248.481 C 113.208 247.356,111.965 246.900,108.895 246.900 C 105.825 246.900,104.582 247.356,104.582 248.481 M117.520 249.057 C 117.520 250.243,117.947 251.213,118.468 251.213 C 118.989 251.213,120.040 252.722,120.804 254.567 L 122.193 257.920 124.124 254.297 C 127.278 248.379,126.820 246.900,121.833 246.900 C 118.239 246.900,117.520 247.260,117.520 249.057 M130.503 248.787 C 130.528 249.825,131.418 252.304,132.480 254.297 L 134.411 257.920 135.800 254.567 C 136.564 252.722,137.615 251.213,138.136 251.213 C 138.657 251.213,139.084 250.243,139.084 249.057 C 139.084 247.260,138.365 246.900,134.771 246.900 C 131.365 246.900,130.468 247.297,130.503 248.787 M250.135 249.057 C 250.135 250.243,250.561 251.213,251.082 251.213 C 251.603 251.213,252.655 252.722,253.419 254.567 L 254.808 257.920 256.739 254.297 C 259.893 248.379,259.434 246.900,254.447 246.900 C 250.854 246.900,250.135 247.260,250.135 249.057 M263.118 248.787 C 263.143 249.825,264.032 252.304,265.094 254.297 L 267.025 257.920 268.414 254.567 C 269.178 252.722,270.230 251.213,270.751 251.213 C 271.272 251.213,271.698 250.243,271.698 249.057 C 271.698 247.260,270.979 246.900,267.385 246.900 C 263.980 246.900,263.082 247.297,263.118 248.787 M276.011 248.481 C 276.011 250.449,279.401 257.682,280.323 257.682 C 281.246 257.682,284.636 250.449,284.636 248.481 C 284.636 247.356,283.394 246.900,280.323 246.900 C 277.253 246.900,276.011 247.356,276.011 248.481 M287.871 248.892 C 287.871 249.987,288.841 252.002,290.027 253.369 C 291.213 254.737,292.204 256.388,292.228 257.038 C 292.300 258.905,296.400 250.891,296.451 248.787 C 296.486 247.297,295.589 246.900,292.183 246.900 C 288.708 246.900,287.871 247.287,287.871 248.892 M324.528 247.493 C 324.528 248.461,327.777 254.447,328.302 254.447 C 328.827 254.447,332.075 248.461,332.075 247.493 C 332.075 247.167,330.377 246.900,328.302 246.900 C 326.226 246.900,324.528 247.167,324.528 247.493 M336.388 247.493 C 336.388 248.461,339.636 254.447,340.162 254.447 C 340.687 254.447,343.935 248.461,343.935 247.493 C 343.935 247.167,342.237 246.900,340.162 246.900 C 338.086 246.900,336.388 247.167,336.388 247.493 M347.170 247.493 C 347.170 248.461,350.418 254.447,350.943 254.447 C 351.469 254.447,354.717 248.461,354.717 247.493 C 354.717 247.167,353.019 246.900,350.943 246.900 C 348.868 246.900,347.170 247.167,347.170 247.493 M369.811 247.493 C 369.811 248.461,373.060 254.447,373.585 254.447 C 374.110 254.447,377.358 248.461,377.358 247.493 C 377.358 247.167,375.660 246.900,373.585 246.900 C 371.509 246.900,369.811 247.167,369.811 247.493 M12.938 251.806 C 12.938 252.774,16.186 258.760,16.712 258.760 C 17.237 258.760,20.485 252.774,20.485 251.806 C 20.485 251.480,18.787 251.213,16.712 251.213 C 14.636 251.213,12.938 251.480,12.938 251.806 M46.361 251.806 C 46.361 252.774,49.610 258.760,50.135 258.760 C 50.660 258.760,53.908 252.774,53.908 251.806 C 53.908 251.480,52.210 251.213,50.135 251.213 C 48.059 251.213,46.361 251.480,46.361 251.806 M58.221 251.806 C 58.221 252.774,61.469 258.760,61.995 258.760 C 62.520 258.760,65.768 252.774,65.768 251.806 C 65.768 251.480,64.070 251.213,61.995 251.213 C 59.919 251.213,58.221 251.480,58.221 251.806 M99.191 268.464 C 99.191 270.620,99.730 271.698,100.809 271.698 C 101.887 271.698,102.426 270.620,102.426 268.464 C 102.426 266.307,101.887 265.229,100.809 265.229 C 99.730 265.229,99.191 266.307,99.191 268.464 M103.504 268.464 C 103.504 271.195,103.923 271.698,106.199 271.698 C 108.476 271.698,108.895 271.195,108.895 268.464 C 108.895 265.732,108.476 265.229,106.199 265.229 C 103.923 265.229,103.504 265.732,103.504 268.464 M109.973 268.464 C 109.973 270.979,110.452 271.698,112.129 271.698 C 113.807 271.698,114.286 270.979,114.286 268.464 C 114.286 265.948,113.807 265.229,112.129 265.229 C 110.452 265.229,109.973 265.948,109.973 268.464 M115.364 268.464 C 115.364 270.620,115.903 271.698,116.981 271.698 C 118.059 271.698,118.598 270.620,118.598 268.464 C 118.598 266.307,118.059 265.229,116.981 265.229 C 115.903 265.229,115.364 266.307,115.364 268.464 M119.677 268.464 C 119.677 270.979,120.156 271.698,121.833 271.698 C 123.510 271.698,123.989 270.979,123.989 268.464 C 123.989 265.948,123.510 265.229,121.833 265.229 C 120.156 265.229,119.677 265.948,119.677 268.464 M125.067 268.464 C 125.067 270.979,125.547 271.698,127.224 271.698 C 128.901 271.698,129.380 270.979,129.380 268.464 C 129.380 265.948,128.901 265.229,127.224 265.229 C 125.547 265.229,125.067 265.948,125.067 268.464 M130.458 268.464 C 130.458 270.620,130.997 271.698,132.075 271.698 C 133.154 271.698,133.693 270.620,133.693 268.464 C 133.693 266.307,133.154 265.229,132.075 265.229 C 130.997 265.229,130.458 266.307,130.458 268.464 M134.771 268.464 C 134.771 271.195,135.190 271.698,137.466 271.698 C 139.742 271.698,140.162 271.195,140.162 268.464 C 140.162 265.732,139.742 265.229,137.466 265.229 C 135.190 265.229,134.771 265.732,134.771 268.464 M141.240 268.464 C 141.240 270.620,141.779 271.698,142.857 271.698 C 143.935 271.698,144.474 270.620,144.474 268.464 C 144.474 266.307,143.935 265.229,142.857 265.229 C 141.779 265.229,141.240 266.307,141.240 268.464 M145.553 268.464 C 145.553 271.195,145.972 271.698,148.248 271.698 C 150.524 271.698,150.943 271.195,150.943 268.464 C 150.943 265.732,150.524 265.229,148.248 265.229 C 145.972 265.229,145.553 265.732,145.553 268.464 M152.022 268.464 C 152.022 271.195,152.441 271.698,154.717 271.698 C 156.993 271.698,157.412 271.195,157.412 268.464 C 157.412 265.732,156.993 265.229,154.717 265.229 C 152.441 265.229,152.022 265.732,152.022 268.464 M158.491 268.464 C 158.491 271.339,158.850 271.698,161.725 271.698 C 164.600 271.698,164.960 271.339,164.960 268.464 C 164.960 265.588,164.600 265.229,161.725 265.229 C 158.850 265.229,158.491 265.588,158.491 268.464 M166.038 268.464 C 166.038 271.339,166.397 271.698,169.272 271.698 C 172.147 271.698,172.507 271.339,172.507 268.464 C 172.507 265.588,172.147 265.229,169.272 265.229 C 166.397 265.229,166.038 265.588,166.038 268.464 M173.585 268.464 C 173.585 270.979,174.064 271.698,175.741 271.698 C 177.418 271.698,177.898 270.979,177.898 268.464 C 177.898 265.948,177.418 265.229,175.741 265.229 C 174.064 265.229,173.585 265.948,173.585 268.464 M178.976 268.464 C 178.976 271.195,179.395 271.698,181.671 271.698 C 183.947 271.698,184.367 271.195,184.367 268.464 C 184.367 265.732,183.947 265.229,181.671 265.229 C 179.395 265.229,178.976 265.732,178.976 268.464 M185.445 268.464 C 185.445 271.195,185.864 271.698,188.140 271.698 C 190.416 271.698,190.836 271.195,190.836 268.464 C 190.836 265.732,190.416 265.229,188.140 265.229 C 185.864 265.229,185.445 265.732,185.445 268.464 M191.914 268.464 C 191.914 271.195,192.333 271.698,194.609 271.698 C 196.885 271.698,197.305 271.195,197.305 268.464 C 197.305 265.732,196.885 265.229,194.609 265.229 C 192.333 265.229,191.914 265.732,191.914 268.464 M198.383 268.464 C 198.383 271.339,198.742 271.698,201.617 271.698 C 204.492 271.698,204.852 271.339,204.852 268.464 C 204.852 265.588,204.492 265.229,201.617 265.229 C 198.742 265.229,198.383 265.588,198.383 268.464 M205.930 268.464 C 205.930 270.620,206.469 271.698,207.547 271.698 C 208.625 271.698,209.164 270.620,209.164 268.464 C 209.164 266.307,208.625 265.229,207.547 265.229 C 206.469 265.229,205.930 266.307,205.930 268.464 M210.243 268.464 C 210.243 270.979,210.722 271.698,212.399 271.698 C 214.076 271.698,214.555 270.979,214.555 268.464 C 214.555 265.948,214.076 265.229,212.399 265.229 C 210.722 265.229,210.243 265.948,210.243 268.464 M215.633 268.464 C 215.633 270.979,216.113 271.698,217.790 271.698 C 219.467 271.698,219.946 270.979,219.946 268.464 C 219.946 265.948,219.467 265.229,217.790 265.229 C 216.113 265.229,215.633 265.948,215.633 268.464 M221.024 268.464 C 221.024 271.195,221.444 271.698,223.720 271.698 C 225.996 271.698,226.415 271.195,226.415 268.464 C 226.415 265.732,225.996 265.229,223.720 265.229 C 221.444 265.229,221.024 265.732,221.024 268.464 M227.493 268.464 C 227.493 270.620,228.032 271.698,229.111 271.698 C 230.189 271.698,230.728 270.620,230.728 268.464 C 230.728 266.307,230.189 265.229,229.111 265.229 C 228.032 265.229,227.493 266.307,227.493 268.464 M231.806 268.464 C 231.806 271.195,232.225 271.698,234.501 271.698 C 236.777 271.698,237.197 271.195,237.197 268.464 C 237.197 265.732,236.777 265.229,234.501 265.229 C 232.225 265.229,231.806 265.732,231.806 268.464 M238.275 268.464 C 238.275 270.979,238.754 271.698,240.431 271.698 C 242.108 271.698,242.588 270.979,242.588 268.464 C 242.588 265.948,242.108 265.229,240.431 265.229 C 238.754 265.229,238.275 265.948,238.275 268.464 M243.666 268.464 C 243.666 270.979,244.145 271.698,245.822 271.698 C 247.499 271.698,247.978 270.979,247.978 268.464 C 247.978 265.948,247.499 265.229,245.822 265.229 C 244.145 265.229,243.666 265.948,243.666 268.464 M249.057 268.464 C 249.057 271.195,249.476 271.698,251.752 271.698 C 254.028 271.698,254.447 271.195,254.447 268.464 C 254.447 265.732,254.028 265.229,251.752 265.229 C 249.476 265.229,249.057 265.732,249.057 268.464 M255.526 268.464 C 255.526 270.979,256.005 271.698,257.682 271.698 C 259.359 271.698,259.838 270.979,259.838 268.464 C 259.838 265.948,259.359 265.229,257.682 265.229 C 256.005 265.229,255.526 265.948,255.526 268.464 M260.916 268.464 C 260.916 270.620,261.456 271.698,262.534 271.698 C 263.612 271.698,264.151 270.620,264.151 268.464 C 264.151 266.307,263.612 265.229,262.534 265.229 C 261.456 265.229,260.916 266.307,260.916 268.464 M265.229 268.464 C 265.229 270.979,265.708 271.698,267.385 271.698 C 269.063 271.698,269.542 270.979,269.542 268.464 C 269.542 265.948,269.063 265.229,267.385 265.229 C 265.708 265.229,265.229 265.948,265.229 268.464 M270.620 268.464 C 270.620 270.979,271.099 271.698,272.776 271.698 C 274.453 271.698,274.933 270.979,274.933 268.464 C 274.933 265.948,274.453 265.229,272.776 265.229 C 271.099 265.229,270.620 265.948,270.620 268.464 M276.011 268.464 C 276.011 271.195,276.430 271.698,278.706 271.698 C 280.982 271.698,281.402 271.195,281.402 268.464 C 281.402 265.732,280.982 265.229,278.706 265.229 C 276.430 265.229,276.011 265.732,276.011 268.464 M282.480 268.464 C 282.480 270.620,283.019 271.698,284.097 271.698 C 285.175 271.698,285.714 270.620,285.714 268.464 C 285.714 266.307,285.175 265.229,284.097 265.229 C 283.019 265.229,282.480 266.307,282.480 268.464 M286.792 268.464 C 286.792 270.620,287.332 271.698,288.410 271.698 C 289.488 271.698,290.027 270.620,290.027 268.464 C 290.027 266.307,289.488 265.229,288.410 265.229 C 287.332 265.229,286.792 266.307,286.792 268.464 M94.879 278.167 C 94.879 280.323,95.418 281.402,96.496 281.402 C 97.574 281.402,98.113 280.323,98.113 278.167 C 98.113 276.011,97.574 274.933,96.496 274.933 C 95.418 274.933,94.879 276.011,94.879 278.167 M99.191 278.167 C 99.191 280.323,99.730 281.402,100.809 281.402 C 101.887 281.402,102.426 280.323,102.426 278.167 C 102.426 276.011,101.887 274.933,100.809 274.933 C 99.730 274.933,99.191 276.011,99.191 278.167 M103.504 278.167 C 103.504 280.898,103.923 281.402,106.199 281.402 C 108.476 281.402,108.895 280.898,108.895 278.167 C 108.895 275.436,108.476 274.933,106.199 274.933 C 103.923 274.933,103.504 275.436,103.504 278.167 M109.973 278.167 C 109.973 280.683,110.452 281.402,112.129 281.402 C 113.807 281.402,114.286 280.683,114.286 278.167 C 114.286 275.651,113.807 274.933,112.129 274.933 C 110.452 274.933,109.973 275.651,109.973 278.167 M115.364 278.167 C 115.364 280.323,115.903 281.402,116.981 281.402 C 118.059 281.402,118.598 280.323,118.598 278.167 C 118.598 276.011,118.059 274.933,116.981 274.933 C 115.903 274.933,115.364 276.011,115.364 278.167 M119.677 278.167 C 119.677 280.683,120.156 281.402,121.833 281.402 C 123.510 281.402,123.989 280.683,123.989 278.167 C 123.989 275.651,123.510 274.933,121.833 274.933 C 120.156 274.933,119.677 275.651,119.677 278.167 M125.067 278.167 C 125.067 280.683,125.547 281.402,127.224 281.402 C 128.901 281.402,129.380 280.683,129.380 278.167 C 129.380 275.651,128.901 274.933,127.224 274.933 C 125.547 274.933,125.067 275.651,125.067 278.167 M130.458 278.167 C 130.458 280.323,130.997 281.402,132.075 281.402 C 133.154 281.402,133.693 280.323,133.693 278.167 C 133.693 276.011,133.154 274.933,132.075 274.933 C 130.997 274.933,130.458 276.011,130.458 278.167 M134.771 278.167 C 134.771 280.898,135.190 281.402,137.466 281.402 C 139.742 281.402,140.162 280.898,140.162 278.167 C 140.162 275.436,139.742 274.933,137.466 274.933 C 135.190 274.933,134.771 275.436,134.771 278.167 M141.240 278.167 C 141.240 280.581,141.740 281.402,143.209 281.402 C 144.785 281.402,145.084 280.754,144.704 278.167 C 144.439 276.357,143.571 274.933,142.735 274.933 C 141.793 274.933,141.240 276.128,141.240 278.167 M145.750 277.898 C 146.279 282.490,150.943 282.799,150.943 278.242 C 150.943 275.408,150.546 274.933,148.176 274.933 C 145.794 274.933,145.457 275.345,145.750 277.898 M152.022 278.167 C 152.022 280.898,152.441 281.402,154.717 281.402 C 156.993 281.402,157.412 280.898,157.412 278.167 C 157.412 275.436,156.993 274.933,154.717 274.933 C 152.441 274.933,152.022 275.436,152.022 278.167 M158.491 278.167 C 158.491 281.042,158.850 281.402,161.725 281.402 C 164.600 281.402,164.960 281.042,164.960 278.167 C 164.960 275.292,164.600 274.933,161.725 274.933 C 158.850 274.933,158.491 275.292,158.491 278.167 M166.038 278.167 C 166.038 281.042,166.397 281.402,169.272 281.402 C 172.147 281.402,172.507 281.042,172.507 278.167 C 172.507 275.292,172.147 274.933,169.272 274.933 C 166.397 274.933,166.038 275.292,166.038 278.167 M173.585 278.167 C 173.585 280.683,174.064 281.402,175.741 281.402 C 177.418 281.402,177.898 280.683,177.898 278.167 C 177.898 275.651,177.418 274.933,175.741 274.933 C 174.064 274.933,173.585 275.651,173.585 278.167 M178.976 278.167 C 178.976 280.898,179.395 281.402,181.671 281.402 C 183.947 281.402,184.367 280.898,184.367 278.167 C 184.367 275.436,183.947 274.933,181.671 274.933 C 179.395 274.933,178.976 275.436,178.976 278.167 M185.445 278.167 C 185.445 280.898,185.864 281.402,188.140 281.402 C 190.416 281.402,190.836 280.898,190.836 278.167 C 190.836 275.436,190.416 274.933,188.140 274.933 C 185.864 274.933,185.445 275.436,185.445 278.167 M191.914 278.167 C 191.914 280.898,192.333 281.402,194.609 281.402 C 196.885 281.402,197.305 280.898,197.305 278.167 C 197.305 275.436,196.885 274.933,194.609 274.933 C 192.333 274.933,191.914 275.436,191.914 278.167 M198.383 278.167 C 198.383 281.042,198.742 281.402,201.617 281.402 C 204.492 281.402,204.852 281.042,204.852 278.167 C 204.852 275.292,204.492 274.933,201.617 274.933 C 198.742 274.933,198.383 275.292,198.383 278.167 M205.930 278.167 C 205.930 280.323,206.469 281.402,207.547 281.402 C 208.625 281.402,209.164 280.323,209.164 278.167 C 209.164 276.011,208.625 274.933,207.547 274.933 C 206.469 274.933,205.930 276.011,205.930 278.167 M210.243 278.167 C 210.243 280.683,210.722 281.402,212.399 281.402 C 214.076 281.402,214.555 280.683,214.555 278.167 C 214.555 275.651,214.076 274.933,212.399 274.933 C 210.722 274.933,210.243 275.651,210.243 278.167 M215.633 278.167 C 215.633 280.683,216.113 281.402,217.790 281.402 C 219.467 281.402,219.946 280.683,219.946 278.167 C 219.946 275.651,219.467 274.933,217.790 274.933 C 216.113 274.933,215.633 275.651,215.633 278.167 M221.024 278.167 C 221.024 280.898,221.444 281.402,223.720 281.402 C 225.996 281.402,226.415 280.898,226.415 278.167 C 226.415 275.436,225.996 274.933,223.720 274.933 C 221.444 274.933,221.024 275.436,221.024 278.167 M227.493 278.167 C 227.493 280.323,228.032 281.402,229.111 281.402 C 230.189 281.402,230.728 280.323,230.728 278.167 C 230.728 276.011,230.189 274.933,229.111 274.933 C 228.032 274.933,227.493 276.011,227.493 278.167 M231.806 278.167 C 231.806 280.898,232.225 281.402,234.501 281.402 C 236.777 281.402,237.197 280.898,237.197 278.167 C 237.197 275.436,236.777 274.933,234.501 274.933 C 232.225 274.933,231.806 275.436,231.806 278.167 M238.275 278.167 C 238.275 280.683,238.754 281.402,240.431 281.402 C 242.108 281.402,242.588 280.683,242.588 278.167 C 242.588 275.651,242.108 274.933,240.431 274.933 C 238.754 274.933,238.275 275.651,238.275 278.167 M243.666 278.167 C 243.666 280.683,244.145 281.402,245.822 281.402 C 247.499 281.402,247.978 280.683,247.978 278.167 C 247.978 275.651,247.499 274.933,245.822 274.933 C 244.145 274.933,243.666 275.651,243.666 278.167 M249.057 278.167 C 249.057 280.898,249.476 281.402,251.752 281.402 C 254.028 281.402,254.447 280.898,254.447 278.167 C 254.447 275.436,254.028 274.933,251.752 274.933 C 249.476 274.933,249.057 275.436,249.057 278.167 M255.526 278.167 C 255.526 280.683,256.005 281.402,257.682 281.402 C 259.359 281.402,259.838 280.683,259.838 278.167 C 259.838 275.651,259.359 274.933,257.682 274.933 C 256.005 274.933,255.526 275.651,255.526 278.167 M260.916 278.167 C 260.916 280.323,261.456 281.402,262.534 281.402 C 263.612 281.402,264.151 280.323,264.151 278.167 C 264.151 276.011,263.612 274.933,262.534 274.933 C 261.456 274.933,260.916 276.011,260.916 278.167 M265.229 278.167 C 265.229 280.683,265.708 281.402,267.385 281.402 C 269.063 281.402,269.542 280.683,269.542 278.167 C 269.542 275.651,269.063 274.933,267.385 274.933 C 265.708 274.933,265.229 275.651,265.229 278.167 M270.620 278.167 C 270.620 280.683,271.099 281.402,272.776 281.402 C 274.453 281.402,274.933 280.683,274.933 278.167 C 274.933 275.651,274.453 274.933,272.776 274.933 C 271.099 274.933,270.620 275.651,270.620 278.167 M276.011 278.167 C 276.011 280.898,276.430 281.402,278.706 281.402 C 280.982 281.402,281.402 280.898,281.402 278.167 C 281.402 275.436,280.982 274.933,278.706 274.933 C 276.430 274.933,276.011 275.436,276.011 278.167 M282.480 278.167 C 282.480 280.323,283.019 281.402,284.097 281.402 C 285.175 281.402,285.714 280.323,285.714 278.167 C 285.714 276.011,285.175 274.933,284.097 274.933 C 283.019 274.933,282.480 276.011,282.480 278.167 M286.792 278.167 C 286.792 280.683,287.272 281.402,288.949 281.402 C 290.626 281.402,291.105 280.683,291.105 278.167 C 291.105 275.651,290.626 274.933,288.949 274.933 C 287.272 274.933,286.792 275.651,286.792 278.167 M292.183 278.167 C 292.183 280.323,292.722 281.402,293.801 281.402 C 294.879 281.402,295.418 280.323,295.418 278.167 C 295.418 276.011,294.879 274.933,293.801 274.933 C 292.722 274.933,292.183 276.011,292.183 278.167 M211.051 303.772 C 201.119 303.950,184.865 303.950,174.933 303.772 C 165.000 303.594,173.127 303.448,192.992 303.448 C 212.857 303.448,220.984 303.594,211.051 303.772 M229.650 313.747 L 229.650 321.294 194.609 321.294 L 159.569 321.294 159.569 313.747 L 159.569 306.199 194.609 306.199 L 229.650 306.199 229.650 313.747 M164.952 339.892 C 164.948 340.040,163.981 345.741,162.803 352.561 C 161.625 359.380,160.658 365.081,160.654 365.229 C 160.650 365.377,162.345 365.499,164.420 365.499 L 168.194 365.499 168.194 352.561 C 168.194 341.779,167.925 339.623,166.577 339.623 C 165.687 339.623,164.956 339.744,164.952 339.892 M169.272 352.561 L 169.272 365.499 173.585 365.499 C 175.957 365.499,177.894 365.377,177.890 365.229 C 177.886 365.081,176.919 359.380,175.741 352.561 C 174.563 345.741,173.596 340.040,173.592 339.892 C 173.588 339.744,172.615 339.623,171.429 339.623 C 169.392 339.623,169.272 340.341,169.272 352.561 M189.750 339.892 C 189.746 340.040,188.779 345.741,187.601 352.561 C 186.423 359.380,185.456 365.081,185.452 365.229 C 185.448 365.377,187.385 365.499,189.757 365.499 L 194.070 365.499 194.070 352.561 C 194.070 340.341,193.950 339.623,191.914 339.623 C 190.728 339.623,189.754 339.744,189.750 339.892 M195.148 352.561 L 195.148 365.499 198.922 365.499 C 200.997 365.499,202.692 365.377,202.688 365.229 C 202.684 365.081,201.717 359.380,200.539 352.561 C 199.361 345.741,198.394 340.040,198.390 339.892 C 198.386 339.744,197.655 339.623,196.765 339.623 C 195.418 339.623,195.148 341.779,195.148 352.561 M213.470 339.892 C 213.466 340.040,212.499 345.741,211.321 352.561 C 210.143 359.380,209.176 365.081,209.172 365.229 C 209.168 365.377,211.105 365.499,213.477 365.499 L 217.790 365.499 217.790 352.561 C 217.790 340.341,217.670 339.623,215.633 339.623 C 214.447 339.623,213.474 339.744,213.470 339.892 M218.868 352.561 L 218.868 365.499 222.642 365.499 C 224.717 365.499,226.412 365.377,226.408 365.229 C 226.404 365.081,225.437 359.380,224.259 352.561 C 223.081 345.741,222.114 340.040,222.110 339.892 C 222.106 339.744,221.375 339.623,220.485 339.623 C 219.137 339.623,218.868 341.779,218.868 352.561 " stroke="none" fill="#000000" fill-rule="evenodd"></path></g></svg>