<?xml version="1.0" encoding="UTF-8" standalone="no"?>
<svg
   xmlns:dc="http://purl.org/dc/elements/1.1/"
   xmlns:cc="http://creativecommons.org/ns#"
   xmlns:rdf="http://www.w3.org/1999/02/22-rdf-syntax-ns#"
   xmlns:svg="http://www.w3.org/2000/svg"
   xmlns="http://www.w3.org/2000/svg"
   xmlns:sodipodi="http://sodipodi.sourceforge.net/DTD/sodipodi-0.dtd"
   xmlns:inkscape="http://www.inkscape.org/namespaces/inkscape"
   version="1.1"
   viewBox="0 0 700 700"
   width="700pt"
   height="700pt"
   id="svg10"
   sodipodi:docname="right-hand2.svg"
   inkscape:version="0.92.3 (2405546, 2018-03-11)">
  <metadata
     id="metadata16">
    <rdf:RDF>
      <cc:Work
         rdf:about="">
        <dc:format>image/svg+xml</dc:format>
        <dc:type
           rdf:resource="http://purl.org/dc/dcmitype/StillImage" />
        <dc:title></dc:title>
      </cc:Work>
    </rdf:RDF>
  </metadata>
  <defs
     id="defs14" />
  <sodipodi:namedview
     pagecolor="#ffffff"
     bordercolor="#666666"
     borderopacity="1"
     objecttolerance="10"
     gridtolerance="10"
     guidetolerance="10"
     inkscape:pageopacity="0"
     inkscape:pageshadow="2"
     inkscape:window-width="2495"
     inkscape:window-height="1056"
     id="namedview12"
     showgrid="false"
     inkscape:zoom="1.0678392"
     inkscape:cx="398"
     inkscape:cy="547.83529"
     inkscape:window-x="65"
     inkscape:window-y="24"
     inkscape:window-maximized="1"
     inkscape:current-layer="svg10" />
  <path
     id="path8"
     style="fill:#000000"
     d="m 90.007183,361.94001 c 22.329997,-0.03 44.689997,0.02 67.029997,-0.02 4.4,-0.03 8.6,0.21 12.73,1.93 9.05,3.72 14.82,12.88 14.66,22.63 0.06,74.93 0.03,150.1 0.02,225.04 0.2,9.1 -4.38,17.64 -12.42,22.03 -5.76,3.26 -11.6,3.06 -18.01,3.02 -21.65,-0.05 -43.35,0.06 -64.999997,-0.05 -8.33,-0.02 -16.19,-4.37 -20.49,-11.52 -2.74,-4.41 -3.55,-9.37 -3.52,-14.49 0.04,-74.58 -0.03,-149.48 0.03,-224.02 -0.04,-7.16 2.85,-13.99 8.29,-18.68 4.62,-4.11 10.57,-5.87 16.68,-5.87 z M 410.09718,51.500008 h 1.5 l 0.92,0.08 0.8,0.08 c 24.06,1.61 46.61,17.31 55.97,39.62 3.04,6.66 4.46,13.630002 6.11,20.710002 4.76,27.81 1.03,57.02 -11.44,82.39 -7.36,15.03 -15.25,29.72 -21.87,45.11 -3.97,9.9 -8,19.39 -9.6,30.04 -1.1,6.85 -1.06,13.69 2.05,20.03 22.82,-0.78 45.65,-0.84 68.48,-1.13 19.74,0.07 39.32,0.37 59.03,1.71 10.72,1.23 23.06,1.38 33.15,5.24 10.5,4.82 19,15.11 25.61,24.33 6.2,9.09 12.09,19.83 13.95,30.77 0.82,4.59 -0.56,8.85 -3.1,12.65 -4.05,5.91 -8.46,11.58 -12.63,17.41 -2.66,3.93 -4.71,7.9 -3.57,12.8 1.62,7.41 6.84,14.59 10.6,21.13 3.15,5.55 7.47,11.44 8.6,17.79 0.78,3.54 -0.75,7.31 -2.61,10.28 -3.57,5.73 -8.66,10.75 -12.94,16.01 -3.95,4.69 -8.65,9.45 -9.58,15.8 -0.44,7.09 3.24,14.4 5.58,20.99 2.49,7.05 6.53,14.7 7.02,22.16 0.4,4.98 -2.03,9.41 -4.55,13.51 -6.34,9.32 -16.27,17 -23.7,25.39 -2.8,3.3 -5.23,6.6 -5.74,11.04 -0.88,8.62 0.24,17.44 -0.27,26.09 -0.22,5.92 -4.24,11.51 -7.7,16.07 -7.65,9.63 -17.06,17.93 -27.22,24.83 -5.12,3.39 -10.91,6.66 -16.92,8.09 -18.51,4.68 -38.02,5 -56.79,5.98 h -29.54 c -2.9,-0.19 -5.78,-0.32 -8.68,-0.38 -33.38,-0.74 -66.74,-2.74 -100,-5.55 -3.12,-0.25 -6.16,-0.42 -9.23,-0.95 -41.15,-7.67 -82.31,-15.3 -123.46,-22.97 0,-81.59 0,-163.19 0,-244.78 4.23,-0.04 8.47,0.11 12.69,-0.07 6.83,-0.3 13.12,-3.82 18.44,-7.89 9.14,-7.09 16.52,-16.43 23.17,-25.81 13.47,-19.47 24.39,-41.33 34.12,-62.88 5.26,-12.41 10.38,-24.9 15.68,-37.3 2.65,-6.28 6.34,-12.06 10.82,-17.18 3.53,-4.08 7.8,-7.6 11.78,-11.25 8.32,-7.05 18,-13.58 25.12,-21.87 9.43,-9.77 15.94,-22.88 20.41,-35.58 7.26,-20.43 9.98,-41.22 12.85,-62.570002 0.9,-10 1.75,-20.01 2.6,-30.01 0.26,-2.23 0.36,-4.26 2.02,-5.95 2.99,-3.02 8.05,-3.71 12.07,-4.01 z"
     inkscape:connector-curvature="0" />
</svg>
