<?xml version="1.0" encoding="UTF-8" standalone="no"?>
<svg
   xmlns:dc="http://purl.org/dc/elements/1.1/"
   xmlns:cc="http://creativecommons.org/ns#"
   xmlns:rdf="http://www.w3.org/1999/02/22-rdf-syntax-ns#"
   xmlns:svg="http://www.w3.org/2000/svg"
   xmlns="http://www.w3.org/2000/svg"
   xmlns:sodipodi="http://sodipodi.sourceforge.net/DTD/sodipodi-0.dtd"
   xmlns:inkscape="http://www.inkscape.org/namespaces/inkscape"
   version="1.1"
   viewBox="0 0 597 597"
   width="597.0pt"
   height="597.0pt"
   id="svg10"
   sodipodi:docname="square.svg"
   inkscape:version="1.0.1 (3bc2e813f5, 2020-09-07)">
  <metadata
     id="metadata16">
    <rdf:RDF>
      <cc:Work
         rdf:about="">
        <dc:format>image/svg+xml</dc:format>
        <dc:type
           rdf:resource="http://purl.org/dc/dcmitype/StillImage" />
      </cc:Work>
    </rdf:RDF>
  </metadata>
  <defs
     id="defs14" />
  <sodipodi:namedview
     pagecolor="#ffffff"
     bordercolor="#666666"
     borderopacity="1"
     objecttolerance="10"
     gridtolerance="10"
     guidetolerance="10"
     inkscape:pageopacity="0"
     inkscape:pageshadow="2"
     inkscape:window-width="2560"
     inkscape:window-height="1017"
     id="namedview12"
     showgrid="false"
     inkscape:zoom="1.0678392"
     inkscape:cx="398"
     inkscape:cy="398"
     inkscape:window-x="1072"
     inkscape:window-y="690"
     inkscape:window-maximized="1"
     inkscape:current-layer="svg10" />
  <path
     d="M 358.08 0.00 L 359.58 0.00 L 360.50 0.08 L 361.30 0.16 C 385.36 1.77 407.91 17.47 417.27 39.78 C 420.31 46.44 421.73 53.41 423.38 60.49 C 428.14 88.30 424.41 117.51 411.94 142.88 C 404.58 157.91 396.69 172.60 390.07 187.99 C 386.10 197.89 382.07 207.38 380.47 218.03 C 379.37 224.88 379.41 231.72 382.52 238.06 C 405.34 237.28 428.17 237.22 451.00 236.93 C 470.74 237.00 490.32 237.30 510.03 238.64 C 520.75 239.87 533.09 240.02 543.18 243.88 C 553.68 248.70 562.18 258.99 568.79 268.21 C 574.99 277.30 580.88 288.04 582.74 298.98 C 583.56 303.57 582.18 307.83 579.64 311.63 C 575.59 317.54 571.18 323.21 567.01 329.04 C 564.35 332.97 562.30 336.94 563.44 341.84 C 565.06 349.25 570.28 356.43 574.04 362.97 C 577.19 368.52 581.51 374.41 582.64 380.76 C 583.42 384.30 581.89 388.07 580.03 391.04 C 576.46 396.77 571.37 401.79 567.09 407.05 C 563.14 411.74 558.44 416.50 557.51 422.85 C 557.07 429.94 560.75 437.25 563.09 443.84 C 565.58 450.89 569.62 458.54 570.11 466.00 C 570.51 470.98 568.08 475.41 565.56 479.51 C 559.22 488.83 549.29 496.51 541.86 504.90 C 539.06 508.20 536.63 511.50 536.12 515.94 C 535.24 524.56 536.36 533.38 535.85 542.03 C 535.63 547.95 531.61 553.54 528.15 558.10 C 520.50 567.73 511.09 576.03 500.93 582.93 C 495.81 586.32 490.02 589.59 484.01 591.02 C 465.50 595.70 445.99 596.02 427.22 597.00 L 397.68 597.00 C 394.78 596.81 391.90 596.68 389.00 596.62 C 355.62 595.88 322.26 593.88 289.00 591.07 C 285.88 590.82 282.84 590.65 279.77 590.12 C 238.62 582.45 197.46 574.82 156.31 567.15 C 156.31 485.56 156.31 403.96 156.31 322.37 C 160.54 322.33 164.78 322.48 169.00 322.30 C 175.83 322.00 182.12 318.48 187.44 314.41 C 196.58 307.32 203.96 297.98 210.61 288.60 C 224.08 269.13 235.00 247.27 244.73 225.72 C 249.99 213.31 255.11 200.82 260.41 188.42 C 263.06 182.14 266.75 176.36 271.23 171.24 C 274.76 167.16 279.03 163.64 283.01 159.99 C 291.33 152.94 301.01 146.41 308.13 138.12 C 317.56 128.35 324.07 115.24 328.54 102.54 C 335.80 82.11 338.52 61.32 341.39 39.97 C 342.29 29.97 343.14 19.96 343.99 9.96 C 344.25 7.73 344.35 5.70 346.01 4.01 C 349.00 0.99 354.06 0.30 358.08 0.00 Z"
     fill="#000000"
     id="path4" />
  <path
     d="M 37.99 310.44 C 60.32 310.41 82.68 310.46 105.02 310.42 C 109.42 310.39 113.62 310.63 117.75 312.35 C 126.80 316.07 132.57 325.23 132.41 334.98 C 132.47 409.91 132.44 485.08 132.43 560.02 C 132.63 569.12 128.05 577.66 120.01 582.05 C 114.25 585.31 108.41 585.11 102.00 585.07 C 80.35 585.02 58.65 585.13 37.00 585.02 C 28.67 585.00 20.81 580.65 16.51 573.50 C 13.77 569.09 12.96 564.13 12.99 559.01 C 13.03 484.43 12.96 409.53 13.02 334.99 C 12.98 327.83 15.87 321.00 21.31 316.31 C 25.93 312.20 31.88 310.44 37.99 310.44 Z"
     fill="#000000"
     id="path8" />
</svg>
