<?xml version="1.0" standalone="no"?>
<!DOCTYPE svg PUBLIC "-//W3C//DTD SVG 20010904//EN"
 "http://www.w3.org/TR/2001/REC-SVG-20010904/DTD/svg10.dtd">
<svg version="1.0" xmlns="http://www.w3.org/2000/svg"
 width="523.000000pt" height="571.000000pt" viewBox="0 0 523.000000 571.000000"
 preserveAspectRatio="xMidYMid meet">

<g transform="translate(0.000000,571.000000) scale(0.100000,-0.100000)"
fill="#000000" stroke="none">
<path d="M4932 5532 c-55 -86 -109 -166 -121 -176 -19 -18 -20 -17 -27 20 l-7
37 -18 -34 c-23 -43 -93 -235 -115 -312 -17 -64 -27 -65 -54 -5 l-17 39 -17
-58 c-9 -32 -26 -120 -39 -195 -14 -86 -26 -138 -34 -138 -6 0 -22 14 -36 31
l-24 31 -21 -59 c-35 -94 -52 -171 -63 -283 -13 -133 -12 -131 -36 -91 -20 31
-21 32 -28 11 -6 -18 4 -172 20 -322 7 -58 -2 -60 -49 -14 -33 33 -34 34 -40
13 -10 -38 -7 -88 14 -204 23 -131 19 -155 -16 -122 -28 27 -28 28 -8 -80 31
-161 4 -328 -64 -410 l-28 -34 -13 59 c-7 32 -22 79 -32 103 l-19 44 41 -7 42
-7 -7 32 c-17 86 -50 173 -81 214 l-35 45 30 0 c33 0 35 6 19 65 -14 51 -43
92 -83 117 l-31 19 43 -3 44 -4 -6 30 c-10 48 -51 102 -106 139 -51 35 -55 47
-13 47 32 0 29 10 -19 57 -47 45 -112 83 -143 83 -11 0 -26 4 -33 8 -16 11 10
35 53 49 29 10 28 11 -43 33 -59 18 -90 22 -153 18 l-79 -5 26 34 c14 19 23
37 20 40 -10 10 -226 -15 -285 -33 -29 -8 -56 -13 -59 -10 -3 4 10 22 28 41
l34 35 -28 0 c-84 0 -233 -62 -343 -144 -65 -48 -78 -44 -48 13 l14 29 -42 -9
c-125 -27 -238 -118 -339 -273 l-60 -91 5 70 6 70 -25 -30 c-13 -16 -68 -92
-120 -167 -92 -130 -164 -211 -212 -237 -14 -8 -2 16 38 71 93 129 149 285
150 414 l0 52 -62 -14 c-140 -29 -261 -85 -381 -175 l-79 -59 -27 19 c-59 42
-149 64 -291 69 -152 5 -257 -10 -359 -51 l-61 -25 -6 27 c-4 14 -22 59 -41
99 -40 85 -119 169 -204 219 -95 55 -92 56 -128 -43 -43 -118 -50 -156 -51
-252 0 -70 6 -102 42 -212 l42 -130 -36 -38 c-56 -57 -105 -147 -122 -222 -19
-82 -20 -218 -3 -316 l13 -71 -91 -7 c-96 -7 -262 -39 -323 -61 -36 -13 -34
-14 58 -14 98 -1 289 -17 363 -30 l42 -7 -130 -44 c-120 -40 -215 -77 -215
-84 0 -1 24 1 53 5 109 16 457 8 457 -10 0 -3 -34 -16 -75 -29 -76 -23 -231
-89 -224 -96 2 -2 33 0 69 5 36 4 131 11 211 15 l146 7 65 -51 c176 -139 371
-177 538 -107 104 43 97 44 105 -17 23 -167 119 -477 216 -695 34 -76 79 -178
101 -228 61 -137 107 -269 135 -385 20 -87 25 -141 30 -310 3 -113 2 -279 -2
-370 l-7 -165 -40 -25 c-75 -47 -134 -161 -126 -242 3 -30 7 -34 53 -46 66
-17 206 -18 277 -2 32 7 56 16 54 19 -2 3 0 58 4 121 17 222 40 638 50 885 30
774 225 1438 467 1593 128 82 240 53 274 -71 25 -92 -7 -270 -70 -396 -36 -70
-66 -192 -56 -229 l6 -23 31 26 c17 14 32 24 34 22 3 -2 -2 -33 -11 -68 -8
-35 -15 -75 -15 -88 0 -22 2 -23 18 -9 25 22 55 31 49 15 -16 -41 -28 -136
-22 -174 l6 -44 30 26 c43 35 53 32 44 -12 -4 -21 -7 -51 -6 -67 2 -30 31
-104 57 -144 l15 -22 28 21 c16 12 34 19 39 15 6 -3 18 -29 27 -57 25 -73 16
-123 -34 -196 -94 -138 -174 -347 -257 -676 l-47 -188 -36 -15 c-20 -8 -48
-27 -63 -41 -34 -33 -69 -113 -71 -166 -2 -40 -1 -41 43 -55 58 -18 209 -19
282 -2 65 15 57 -2 77 165 26 223 121 473 263 692 34 54 117 166 183 248 181
226 229 305 241 398 9 62 -2 111 -32 147 l-25 30 16 97 17 98 51 45 c159 139
312 334 428 547 33 59 50 78 102 112 34 22 78 57 97 77 l35 37 -64 -6 -63 -5
57 35 c124 74 250 190 299 274 l19 32 -52 -5 c-28 -3 -51 -4 -51 -3 0 1 40 42
88 91 97 97 147 176 187 295 14 40 25 75 25 77 0 3 -20 -14 -44 -36 -40 -37
-86 -68 -86 -58 0 2 32 46 70 98 99 131 190 314 190 381 0 16 -6 14 -40 -17
-22 -20 -42 -36 -45 -36 -2 0 20 46 50 103 69 131 95 211 102 317 l6 85 -39
-36 c-22 -19 -48 -42 -58 -50 -23 -16 -21 -13 25 56 51 76 119 263 119 328 0
17 -3 16 -31 -7 -42 -35 -53 -33 -29 7 32 51 60 152 67 243 4 60 3 84 -6 84
-6 0 -11 -4 -11 -9 0 -5 -10 -16 -23 -24 -23 -15 -23 -15 9 91 44 146 59 242
50 325 -4 37 -11 67 -16 67 -4 0 -15 -11 -24 -25 -22 -33 -36 -24 -36 23 0 60
-28 161 -62 224 -17 32 -34 58 -38 58 -4 0 -52 -71 -108 -158z m-3941 -1972
c19 -6 45 -20 57 -33 45 -47 71 -182 58 -291 l-7 -56 -54 0 -53 0 -7 63 c-9
81 -26 107 -68 107 -50 0 -68 -20 -87 -94 -9 -37 -20 -67 -23 -66 -4 0 -20 0
-37 0 l-30 0 0 63 c0 84 25 193 52 233 25 36 66 64 112 75 44 10 47 10 87 -1z
m737 -23 c55 -51 82 -149 82 -299 l0 -88 -55 0 -55 0 0 70 c0 86 -19 130 -56
130 -50 0 -94 -74 -94 -157 0 -32 -1 -33 -41 -33 l-42 0 6 88 c4 49 16 118 27
155 43 140 153 205 228 134z m-493 -339 l0 -86 45 -6 c136 -19 134 -17 25 -41
-55 -13 -112 -28 -127 -34 -33 -12 -32 -13 -14 30 8 19 17 75 21 124 8 101 10
107 33 103 14 -3 17 -17 17 -90z m1119 -292 c85 -26 131 -44 124 -51 -1 -1
-41 1 -88 5 -141 14 -420 12 -502 -4 -63 -12 -155 -39 -243 -72 -18 -6 -17 -4
5 20 34 37 170 103 250 121 106 24 341 14 454 -19z m-1016 -21 c20 -9 48 -26
61 -38 45 -41 83 -158 47 -144 -123 47 -196 55 -311 33 -38 -8 -72 -12 -74
-10 -2 1 -1 19 3 37 9 49 45 99 86 119 44 22 138 23 188 3z m826 -116 c63 -11
166 -55 166 -71 0 -5 -8 -7 -17 -4 -39 12 -214 35 -326 42 -65 3 -115 9 -112
12 2 3 26 11 52 18 60 16 161 17 237 3z m-304 -118 c33 -10 79 -30 102 -44 44
-25 154 -134 145 -143 -2 -3 -31 11 -63 30 -57 34 -354 166 -373 166 -6 0 -13
5 -17 12 -10 16 132 2 206 -21z"/>
</g>
</svg>
