<?xml version="1.0" encoding="UTF-8"?>
<svg xmlns="http://www.w3.org/2000/svg" xmlns:xlink="http://www.w3.org/1999/xlink" width="144pt" height="143.999998pt" viewBox="0 0 144 143.999998" version="1.2">
<defs>
<clipPath id="clip1">
  <path d="M 87 102 L 121 102 L 121 135.777344 L 87 135.777344 Z M 87 102 "/>
</clipPath>
<clipPath id="clip2">
  <path d="M 15.726562 8.277344 L 125.226562 8.277344 L 125.226562 99 L 15.726562 99 Z M 15.726562 8.277344 "/>
</clipPath>
<clipPath id="clip3">
  <path d="M 37 102 L 71 102 L 71 135.777344 L 37 135.777344 Z M 37 102 "/>
</clipPath>
</defs>
<g id="surface1">
<g clip-path="url(#clip1)" clip-rule="nonzero">
<path style=" stroke:none;fill-rule:nonzero;fill:rgb(100%,100%,100%);fill-opacity:1;" d="M 87.796875 119.273438 C 87.796875 128.355469 95.226562 135.777344 104.308594 135.777344 C 113.386719 135.777344 120.8125 128.355469 120.8125 119.273438 C 120.8125 110.195312 113.386719 102.769531 104.308594 102.769531 C 95.226562 102.769531 87.796875 110.195312 87.796875 119.273438 "/>
</g>
<g clip-path="url(#clip2)" clip-rule="nonzero">
<path style=" stroke:none;fill-rule:nonzero;fill:rgb(100%,100%,100%);fill-opacity:1;" d="M 20.492188 40.058594 C 24.015625 40.058594 27.15625 41.457031 29.40625 43.75 C 31.652344 46.039062 33.097656 49.136719 33.097656 52.660156 C 33.097656 78.117188 53.679688 98.78125 79.183594 98.78125 C 104.605469 98.78125 125.1875 78.117188 125.1875 52.660156 C 125.1875 31.996094 111.476562 13.835938 91.617188 8.277344 L 79.183594 52.660156 L 42.476562 52.660156 C 42.476562 46.550781 40.058594 41.078125 36.066406 37.089844 C 32.078125 33.101562 26.519531 30.679688 20.492188 30.679688 C 17.90625 30.679688 15.78125 32.804688 15.78125 35.390625 C 15.78125 37.980469 17.90625 40.058594 20.492188 40.058594 "/>
</g>
<g clip-path="url(#clip3)" clip-rule="nonzero">
<path style=" stroke:none;fill-rule:nonzero;fill:rgb(100%,100%,100%);fill-opacity:1;" d="M 37.46875 119.273438 C 37.46875 128.355469 44.894531 135.777344 53.976562 135.777344 C 63.140625 135.777344 70.484375 128.355469 70.484375 119.273438 C 70.484375 110.195312 63.140625 102.769531 53.976562 102.769531 C 44.894531 102.769531 37.46875 110.195312 37.46875 119.273438 "/>
</g>
</g>
</svg>
