<?xml version="1.0" encoding="UTF-8"?>
<svg xmlns="http://www.w3.org/2000/svg" xmlns:xlink="http://www.w3.org/1999/xlink" width="144pt" height="143.999998pt" viewBox="0 0 144 143.999998" version="1.2">
<defs>
<clipPath id="clip1">
  <path d="M 11.820312 6.3125 L 131.820312 6.3125 L 131.820312 129.3125 L 11.820312 129.3125 Z M 11.820312 6.3125 "/>
</clipPath>
</defs>
<g id="surface1">
<g clip-path="url(#clip1)" clip-rule="nonzero">
<path style=" stroke:none;fill-rule:nonzero;fill:rgb(100%,100%,100%);fill-opacity:1;" d="M 71.820312 6.34375 C 71.429688 6.34375 71.054688 6.421875 70.699219 6.574219 C 70.339844 6.730469 70.027344 6.945312 69.757812 7.230469 C 69.488281 7.511719 69.285156 7.835938 69.148438 8.199219 C 69.011719 8.566406 68.953125 8.941406 68.96875 9.332031 C 45.917969 10.640625 43.523438 27.5625 43.277344 37.566406 C 46.933594 36.136719 58.621094 32.074219 71.820312 32.074219 C 85.019531 32.074219 96.707031 36.136719 100.363281 37.566406 C 100.117188 27.5625 97.722656 10.640625 74.671875 9.332031 C 74.691406 8.941406 74.628906 8.566406 74.492188 8.199219 C 74.355469 7.835938 74.152344 7.511719 73.882812 7.230469 C 73.613281 6.945312 73.300781 6.730469 72.941406 6.574219 C 72.585938 6.421875 72.210938 6.34375 71.820312 6.34375 Z M 114.675781 20.640625 L 114.675781 23.5 L 108.964844 23.5 L 108.964844 29.214844 L 114.675781 29.214844 L 114.675781 94.714844 C 115.652344 95.246094 116.605469 95.8125 117.535156 96.402344 C 117.539062 96.40625 117.546875 96.410156 117.550781 96.414062 C 123.488281 100.1875 128.394531 104.925781 131.820312 110.039062 L 131.820312 78.761719 C 131.820312 74.101562 128.964844 69.898438 124.648438 68.152344 L 121.445312 66.871094 C 121.09375 66.730469 120.742188 66.683594 120.390625 66.683594 L 120.390625 20.640625 Z M 71.820312 37.792969 C 57.363281 37.792969 44.507812 43.226562 44.363281 43.28125 C 44.25 43.339844 44.132812 43.371094 44.046875 43.398438 C 44.792969 45.367188 45.578125 46.972656 46.402344 48.324219 C 44.710938 49.800781 43.21875 52.402344 43.542969 56.328125 C 43.550781 56.378906 43.554688 56.425781 43.5625 56.476562 C 44.289062 61.824219 46.847656 64.113281 49.34375 65.234375 C 49.777344 68.136719 50.472656 71.09375 51.503906 73.585938 C 52.105469 75.046875 52.761719 76.363281 53.464844 77.480469 C 53.789062 77.988281 54.316406 78.332031 54.675781 78.769531 L 54.675781 81.867188 C 51.582031 83.640625 44.195312 88.429688 41.105469 95.488281 C 36.792969 96.800781 32.648438 98.773438 28.964844 101.203125 L 28.964844 129.28125 L 66.101562 129.28125 C 66.101562 129.28125 66.105469 129.28125 66.105469 129.28125 C 66.679688 129.28125 67.207031 129.121094 67.6875 128.804688 C 68.164062 128.488281 68.515625 128.0625 68.738281 127.53125 C 68.742188 127.53125 68.738281 127.523438 68.738281 127.523438 C 68.886719 127.171875 68.960938 126.804688 68.964844 126.421875 C 68.964844 126.421875 68.964844 126.417969 68.964844 126.417969 C 68.964844 126.160156 68.929688 125.910156 68.863281 125.664062 C 68.863281 125.664062 66.726562 117.898438 64.59375 109.394531 C 63.671875 105.722656 62.808594 102.042969 62.066406 98.679688 C 65.261719 100.078125 68.78125 100.691406 71.820312 100.691406 C 74.859375 100.691406 78.378906 100.078125 81.574219 98.679688 C 80.832031 102.042969 79.96875 105.722656 79.046875 109.394531 C 76.914062 117.898438 74.777344 125.664062 74.777344 125.664062 C 74.710938 125.90625 74.679688 126.15625 74.675781 126.410156 C 74.675781 126.414062 74.675781 126.417969 74.675781 126.421875 C 74.675781 126.421875 74.675781 126.425781 74.675781 126.425781 C 74.679688 126.804688 74.75 127.167969 74.894531 127.515625 C 74.898438 127.527344 74.90625 127.535156 74.910156 127.542969 C 75.054688 127.882812 75.257812 128.183594 75.515625 128.441406 C 75.515625 128.441406 75.519531 128.449219 75.519531 128.449219 C 75.78125 128.707031 76.082031 128.910156 76.417969 129.050781 C 76.417969 129.050781 76.425781 129.058594 76.425781 129.058594 C 76.777344 129.207031 77.140625 129.28125 77.523438 129.28125 C 77.527344 129.28125 77.53125 129.28125 77.535156 129.28125 L 114.675781 129.28125 L 114.675781 101.203125 C 110.992188 98.773438 106.847656 96.800781 102.535156 95.488281 C 99.445312 88.429688 92.058594 83.640625 88.964844 81.867188 L 88.964844 78.769531 C 89.324219 78.332031 89.851562 77.988281 90.175781 77.480469 C 90.878906 76.363281 91.535156 75.046875 92.136719 73.585938 C 93.167969 71.09375 93.863281 68.136719 94.296875 65.234375 C 96.792969 64.113281 99.351562 61.824219 100.078125 56.476562 C 100.085938 56.425781 100.09375 56.378906 100.097656 56.328125 C 100.421875 52.414062 98.9375 49.8125 97.253906 48.335938 C 98.085938 46.980469 98.875 45.375 99.621094 43.398438 C 99.507812 43.371094 99.390625 43.339844 99.277344 43.28125 C 99.132812 43.226562 86.277344 37.792969 71.820312 37.792969 Z M 71.820312 52.089844 C 75.335938 52.089844 78.390625 52.746094 81.105469 53.316406 C 83.449219 53.804688 85.589844 54.175781 87.589844 54.175781 C 89.714844 54.175781 91.636719 53.695312 93.410156 52.523438 C 93.296875 52.46875 94.519531 53.566406 94.386719 55.789062 C 93.636719 61.042969 91.726562 60.664062 91.820312 60.664062 C 91.464844 60.664062 91.121094 60.730469 90.789062 60.855469 C 90.457031 60.984375 90.160156 61.167969 89.898438 61.40625 C 89.636719 61.648438 89.421875 61.925781 89.265625 62.242188 C 89.105469 62.5625 89.007812 62.898438 88.972656 63.25 C 88.726562 65.867188 87.867188 68.964844 86.859375 71.402344 C 86.355469 72.621094 85.8125 73.683594 85.347656 74.417969 C 84.882812 75.152344 84.355469 75.523438 84.6875 75.335938 C 84.242188 75.589844 83.890625 75.9375 83.632812 76.382812 C 83.378906 76.828125 83.25 77.304688 83.25 77.820312 L 83.25 89.253906 C 83.25 90.894531 82.179688 92.089844 79.855469 93.226562 C 77.53125 94.359375 74.25 94.972656 71.820312 94.972656 C 69.390625 94.972656 66.109375 94.359375 63.785156 93.226562 C 61.460938 92.089844 60.390625 90.894531 60.390625 89.253906 L 60.390625 77.820312 C 60.390625 77.304688 60.265625 76.828125 60.007812 76.382812 C 59.75 75.9375 59.398438 75.589844 58.953125 75.335938 C 59.285156 75.523438 58.757812 75.152344 58.292969 74.417969 C 57.828125 73.683594 57.285156 72.621094 56.78125 71.402344 C 55.773438 68.964844 54.914062 65.867188 54.667969 63.25 C 54.632812 62.898438 54.535156 62.5625 54.375 62.242188 C 54.21875 61.925781 54.007812 61.648438 53.742188 61.40625 C 53.480469 61.167969 53.183594 60.984375 52.851562 60.855469 C 52.519531 60.730469 52.175781 60.664062 51.820312 60.664062 C 51.914062 60.664062 50.003906 61.042969 49.253906 55.789062 C 49.121094 53.578125 50.328125 52.484375 50.222656 52.53125 C 53.632812 54.796875 57.65625 54.335938 62.535156 53.316406 C 65.25 52.746094 68.304688 52.089844 71.820312 52.089844 Z M 23.25 105.550781 C 16.335938 111.667969 11.820312 119.332031 11.820312 126.421875 C 11.820312 127.195312 12.132812 127.910156 12.644531 128.453125 C 13.1875 128.96875 13.90625 129.28125 14.675781 129.28125 L 23.25 129.28125 Z M 120.390625 105.550781 L 120.390625 129.28125 L 128.964844 129.28125 C 129.734375 129.28125 130.453125 128.96875 130.996094 128.453125 C 131.507812 127.910156 131.820312 127.195312 131.820312 126.421875 C 131.820312 119.332031 127.304688 111.667969 120.390625 105.550781 Z M 120.390625 105.550781 "/>
</g>
</g>
</svg>
