<?xml version="1.0" encoding="UTF-8"?>
<svg xmlns="http://www.w3.org/2000/svg" xmlns:xlink="http://www.w3.org/1999/xlink" width="144pt" height="143.999998pt" viewBox="0 0 144 143.999998" version="1.2">
<defs>
<clipPath id="clip1">
  <path d="M 67 14.398438 L 114 14.398438 L 114 128 L 67 128 Z M 67 14.398438 "/>
</clipPath>
<clipPath id="clip2">
  <path d="M 100 34 L 122.457031 34 L 122.457031 59 L 100 59 Z M 100 34 "/>
</clipPath>
</defs>
<g id="surface1">
<g clip-path="url(#clip1)" clip-rule="nonzero">
<path style=" stroke:none;fill-rule:nonzero;fill:rgb(100%,100%,100%);fill-opacity:1;" d="M 82.695312 120.667969 C 77.960938 129.664062 73.226562 128.242188 70.863281 127.296875 C 68.496094 125.875 65.65625 121.144531 68.496094 114.988281 C 74.648438 103.15625 76.066406 90.375 76.066406 84.21875 L 73.226562 84.21875 L 72.753906 72.859375 L 94.53125 72.386719 L 95.003906 83.746094 L 91.214844 83.746094 C 91.6875 91.320312 89.796875 106.941406 82.695312 120.667969 Z M 92.164062 67.179688 L 76.066406 67.652344 C 74.175781 62.445312 71.335938 60.550781 71.335938 53.925781 C 71.335938 17.003906 100.210938 14.636719 113.464844 14.636719 C 111.570312 15.109375 99.261719 22.210938 95.003906 33.097656 C 92.164062 41.144531 95.476562 43.984375 95.476562 51.558594 C 95.476562 59.132812 91.214844 64.339844 91.214844 64.339844 L 91.214844 67.179688 Z M 86.480469 56.292969 C 87.429688 54.871094 86.480469 52.980469 85.0625 52.03125 C 83.640625 51.085938 81.273438 52.03125 80.800781 53.453125 C 79.855469 54.871094 80.800781 56.765625 82.222656 57.710938 C 83.640625 58.1875 86.007812 57.710938 86.480469 56.292969 Z M 86.480469 56.292969 "/>
</g>
<path style=" stroke:none;fill-rule:nonzero;fill:rgb(100%,100%,100%);fill-opacity:1;" d="M 50.507812 47.296875 L 50.980469 50.613281 C 43.40625 52.503906 27.3125 57.238281 15.003906 67.179688 C 6.957031 73.808594 9.324219 78.066406 11.21875 79.960938 C 13.113281 81.855469 18.792969 83.746094 24 79.488281 C 34.414062 70.964844 48.140625 67.179688 54.292969 65.757812 L 54.765625 68.125 L 65.179688 66.234375 L 60.921875 44.933594 Z M 50.507812 47.296875 "/>
<path style=" stroke:none;fill-rule:nonzero;fill:rgb(100%,100%,100%);fill-opacity:1;" d="M 75.59375 53.453125 C 75.59375 50.140625 76.066406 47.296875 76.066406 44.457031 C 73.226562 44.457031 70.386719 45.40625 66.128906 47.296875 L 69.441406 62.445312 C 69.441406 62.445312 73.226562 62.445312 77.488281 62.445312 C 77.015625 59.605469 75.59375 57.238281 75.59375 53.453125 Z M 75.59375 53.453125 "/>
<g clip-path="url(#clip2)" clip-rule="nonzero">
<path style=" stroke:none;fill-rule:nonzero;fill:rgb(100%,100%,100%);fill-opacity:1;" d="M 101.15625 37.359375 C 100.683594 37.359375 100.683594 37.832031 100.210938 37.832031 C 99.738281 43.039062 101.628906 45.878906 101.628906 52.03125 C 101.628906 54.398438 101.15625 56.765625 100.683594 58.660156 C 104.941406 55.34375 109.203125 50.613281 112.992188 46.824219 C 120.089844 39.726562 122.457031 37.359375 122.457031 37.359375 C 122.457031 37.359375 111.570312 31.203125 101.15625 37.359375 Z M 101.15625 37.359375 "/>
</g>
</g>
</svg>
