<?xml version="1.0" encoding="UTF-8"?>
<svg xmlns="http://www.w3.org/2000/svg" xmlns:xlink="http://www.w3.org/1999/xlink" width="144pt" height="143.999998pt" viewBox="0 0 144 143.999998" version="1.2">
<defs>
<clipPath id="clip1">
  <path d="M 12.347656 42 L 96 42 L 96 126 L 12.347656 126 Z M 12.347656 42 "/>
</clipPath>
<clipPath id="clip2">
  <path d="M 72.273438 64 L 131.582031 64 L 131.582031 126.03125 L 72.273438 126.03125 Z M 72.273438 64 "/>
</clipPath>
<clipPath id="clip3">
  <path d="M 73 18.089844 L 80 18.089844 L 80 24 L 73 24 Z M 73 18.089844 "/>
</clipPath>
<clipPath id="clip4">
  <path d="M 67 18.089844 L 73 18.089844 L 73 24 L 67 24 Z M 67 18.089844 "/>
</clipPath>
</defs>
<g id="surface1">
<path style=" stroke:none;fill-rule:nonzero;fill:rgb(100%,100%,100%);fill-opacity:1;" d="M 22.972656 104.902344 C 23.015625 104.902344 23.0625 104.898438 23.109375 104.894531 C 24.292969 104.824219 25.191406 103.800781 25.117188 102.613281 C 24.46875 92.253906 30.15625 79.714844 39.960938 69.886719 C 50.039062 59.789062 62.816406 54.109375 73.296875 55.066406 C 74.476562 55.171875 75.523438 54.300781 75.628906 53.117188 C 75.738281 51.933594 74.867188 50.886719 73.6875 50.777344 C 61.960938 49.707031 47.878906 55.863281 36.921875 66.84375 C 26.269531 77.515625 20.105469 91.324219 20.828125 102.882812 C 20.898438 104.023438 21.847656 104.902344 22.972656 104.902344 "/>
<g clip-path="url(#clip1)" clip-rule="nonzero">
<path style=" stroke:none;fill-rule:nonzero;fill:rgb(100%,100%,100%);fill-opacity:1;" d="M 46.382812 120.777344 C 37.589844 122.394531 30.015625 120.546875 25.058594 115.574219 C 24.667969 115.183594 24.296875 114.789062 23.945312 114.394531 C 26.285156 115.273438 28.90625 115.71875 31.757812 115.71875 C 34.554688 115.71875 37.570312 115.289062 40.75 114.425781 C 49.957031 111.917969 59.550781 106.003906 67.769531 97.769531 C 75.988281 89.535156 81.890625 79.917969 84.390625 70.691406 C 86.132812 64.257812 86.097656 58.496094 84.359375 53.847656 C 84.753906 54.199219 85.144531 54.574219 85.535156 54.964844 C 90.496094 59.9375 92.339844 67.527344 90.726562 76.335938 C 88.980469 85.875 83.246094 95.910156 74.578125 104.59375 C 65.914062 113.277344 55.898438 119.023438 46.382812 120.777344 Z M 18.128906 88.726562 C 20.433594 80.214844 25.945312 71.277344 33.640625 63.566406 C 41.335938 55.851562 50.25 50.332031 58.746094 48.019531 C 61.554688 47.257812 64.191406 46.878906 66.605469 46.878906 C 67.621094 46.878906 68.59375 46.949219 69.527344 47.082031 C 69.566406 47.089844 69.605469 47.101562 69.640625 47.105469 L 69.949219 47.15625 C 70.074219 47.175781 70.207031 47.195312 70.347656 47.21875 C 73.203125 47.765625 75.613281 48.96875 77.457031 50.8125 C 81.445312 54.8125 82.4375 61.472656 80.242188 69.5625 C 77.9375 78.078125 72.425781 87.011719 64.730469 94.722656 C 57.035156 102.4375 48.117188 107.957031 39.625 110.269531 C 31.550781 112.464844 24.90625 111.476562 20.914062 107.476562 C 19.085938 105.640625 17.886719 103.246094 17.335938 100.410156 C 17.3125 100.246094 17.285156 100.09375 17.265625 99.953125 L 17.214844 99.644531 C 17.207031 99.59375 17.195312 99.546875 17.183594 99.5 C 16.742188 96.351562 17.046875 92.714844 18.128906 88.726562 Z M 94.953125 77.113281 C 96.832031 66.871094 94.566406 57.921875 88.574219 51.917969 C 81.722656 45.050781 74.519531 43.542969 71.238281 43 C 67.25 42.226562 62.640625 42.5 57.621094 43.867188 C 48.414062 46.371094 38.820312 52.285156 30.601562 60.523438 C 22.382812 68.757812 16.480469 78.371094 13.980469 87.597656 C 12.617188 92.625 12.34375 97.246094 13.117188 101.246094 C 13.660156 104.53125 15.164062 111.75 22.019531 118.621094 C 26.636719 123.246094 32.996094 125.65625 40.351562 125.65625 C 42.539062 125.65625 44.816406 125.441406 47.160156 125.011719 C 57.523438 123.105469 68.34375 116.933594 77.617188 107.636719 C 86.894531 98.34375 93.050781 87.503906 94.953125 77.113281 "/>
</g>
<path style=" stroke:none;fill-rule:nonzero;fill:rgb(100%,100%,100%);fill-opacity:1;" d="M 120.917969 98.480469 C 121.214844 99.386719 122.054688 99.960938 122.957031 99.960938 C 123.179688 99.960938 123.40625 99.925781 123.628906 99.851562 C 124.757812 99.480469 125.367188 98.261719 124.996094 97.132812 C 121.902344 87.730469 113.070312 78.832031 101.367188 73.332031 C 100.292969 72.824219 99.015625 73.289062 98.507812 74.363281 C 98.007812 75.441406 98.46875 76.722656 99.542969 77.226562 C 110.195312 82.238281 118.183594 90.183594 120.917969 98.480469 "/>
<path style=" stroke:none;fill-rule:nonzero;fill:rgb(100%,100%,100%);fill-opacity:1;" d="M 74.402344 68.011719 C 69.578125 68.398438 65.257812 69.554688 61.570312 71.441406 C 60.511719 71.980469 60.09375 73.277344 60.632812 74.339844 C 61.011719 75.082031 61.765625 75.511719 62.546875 75.511719 C 62.875 75.511719 63.210938 75.4375 63.523438 75.277344 C 66.664062 73.667969 70.542969 72.640625 74.746094 72.304688 C 75.929688 72.210938 76.8125 71.171875 76.714844 69.988281 C 76.621094 68.800781 75.589844 67.917969 74.402344 68.011719 "/>
<path style=" stroke:none;fill-rule:nonzero;fill:rgb(100%,100%,100%);fill-opacity:1;" d="M 48.683594 78.296875 C 46.226562 84.535156 46.90625 91.820312 50.597656 98.816406 C 50.980469 99.546875 51.726562 99.960938 52.496094 99.960938 C 52.835938 99.960938 53.179688 99.882812 53.5 99.710938 C 54.546875 99.15625 54.949219 97.855469 54.394531 96.800781 C 51.300781 90.9375 50.691406 84.925781 52.679688 79.878906 C 52.777344 79.628906 52.875 79.386719 52.980469 79.148438 C 53.378906 83.539062 55.445312 88.191406 59.09375 92.761719 C 59.515625 93.292969 60.140625 93.570312 60.773438 93.570312 C 61.242188 93.570312 61.714844 93.417969 62.113281 93.097656 C 63.039062 92.355469 63.1875 91 62.449219 90.074219 C 57.683594 84.105469 56.097656 78.1875 57.976562 73.414062 C 58.828125 71.25 60.359375 69.410156 62.464844 67.9375 C 62.625 67.835938 62.769531 67.742188 62.902344 67.660156 L 63.144531 67.503906 C 63.207031 67.464844 63.265625 67.421875 63.320312 67.378906 C 66.550781 65.410156 70.941406 64.21875 76.195312 63.960938 C 77.378906 63.902344 78.292969 62.890625 78.234375 61.703125 C 78.175781 60.515625 77.171875 59.601562 75.984375 59.660156 C 69.5625 59.972656 64.183594 61.582031 60.230469 64.257812 C 57.703125 65.878906 52.027344 69.804688 48.683594 78.296875 "/>
<g clip-path="url(#clip2)" clip-rule="nonzero">
<path style=" stroke:none;fill-rule:nonzero;fill:rgb(100%,100%,100%);fill-opacity:1;" d="M 130.652344 92.246094 C 129.839844 88.5625 127.910156 84.742188 124.902344 80.976562 C 119.410156 74.089844 110.894531 68.128906 100.929688 64.1875 C 99.828125 63.753906 98.578125 64.296875 98.144531 65.402344 C 97.707031 66.507812 98.25 67.757812 99.351562 68.195312 C 108.628906 71.863281 116.515625 77.359375 121.546875 83.664062 C 123.898438 86.609375 125.472656 89.542969 126.242188 92.332031 C 126.253906 92.378906 126.261719 92.425781 126.273438 92.472656 L 126.34375 92.75 C 126.375 92.875 126.410156 93.011719 126.449219 93.160156 C 127.011719 95.71875 126.878906 98.140625 126.019531 100.324219 C 122.046875 110.410156 103.800781 112.875 85.347656 105.816406 C 84.238281 105.394531 82.996094 105.949219 82.574219 107.0625 C 82.152344 108.171875 82.707031 109.417969 83.816406 109.839844 C 91.4375 112.757812 98.964844 114.152344 105.703125 114.152344 C 114.066406 114.152344 121.199219 111.996094 125.769531 107.914062 C 125.679688 108.164062 125.582031 108.417969 125.484375 108.671875 C 123.140625 114.628906 117.46875 118.925781 109.527344 120.773438 C 100.894531 122.777344 90.390625 121.609375 79.945312 117.476562 C 78.429688 116.878906 76.933594 116.222656 75.5 115.53125 C 74.429688 115.019531 73.144531 115.46875 72.628906 116.539062 C 72.117188 117.609375 72.566406 118.898438 73.636719 119.414062 C 75.164062 120.148438 76.753906 120.84375 78.367188 121.480469 C 85.976562 124.492188 93.65625 126.03125 100.765625 126.03125 C 104.164062 126.03125 107.433594 125.679688 110.496094 124.964844 C 119.859375 122.789062 126.601562 117.5625 129.480469 110.25 C 132.765625 101.90625 131.398438 95.238281 130.652344 92.246094 "/>
</g>
<path style=" stroke:none;fill-rule:nonzero;fill:rgb(100%,100%,100%);fill-opacity:1;" d="M 69.121094 25.304688 L 67.949219 26.480469 C 67.109375 27.320312 67.109375 28.683594 67.949219 29.523438 C 68.367188 29.945312 68.917969 30.15625 69.46875 30.15625 C 70.015625 30.15625 70.566406 29.945312 70.988281 29.523438 L 72.160156 28.347656 C 72.996094 27.507812 72.996094 26.144531 72.160156 25.304688 C 71.320312 24.464844 69.960938 24.464844 69.121094 25.304688 "/>
<g clip-path="url(#clip3)" clip-rule="nonzero">
<path style=" stroke:none;fill-rule:nonzero;fill:rgb(100%,100%,100%);fill-opacity:1;" d="M 75.792969 23.816406 C 76.34375 23.816406 76.890625 23.605469 77.3125 23.183594 L 78.484375 22.011719 C 79.324219 21.171875 79.324219 19.808594 78.484375 18.964844 C 77.644531 18.125 76.285156 18.125 75.445312 18.964844 L 74.273438 20.140625 C 73.433594 20.980469 73.433594 22.34375 74.273438 23.183594 C 74.691406 23.605469 75.242188 23.816406 75.792969 23.816406 "/>
</g>
<path style=" stroke:none;fill-rule:nonzero;fill:rgb(100%,100%,100%);fill-opacity:1;" d="M 75.445312 29.523438 C 75.863281 29.945312 76.414062 30.15625 76.964844 30.15625 C 77.515625 30.15625 78.0625 29.945312 78.484375 29.523438 C 79.324219 28.683594 79.324219 27.320312 78.484375 26.480469 L 77.3125 25.304688 C 76.472656 24.464844 75.113281 24.464844 74.273438 25.304688 C 73.433594 26.144531 73.433594 27.507812 74.273438 28.347656 L 75.445312 29.523438 "/>
<g clip-path="url(#clip4)" clip-rule="nonzero">
<path style=" stroke:none;fill-rule:nonzero;fill:rgb(100%,100%,100%);fill-opacity:1;" d="M 69.121094 23.183594 C 69.539062 23.605469 70.089844 23.816406 70.640625 23.816406 C 71.1875 23.816406 71.738281 23.605469 72.160156 23.183594 C 72.996094 22.34375 72.996094 20.980469 72.160156 20.140625 L 70.988281 18.964844 C 70.148438 18.125 68.785156 18.125 67.949219 18.964844 C 67.109375 19.808594 67.109375 21.171875 67.949219 22.011719 L 69.121094 23.183594 "/>
</g>
<path style=" stroke:none;fill-rule:nonzero;fill:rgb(100%,100%,100%);fill-opacity:1;" d="M 32.902344 44.164062 C 33.449219 44.164062 34 43.953125 34.417969 43.535156 L 35.070312 42.882812 C 35.90625 42.042969 35.90625 40.679688 35.070312 39.839844 C 34.230469 39 32.867188 39 32.03125 39.839844 L 31.382812 40.488281 C 30.542969 41.328125 30.542969 42.691406 31.382812 43.535156 C 31.800781 43.953125 32.351562 44.164062 32.902344 44.164062 "/>
<path style=" stroke:none;fill-rule:nonzero;fill:rgb(100%,100%,100%);fill-opacity:1;" d="M 38.730469 38.320312 C 39.28125 38.320312 39.832031 38.113281 40.25 37.691406 L 40.898438 37.042969 C 41.738281 36.199219 41.738281 34.835938 40.898438 33.996094 C 40.058594 33.15625 38.699219 33.15625 37.859375 33.996094 L 37.210938 34.644531 C 36.375 35.488281 36.371094 36.851562 37.210938 37.691406 C 37.628906 38.113281 38.179688 38.320312 38.730469 38.320312 "/>
<path style=" stroke:none;fill-rule:nonzero;fill:rgb(100%,100%,100%);fill-opacity:1;" d="M 37.859375 43.535156 C 38.28125 43.953125 38.828125 44.164062 39.378906 44.164062 C 39.929688 44.164062 40.480469 43.953125 40.898438 43.535156 C 41.738281 42.691406 41.738281 41.328125 40.898438 40.488281 L 40.25 39.839844 C 39.410156 39 38.050781 39 37.210938 39.839844 C 36.371094 40.679688 36.375 42.042969 37.210938 42.882812 L 37.859375 43.535156 "/>
<path style=" stroke:none;fill-rule:nonzero;fill:rgb(100%,100%,100%);fill-opacity:1;" d="M 32.03125 37.691406 C 32.449219 38.113281 33 38.320312 33.550781 38.320312 C 34.097656 38.320312 34.648438 38.113281 35.070312 37.691406 C 35.90625 36.851562 35.90625 35.488281 35.070312 34.648438 L 34.417969 33.996094 C 33.582031 33.15625 32.21875 33.15625 31.382812 33.996094 C 30.542969 34.835938 30.542969 36.199219 31.382812 37.039062 L 32.03125 37.691406 "/>
<path style=" stroke:none;fill-rule:nonzero;fill:rgb(100%,100%,100%);fill-opacity:1;" d="M 101.882812 29.707031 C 104.59375 29.707031 107.085938 31.191406 108.386719 33.582031 C 108.765625 34.273438 109.488281 34.703125 110.273438 34.703125 C 111.058594 34.703125 111.78125 34.273438 112.160156 33.582031 C 113.460938 31.191406 115.953125 29.707031 118.664062 29.707031 C 122.746094 29.707031 126.070312 33.039062 126.070312 37.128906 C 126.070312 45.734375 113.371094 54.550781 110.273438 56.574219 C 107.179688 54.554688 94.476562 45.738281 94.476562 37.128906 C 94.476562 33.039062 97.800781 29.707031 101.882812 29.707031 Z M 108.714844 60.683594 L 109.160156 60.949219 C 109.5 61.160156 109.886719 61.265625 110.273438 61.265625 C 110.660156 61.265625 111.046875 61.160156 111.390625 60.949219 L 111.832031 60.683594 C 113.726562 59.527344 130.363281 49.074219 130.363281 37.128906 C 130.363281 30.664062 125.113281 25.402344 118.664062 25.402344 C 115.457031 25.402344 112.449219 26.714844 110.273438 28.957031 C 108.097656 26.714844 105.089844 25.402344 101.882812 25.402344 C 95.429688 25.402344 90.179688 30.664062 90.179688 37.128906 C 90.179688 49.070312 106.8125 59.523438 108.714844 60.683594 "/>
<path style=" stroke:none;fill-rule:nonzero;fill:rgb(100%,100%,100%);fill-opacity:1;" d="M 118.664062 35.597656 C 119.507812 35.597656 120.195312 36.285156 120.195312 37.128906 C 120.195312 38.320312 121.15625 39.285156 122.34375 39.285156 C 123.527344 39.285156 124.492188 38.320312 124.492188 37.128906 C 124.492188 33.910156 121.875 31.289062 118.664062 31.289062 C 117.476562 31.289062 116.515625 32.253906 116.515625 33.445312 C 116.515625 34.632812 117.476562 35.597656 118.664062 35.597656 "/>
</g>
</svg>
