<?xml version="1.0" encoding="UTF-8"?>
<svg xmlns="http://www.w3.org/2000/svg" xmlns:xlink="http://www.w3.org/1999/xlink" width="144pt" height="143.999998pt" viewBox="0 0 144 143.999998" version="1.2">
<defs>
<clipPath id="clip1">
  <path d="M 13 37.5 L 130.734375 37.5 L 130.734375 124 L 13 124 Z M 13 37.5 "/>
</clipPath>
<clipPath id="clip2">
  <path d="M 114 118 L 130.734375 118 L 130.734375 134.25 L 114 134.25 Z M 114 118 "/>
</clipPath>
<clipPath id="clip3">
  <path d="M 13 118 L 30 118 L 30 134.25 L 13 134.25 Z M 13 118 "/>
</clipPath>
<clipPath id="clip4">
  <path d="M 114 64 L 130.734375 64 L 130.734375 79 L 114 79 Z M 114 64 "/>
</clipPath>
<clipPath id="clip5">
  <path d="M 13 69 L 130.734375 69 L 130.734375 124 L 13 124 Z M 13 69 "/>
</clipPath>
<clipPath id="clip6">
  <path d="M 40.714844 8 L 57 8 L 57 36 L 40.714844 36 Z M 40.714844 8 "/>
</clipPath>
<clipPath id="clip7">
  <path d="M 58 3.527344 L 79 3.527344 L 79 37.277344 L 58 37.277344 Z M 58 3.527344 "/>
</clipPath>
<clipPath id="clip8">
  <path d="M 60 3.527344 L 81 3.527344 L 81 29 L 60 29 Z M 60 3.527344 "/>
</clipPath>
<clipPath id="clip9">
  <path d="M 67 30 L 75 30 L 75 37.277344 L 67 37.277344 Z M 67 30 "/>
</clipPath>
<clipPath id="clip10">
  <path d="M 83 8 L 99.964844 8 L 99.964844 30 L 83 30 Z M 83 8 "/>
</clipPath>
</defs>
<g id="surface1">
<g clip-path="url(#clip1)" clip-rule="nonzero">
<path style=" stroke:none;fill-rule:nonzero;fill:rgb(100%,100%,100%);fill-opacity:1;" d="M 99.867188 42.875 C 104.613281 42.875 108.84375 46.078125 110.148438 50.675781 L 117.519531 76.601562 L 117.792969 77.558594 L 118.386719 78.351562 L 122.128906 83.363281 C 124.199219 86.136719 125.335938 89.574219 125.335938 93.039062 L 125.335938 118.125 L 18.378906 118.125 L 18.378906 93.039062 C 18.378906 89.574219 19.519531 86.136719 21.589844 83.363281 L 25.332031 78.351562 L 25.925781 77.554688 L 26.199219 76.597656 L 33.566406 50.675781 C 34.871094 46.078125 39.101562 42.875 43.851562 42.875 L 99.867188 42.875 M 99.867188 37.5 L 43.851562 37.5 C 36.683594 37.5 30.390625 42.273438 28.421875 49.195312 L 21.054688 75.125 L 17.308594 80.140625 C 14.535156 83.859375 13.03125 88.390625 13.03125 93.039062 L 13.03125 123.5 L 130.683594 123.5 L 130.683594 93.039062 C 130.683594 88.390625 129.183594 83.859375 126.40625 80.140625 L 122.664062 75.125 L 115.292969 49.195312 C 113.324219 42.273438 107.03125 37.5 99.867188 37.5 Z M 99.867188 37.5 "/>
</g>
<g clip-path="url(#clip2)" clip-rule="nonzero">
<path style=" stroke:none;fill-rule:nonzero;fill:rgb(100%,100%,100%);fill-opacity:1;" d="M 130.683594 118.125 L 114.640625 118.125 L 114.640625 128.875 C 114.640625 131.84375 117.039062 134.25 119.988281 134.25 L 125.335938 134.25 C 128.289062 134.25 130.683594 131.84375 130.683594 128.875 Z M 130.683594 118.125 "/>
</g>
<g clip-path="url(#clip3)" clip-rule="nonzero">
<path style=" stroke:none;fill-rule:nonzero;fill:rgb(100%,100%,100%);fill-opacity:1;" d="M 29.074219 118.125 L 13.03125 118.125 L 13.03125 128.875 C 13.03125 131.84375 15.425781 134.25 18.378906 134.25 L 23.726562 134.25 C 26.679688 134.25 29.074219 131.84375 29.074219 128.875 Z M 29.074219 118.125 "/>
</g>
<g clip-path="url(#clip4)" clip-rule="nonzero">
<path style=" stroke:none;fill-rule:nonzero;fill:rgb(100%,100%,100%);fill-opacity:1;" d="M 121.089844 78.339844 L 127.03125 76.351562 C 129.214844 75.621094 130.683594 73.566406 130.683594 71.25 L 130.683594 69.75 C 130.683594 66.78125 128.289062 64.375 125.335938 64.375 L 114.640625 64.375 Z M 121.089844 78.339844 "/>
</g>
<path style=" stroke:none;fill-rule:nonzero;fill:rgb(100%,100%,100%);fill-opacity:1;" d="M 22.121094 78.171875 L 16.6875 76.351562 C 14.503906 75.621094 13.03125 73.566406 13.03125 71.25 L 13.03125 69.75 C 13.03125 66.78125 15.425781 64.375 18.378906 64.375 L 29.074219 64.375 Z M 22.121094 78.171875 "/>
<g clip-path="url(#clip5)" clip-rule="nonzero">
<path style=" stroke:none;fill-rule:nonzero;fill:rgb(100%,100%,100%);fill-opacity:1;" d="M 126.40625 80.140625 L 122.664062 75.125 L 121.132812 69.75 L 22.582031 69.75 L 21.054688 75.125 L 17.308594 80.140625 C 14.535156 83.859375 13.03125 88.390625 13.03125 93.039062 L 13.03125 123.5 L 130.683594 123.5 L 130.683594 93.039062 C 130.683594 88.390625 129.183594 83.863281 126.40625 80.140625 Z M 31.75 102 C 27.320312 102 23.726562 98.386719 23.726562 93.9375 C 23.726562 89.488281 27.320312 85.875 31.75 85.875 C 36.175781 85.875 39.769531 89.488281 39.769531 93.9375 C 39.769531 98.386719 36.175781 102 31.75 102 Z M 111.96875 102 C 107.539062 102 103.945312 98.386719 103.945312 93.9375 C 103.945312 89.488281 107.539062 85.875 111.96875 85.875 C 116.394531 85.875 119.988281 89.488281 119.988281 93.9375 C 119.988281 98.386719 116.394531 102 111.96875 102 Z M 111.96875 102 "/>
</g>
<g clip-path="url(#clip6)" clip-rule="nonzero">
<path style=" stroke:none;fill-rule:nonzero;fill:rgb(100%,100%,100%);fill-opacity:1;" d="M 55.027344 32.511719 C 55.175781 33.132812 55.078125 33.738281 54.734375 34.324219 C 54.386719 34.910156 53.863281 35.285156 53.164062 35.449219 C 52.488281 35.609375 51.855469 35.507812 51.273438 35.152344 C 50.691406 34.796875 50.324219 34.308594 50.175781 33.6875 C 50.019531 33.039062 50.117188 32.429688 50.464844 31.855469 C 50.8125 31.28125 51.335938 30.914062 52.039062 30.746094 C 52.738281 30.582031 53.375 30.675781 53.941406 31.023438 C 54.511719 31.367188 54.871094 31.863281 55.027344 32.511719 Z M 52.90625 27.664062 L 49.496094 28.464844 L 49.085938 26.738281 C 48.9375 26.121094 48.859375 25.542969 48.863281 25.011719 C 48.863281 24.480469 48.929688 23.984375 49.0625 23.527344 C 49.191406 23.066406 49.378906 22.613281 49.617188 22.164062 C 49.855469 21.714844 50.132812 21.253906 50.453125 20.773438 L 51.492188 19.203125 C 51.917969 18.625 52.238281 18.023438 52.460938 17.402344 C 52.683594 16.785156 52.695312 16.054688 52.492188 15.21875 C 52.21875 14.070312 51.628906 13.242188 50.726562 12.730469 C 49.828125 12.222656 48.796875 12.105469 47.636719 12.375 C 46.425781 12.660156 45.550781 13.269531 45.007812 14.203125 C 44.464844 15.140625 44.265625 16.171875 44.410156 17.300781 L 40.832031 17.722656 C 40.730469 16.660156 40.8125 15.664062 41.070312 14.730469 C 41.332031 13.796875 41.742188 12.960938 42.292969 12.226562 C 42.84375 11.492188 43.53125 10.871094 44.355469 10.359375 C 45.179688 9.851562 46.097656 9.476562 47.113281 9.238281 C 48.128906 9 49.113281 8.921875 50.0625 9.003906 C 51.015625 9.082031 51.898438 9.324219 52.710938 9.726562 C 53.519531 10.132812 54.21875 10.699219 54.804688 11.433594 C 55.386719 12.167969 55.808594 13.074219 56.066406 14.152344 C 56.25 14.917969 56.328125 15.605469 56.296875 16.21875 C 56.265625 16.835938 56.152344 17.410156 55.960938 17.949219 C 55.773438 18.484375 55.507812 19.007812 55.167969 19.515625 C 54.832031 20.027344 54.460938 20.554688 54.054688 21.105469 C 53.667969 21.625 53.347656 22.085938 53.085938 22.488281 C 52.824219 22.890625 52.636719 23.28125 52.523438 23.660156 C 52.410156 24.042969 52.359375 24.445312 52.371094 24.871094 C 52.386719 25.296875 52.464844 25.8125 52.609375 26.40625 L 52.90625 27.664062 "/>
</g>
<path style=" stroke:none;fill-rule:nonzero;fill:rgb(100%,100%,100%);fill-opacity:1;" d="M 88.808594 33.664062 C 88.679688 34.292969 88.332031 34.796875 87.773438 35.1875 C 87.207031 35.574219 86.574219 35.695312 85.867188 35.554688 C 85.1875 35.417969 84.65625 35.0625 84.28125 34.5 C 83.902344 33.933594 83.777344 33.335938 83.90625 32.710938 C 84.042969 32.0625 84.390625 31.546875 84.949219 31.171875 C 85.507812 30.796875 86.140625 30.679688 86.847656 30.820312 C 87.554688 30.964844 88.089844 31.3125 88.457031 31.863281 C 88.828125 32.414062 88.945312 33.015625 88.808594 33.664062 Z M 88.949219 28.386719 L 85.515625 27.691406 L 85.875 25.957031 C 86.003906 25.332031 86.183594 24.777344 86.410156 24.296875 C 86.636719 23.816406 86.90625 23.394531 87.222656 23.03125 C 87.539062 22.667969 87.898438 22.332031 88.304688 22.027344 C 88.710938 21.71875 89.160156 21.414062 89.652344 21.113281 L 91.265625 20.125 C 91.898438 19.773438 92.445312 19.363281 92.910156 18.894531 C 93.375 18.421875 93.695312 17.765625 93.871094 16.921875 C 94.109375 15.765625 93.929688 14.769531 93.328125 13.933594 C 92.726562 13.097656 91.84375 12.5625 90.671875 12.324219 C 89.457031 12.078125 88.402344 12.265625 87.511719 12.890625 C 86.621094 13.511719 86 14.367188 85.652344 15.449219 L 82.226562 14.339844 C 82.585938 13.335938 83.082031 12.464844 83.71875 11.726562 C 84.351562 10.988281 85.078125 10.402344 85.890625 9.964844 C 86.703125 9.527344 87.59375 9.25 88.554688 9.128906 C 89.519531 9.011719 90.511719 9.054688 91.535156 9.261719 C 92.558594 9.46875 93.484375 9.804688 94.3125 10.273438 C 95.140625 10.742188 95.839844 11.332031 96.402344 12.035156 C 96.96875 12.738281 97.359375 13.546875 97.578125 14.453125 C 97.792969 15.363281 97.789062 16.363281 97.566406 17.445312 C 97.40625 18.214844 97.183594 18.875 96.894531 19.417969 C 96.601562 19.960938 96.257812 20.4375 95.855469 20.84375 C 95.453125 21.253906 94.992188 21.617188 94.46875 21.9375 C 93.945312 22.257812 93.382812 22.585938 92.785156 22.914062 C 92.210938 23.226562 91.722656 23.507812 91.3125 23.765625 C 90.90625 24.019531 90.570312 24.296875 90.304688 24.59375 C 90.039062 24.894531 89.824219 25.238281 89.652344 25.628906 C 89.480469 26.023438 89.335938 26.519531 89.210938 27.121094 L 88.949219 28.386719 "/>
<g clip-path="url(#clip7)" clip-rule="nonzero">
<path style=" stroke:none;fill-rule:nonzero;fill:rgb(100%,100%,100%);fill-opacity:1;" d="M 71.753906 34.1875 C 71.753906 34.988281 71.457031 35.695312 70.863281 36.3125 C 70.273438 36.929688 69.523438 37.238281 68.621094 37.238281 C 67.746094 37.238281 67.007812 36.9375 66.398438 36.335938 C 65.792969 35.734375 65.488281 35.035156 65.488281 34.230469 C 65.488281 33.398438 65.785156 32.683594 66.375 32.082031 C 66.96875 31.480469 67.714844 31.179688 68.621094 31.179688 C 69.523438 31.179688 70.273438 31.472656 70.863281 32.058594 C 71.457031 32.644531 71.753906 33.355469 71.753906 34.1875 Z M 70.582031 27.664062 L 66.1875 27.664062 L 66.1875 25.445312 C 66.1875 24.644531 66.265625 23.917969 66.421875 23.273438 C 66.578125 22.625 66.804688 22.039062 67.101562 21.515625 C 67.394531 20.992188 67.753906 20.492188 68.175781 20.011719 C 68.597656 19.535156 69.070312 19.050781 69.601562 18.554688 L 71.332031 16.9375 C 72.015625 16.351562 72.585938 15.710938 73.039062 15.019531 C 73.488281 14.324219 73.714844 13.4375 73.714844 12.359375 C 73.714844 10.878906 73.238281 9.699219 72.289062 8.820312 C 71.339844 7.945312 70.117188 7.503906 68.621094 7.503906 C 67.0625 7.503906 65.816406 7.996094 64.878906 8.984375 C 63.945312 9.972656 63.398438 11.171875 63.242188 12.589844 L 58.757812 12.082031 C 58.941406 10.757812 59.332031 9.5625 59.925781 8.5 C 60.515625 7.433594 61.257812 6.535156 62.144531 5.792969 C 63.035156 5.054688 64.054688 4.492188 65.207031 4.105469 C 66.359375 3.71875 67.589844 3.527344 68.902344 3.527344 C 70.210938 3.527344 71.433594 3.710938 72.570312 4.082031 C 73.707031 4.453125 74.714844 5 75.585938 5.722656 C 76.457031 6.449219 77.144531 7.34375 77.644531 8.40625 C 78.140625 9.46875 78.390625 10.695312 78.390625 12.082031 C 78.390625 13.070312 78.28125 13.933594 78.0625 14.671875 C 77.84375 15.410156 77.542969 16.082031 77.152344 16.683594 C 76.761719 17.285156 76.289062 17.847656 75.726562 18.371094 C 75.164062 18.894531 74.558594 19.433594 73.902344 19.988281 C 73.28125 20.515625 72.75 20.984375 72.3125 21.398438 C 71.875 21.816406 71.535156 22.242188 71.285156 22.671875 C 71.035156 23.105469 70.855469 23.582031 70.746094 24.105469 C 70.636719 24.628906 70.582031 25.277344 70.582031 26.046875 L 70.582031 27.664062 "/>
</g>
<path style=" stroke:none;fill-rule:nonzero;fill:rgb(0%,0%,0%);fill-opacity:1;" d="M 79.003906 9.320312 C 79.160156 9.660156 79.273438 10.011719 79.371094 10.371094 C 79.589844 11.175781 80.847656 10.832031 80.632812 10.027344 C 80.503906 9.558594 80.335938 9.109375 80.132812 8.667969 C 79.984375 8.347656 79.519531 8.273438 79.238281 8.4375 C 78.90625 8.628906 78.855469 9 79.003906 9.320312 "/>
<g clip-path="url(#clip8)" clip-rule="nonzero">
<path style=" stroke:none;fill-rule:nonzero;fill:rgb(0%,0%,0%);fill-opacity:1;" d="M 79.628906 12.519531 C 79.613281 14.25 79.179688 15.863281 78.074219 17.234375 C 76.988281 18.582031 75.5 19.601562 74.234375 20.769531 C 72.992188 21.914062 72.34375 23.21875 72.1875 24.886719 C 72.105469 25.734375 72.144531 26.601562 72.144531 27.457031 C 72.363281 27.238281 72.582031 27.023438 72.800781 26.808594 L 68.585938 26.808594 L 69.242188 27.457031 L 69.242188 25.394531 C 69.242188 23.875 69.574219 22.5 70.4375 21.230469 C 71.605469 19.515625 73.417969 18.324219 74.816406 16.820312 C 75.898438 15.65625 76.433594 14.363281 76.457031 12.785156 C 76.476562 11.335938 75.953125 9.949219 74.898438 8.9375 C 72.808594 6.929688 69.0625 7.011719 66.988281 8.972656 C 65.863281 10.035156 65.296875 11.503906 65.109375 13.007812 C 65.328125 12.789062 65.546875 12.574219 65.765625 12.359375 C 64.332031 12.195312 62.894531 12.035156 61.460938 11.871094 C 61.671875 12.144531 61.882812 12.417969 62.09375 12.691406 C 62.597656 9.320312 64.683594 6.507812 68.015625 5.433594 C 71.40625 4.339844 75.644531 5.035156 78.035156 7.773438 C 78.585938 8.40625 79.507812 7.488281 78.960938 6.859375 C 76.246094 3.746094 71.507812 3.03125 67.667969 4.1875 C 63.925781 5.3125 61.398438 8.582031 60.832031 12.347656 C 60.765625 12.792969 61.007812 13.113281 61.460938 13.164062 C 62.894531 13.328125 64.332031 13.492188 65.765625 13.652344 C 66.148438 13.695312 66.378906 13.324219 66.417969 13.007812 C 66.59375 11.574219 67.316406 10.167969 68.5625 9.375 C 69.773438 8.605469 71.554688 8.582031 72.855469 9.128906 C 74.230469 9.707031 75.027344 10.957031 75.136719 12.40625 C 75.195312 13.132812 75.121094 13.914062 74.820312 14.585938 C 74.503906 15.304688 73.914062 15.917969 73.351562 16.453125 C 71.863281 17.859375 70.214844 19.171875 69.09375 20.902344 C 67.816406 22.878906 67.933594 25.183594 67.933594 27.425781 L 67.933594 27.457031 C 67.933594 27.808594 68.230469 28.101562 68.585938 28.101562 L 72.800781 28.101562 C 73.15625 28.101562 73.453125 27.808594 73.453125 27.457031 C 73.453125 26.597656 73.429688 25.738281 73.492188 24.886719 C 73.550781 24.089844 73.789062 23.351562 74.230469 22.6875 C 74.675781 22.015625 75.371094 21.476562 75.976562 20.953125 C 77.296875 19.804688 78.683594 18.722656 79.660156 17.253906 C 80.59375 15.851562 80.921875 14.171875 80.9375 12.519531 C 80.945312 11.683594 79.636719 11.683594 79.628906 12.519531 "/>
</g>
<g clip-path="url(#clip9)" clip-rule="nonzero">
<path style=" stroke:none;fill-rule:nonzero;fill:rgb(0%,0%,0%);fill-opacity:1;" d="M 73.265625 33.703125 C 73.230469 35 72.210938 35.953125 70.917969 35.984375 C 69.65625 36.015625 68.605469 34.976562 68.570312 33.75 C 68.53125 32.433594 69.660156 31.5 70.917969 31.46875 C 72.21875 31.4375 73.230469 32.4375 73.265625 33.703125 C 73.289062 34.535156 74.597656 34.539062 74.574219 33.703125 C 74.519531 31.679688 72.941406 30.226562 70.917969 30.175781 C 68.882812 30.128906 67.316406 31.796875 67.261719 33.75 C 67.207031 35.734375 69.019531 37.230469 70.917969 37.277344 C 72.933594 37.328125 74.519531 35.636719 74.574219 33.703125 C 74.597656 32.871094 73.292969 32.871094 73.265625 33.703125 "/>
</g>
<path style=" stroke:none;fill-rule:nonzero;fill:rgb(0%,0%,0%);fill-opacity:1;" d="M 54.585938 27.132812 C 53.480469 27.390625 52.371094 27.652344 51.261719 27.910156 C 51.53125 28.0625 51.796875 28.210938 52.066406 28.363281 C 51.933594 27.804688 51.800781 27.25 51.667969 26.691406 C 51.296875 25.152344 51.527344 23.769531 52.296875 22.390625 C 52.730469 21.617188 53.246094 20.886719 53.738281 20.148438 C 54.355469 19.21875 55.023438 18.253906 55.125 17.113281 C 55.375 14.332031 53.316406 11.941406 50.445312 12.078125 C 49.140625 12.140625 47.816406 12.6875 46.953125 13.667969 C 46.003906 14.75 45.671875 16.257812 45.824219 17.65625 C 46.039062 17.4375 46.257812 17.222656 46.476562 17.007812 C 45.3125 17.144531 44.152344 17.28125 42.988281 17.417969 C 43.207031 17.632812 43.425781 17.851562 43.644531 18.066406 C 43.507812 16.449219 43.796875 14.90625 44.652344 13.507812 C 45.476562 12.160156 46.851562 11.222656 48.328125 10.695312 C 51.257812 9.648438 54.851562 10.148438 56.53125 12.980469 C 57.257812 14.203125 57.570312 15.804688 57.34375 17.203125 C 57.089844 18.796875 56 20.09375 55.074219 21.363281 C 54.175781 22.589844 53.480469 23.792969 53.605469 25.359375 C 53.675781 26.226562 53.925781 27.082031 54.128906 27.925781 C 54.324219 28.738281 55.585938 28.394531 55.390625 27.582031 C 55.171875 26.675781 54.894531 25.761719 54.890625 24.828125 C 54.882812 23.257812 56.351562 21.851562 57.191406 20.640625 C 58.113281 19.3125 58.71875 17.902344 58.722656 16.265625 C 58.730469 14.753906 58.230469 13.140625 57.378906 11.886719 C 55.476562 9.074219 51.875 8.453125 48.742188 9.21875 C 45.503906 10.011719 42.996094 12.5 42.417969 15.769531 C 42.28125 16.527344 42.269531 17.296875 42.335938 18.066406 C 42.363281 18.382812 42.613281 18.753906 42.988281 18.710938 C 44.152344 18.574219 45.3125 18.4375 46.476562 18.300781 C 46.800781 18.261719 47.171875 18.035156 47.128906 17.65625 C 46.996094 16.410156 47.257812 15.144531 48.195312 14.253906 C 49.046875 13.441406 50.492188 13.199219 51.601562 13.46875 C 52.765625 13.753906 53.441406 14.699219 53.726562 15.792969 C 54.0625 17.101562 53.519531 18.121094 52.8125 19.191406 C 51.859375 20.628906 50.777344 22.054688 50.328125 23.742188 C 49.890625 25.40625 50.417969 27.089844 50.804688 28.707031 C 50.890625 29.058594 51.273438 29.238281 51.609375 29.15625 C 52.71875 28.898438 53.828125 28.636719 54.933594 28.378906 C 55.753906 28.1875 55.40625 26.9375 54.585938 27.132812 "/>
<path style=" stroke:none;fill-rule:nonzero;fill:rgb(0%,0%,0%);fill-opacity:1;" d="M 56.195312 32.652344 C 56.636719 34.84375 53.316406 35.578125 52.726562 33.453125 C 52.480469 32.566406 53.085938 31.703125 53.917969 31.429688 C 54.933594 31.09375 55.921875 31.652344 56.195312 32.652344 C 56.417969 33.453125 57.675781 33.113281 57.457031 32.308594 C 56.996094 30.640625 55.414062 29.804688 53.738281 30.136719 C 52.039062 30.476562 51.144531 32.199219 51.464844 33.796875 C 51.800781 35.460938 53.628906 36.273438 55.183594 35.964844 C 56.871094 35.632812 57.773438 33.886719 57.457031 32.308594 C 57.292969 31.492188 56.03125 31.835938 56.195312 32.652344 "/>
<g clip-path="url(#clip10)" clip-rule="nonzero">
<path style=" stroke:none;fill-rule:nonzero;fill:rgb(0%,0%,0%);fill-opacity:1;" d="M 90.859375 27.835938 C 89.742188 27.609375 88.628906 27.382812 87.511719 27.160156 C 87.664062 27.425781 87.816406 27.6875 87.96875 27.953125 C 88.085938 27.390625 88.203125 26.828125 88.320312 26.261719 C 88.640625 24.710938 89.398438 23.53125 90.691406 22.59375 C 92.296875 21.433594 94.515625 20.660156 95.574219 18.921875 C 96.265625 17.78125 96.433594 16.210938 95.996094 14.960938 C 95.566406 13.738281 94.554688 12.902344 93.382812 12.421875 C 92.105469 11.902344 90.636719 11.9375 89.402344 12.527344 C 88.132812 13.128906 87.277344 14.394531 86.839844 15.675781 C 87.109375 15.523438 87.375 15.375 87.644531 15.226562 C 86.53125 14.863281 85.417969 14.503906 84.304688 14.144531 C 84.457031 14.410156 84.609375 14.675781 84.761719 14.941406 C 85.277344 13.546875 86.148438 12.328125 87.375 11.460938 C 88.710938 10.519531 90.328125 10.199219 91.941406 10.292969 C 94.992188 10.460938 98.179688 12.402344 98.566406 15.605469 C 98.742188 17.070312 98.351562 18.65625 97.5625 19.898438 C 96.691406 21.269531 95.113281 22 93.734375 22.765625 C 92.386719 23.511719 91.28125 24.289062 90.679688 25.75 C 90.351562 26.546875 90.230469 27.445312 90.054688 28.289062 C 89.886719 29.101562 91.148438 29.445312 91.316406 28.632812 C 91.503906 27.722656 91.628906 26.757812 92.023438 25.910156 C 92.695312 24.457031 94.570312 23.808594 95.875 23.046875 C 97.269531 22.226562 98.441406 21.21875 99.140625 19.742188 C 99.824219 18.300781 100.039062 16.632812 99.800781 15.066406 C 99.300781 11.800781 96.242188 9.742188 93.167969 9.152344 C 89.832031 8.515625 86.5625 9.714844 84.585938 12.457031 C 84.113281 13.109375 83.777344 13.847656 83.503906 14.597656 C 83.375 14.9375 83.640625 15.289062 83.957031 15.390625 C 85.070312 15.75 86.183594 16.109375 87.296875 16.46875 C 87.648438 16.585938 87.992188 16.339844 88.101562 16.019531 C 88.476562 14.921875 89.25 13.917969 90.378906 13.511719 C 91.476562 13.113281 92.796875 13.429688 93.738281 14.054688 C 94.757812 14.734375 95.066406 15.972656 94.851562 17.113281 C 94.601562 18.453125 93.726562 19.164062 92.609375 19.851562 C 91.144531 20.75 89.542969 21.585938 88.425781 22.917969 C 87.304688 24.253906 87.050781 25.964844 86.710938 27.609375 C 86.640625 27.9375 86.800781 28.332031 87.167969 28.40625 C 88.28125 28.632812 89.398438 28.855469 90.511719 29.082031 C 91.335938 29.25 91.683594 28.003906 90.859375 27.835938 "/>
</g>
<path style=" stroke:none;fill-rule:nonzero;fill:rgb(0%,0%,0%);fill-opacity:1;" d="M 89.917969 33.433594 C 89.691406 34.375 88.84375 34.992188 87.855469 34.824219 C 86.929688 34.664062 86.246094 33.777344 86.398438 32.847656 C 86.765625 30.652344 90.292969 31.226562 89.917969 33.433594 C 89.78125 34.246094 91.039062 34.597656 91.179688 33.777344 C 91.464844 32.097656 90.5 30.601562 88.808594 30.207031 C 87.144531 29.824219 85.53125 30.886719 85.140625 32.503906 C 84.746094 34.128906 85.933594 35.703125 87.507812 36.070312 C 89.15625 36.453125 90.789062 35.375 91.179688 33.777344 C 91.375 32.964844 90.117188 32.621094 89.917969 33.433594 "/>
</g>
</svg>
