<?xml version="1.0" encoding="UTF-8"?>
<svg xmlns="http://www.w3.org/2000/svg" xmlns:xlink="http://www.w3.org/1999/xlink" width="144pt" height="143.999998pt" viewBox="0 0 144 143.999998" version="1.2">
<defs>
<clipPath id="clip1">
  <path d="M 48 11.453125 L 100 11.453125 L 100 66 L 48 66 Z M 48 11.453125 "/>
</clipPath>
<clipPath id="clip2">
  <path d="M 26.160156 65 L 121.410156 65 L 121.410156 124.703125 L 26.160156 124.703125 Z M 26.160156 65 "/>
</clipPath>
<clipPath id="clip3">
  <path d="M 26.160156 79 L 121.410156 79 L 121.410156 124.703125 L 26.160156 124.703125 Z M 26.160156 79 "/>
</clipPath>
</defs>
<g id="surface1">
<path style=" stroke:none;fill-rule:evenodd;fill:rgb(45.098877%,45.098877%,45.098877%);fill-opacity:1;" d="M 57.976562 52.421875 C 61.089844 46.679688 66.078125 42.507812 73.78125 42.507812 C 80.53125 42.507812 85.714844 45.691406 89.0625 51.507812 C 98.785156 68.375 84.320312 81.539062 74.136719 81.539062 C 63.953125 81.539062 49.078125 68.824219 57.976562 52.421875 Z M 57.976562 52.421875 "/>
<g clip-path="url(#clip1)" clip-rule="nonzero">
<path style=" stroke:none;fill-rule:evenodd;fill:rgb(45.098877%,45.098877%,45.098877%);fill-opacity:1;" d="M 51.8125 25.238281 C 56.144531 17.253906 63.082031 11.453125 73.785156 11.453125 C 83.171875 11.453125 90.375 15.882812 95.035156 23.964844 C 108.550781 47.417969 88.441406 65.71875 74.28125 65.71875 C 60.121094 65.71875 39.441406 48.042969 51.8125 25.238281 Z M 51.8125 25.238281 "/>
</g>
<g clip-path="url(#clip2)" clip-rule="nonzero">
<path style=" stroke:none;fill-rule:evenodd;fill:rgb(90.19928%,89.408875%,89.408875%);fill-opacity:1;" d="M 62.539062 65.71875 L 62.492188 71.867188 C 62.511719 75.535156 59.820312 78.234375 56.128906 80.066406 C 52.144531 82.046875 46.539062 83.085938 42.183594 84.203125 C 28.609375 89.011719 28.203125 92.757812 27.363281 106.644531 L 26.265625 124.6875 L 121.304688 124.6875 L 120.210938 106.644531 C 119.367188 92.757812 118.964844 89.011719 105.386719 84.203125 C 101.03125 83.085938 95.425781 82.046875 91.441406 80.066406 C 87.75 78.234375 85.058594 75.535156 85.082031 71.867188 L 85.035156 65.71875 Z M 62.539062 65.71875 "/>
</g>
<path style=" stroke:none;fill-rule:evenodd;fill:rgb(90.19928%,89.408875%,89.408875%);fill-opacity:1;" d="M 91.960938 40.34375 C 94.484375 40.511719 96.277344 43.171875 96 46.433594 C 95.769531 49.195312 94.121094 51.53125 92.070312 52.277344 C 90.054688 62.707031 82.632812 70.445312 73.785156 70.445312 C 64.9375 70.445312 57.515625 62.707031 55.5 52.277344 C 53.449219 51.53125 51.800781 49.195312 51.570312 46.433594 C 51.296875 43.171875 53.085938 40.511719 55.613281 40.34375 C 63.621094 36.679688 70.847656 31.855469 77.140625 25.667969 C 81.03125 32.058594 86.394531 36.339844 91.960938 40.34375 Z M 91.960938 40.34375 "/>
<path style=" stroke:none;fill-rule:evenodd;fill:rgb(100%,100%,100%);fill-opacity:1;" d="M 53.203125 24.78125 L 58.875 24.78125 C 58.257812 23.878906 57.898438 22.789062 57.898438 21.617188 C 57.898438 18.519531 60.402344 16.007812 63.496094 16.007812 C 64.929688 16.007812 66.238281 16.546875 67.230469 17.4375 C 68.359375 14.941406 70.871094 13.203125 73.785156 13.203125 C 76.699219 13.203125 79.210938 14.941406 80.339844 17.4375 C 81.332031 16.546875 82.640625 16.007812 84.074219 16.007812 C 87.167969 16.007812 89.675781 18.519531 89.675781 21.617188 C 89.675781 22.789062 89.3125 23.878906 88.695312 24.78125 L 94.371094 24.78125 L 94.371094 28.1875 L 53.203125 28.1875 Z M 53.203125 24.78125 "/>
<g clip-path="url(#clip3)" clip-rule="nonzero">
<path style=" stroke:none;fill-rule:evenodd;fill:rgb(85.099792%,85.099792%,85.099792%);fill-opacity:1;" d="M 90.171875 79.378906 C 90.578125 79.621094 91.003906 79.851562 91.441406 80.066406 C 95.425781 82.046875 101.03125 83.085938 105.386719 84.203125 C 118.964844 89.011719 119.367188 92.757812 120.210938 106.644531 L 121.304688 124.6875 L 26.265625 124.6875 L 27.363281 106.644531 C 28.203125 92.757812 28.609375 89.011719 42.183594 84.203125 C 46.539062 83.085938 52.144531 82.046875 56.128906 80.066406 C 56.566406 79.851562 56.992188 79.621094 57.398438 79.378906 L 57.402344 79.378906 C 60.621094 86.308594 65.304688 95.304688 73.785156 104.851562 C 82.265625 95.304688 86.949219 86.308594 90.171875 79.378906 Z M 90.171875 79.378906 "/>
</g>
<path style=" stroke:none;fill-rule:evenodd;fill:rgb(100%,100%,100%);fill-opacity:1;" d="M 90.246094 78.667969 C 90.695312 78.933594 91.164062 79.1875 91.644531 79.429688 C 93.058594 80.128906 94.660156 80.726562 96.339844 81.25 L 94.816406 90.71875 L 88.925781 88.628906 L 92.667969 94.054688 L 73.785156 104.851562 C 69.863281 99.324219 60.351562 83.199219 57.324219 78.667969 C 56.875 78.933594 56.40625 79.1875 55.925781 79.429688 C 54.511719 80.128906 52.910156 80.726562 51.230469 81.25 L 52.753906 90.71875 L 58.648438 88.628906 L 54.902344 94.054688 L 73.785156 104.851562 C 77.707031 99.324219 87.21875 83.199219 90.246094 78.667969 Z M 90.246094 78.667969 "/>
<path style=" stroke:none;fill-rule:evenodd;fill:rgb(100%,100%,100%);fill-opacity:1;" d="M 79.691406 104.867188 L 98.953125 104.867188 L 98.953125 109.691406 L 79.691406 109.691406 Z M 79.691406 104.867188 "/>
</g>
</svg>
