<?xml version="1.0" encoding="UTF-8"?>
<svg xmlns="http://www.w3.org/2000/svg" xmlns:xlink="http://www.w3.org/1999/xlink" width="144pt" height="143.999998pt" viewBox="0 0 144 143.999998" version="1.2">
<defs>
<clipPath id="clip1">
  <path d="M 38.089844 10.121094 L 100 10.121094 L 100 129.371094 L 38.089844 129.371094 Z M 38.089844 10.121094 "/>
</clipPath>
<clipPath id="clip2">
  <path d="M 78 82 L 108.589844 82 L 108.589844 129.371094 L 78 129.371094 Z M 78 82 "/>
</clipPath>
</defs>
<g id="surface1">
<g clip-path="url(#clip1)" clip-rule="nonzero">
<path style=" stroke:none;fill-rule:nonzero;fill:rgb(100%,100%,100%);fill-opacity:1;" d="M 66.199219 67.238281 C 64.644531 67.636719 64.535156 69.304688 64.085938 65.492188 C 63.636719 61.679688 64.070312 55.535156 69.261719 55.527344 C 74.449219 55.519531 74.90625 61.664062 74.464844 65.476562 C 74.027344 69.292969 73.914062 67.625 72.355469 67.230469 C 70.796875 66.832031 71.246094 68.738281 69.28125 68.742188 C 67.316406 68.746094 67.757812 66.835938 66.199219 67.238281 Z M 54.722656 51.847656 C 43.316406 52.902344 45.589844 36.824219 57.457031 35.035156 C 65.347656 33.847656 70.179688 50.417969 54.722656 51.847656 Z M 79.449219 35.003906 C 91.320312 36.757812 93.644531 52.828125 82.234375 51.808594 C 66.769531 50.425781 71.554688 33.839844 79.449219 35.003906 Z M 85.761719 73.113281 C 92.371094 65.257812 99.773438 53.15625 99.773438 40.320312 C 99.773438 23.625 85.285156 10.113281 68.519531 10.136719 C 51.757812 10.160156 38.1875 23.710938 38.210938 40.40625 C 38.214844 45.285156 39.386719 49.894531 41.453125 53.96875 C 41.457031 53.976562 41.457031 53.980469 41.457031 53.984375 C 52.078125 71.839844 59.113281 72.476562 53.140625 87.339844 C 47.171875 102.199219 47.597656 107.71875 60.816406 114.089844 C 74.035156 120.457031 68.566406 129.375 68.566406 129.375 C 79.367188 125.765625 77.933594 116.265625 72.066406 108.570312 C 62.523438 96.042969 79.152344 80.96875 85.761719 73.113281 "/>
</g>
<g clip-path="url(#clip2)" clip-rule="nonzero">
<path style=" stroke:none;fill-rule:nonzero;fill:rgb(100%,100%,100%);fill-opacity:1;" d="M 102.597656 101.59375 C 95.089844 100.921875 97.414062 92.871094 101.246094 93.4375 C 107.007812 94.289062 108.136719 102.089844 102.597656 101.59375 Z M 98.828125 108.230469 C 98.613281 110.082031 98.558594 109.269531 97.800781 109.078125 C 97.046875 108.886719 97.261719 109.8125 96.308594 109.8125 C 95.355469 109.816406 95.570312 108.890625 94.816406 109.082031 C 94.058594 109.277344 94.007812 110.085938 93.789062 108.234375 C 93.570312 106.382812 93.78125 103.402344 96.300781 103.398438 C 98.820312 103.394531 99.039062 106.375 98.828125 108.230469 Z M 89.242188 101.613281 C 83.707031 102.125 84.808594 94.320312 90.570312 93.453125 C 94.398438 92.875 96.746094 100.917969 89.242188 101.613281 Z M 85.800781 86.0625 C 78.800781 92.859375 78.9375 104.179688 84.910156 113.832031 C 90.410156 122.726562 78.9375 129.375 78.9375 129.375 C 97.488281 125.128906 107.71875 115.664062 108.078125 100.644531 C 108.503906 82.664062 92.796875 79.269531 85.800781 86.0625 "/>
</g>
</g>
</svg>
