<?xml version="1.0" encoding="UTF-8"?>
<svg xmlns="http://www.w3.org/2000/svg" xmlns:xlink="http://www.w3.org/1999/xlink" width="144pt" height="143.999998pt" viewBox="0 0 144 143.999998" version="1.2">
<defs>
<clipPath id="clip1">
  <path d="M 26.941406 9.460938 L 119.941406 9.460938 L 119.941406 137.710938 L 26.941406 137.710938 Z M 26.941406 9.460938 "/>
</clipPath>
</defs>
<g id="surface1">
<path style=" stroke:none;fill-rule:nonzero;fill:rgb(100%,100%,100%);fill-opacity:1;" d="M 102.226562 33.316406 L 44.65625 33.316406 L 44.65625 42.171875 L 102.226562 42.171875 L 102.226562 33.316406 "/>
<path style=" stroke:none;fill-rule:nonzero;fill:rgb(100%,100%,100%);fill-opacity:1;" d="M 97.800781 88.660156 C 97.800781 92 94.054688 93.382812 90.757812 94.601562 C 89.453125 95.085938 87.253906 95.898438 86.859375 96.425781 C 86.582031 97.023438 86.980469 99.4375 87.222656 100.871094 C 87.785156 104.269531 88.433594 108.128906 85.628906 109.746094 C 82.886719 111.335938 80.058594 109.007812 77.316406 106.761719 C 76.21875 105.863281 74.167969 104.183594 73.441406 104.15625 C 72.714844 104.183594 70.664062 105.863281 69.566406 106.761719 C 67.457031 108.492188 65.285156 110.273438 63.148438 110.273438 C 62.519531 110.273438 61.886719 110.109375 61.253906 109.746094 C 58.453125 108.128906 59.101562 104.269531 59.664062 100.871094 C 59.90625 99.4375 60.304688 97.023438 60.007812 96.390625 C 59.628906 95.898438 57.433594 95.085938 56.125 94.601562 C 52.832031 93.382812 49.085938 92 49.085938 88.660156 C 49.085938 85.324219 52.832031 83.941406 56.125 82.710938 C 57.433594 82.226562 59.628906 81.421875 60.027344 80.886719 C 60.304688 80.289062 59.90625 77.886719 59.664062 76.441406 C 59.101562 73.042969 58.453125 69.1875 61.253906 67.570312 C 63.996094 65.988281 66.835938 68.3125 69.566406 70.554688 C 70.664062 71.453125 72.714844 73.136719 73.441406 73.164062 C 74.167969 73.136719 76.21875 71.453125 77.316406 70.554688 C 80.050781 68.3125 82.886719 65.988281 85.628906 67.570312 C 88.433594 69.1875 87.785156 73.042969 87.222656 76.441406 C 86.980469 77.886719 86.582031 80.289062 86.875 80.921875 C 87.253906 81.421875 89.453125 82.226562 90.757812 82.710938 C 94.054688 83.941406 97.800781 85.324219 97.800781 88.660156 Z M 73.441406 59.882812 C 57.570312 59.882812 44.65625 72.792969 44.65625 88.660156 C 44.65625 104.53125 57.570312 117.441406 73.441406 117.441406 C 89.3125 117.441406 102.226562 104.53125 102.226562 88.660156 C 102.226562 72.792969 89.3125 59.882812 73.441406 59.882812 "/>
<path style=" stroke:none;fill-rule:nonzero;fill:rgb(100%,100%,100%);fill-opacity:1;" d="M 83.035156 83.125 C 81.9375 81.222656 82.378906 78.550781 82.851562 75.714844 C 83.050781 74.511719 83.363281 72.621094 83.292969 71.660156 C 82.445312 72.082031 81.027344 73.234375 80.128906 73.976562 C 77.855469 75.835938 75.71875 77.59375 73.441406 77.59375 C 71.167969 77.59375 69.03125 75.835938 66.757812 73.976562 C 65.855469 73.234375 64.4375 72.082031 63.589844 71.660156 C 63.519531 72.621094 63.832031 74.511719 64.03125 75.714844 C 64.507812 78.550781 64.949219 81.222656 63.851562 83.125 C 62.777344 84.976562 60.296875 85.894531 57.664062 86.871094 C 56.488281 87.304688 54.429688 88.066406 53.6875 88.660156 C 54.429688 89.25 56.488281 90.019531 57.664062 90.453125 C 60.296875 91.417969 62.777344 92.34375 63.851562 94.1875 C 64.949219 96.089844 64.507812 98.761719 64.03125 101.597656 C 63.832031 102.808594 63.519531 104.695312 63.589844 105.664062 C 64.4375 105.238281 65.855469 104.078125 66.757812 103.335938 C 69.03125 101.476562 71.167969 99.730469 73.441406 99.730469 C 75.71875 99.730469 77.855469 101.476562 80.128906 103.335938 C 81.027344 104.078125 82.445312 105.238281 83.292969 105.664062 C 83.363281 104.695312 83.050781 102.808594 82.851562 101.597656 C 82.378906 98.761719 81.9375 96.089844 83.035156 94.1875 C 84.105469 92.34375 86.589844 91.417969 89.21875 90.453125 C 90.394531 90.019531 92.453125 89.25 93.199219 88.660156 C 92.453125 88.066406 90.394531 87.304688 89.21875 86.871094 C 86.589844 85.894531 84.105469 84.976562 83.035156 83.125 "/>
<g clip-path="url(#clip1)" clip-rule="nonzero">
<path style=" stroke:none;fill-rule:nonzero;fill:rgb(100%,100%,100%);fill-opacity:1;" d="M 106.65625 46.597656 L 40.226562 46.597656 L 40.226562 28.886719 L 106.65625 28.886719 Z M 73.441406 121.867188 C 55.121094 121.867188 40.226562 106.96875 40.226562 88.660156 C 40.226562 70.34375 55.121094 55.453125 73.441406 55.453125 C 91.761719 55.453125 106.65625 70.34375 106.65625 88.660156 C 106.65625 106.96875 91.761719 121.867188 73.441406 121.867188 Z M 115.167969 66.117188 C 111.222656 62.882812 108.871094 57.242188 108.871094 51.027344 C 108.871094 42.515625 113.394531 35.390625 119.40625 33.695312 L 110.167969 24.453125 C 96.425781 24.289062 83.484375 19.117188 73.441406 9.820312 C 63.398438 19.117188 50.460938 24.289062 36.726562 24.453125 L 27.480469 33.695312 C 33.488281 35.390625 38.015625 42.515625 38.015625 51.027344 C 38.015625 57.242188 35.660156 62.882812 31.71875 66.117188 C 28.679688 68.605469 26.941406 72.023438 26.941406 75.5 L 26.941406 75.8125 C 26.941406 104.339844 46.03125 129.523438 73.441406 137.277344 C 100.851562 129.523438 119.941406 104.339844 119.941406 75.8125 L 119.941406 75.5 C 119.941406 72.023438 118.203125 68.605469 115.167969 66.117188 "/>
</g>
</g>
</svg>
