<?xml version="1.0" encoding="UTF-8"?>
<svg xmlns="http://www.w3.org/2000/svg" xmlns:xlink="http://www.w3.org/1999/xlink" width="144pt" height="143.999998pt" viewBox="0 0 144 143.999998" version="1.2">
<defs>
<clipPath id="clip1">
  <path d="M 67 63 L 137 63 L 137 135.058594 L 67 135.058594 Z M 67 63 "/>
</clipPath>
</defs>
<g id="surface1">
<path style=" stroke:none;fill-rule:nonzero;fill:rgb(100%,100%,100%);fill-opacity:1;" d="M 98.519531 57.746094 C 94.058594 57.746094 89.683594 54.703125 88.03125 50.257812 C 87.664062 49.480469 86.871094 47.59375 86.335938 45.691406 C 85.726562 43.570312 85.296875 42.398438 85.183594 42.160156 C 85.148438 42.089844 85.105469 41.992188 85.078125 41.914062 C 83.964844 38.953125 84.105469 35.574219 85.453125 32.878906 C 86.3125 30.851562 88.066406 29.046875 90.746094 27.507812 C 92.023438 26.777344 93.636719 27.226562 94.367188 28.496094 C 95.089844 29.769531 94.652344 31.390625 93.382812 32.125 C 91.714844 33.078125 90.726562 34.03125 90.257812 35.117188 C 89.53125 36.582031 89.457031 38.417969 90.007812 39.953125 C 90.5 41.035156 91.164062 43.28125 91.433594 44.234375 C 91.90625 45.90625 92.644531 47.628906 92.847656 48.035156 C 92.894531 48.128906 92.933594 48.226562 92.96875 48.324219 C 93.878906 50.878906 96.371094 52.59375 99.03125 52.414062 C 99.761719 52.410156 100.234375 52.285156 100.949219 52.097656 L 101.496094 51.957031 C 102.722656 51.539062 103.898438 50.378906 104.804688 48.5625 C 105.464844 47.234375 105.539062 45.40625 104.996094 43.871094 C 104.496094 42.78125 103.835938 40.539062 103.566406 39.582031 C 103.40625 38.957031 103.179688 38.417969 102.980469 37.925781 C 102.808594 37.511719 102.652344 37.117188 102.535156 36.769531 C 102.074219 35.375 102.824219 33.871094 104.21875 33.40625 C 105.605469 32.945312 107.109375 33.699219 107.570312 35.089844 C 107.652344 35.339844 107.769531 35.621094 107.890625 35.921875 C 108.179688 36.632812 108.492188 37.417969 108.6875 38.207031 C 109.269531 40.246094 109.699219 41.414062 109.816406 41.652344 C 109.851562 41.726562 109.898438 41.828125 109.925781 41.910156 C 111.035156 44.871094 110.890625 48.246094 109.546875 50.9375 C 107.992188 54.054688 105.78125 56.117188 102.976562 57.054688 L 102.285156 57.238281 C 101.382812 57.476562 100.449219 57.722656 99.226562 57.722656 C 98.988281 57.738281 98.753906 57.746094 98.519531 57.746094 Z M 98.519531 57.746094 "/>
<path style=" stroke:none;fill-rule:nonzero;fill:rgb(100%,100%,100%);fill-opacity:1;" d="M 94.984375 40.179688 C 94.011719 40.179688 93.078125 39.644531 92.609375 38.714844 C 91.957031 37.402344 92.484375 35.804688 93.792969 35.148438 C 95.027344 34.527344 95.933594 33.773438 96.417969 32.96875 C 98.25 30.203125 97.382812 26.257812 94.636719 24.367188 C 94.265625 24.148438 93.714844 23.765625 93.046875 23.285156 C 92.496094 22.886719 91.839844 22.40625 91.121094 21.929688 C 89.992188 21.175781 88.109375 19.917969 87.6875 19.703125 C 87.597656 19.65625 87.492188 19.59375 87.410156 19.539062 C 84.742188 17.757812 80.757812 18.652344 78.890625 21.460938 C 77.109375 24.136719 78.003906 28.128906 80.804688 30 C 82.027344 30.8125 82.355469 32.464844 81.539062 33.6875 C 80.730469 34.90625 79.082031 35.238281 77.863281 34.421875 C 75.390625 32.769531 73.59375 30.128906 72.933594 27.175781 C 72.25 24.113281 72.800781 21.035156 74.476562 18.511719 C 76.125 16.03125 78.757812 14.230469 81.707031 13.570312 C 84.714844 12.898438 87.734375 13.417969 90.234375 15.039062 C 90.917969 15.414062 92.167969 16.242188 94.0625 17.507812 C 94.839844 18.027344 95.554688 18.546875 96.152344 18.980469 C 96.636719 19.328125 97.015625 19.617188 97.257812 19.753906 C 97.3125 19.785156 97.453125 19.867188 97.511719 19.902344 C 99.984375 21.554688 101.777344 24.195312 102.4375 27.148438 C 103.121094 30.210938 102.574219 33.289062 100.894531 35.816406 C 99.949219 37.40625 98.332031 38.816406 96.167969 39.90625 C 95.789062 40.09375 95.386719 40.179688 94.984375 40.179688 Z M 94.984375 40.179688 "/>
<g clip-path="url(#clip1)" clip-rule="nonzero">
<path style=" stroke:none;fill-rule:nonzero;fill:rgb(100%,100%,100%);fill-opacity:1;" d="M 136.574219 100.339844 C 135.273438 92.515625 130.332031 85.703125 122.597656 81.039062 L 120.921875 70.269531 C 120.207031 66.308594 116.855469 63.542969 112.769531 63.542969 C 112.507812 63.542969 112.246094 63.554688 111.777344 63.605469 L 80.195312 68.925781 C 75.996094 69.691406 73.125 73.546875 73.539062 78.058594 L 75.203125 88.757812 C 69.511719 95.234375 66.882812 103.359375 67.976562 111.296875 C 70.242188 125.171875 83.894531 135.242188 100.441406 135.242188 C 100.445312 135.242188 100.445312 135.242188 100.445312 135.242188 C 102.542969 135.242188 104.675781 135.078125 106.785156 134.757812 C 116.925781 133.21875 125.933594 127.925781 131.496094 120.238281 C 135.894531 114.167969 137.699219 107.097656 136.574219 100.339844 Z M 97.371094 74.199219 C 99.492188 73.933594 101.347656 75.261719 101.613281 77.386719 C 101.878906 78.449219 101.613281 79.515625 100.820312 80.3125 C 100.820312 80.84375 101.082031 81.640625 101.082031 81.90625 C 101.347656 83.238281 100.289062 84.566406 98.960938 84.832031 C 97.636719 85.097656 96.3125 84.035156 96.042969 82.707031 C 96.042969 82.4375 95.777344 81.640625 95.777344 81.109375 C 94.984375 80.578125 94.453125 79.78125 94.1875 78.714844 C 93.921875 76.589844 95.25 74.464844 97.371094 74.199219 Z M 105.058594 121.503906 C 93.65625 123.363281 82.785156 117.785156 81.460938 109.011719 C 80.136719 100.511719 88.621094 91.738281 100.019531 89.882812 C 111.421875 88.019531 122.292969 93.597656 123.617188 102.367188 C 124.941406 110.875 116.457031 119.644531 105.058594 121.503906 Z M 105.058594 121.503906 "/>
</g>
<path style=" stroke:none;fill-rule:nonzero;fill:rgb(100%,100%,100%);fill-opacity:1;" d="M 100.441406 62.820312 L 102.121094 50.097656 C 102.3125 48.644531 101.289062 47.304688 99.839844 47.113281 C 98.417969 46.917969 97.054688 47.941406 96.867188 49.398438 L 94.96875 63.738281 Z M 100.441406 62.820312 "/>
<path style=" stroke:none;fill-rule:nonzero;fill:rgb(100%,100%,100%);fill-opacity:1;" d="M 78.542969 51.476562 C 78.542969 49.308594 77.707031 47.273438 76.167969 45.734375 L 53.375 23.152344 C 50.324219 20.09375 45.019531 20.066406 41.910156 23.183594 L 34.328125 31.019531 C 25.480469 30.21875 17.308594 32.960938 11.6875 38.59375 C 0.429688 50.164062 2.226562 70.558594 15.691406 84.050781 C 22.839844 91.21875 32.296875 95.328125 41.628906 95.328125 C 49.253906 95.328125 56.164062 92.542969 60.972656 87.59375 C 66.789062 82.289062 69.472656 74.324219 68.59375 65.050781 L 76.179688 57.207031 C 77.707031 55.675781 78.542969 53.640625 78.542969 51.476562 Z M 51.765625 78.449219 C 45.667969 84.5625 33.472656 82.703125 25.253906 74.730469 C 17.035156 66.492188 15.179688 54.265625 21.277344 48.152344 C 27.375 42.042969 39.570312 43.636719 47.789062 51.875 C 56.007812 60.113281 57.863281 72.339844 51.765625 78.449219 Z M 59.191406 45.761719 C 58.394531 46.558594 57.335938 46.824219 56.539062 46.824219 C 56.273438 47.089844 55.476562 47.886719 55.214844 48.152344 C 54.152344 49.21875 52.5625 49.21875 51.5 48.152344 C 50.441406 47.089844 50.441406 45.496094 51.5 44.433594 C 51.765625 44.167969 52.296875 43.636719 52.828125 43.105469 C 52.828125 42.042969 53.09375 41.242188 53.886719 40.445312 C 55.214844 38.851562 57.597656 38.851562 59.191406 40.445312 C 60.78125 41.777344 60.78125 44.167969 59.191406 45.761719 Z M 59.191406 45.761719 "/>
<path style=" stroke:none;fill-rule:nonzero;fill:rgb(100%,100%,100%);fill-opacity:1;" d="M 81.945312 24.582031 C 81.257812 23.285156 79.65625 22.796875 78.363281 23.484375 L 64.777344 30.71875 L 68.730469 34.632812 L 80.847656 28.179688 C 82.144531 27.488281 82.636719 25.878906 81.945312 24.582031 Z M 81.945312 24.582031 "/>
</g>
</svg>
