<?xml version="1.0" encoding="UTF-8"?>
<svg xmlns="http://www.w3.org/2000/svg" xmlns:xlink="http://www.w3.org/1999/xlink" width="144pt" height="143.999998pt" viewBox="0 0 144 143.999998" version="1.2">
<defs>
<clipPath id="clip1">
  <path d="M 24 16.136719 L 120 16.136719 L 120 127.886719 L 24 127.886719 Z M 24 16.136719 "/>
</clipPath>
</defs>
<g id="surface1">
<g clip-path="url(#clip1)" clip-rule="nonzero">
<path style=" stroke:none;fill-rule:nonzero;fill:rgb(100%,100%,100%);fill-opacity:1;" d="M 37.242188 127.9375 C 46.167969 120.898438 58.398438 116.550781 71.898438 116.550781 C 85.398438 116.550781 97.628906 120.898438 106.554688 127.9375 L 118.664062 95.972656 C 120.101562 92.167969 119.996094 87.949219 118.359375 84.226562 C 113.183594 72.441406 99.476562 45.050781 73.542969 17.121094 C 72.65625 16.167969 71.140625 16.167969 70.257812 17.121094 C 44.320312 45.050781 30.613281 72.441406 25.4375 84.226562 C 23.800781 87.949219 23.695312 92.167969 25.136719 95.972656 Z M 37.242188 127.9375 "/>
</g>
<path style=" stroke:none;fill-rule:nonzero;fill:rgb(0%,0%,0%);fill-opacity:1;" d="M 105.558594 124.53125 C 96.199219 117.984375 84.363281 114.40625 71.898438 114.40625 C 59.433594 114.40625 47.601562 117.984375 38.238281 124.53125 L 27.136719 95.214844 C 25.882812 91.910156 25.976562 88.316406 27.394531 85.085938 C 32.070312 74.441406 45.757812 46.648438 71.824219 18.578125 C 71.832031 18.570312 71.851562 18.546875 71.898438 18.546875 C 71.945312 18.546875 71.96875 18.570312 71.976562 18.578125 C 98.042969 46.652344 111.730469 74.441406 116.402344 85.085938 C 117.820312 88.316406 117.914062 91.910156 116.664062 95.214844 Z M 105.558594 124.53125 "/>
<path style=" stroke:none;fill-rule:nonzero;fill:rgb(100%,100%,100%);fill-opacity:1;" d="M 104.507812 121.269531 C 95.191406 115.449219 83.722656 112.265625 71.898438 112.265625 C 60.074219 112.265625 48.609375 115.449219 39.292969 121.269531 L 29.132812 94.453125 C 28.082031 91.679688 28.160156 88.660156 29.351562 85.949219 C 33.890625 75.609375 47.023438 48.929688 71.902344 21.65625 C 96.765625 48.902344 109.90625 75.605469 114.445312 85.949219 C 115.636719 88.660156 115.714844 91.679688 114.667969 94.453125 Z M 104.507812 121.269531 "/>
<path style=" stroke:none;fill-rule:nonzero;fill:rgb(0%,0%,0%);fill-opacity:1;" d="M 62.242188 47.058594 L 62.242188 86.640625 L 39.75 86.640625 C 39.828125 86.40625 39.917969 86.175781 40.019531 85.949219 C 43.113281 78.90625 50.1875 64.285156 62.242188 47.058594 Z M 62.242188 47.058594 "/>
<path style=" stroke:none;fill-rule:nonzero;fill:rgb(100%,100%,100%);fill-opacity:1;" d="M 43.015625 84.5 C 46.074219 77.824219 51.605469 66.886719 60.109375 54.007812 L 60.109375 84.5 Z M 43.015625 84.5 "/>
<path style=" stroke:none;fill-rule:nonzero;fill:rgb(0%,0%,0%);fill-opacity:1;" d="M 46.382812 82.359375 C 49.007812 76.894531 52.808594 69.652344 57.96875 61.316406 L 57.96875 82.359375 Z M 46.382812 82.359375 "/>
<path style=" stroke:none;fill-rule:nonzero;fill:rgb(0%,0%,0%);fill-opacity:1;" d="M 81.554688 47.058594 L 81.554688 86.640625 L 104.046875 86.640625 C 103.972656 86.40625 103.878906 86.175781 103.777344 85.949219 C 100.6875 78.90625 93.609375 64.285156 81.554688 47.058594 Z M 81.554688 47.058594 "/>
<path style=" stroke:none;fill-rule:nonzero;fill:rgb(100%,100%,100%);fill-opacity:1;" d="M 83.691406 84.5 L 83.691406 54.007812 C 92.191406 66.886719 97.722656 77.820312 100.785156 84.5 Z M 83.691406 84.5 "/>
<path style=" stroke:none;fill-rule:nonzero;fill:rgb(0%,0%,0%);fill-opacity:1;" d="M 85.828125 82.359375 L 85.828125 61.316406 C 90.988281 69.648438 94.789062 76.894531 97.414062 82.359375 Z M 85.828125 82.359375 "/>
<path style=" stroke:none;fill-rule:nonzero;fill:rgb(0%,0%,0%);fill-opacity:1;" d="M 70.316406 29.9375 L 73.480469 29.9375 L 73.480469 51.480469 L 70.316406 51.480469 Z M 70.316406 29.9375 "/>
<path style=" stroke:none;fill-rule:nonzero;fill:rgb(0%,0%,0%);fill-opacity:1;" d="M 64.28125 35.953125 L 79.515625 35.953125 L 79.515625 39.125 L 64.28125 39.125 Z M 64.28125 35.953125 "/>
</g>
</svg>
