<?xml version="1.0" encoding="UTF-8"?>
<svg xmlns="http://www.w3.org/2000/svg" xmlns:xlink="http://www.w3.org/1999/xlink" width="144pt" height="143.999998pt" viewBox="0 0 144 143.999998" version="1.2">
<defs>
<clipPath id="clip1">
  <path d="M 121 7.140625 L 127 7.140625 L 127 60 L 121 60 Z M 121 7.140625 "/>
</clipPath>
<clipPath id="clip2">
  <path d="M 123 7.140625 L 139.5 7.140625 L 139.5 32 L 123 32 Z M 123 7.140625 "/>
</clipPath>
</defs>
<g id="surface1">
<path style=" stroke:none;fill-rule:nonzero;fill:rgb(100%,100%,100%);fill-opacity:1;" d="M 34.214844 123.957031 C 34.6875 130.558594 30.90625 136.335938 22.085938 139.984375 C 13.261719 143.628906 4.363281 142.359375 2.203125 137.160156 C 0.046875 131.949219 5.449219 124.777344 14.273438 121.132812 C 23.089844 117.492188 33.8125 118.34375 34.214844 123.957031 "/>
<path style=" stroke:none;fill-rule:nonzero;fill:rgb(100%,100%,100%);fill-opacity:1;" d="M 34.214844 123.957031 L 29.503906 123.957031 L 29.503906 71.726562 L 34.214844 71.726562 L 34.214844 123.957031 "/>
<path style=" stroke:none;fill-rule:nonzero;fill:rgb(100%,100%,100%);fill-opacity:1;" d="M 81.113281 116.535156 C 81.5625 122.226562 77.476562 127.851562 68.660156 131.492188 C 59.839844 135.136719 50.9375 133.875 48.78125 128.667969 C 46.625 123.46875 52.019531 116.285156 60.84375 112.644531 C 69.667969 109 80.667969 110.917969 81.113281 116.535156 "/>
<path style=" stroke:none;fill-rule:nonzero;fill:rgb(100%,100%,100%);fill-opacity:1;" d="M 81.113281 116.535156 L 76.402344 116.535156 L 76.402344 64.304688 L 81.113281 64.304688 L 81.113281 116.535156 "/>
<path style=" stroke:none;fill-rule:nonzero;fill:rgb(100%,100%,100%);fill-opacity:1;" d="M 81.113281 76 L 29.511719 88.785156 L 29.511719 62.667969 L 81.113281 49.882812 L 81.113281 76 "/>
<path style=" stroke:none;fill-rule:nonzero;fill:rgb(100%,100%,100%);fill-opacity:1;" d="M 126.113281 59.367188 C 126.585938 65.957031 122.796875 71.742188 113.976562 75.382812 C 105.152344 79.027344 96.253906 77.765625 94.097656 72.558594 C 91.945312 67.351562 97.34375 60.183594 106.164062 56.539062 C 114.988281 52.890625 125.710938 53.742188 126.113281 59.367188 "/>
<g clip-path="url(#clip1)" clip-rule="nonzero">
<path style=" stroke:none;fill-rule:nonzero;fill:rgb(100%,100%,100%);fill-opacity:1;" d="M 126.113281 59.367188 L 121.398438 59.367188 L 121.398438 7.128906 L 126.113281 7.128906 L 126.113281 59.367188 "/>
</g>
<g clip-path="url(#clip2)" clip-rule="nonzero">
<path style=" stroke:none;fill-rule:nonzero;fill:rgb(100%,100%,100%);fill-opacity:1;" d="M 123.617188 7.210938 C 123.617188 7.210938 125.269531 7.148438 126.113281 7.128906 C 129.761719 7.128906 131.34375 9.773438 131.84375 10.832031 C 132.371094 11.882812 132.613281 12.984375 132.722656 14.039062 C 132.816406 15.078125 132.800781 16.09375 132.746094 17.097656 C 132.667969 18.035156 132.59375 18.996094 132.515625 19.953125 C 132.46875 20.820312 132.480469 21.613281 132.566406 22.480469 C 132.65625 23.320312 132.800781 24.128906 133.03125 24.871094 C 133.246094 25.617188 133.535156 26.28125 133.882812 26.824219 C 134.207031 27.398438 134.632812 27.75 135.011719 28.0625 C 135.414062 28.304688 135.816406 28.464844 136.214844 28.503906 C 136.609375 28.5625 136.984375 28.511719 137.300781 28.464844 C 137.621094 28.421875 137.886719 28.296875 138.058594 28.257812 C 138.230469 28.207031 138.328125 28.179688 138.328125 28.179688 L 139.363281 30.527344 C 139.363281 30.527344 139.230469 30.582031 138.988281 30.679688 C 138.730469 30.761719 138.398438 30.945312 137.898438 31.054688 C 137.390625 31.179688 136.769531 31.304688 136 31.261719 C 135.234375 31.234375 134.355469 31 133.515625 30.546875 C 132.710938 30.058594 131.925781 29.386719 131.363281 28.574219 C 130.761719 27.777344 130.304688 26.871094 129.949219 25.921875 C 129.582031 24.972656 129.339844 23.976562 129.152344 22.957031 C 128.980469 21.976562 128.882812 20.851562 128.875 19.820312 C 128.882812 18.871094 128.886719 17.921875 128.902344 16.988281 C 128.886719 16.117188 128.839844 15.285156 128.722656 14.550781 C 128.589844 13.832031 128.382812 13.242188 128.140625 12.847656 C 127.902344 12.433594 127.625 12.273438 127.3125 12.105469 C 127.015625 11.941406 126.601562 11.863281 126.203125 11.824219 C 125.808594 11.746094 125.46875 11.824219 125.191406 11.789062 C 124.367188 11.863281 123.894531 11.914062 123.894531 11.914062 L 123.617188 7.210938 "/>
</g>
</g>
</svg>
