<?xml version="1.0" standalone="no"?>
<!DOCTYPE svg PUBLIC "-//W3C//DTD SVG 20010904//EN"
 "http://www.w3.org/TR/2001/REC-SVG-20010904/DTD/svg10.dtd">
<svg version="1.0" xmlns="http://www.w3.org/2000/svg"
 width="1216.000000pt" height="1216.000000pt" viewBox="0 0 1216.000000 1216.000000"
 preserveAspectRatio="xMidYMid meet">
<metadata>
Created by potrace 1.15, written by Peter Selinger 2001-2017
</metadata>
<g transform="translate(0.000000,1216.000000) scale(0.100000,-0.100000)"
fill="#000000" stroke="none">
<path d="M1754 11599 c-6 -8 -21 -33 -34 -56 -27 -49 -23 -75 20 -123 16 -18
30 -37 30 -41 0 -4 8 -10 18 -13 9 -4 35 -31 56 -61 22 -30 47 -57 57 -60 10
-3 21 -14 24 -24 5 -18 33 -55 55 -76 53 -48 70 -68 70 -80 0 -7 23 -36 50
-63 28 -27 50 -57 50 -65 0 -9 8 -18 18 -21 10 -4 29 -24 43 -46 13 -22 27
-40 32 -40 4 0 7 -6 7 -13 0 -6 16 -27 35 -44 19 -18 35 -39 35 -48 0 -8 11
-20 25 -27 13 -6 28 -24 34 -39 11 -33 20 -44 79 -106 23 -24 42 -49 42 -55 0
-6 11 -21 25 -34 14 -13 25 -32 25 -44 0 -11 4 -20 9 -20 12 0 61 -47 61 -59
0 -6 9 -15 20 -21 11 -6 20 -21 20 -33 0 -13 13 -33 30 -47 17 -14 30 -30 30
-36 0 -6 16 -28 35 -48 19 -21 35 -44 35 -52 0 -8 5 -14 11 -14 5 0 15 -13 20
-30 6 -16 15 -30 20 -30 15 0 49 -43 49 -62 0 -10 4 -18 9 -18 17 0 58 -47 65
-73 3 -15 17 -33 31 -39 13 -6 29 -25 36 -42 15 -35 21 -44 65 -89 17 -18 34
-44 38 -59 3 -15 15 -29 26 -33 10 -3 22 -14 25 -24 3 -10 23 -37 45 -61 22
-24 42 -51 45 -61 4 -11 11 -19 16 -19 5 0 9 -6 9 -13 0 -7 8 -20 18 -28 28
-26 49 -55 56 -77 4 -12 15 -24 25 -27 9 -3 25 -20 34 -38 26 -50 40 -69 70
-96 15 -14 27 -31 27 -39 0 -7 20 -33 45 -59 25 -25 45 -49 45 -55 0 -5 10
-19 23 -31 12 -12 28 -34 35 -49 6 -16 16 -28 22 -28 5 0 10 -6 10 -13 0 -7 8
-20 18 -29 36 -36 52 -55 52 -64 0 -6 13 -23 29 -38 16 -16 32 -39 35 -51 3
-13 14 -26 24 -29 9 -3 28 -26 42 -51 13 -24 30 -47 37 -49 7 -3 13 -12 13
-19 0 -8 11 -23 25 -33 14 -10 25 -25 25 -32 0 -7 14 -26 31 -43 16 -16 35
-42 40 -58 6 -15 20 -33 32 -40 12 -7 36 -36 52 -66 16 -30 37 -58 47 -61 9
-3 23 -21 30 -39 6 -19 19 -37 27 -40 9 -3 27 -25 40 -50 13 -25 43 -65 67
-90 24 -24 44 -51 44 -58 0 -7 14 -25 30 -39 17 -15 35 -40 41 -57 6 -17 19
-33 30 -36 10 -4 19 -10 19 -15 0 -5 6 -15 13 -22 6 -7 19 -26 27 -43 8 -16
30 -44 48 -61 17 -18 32 -36 32 -40 0 -4 7 -14 15 -23 27 -28 65 -79 65 -85 0
-4 11 -17 24 -29 13 -12 26 -32 30 -44 4 -13 12 -23 17 -23 5 0 9 -7 9 -15 0
-8 18 -32 40 -54 22 -22 40 -44 40 -50 0 -5 14 -25 30 -43 17 -18 30 -38 30
-45 0 -6 11 -20 25 -31 14 -11 30 -34 36 -51 6 -17 15 -31 20 -31 5 0 9 -7 9
-15 0 -8 9 -19 20 -25 11 -6 20 -17 20 -25 0 -8 4 -15 9 -15 5 0 13 -9 16 -20
3 -11 22 -36 41 -56 19 -20 34 -43 34 -51 0 -7 15 -28 33 -46 18 -17 36 -40
40 -49 6 -17 -21 -18 -486 -18 -370 0 -496 -3 -505 -12 -7 -7 -12 -36 -12 -65
0 -49 2 -54 28 -64 15 -6 67 -13 117 -15 49 -3 95 -10 101 -15 7 -6 29 -9 51
-9 61 2 197 -12 209 -21 5 -5 35 -8 65 -8 30 0 97 -7 149 -15 52 -9 116 -16
142 -16 26 0 50 -5 53 -10 4 -6 27 -10 53 -9 68 2 214 -22 230 -37 11 -11 10
-18 -3 -43 -8 -17 -15 -37 -15 -46 0 -8 -4 -23 -9 -33 -5 -9 -17 -42 -26 -72
-10 -30 -22 -59 -26 -64 -5 -6 -9 -21 -9 -34 0 -22 -17 -69 -41 -114 -5 -10
-9 -27 -9 -39 0 -12 -10 -40 -21 -63 -12 -22 -25 -49 -30 -58 -5 -10 -9 -26
-9 -35 -1 -10 -9 -36 -20 -58 -11 -22 -19 -46 -20 -53 0 -27 -32 -112 -46
-123 -8 -6 -14 -20 -14 -31 0 -11 -6 -32 -14 -46 -19 -38 -32 -70 -47 -122 -7
-25 -19 -49 -26 -53 -7 -4 -13 -19 -13 -32 0 -14 -13 -50 -30 -80 -16 -30 -30
-62 -30 -70 0 -8 -9 -30 -20 -50 -11 -20 -20 -43 -20 -53 0 -9 -11 -35 -25
-57 -13 -22 -25 -48 -25 -58 0 -11 -13 -44 -30 -74 -16 -30 -30 -62 -30 -71 0
-9 -11 -35 -25 -57 -13 -22 -25 -49 -25 -60 0 -11 -9 -33 -20 -50 -11 -16 -20
-38 -20 -47 0 -20 -14 -53 -39 -93 -11 -16 -20 -39 -20 -50 -1 -11 -12 -38
-26 -60 -13 -22 -25 -48 -25 -58 0 -11 -13 -42 -28 -70 -16 -29 -32 -67 -35
-85 -4 -19 -16 -45 -27 -59 -11 -14 -20 -35 -20 -47 0 -11 -9 -34 -20 -51 -11
-16 -20 -38 -20 -49 0 -10 -8 -35 -19 -55 -10 -20 -29 -63 -41 -96 -13 -33
-29 -67 -36 -76 -8 -8 -14 -24 -14 -35 0 -10 -9 -33 -19 -50 -10 -17 -22 -45
-26 -62 -3 -18 -11 -34 -16 -37 -5 -4 -9 -14 -9 -24 0 -10 -8 -29 -19 -42 -10
-13 -21 -40 -25 -60 -4 -21 -13 -42 -21 -49 -8 -7 -15 -20 -15 -29 0 -9 -9
-33 -20 -54 -11 -20 -20 -43 -20 -50 0 -7 -16 -39 -35 -71 -19 -32 -35 -65
-35 -73 0 -8 -11 -36 -24 -62 -50 -99 -76 -157 -82 -183 -3 -15 -12 -32 -20
-39 -8 -6 -14 -19 -14 -29 0 -9 -13 -37 -30 -61 -16 -24 -30 -51 -30 -59 0 -8
-9 -30 -20 -48 -11 -18 -20 -38 -20 -46 0 -7 -11 -30 -25 -50 -14 -20 -25 -43
-25 -50 0 -8 -7 -16 -15 -20 -8 -3 -15 -12 -15 -21 0 -8 -11 -33 -25 -55 -14
-22 -25 -46 -25 -54 0 -7 -7 -19 -15 -26 -8 -7 -15 -19 -15 -27 0 -23 -30 -73
-44 -73 -13 0 -36 40 -36 64 0 6 -11 27 -25 46 -14 19 -25 41 -25 49 0 9 -14
36 -30 60 -17 24 -30 52 -30 61 0 9 -9 25 -20 35 -11 10 -22 33 -26 52 -3 18
-12 37 -19 41 -7 4 -20 29 -29 56 -9 27 -26 60 -36 74 -11 13 -20 33 -20 42 0
10 -6 23 -13 29 -8 6 -20 30 -27 53 -7 24 -18 48 -25 53 -6 6 -17 30 -25 55
-8 25 -23 61 -34 80 -38 68 -46 85 -46 95 0 6 -9 28 -20 50 -11 22 -20 45 -20
52 0 7 -9 27 -20 45 -11 18 -20 43 -20 56 0 12 -9 31 -19 41 -10 10 -22 34
-26 52 -8 40 -32 96 -44 104 -5 3 -13 19 -16 37 -4 17 -18 51 -31 76 -13 25
-24 51 -24 58 0 7 -10 30 -22 51 -41 73 -48 88 -48 109 0 12 -6 27 -14 33 -8
7 -18 27 -21 44 -4 18 -13 39 -21 47 -7 8 -17 35 -23 58 -5 24 -16 51 -24 60
-9 9 -18 31 -22 47 -4 17 -22 62 -40 100 -56 116 -75 160 -75 177 0 9 -6 21
-13 27 -8 6 -19 30 -26 53 -8 24 -26 70 -41 103 -59 125 -80 176 -80 196 0 11
-6 22 -14 25 -8 3 -18 24 -21 46 -4 23 -20 65 -36 93 -16 29 -29 60 -29 69 0
9 -9 33 -20 53 -11 21 -20 43 -20 50 0 14 -4 25 -38 90 -12 23 -22 50 -22 60
0 11 -5 24 -12 31 -12 12 -33 62 -52 127 -6 22 -17 50 -24 62 -6 12 -12 29
-12 37 0 9 -4 24 -9 34 -30 55 -51 112 -51 135 0 15 -7 30 -15 33 -8 4 -15 15
-15 26 0 10 -9 38 -20 60 -11 23 -20 51 -20 63 0 11 -9 38 -20 60 -11 22 -20
51 -20 65 0 15 -3 30 -7 34 -12 12 -43 100 -43 122 0 11 -3 24 -7 27 -11 11
-43 110 -43 133 0 11 -7 35 -16 53 -9 18 -14 33 -13 35 11 7 303 47 408 56 69
6 130 15 136 20 7 5 56 14 109 20 54 6 102 12 107 15 4 3 30 6 56 6 67 0 190
20 208 33 10 7 16 32 17 74 l3 62 -1478 3 -1477 2 0 -68 c0 -56 3 -69 18 -73
9 -3 25 -10 35 -15 10 -6 51 -14 90 -19 40 -4 108 -18 151 -29 44 -12 91 -21
104 -21 36 0 144 -20 164 -31 10 -5 32 -9 50 -9 57 0 104 -18 116 -45 6 -14
16 -25 21 -25 5 0 16 -19 25 -41 9 -23 28 -56 41 -74 14 -17 25 -39 25 -47 0
-9 7 -21 15 -28 8 -7 15 -21 15 -32 0 -10 6 -21 14 -24 8 -3 20 -26 28 -51 7
-25 20 -49 29 -53 8 -5 21 -28 29 -52 7 -24 18 -48 24 -53 18 -17 36 -54 36
-74 0 -11 7 -24 16 -29 8 -4 22 -28 30 -52 8 -24 24 -54 34 -68 11 -14 20 -32
20 -41 0 -10 11 -32 25 -51 14 -19 25 -44 25 -57 0 -13 9 -32 19 -42 11 -11
25 -38 31 -60 6 -22 16 -44 23 -48 16 -10 37 -58 37 -84 0 -11 7 -22 15 -25 8
-4 18 -24 21 -46 4 -22 13 -42 20 -45 8 -3 14 -10 14 -17 0 -11 22 -60 66
-147 13 -26 24 -55 24 -64 0 -9 9 -28 20 -42 11 -14 20 -36 20 -48 0 -12 9
-34 20 -48 11 -14 23 -40 27 -59 3 -18 14 -46 24 -63 27 -44 49 -95 49 -112 0
-8 9 -26 20 -40 11 -14 20 -36 20 -48 0 -12 7 -28 15 -35 8 -7 17 -28 21 -49
4 -20 22 -64 40 -98 19 -33 34 -71 34 -82 0 -12 7 -24 14 -27 8 -3 20 -30 26
-61 7 -30 18 -57 25 -59 7 -3 16 -21 20 -40 3 -19 19 -59 36 -88 16 -30 29
-63 29 -74 0 -10 9 -31 20 -45 11 -14 23 -40 26 -59 4 -18 12 -37 18 -43 6 -5
18 -30 26 -55 8 -25 27 -69 42 -98 15 -29 28 -61 28 -73 0 -11 7 -22 15 -25 8
-3 17 -26 21 -51 4 -25 15 -54 24 -63 10 -10 21 -33 25 -50 4 -18 20 -56 36
-85 16 -29 29 -61 29 -72 0 -10 12 -36 25 -58 14 -22 25 -48 25 -57 0 -10 10
-34 22 -55 41 -72 48 -88 48 -106 0 -11 9 -30 20 -44 11 -14 20 -35 20 -47 0
-11 9 -34 20 -51 11 -16 20 -40 20 -52 0 -13 9 -32 19 -42 11 -11 23 -37 27
-58 4 -21 16 -54 27 -73 36 -63 47 -85 47 -95 0 -6 9 -28 20 -50 11 -22 20
-46 20 -55 0 -8 9 -28 20 -45 11 -16 20 -38 20 -47 0 -19 37 -95 50 -103 5 -3
12 -20 15 -38 4 -17 13 -39 19 -47 7 -8 19 -35 26 -60 7 -25 19 -52 27 -61 7
-8 16 -31 20 -49 3 -19 21 -62 40 -96 18 -34 33 -71 33 -82 0 -11 6 -25 14
-31 8 -7 18 -27 21 -44 4 -18 13 -39 20 -47 7 -8 19 -35 26 -60 8 -25 26 -69
41 -99 16 -30 28 -61 28 -68 0 -7 9 -30 20 -50 11 -21 20 -45 20 -55 0 -9 13
-41 30 -71 16 -30 30 -63 30 -74 0 -10 9 -35 20 -56 11 -20 20 -45 20 -55 0
-11 9 -27 20 -37 11 -10 20 -25 20 -33 0 -26 26 -103 59 -173 11 -25 21 -54
21 -64 0 -10 11 -41 24 -69 14 -29 27 -65 31 -81 16 -71 21 -75 107 -75 l78 0
16 38 c9 20 20 45 25 54 5 10 9 26 9 37 0 10 11 44 25 75 14 31 25 65 25 76 0
11 11 43 25 72 14 28 25 61 25 73 0 12 13 47 30 79 16 32 32 77 36 101 3 24
12 46 20 49 8 3 14 16 14 29 0 13 13 49 29 80 16 31 31 71 35 90 4 19 13 40
21 47 8 7 15 23 15 36 0 13 15 52 34 86 18 35 36 79 40 99 4 21 13 42 21 49 8
7 15 23 15 35 0 12 9 34 20 48 11 14 20 33 20 44 0 10 7 31 15 47 8 15 15 37
15 47 0 10 8 23 19 28 11 6 21 26 25 49 3 22 12 45 20 51 7 6 16 29 20 50 3
21 13 44 21 51 8 7 15 23 15 35 0 13 6 25 14 28 7 3 17 26 20 50 4 25 13 47
20 50 7 3 16 21 19 41 3 20 15 48 26 63 12 14 21 35 21 45 0 11 13 43 28 72
16 28 32 69 36 89 4 21 16 47 27 58 10 10 19 29 19 41 0 13 9 37 20 53 11 17
20 38 20 48 0 11 14 44 30 74 17 30 30 60 30 67 0 7 11 34 25 60 14 26 25 54
25 62 0 9 13 40 29 69 16 29 32 67 36 86 4 19 16 44 25 57 10 12 21 40 25 62
4 21 12 44 20 50 7 6 16 26 19 44 4 19 13 39 21 46 8 7 15 20 15 29 0 9 4 21
8 27 5 5 15 29 22 54 7 25 19 52 25 60 7 8 16 29 19 45 4 17 13 37 20 45 7 8
16 30 20 48 3 19 15 46 26 62 11 15 20 35 20 43 0 9 4 18 9 21 5 4 12 24 16
45 4 22 13 42 21 45 8 3 14 16 14 28 0 13 11 41 25 63 13 22 25 48 25 58 0 11
14 44 30 74 17 30 30 62 30 71 0 9 9 32 20 50 11 18 20 39 20 48 0 8 15 43 33
77 19 34 37 78 41 98 3 21 13 42 21 49 8 7 15 20 15 30 0 9 11 38 25 64 14 26
25 54 25 62 0 9 14 41 30 71 17 30 30 60 30 67 0 6 9 29 20 51 11 22 20 43 20
48 0 4 11 32 24 60 13 29 27 63 31 77 4 14 13 32 19 40 23 31 44 76 50 111 4
21 13 42 21 49 8 7 15 20 15 29 0 9 11 34 25 56 13 22 25 50 25 61 0 12 8 32
18 45 27 38 42 67 42 84 0 8 10 32 23 53 13 20 29 57 36 82 7 24 18 49 25 55
7 5 18 28 25 50 7 22 19 47 26 55 7 8 16 28 19 45 7 26 9 28 19 14 7 -9 120
-203 252 -432 188 -326 245 -417 263 -422 16 -4 39 3 68 20 35 21 44 31 44 53
0 38 -24 102 -48 129 -20 22 -33 60 -36 100 -1 12 -9 30 -17 40 -8 10 -28 48
-43 86 -16 37 -32 70 -37 73 -5 3 -9 18 -9 35 0 16 -9 38 -20 49 -11 11 -20
26 -20 33 0 7 -6 21 -14 32 -7 11 -17 36 -21 55 -8 36 -13 49 -58 136 -15 29
-27 63 -27 76 0 13 -9 34 -20 46 -11 12 -20 27 -20 35 0 7 -4 17 -8 23 -5 5
-15 29 -22 54 -8 25 -20 55 -28 67 -7 12 -11 26 -8 31 3 5 38 15 78 22 40 7
77 17 83 22 5 4 23 8 40 8 33 1 258 44 273 54 5 3 38 6 73 7 35 1 69 5 74 10
6 4 33 10 60 13 28 3 74 12 104 21 29 9 64 14 77 11 14 -4 33 -2 43 4 10 5 43
10 72 11 30 1 59 6 65 11 6 4 38 10 71 11 32 2 64 6 70 10 5 3 39 7 74 8 35 1
69 5 74 9 9 7 91 18 180 24 22 2 49 6 60 9 11 4 45 9 75 12 30 3 91 11 135 16
44 6 98 10 119 10 22 -1 45 4 52 10 7 5 43 12 81 14 37 3 100 9 138 15 123 18
249 32 289 31 22 0 44 3 50 8 6 5 34 11 61 15 28 3 79 10 115 16 36 5 117 14
180 20 63 6 134 15 157 21 24 6 69 13 100 15 32 2 90 8 128 13 87 13 174 22
245 26 30 2 118 10 195 19 77 9 174 18 215 21 41 3 120 9 175 15 55 5 126 7
157 5 32 -2 60 0 63 4 2 5 16 6 29 4 14 -3 63 0 111 6 47 7 90 9 95 6 12 -7
-2 -37 -31 -66 -10 -10 -19 -26 -19 -35 0 -9 -10 -26 -23 -38 -12 -11 -33 -41
-46 -66 -13 -25 -32 -53 -42 -63 -10 -10 -19 -25 -19 -33 0 -9 -13 -29 -30
-46 -16 -16 -30 -36 -30 -43 0 -7 -16 -30 -35 -51 -19 -20 -35 -44 -35 -52 0
-8 -11 -25 -24 -37 -13 -12 -27 -32 -31 -44 -4 -12 -20 -35 -36 -52 -16 -16
-29 -35 -29 -42 0 -7 -8 -20 -17 -29 -39 -37 -53 -55 -53 -66 0 -7 -4 -12 -9
-12 -5 0 -14 -15 -22 -32 -7 -18 -22 -42 -33 -53 -12 -12 -32 -36 -45 -55 -14
-19 -30 -39 -38 -43 -7 -4 -13 -12 -13 -18 0 -11 -10 -24 -52 -69 -16 -15 -28
-35 -28 -42 0 -13 -13 -29 -52 -65 -23 -22 -38 -42 -38 -53 0 -5 -16 -27 -35
-49 -19 -21 -35 -43 -35 -49 0 -6 -16 -26 -35 -45 -19 -19 -35 -39 -35 -46 0
-6 -4 -11 -9 -11 -5 0 -14 -15 -22 -32 -7 -18 -25 -45 -41 -59 -15 -14 -28
-30 -28 -36 0 -5 -13 -23 -30 -39 -16 -16 -30 -36 -30 -44 0 -8 -18 -31 -40
-50 -22 -19 -40 -41 -40 -49 0 -8 -15 -29 -33 -47 -46 -47 -54 -58 -62 -83 -3
-12 -20 -35 -36 -52 -16 -16 -29 -33 -29 -38 0 -4 -16 -25 -35 -45 -19 -21
-35 -44 -35 -52 0 -8 -4 -14 -8 -14 -5 0 -14 -11 -20 -24 -6 -13 -19 -27 -29
-30 -10 -3 -25 -20 -32 -38 -16 -36 -26 -50 -53 -76 -10 -9 -18 -20 -18 -25 0
-9 -8 -19 -57 -74 -18 -20 -33 -41 -33 -47 0 -6 -14 -22 -30 -36 -17 -14 -30
-30 -30 -37 0 -7 -4 -13 -9 -13 -5 0 -14 -13 -21 -29 -6 -16 -27 -42 -46 -57
-19 -16 -34 -34 -34 -40 0 -6 -11 -21 -25 -34 -14 -13 -25 -29 -25 -36 0 -6
-7 -14 -15 -18 -8 -3 -23 -21 -32 -41 -9 -19 -25 -37 -35 -41 -10 -3 -18 -12
-18 -20 0 -8 -8 -22 -18 -32 -9 -10 -28 -34 -42 -55 -14 -20 -33 -40 -42 -43
-10 -3 -18 -12 -18 -19 0 -8 -20 -34 -44 -58 -24 -25 -47 -54 -50 -65 -4 -12
-25 -35 -47 -52 -21 -18 -39 -37 -39 -44 0 -6 -8 -19 -18 -27 -9 -9 -24 -26
-32 -39 -19 -28 -51 -60 -62 -60 -4 0 -8 -6 -8 -14 0 -8 -14 -28 -31 -44 -17
-16 -35 -34 -40 -38 -5 -5 -19 -20 -30 -34 -78 -96 -186 -210 -200 -210 -5 0
-9 -6 -9 -13 0 -7 -9 -20 -20 -30 -11 -9 -20 -13 -20 -8 0 5 -10 21 -22 36
-67 78 -95 110 -108 125 -9 8 -26 34 -39 55 -13 22 -29 45 -36 50 -6 6 -24 31
-39 58 -15 26 -31 47 -35 47 -4 0 -13 11 -19 25 -6 14 -18 25 -26 25 -8 0 -18
9 -21 20 -3 11 -10 20 -15 20 -5 0 -19 17 -31 38 -12 20 -30 44 -38 54 -9 9
-25 28 -36 42 -11 15 -25 32 -31 39 -6 7 -14 22 -18 34 -4 12 -24 40 -44 62
-20 22 -43 48 -50 56 -21 24 -59 19 -139 -18 -32 -15 -29 -46 11 -98 42 -56
1382 -2377 1409 -2441 26 -64 46 -68 107 -22 28 21 50 43 50 49 0 33 -24 131
-36 151 -8 12 -24 55 -35 95 -11 41 -24 83 -29 94 -4 11 -17 45 -28 75 -11 30
-26 71 -34 90 -7 19 -11 41 -10 47 2 7 -4 23 -13 37 -43 65 -38 123 17 200 15
22 28 45 28 52 0 11 40 68 74 106 9 10 16 24 16 32 0 7 14 30 30 51 16 21 30
44 30 52 0 14 13 33 43 61 9 9 17 23 17 32 0 9 14 31 31 50 18 19 36 49 41 67
5 17 17 34 27 38 10 3 26 25 35 49 9 25 23 47 31 50 8 3 21 22 30 42 8 20 26
45 40 56 14 11 25 27 25 36 0 9 16 35 35 56 19 22 35 45 35 52 0 8 14 28 31
45 17 17 35 44 41 60 5 15 18 31 29 34 10 4 19 13 19 20 0 15 55 101 80 125 8
8 21 27 27 42 7 15 24 34 38 44 14 9 25 24 25 34 0 9 16 33 35 53 19 20 35 43
35 51 0 9 14 25 30 38 17 12 30 27 30 34 0 6 7 14 15 18 8 3 15 15 15 26 0 11
7 23 15 26 8 3 17 14 20 24 3 11 15 22 26 25 10 4 19 14 19 23 0 10 14 32 30
50 17 18 30 37 30 43 0 5 17 26 38 48 48 50 55 59 71 98 7 18 21 35 31 38 10
3 23 19 29 36 5 16 24 41 41 55 16 14 30 33 30 42 1 10 14 28 30 42 17 13 30
29 30 36 0 7 7 14 15 18 8 3 15 13 15 21 0 9 18 34 40 55 22 21 40 45 40 52 0
16 36 58 49 58 5 0 13 12 19 28 5 15 21 39 34 53 14 15 28 34 31 43 4 9 11 16
16 16 5 0 13 10 17 22 4 12 20 35 35 51 16 16 29 35 29 42 0 8 13 24 29 36 16
12 39 41 51 65 13 23 29 45 36 48 8 3 14 12 14 21 0 8 4 15 9 15 5 0 12 8 16
19 3 10 23 37 44 60 22 23 45 55 51 71 7 16 21 32 31 35 10 4 19 13 19 21 0 8
6 17 14 20 8 3 17 17 21 32 3 15 20 39 36 54 17 15 35 41 40 57 6 17 19 33 29
36 11 3 22 14 25 24 3 11 21 35 40 55 19 20 42 52 51 71 9 19 24 37 33 40 10
3 24 21 31 40 8 19 17 35 22 35 4 0 8 5 8 11 0 11 21 37 100 128 17 19 30 38
30 43 0 5 16 25 35 45 19 20 35 42 35 50 0 7 5 13 10 13 6 0 10 7 10 15 0 8
14 28 30 45 17 17 30 34 30 39 0 4 18 27 40 52 22 24 40 50 40 57 0 13 47 62
59 62 3 0 13 15 21 33 16 36 23 46 63 89 15 16 27 34 27 38 0 5 14 23 30 40
17 17 30 36 30 42 0 6 7 18 15 27 43 44 85 97 85 108 0 7 17 29 38 50 21 21
44 50 52 65 7 15 21 30 31 33 10 3 21 15 24 26 4 10 10 19 14 19 4 0 12 15 19
33 7 17 28 43 47 57 19 14 35 31 35 38 0 7 11 23 23 35 13 12 27 34 30 49 4
15 16 29 27 33 10 3 22 15 25 25 3 10 15 22 26 25 10 4 19 13 19 21 0 8 7 17
15 20 8 3 17 15 20 25 8 23 60 79 74 79 5 0 11 10 15 23 3 13 28 47 56 76 43
45 50 58 50 93 0 38 -28 101 -54 121 -13 10 -145 0 -160 -12 -6 -5 -39 -11
-73 -15 -35 -4 -79 -14 -98 -21 -19 -8 -53 -15 -75 -15 -23 0 -49 -4 -58 -9
-9 -5 -46 -12 -82 -15 -36 -3 -81 -10 -100 -16 -19 -5 -49 -10 -65 -10 -17 0
-35 -4 -41 -9 -8 -9 -71 -16 -205 -24 -26 -1 -53 -8 -60 -14 -8 -6 -52 -14
-99 -17 -47 -3 -107 -8 -135 -11 -27 -3 -68 -7 -90 -8 -22 -1 -46 -6 -53 -10
-7 -5 -27 -9 -45 -9 -17 0 -40 -5 -50 -10 -12 -6 -23 -5 -33 2 -11 10 -23 9
-55 -4 -23 -9 -49 -14 -60 -11 -10 3 -26 2 -36 -3 -10 -6 -61 -13 -113 -17
-145 -10 -154 -11 -171 -19 -9 -4 -41 -9 -70 -12 -30 -2 -85 -6 -124 -9 -38
-3 -77 -9 -85 -12 -8 -4 -67 -13 -130 -20 -158 -18 -252 -30 -340 -43 -41 -6
-93 -12 -115 -14 -22 -2 -59 -6 -82 -10 -23 -4 -66 -9 -96 -10 -29 -2 -59 -6
-66 -10 -7 -5 -40 -10 -74 -12 -34 -2 -91 -9 -127 -14 -36 -6 -90 -13 -120
-16 -30 -2 -71 -7 -90 -9 -19 -3 -75 -9 -124 -15 -50 -5 -102 -14 -117 -19
-18 -6 -30 -6 -38 2 -9 9 -17 8 -32 -1 -11 -7 -44 -13 -72 -14 -29 0 -59 -4
-67 -8 -9 -5 -45 -11 -80 -14 -36 -3 -99 -10 -140 -15 -41 -6 -102 -11 -135
-12 -33 -1 -65 -6 -72 -11 -7 -6 -34 -11 -60 -13 -100 -7 -169 -17 -190 -27
-12 -6 -31 -8 -43 -5 -21 5 -39 3 -255 -29 -60 -9 -136 -15 -167 -15 -32 1
-66 -3 -78 -9 -11 -6 -59 -13 -107 -16 -49 -2 -99 -7 -113 -11 -14 -3 -52 -8
-85 -9 -125 -5 -170 -9 -180 -15 -12 -8 -205 -22 -205 -15 0 2 101 180 225
394 124 214 225 398 225 408 0 26 -9 36 -51 62 -36 22 -79 29 -79 15 0 -5 -18
-28 -40 -53 -22 -24 -40 -52 -40 -62 0 -10 -4 -18 -8 -18 -5 0 -14 -11 -22
-24 -7 -13 -21 -26 -31 -29 -10 -3 -21 -17 -25 -33 -4 -15 -19 -40 -34 -54
-15 -15 -39 -48 -55 -73 -15 -26 -33 -47 -40 -47 -8 0 -19 -16 -26 -35 -7 -19
-16 -35 -20 -35 -4 0 -10 -8 -13 -17 -3 -10 -21 -34 -39 -53 -48 -53 -92 -111
-111 -149 -10 -18 -26 -35 -36 -38 -10 -3 -24 -19 -31 -36 -14 -33 -21 -44
-51 -77 -9 -10 -21 -28 -28 -39 -6 -12 -19 -21 -30 -21 -10 0 -21 -4 -24 -9
-11 -17 -96 19 -96 40 0 9 -39 53 -126 142 -22 23 -43 50 -47 60 -3 9 -11 17
-17 17 -5 0 -10 7 -10 15 0 9 -11 20 -24 26 -13 6 -31 26 -40 45 -9 19 -23 37
-31 40 -8 4 -15 11 -15 16 0 5 -15 25 -34 43 -19 18 -37 42 -40 53 -4 12 -16
24 -27 27 -10 4 -19 9 -19 13 0 4 -14 21 -30 39 -17 18 -30 36 -30 42 0 5 -13
22 -28 38 -16 15 -31 36 -35 46 -3 9 -11 17 -17 17 -5 0 -10 5 -10 10 0 6 -18
29 -40 51 -22 22 -40 49 -40 58 0 10 -11 23 -24 29 -13 6 -28 21 -32 34 -4 13
-15 30 -25 39 -11 9 -19 21 -19 27 0 6 -9 16 -20 22 -11 6 -20 17 -20 26 0 8
-7 17 -15 20 -8 4 -15 12 -15 20 0 7 -9 18 -20 24 -11 6 -29 28 -40 50 -11 21
-28 45 -38 52 -10 7 -31 34 -46 61 -16 26 -36 53 -46 60 -10 7 -24 26 -32 42
-7 17 -27 43 -45 59 -18 16 -33 35 -33 42 0 7 -18 31 -40 53 -22 22 -40 44
-40 51 0 11 -5 18 -57 76 -18 19 -33 40 -33 45 0 6 -12 24 -27 39 -42 44 -48
52 -63 88 -8 17 -18 32 -21 32 -15 0 -56 49 -63 73 -3 15 -18 33 -31 39 -14 6
-29 25 -35 44 -6 18 -19 36 -30 39 -10 3 -23 19 -30 36 -7 16 -20 35 -30 42
-9 7 -29 31 -45 55 -15 23 -32 42 -36 42 -5 0 -9 9 -9 20 0 11 -7 23 -15 26
-8 3 -25 22 -37 42 -12 21 -32 46 -44 57 -11 11 -23 28 -27 38 -3 9 -11 17
-16 17 -5 0 -15 16 -22 35 -7 19 -21 37 -30 40 -9 3 -24 20 -32 38 -9 18 -27
43 -41 56 -14 14 -26 29 -26 34 0 4 -13 22 -29 38 -16 16 -40 51 -53 79 -13
27 -30 52 -39 55 -9 3 -22 19 -29 35 -6 15 -25 43 -41 62 -15 18 -33 38 -39
45 -5 7 -10 16 -10 21 0 5 -16 26 -35 46 -19 21 -35 44 -35 51 0 8 -6 18 -14
22 -8 4 -24 28 -37 53 -12 25 -30 53 -38 62 -30 32 -41 47 -41 55 0 5 -8 16
-17 25 -31 29 -43 47 -43 63 0 9 -7 18 -15 21 -8 4 -15 14 -15 24 0 10 -7 23
-15 30 -8 7 -15 19 -15 26 0 8 -4 14 -10 14 -5 0 -12 11 -16 24 -3 14 -12 27
-20 30 -8 3 -14 11 -14 17 0 6 -13 27 -30 46 -45 51 -41 66 18 59 53 -7 205
-17 442 -30 58 -3 130 -8 160 -11 30 -2 89 -7 130 -10 41 -3 83 -8 92 -11 9
-3 52 -7 95 -10 104 -7 146 -11 223 -24 36 -6 91 -13 124 -15 32 -2 63 -8 70
-14 6 -5 34 -9 61 -10 28 0 95 -5 150 -11 55 -7 123 -13 150 -15 28 -2 104
-11 170 -20 66 -9 143 -18 172 -20 28 -2 60 -8 70 -13 10 -5 47 -10 83 -11 36
-1 94 -7 130 -13 36 -6 81 -12 100 -14 19 -1 78 -5 130 -9 52 -4 100 -11 105
-15 6 -4 34 -8 64 -9 29 -1 62 -6 73 -12 11 -6 26 -8 35 -5 8 4 34 1 57 -5 22
-6 61 -13 86 -14 95 -7 235 -27 246 -36 6 -5 28 -9 50 -9 79 1 180 -10 219
-24 22 -8 81 -19 130 -26 50 -6 108 -17 130 -23 22 -6 58 -12 80 -13 77 -5
111 -11 132 -22 12 -7 41 -12 65 -12 24 0 53 -7 66 -15 12 -9 27 -15 34 -13
23 4 117 -12 123 -22 3 -4 36 -12 73 -15 37 -4 77 -13 89 -21 12 -8 38 -14 58
-14 35 0 43 -7 27 -26 -5 -5 -15 -29 -22 -54 -8 -25 -20 -54 -27 -65 -7 -11
-13 -27 -13 -36 0 -9 -14 -45 -30 -80 -17 -35 -43 -89 -57 -119 -14 -30 -32
-67 -40 -82 -8 -15 -13 -33 -12 -40 4 -17 -8 -52 -33 -108 -24 -50 -31 -67
-49 -122 -7 -21 -16 -38 -20 -38 -4 0 -17 -26 -29 -57 -12 -32 -26 -68 -31
-81 -11 -28 -12 -82 -1 -82 4 0 23 -14 42 -30 48 -41 84 -40 100 3 18 48 -14
-7 723 1269 377 653 695 1197 706 1209 38 41 28 67 -36 95 -45 20 -62 23 -80
15 -13 -6 -23 -15 -23 -21 0 -5 -6 -10 -12 -10 -16 0 -50 -36 -68 -70 -7 -14
-36 -47 -65 -75 -28 -27 -68 -71 -87 -97 -20 -26 -50 -62 -67 -80 -17 -18 -34
-41 -37 -50 -3 -10 -12 -18 -19 -18 -8 0 -23 -17 -35 -37 -40 -70 -56 -76
-214 -78 -82 -1 -148 3 -158 9 -12 7 -21 7 -28 0 -8 -8 -26 -8 -61 -1 -34 7
-53 7 -60 0 -7 -7 -24 -7 -48 -2 -20 4 -102 11 -181 14 -80 4 -179 9 -220 12
-41 3 -97 6 -125 7 -27 1 -55 5 -62 9 -7 4 -34 7 -60 7 -26 -1 -75 1 -108 5
-33 3 -85 8 -116 10 -30 3 -98 9 -150 15 -166 18 -183 20 -234 23 -27 2 -60 7
-72 11 -12 4 -46 9 -75 10 -113 7 -194 18 -216 29 -16 8 -25 8 -34 -1 -8 -8
-20 -7 -46 3 -19 9 -66 15 -108 15 -42 0 -76 5 -80 11 -4 7 -21 9 -42 6 -19
-4 -44 -2 -54 4 -11 6 -52 12 -91 15 -148 9 -175 11 -187 19 -7 4 -38 9 -69
11 -96 6 -154 12 -216 23 -33 5 -67 10 -75 10 -41 0 -137 12 -168 20 -19 6
-47 7 -63 4 -16 -3 -35 -1 -41 4 -7 6 -40 11 -74 12 -33 1 -76 6 -93 11 -18 5
-46 7 -62 3 -16 -3 -35 0 -43 6 -7 6 -51 14 -97 17 -108 7 -139 11 -224 24
-38 7 -90 14 -115 16 -108 10 -243 25 -350 40 -63 8 -144 17 -180 19 -36 2
-112 11 -169 20 -57 9 -105 14 -108 11 -3 -3 -22 2 -43 10 -20 8 -41 14 -46
13 -16 -5 -228 13 -239 19 -5 4 -26 8 -45 9 -56 2 -221 22 -275 33 -27 6 -86
13 -130 17 -44 3 -85 10 -92 15 -12 10 -40 13 -186 22 -38 3 -74 9 -81 15 -7
6 -46 14 -87 17 -41 4 -83 12 -94 18 -11 6 -33 12 -50 12 -16 1 -71 5 -120 9
-72 6 -93 5 -101 -6z m806 -355 c41 -3 80 -10 87 -15 6 -6 28 -10 50 -9 74 1
218 -11 238 -20 11 -5 43 -11 70 -14 66 -8 132 -15 175 -19 19 -3 60 -8 90
-12 56 -9 67 -10 199 -20 41 -3 80 -10 86 -15 7 -6 39 -10 71 -10 33 1 93 -4
134 -10 41 -6 93 -11 114 -11 22 1 44 -3 50 -9 7 -5 50 -12 96 -15 106 -8 135
-11 235 -25 44 -6 116 -14 160 -16 44 -3 85 -10 91 -15 6 -5 28 -9 50 -9 43 0
86 -4 155 -15 25 -4 68 -8 95 -10 27 -2 81 -9 119 -15 39 -6 90 -13 115 -16
25 -2 86 -9 135 -14 50 -6 115 -13 145 -16 30 -3 62 -8 70 -11 8 -4 29 -8 45
-9 17 -1 53 -5 80 -7 28 -3 91 -8 140 -12 50 -4 99 -11 110 -15 22 -10 99 -18
216 -24 42 -2 83 -7 90 -12 8 -5 28 -10 44 -11 66 -3 143 -12 190 -22 28 -5
64 -10 80 -9 17 0 89 -7 160 -17 72 -9 166 -21 210 -26 44 -5 96 -11 115 -14
19 -2 62 -6 95 -9 158 -14 352 -38 366 -46 8 -4 71 -11 140 -15 68 -4 129 -11
134 -15 10 -8 83 -16 205 -23 36 -2 72 -7 79 -11 7 -5 38 -11 70 -13 31 -3 70
-6 86 -7 17 -2 34 -4 38 -4 5 -1 -6 -29 -24 -61 l-32 -59 -61 5 c-34 2 -72 8
-86 13 -14 5 -32 8 -40 9 -60 0 -218 13 -230 18 -8 4 -28 8 -45 9 -126 10
-181 17 -190 24 -5 4 -61 10 -123 14 -62 3 -117 8 -122 11 -9 6 -134 24 -210
30 -151 13 -196 19 -205 25 -5 5 -37 8 -70 9 -34 0 -94 6 -135 12 -41 7 -93
12 -114 11 -22 -1 -44 2 -50 7 -11 9 -88 19 -211 27 -38 3 -81 9 -95 15 -14 5
-36 9 -50 9 -31 -1 -179 15 -330 36 -63 9 -144 18 -180 20 -36 2 -96 9 -135
14 -38 6 -96 12 -129 15 -32 3 -64 10 -72 15 -7 6 -18 10 -26 9 -29 -6 -238
13 -244 22 -3 5 -20 9 -37 9 -18 -1 -57 2 -87 5 -30 3 -75 8 -100 10 -105 11
-136 16 -160 25 -14 5 -41 9 -60 9 -62 -1 -205 13 -215 21 -5 4 -56 11 -113
14 -56 3 -110 10 -120 15 -9 4 -48 9 -86 10 -38 1 -74 5 -80 9 -6 3 -27 7 -46
9 -19 1 -67 4 -107 7 -40 2 -82 8 -95 12 -13 4 -41 8 -63 10 -95 7 -171 17
-182 26 -6 5 -28 9 -50 8 -21 -1 -85 4 -143 11 -58 6 -118 12 -135 14 -16 1
-45 5 -64 10 -18 4 -54 9 -80 11 -25 3 -82 9 -126 14 -44 6 -96 12 -116 14
-73 8 -96 17 -110 44 -8 15 -26 40 -41 55 -16 16 -28 33 -28 39 0 5 12 7 28 4
15 -3 61 -8 102 -12z m8970 -4132 c0 -13 -59 -92 -68 -92 -4 0 -13 -15 -20
-32 -7 -18 -28 -44 -47 -58 -19 -14 -35 -33 -35 -43 0 -10 -11 -28 -25 -41
-14 -13 -25 -28 -25 -35 0 -6 -5 -11 -11 -11 -5 0 -15 -13 -20 -30 -6 -16 -15
-30 -19 -30 -5 0 -11 -9 -15 -19 -3 -11 -14 -22 -24 -26 -9 -3 -23 -21 -29
-40 -7 -18 -21 -37 -32 -40 -10 -3 -23 -18 -28 -33 -5 -16 -22 -41 -38 -58
-16 -16 -36 -40 -44 -53 -8 -13 -23 -31 -32 -40 -10 -8 -18 -21 -18 -28 0 -7
-4 -13 -9 -13 -5 0 -13 -10 -16 -21 -4 -12 -23 -37 -41 -56 -19 -18 -34 -39
-34 -46 0 -12 -41 -62 -57 -68 -4 -2 -18 -24 -30 -49 -22 -46 -57 -90 -71 -90
-5 0 -14 -16 -20 -34 -7 -19 -21 -38 -32 -41 -10 -3 -22 -16 -25 -28 -4 -12
-22 -36 -41 -54 -19 -18 -34 -39 -34 -47 0 -9 -4 -16 -9 -16 -5 0 -13 -10 -17
-22 -4 -13 -17 -33 -29 -44 -13 -12 -30 -35 -39 -52 -9 -17 -24 -36 -34 -41
-10 -6 -30 -30 -43 -56 -13 -25 -31 -47 -39 -50 -8 -3 -22 -19 -29 -37 -16
-36 -24 -47 -62 -88 -14 -16 -32 -42 -39 -59 -6 -17 -21 -33 -31 -36 -10 -4
-19 -13 -19 -21 0 -9 -18 -33 -40 -55 -22 -22 -40 -46 -40 -54 0 -7 -4 -15 -8
-17 -4 -1 -18 -20 -31 -40 -12 -21 -27 -38 -31 -38 -5 0 -17 -16 -26 -36 -9
-20 -27 -41 -40 -46 -13 -6 -28 -24 -33 -41 -6 -16 -21 -39 -33 -51 -13 -12
-30 -35 -38 -51 -8 -17 -21 -36 -27 -43 -7 -7 -13 -17 -13 -22 0 -5 -9 -11
-19 -15 -11 -3 -25 -20 -30 -38 -6 -18 -24 -43 -41 -57 -16 -14 -30 -31 -30
-38 0 -8 -13 -27 -30 -44 -16 -16 -30 -34 -30 -39 0 -5 -17 -26 -38 -48 -20
-21 -44 -52 -52 -67 -8 -16 -21 -35 -27 -42 -7 -7 -13 -17 -13 -22 0 -5 -9
-11 -19 -15 -11 -3 -24 -19 -30 -36 -6 -16 -23 -43 -38 -59 -43 -45 -50 -55
-58 -79 -4 -13 -22 -38 -41 -56 -19 -18 -34 -39 -34 -45 0 -6 -13 -25 -30 -42
-16 -16 -30 -34 -30 -39 0 -5 -18 -28 -40 -50 -21 -22 -51 -62 -66 -89 -15
-27 -35 -52 -45 -55 -11 -4 -19 -14 -19 -23 0 -9 -16 -33 -35 -52 -19 -19 -35
-40 -35 -46 0 -7 -15 -29 -32 -48 -52 -57 -58 -65 -58 -75 0 -6 -13 -24 -29
-40 -17 -17 -42 -51 -56 -76 -15 -25 -31 -45 -35 -45 -5 0 -12 -10 -16 -22 -4
-12 -20 -33 -35 -47 -16 -14 -29 -30 -29 -36 0 -7 -11 -22 -25 -35 -14 -13
-25 -29 -25 -37 0 -7 -13 -25 -29 -39 -16 -14 -35 -39 -41 -55 -7 -15 -20 -31
-29 -34 -9 -3 -28 -26 -41 -51 -14 -25 -33 -50 -42 -55 -10 -5 -18 -16 -18
-24 0 -8 -4 -15 -10 -15 -5 0 -10 -7 -10 -15 0 -8 -13 -27 -28 -43 -16 -16
-39 -47 -52 -68 -13 -22 -32 -45 -42 -52 -9 -7 -25 -28 -34 -47 -9 -19 -34
-53 -55 -75 -21 -22 -39 -45 -39 -51 0 -7 -15 -28 -34 -49 -18 -20 -36 -43
-38 -51 -7 -19 -19 -6 -54 60 -20 38 -25 55 -17 58 7 3 25 27 39 54 15 27 34
51 44 54 9 3 22 21 30 40 8 19 22 37 31 40 10 4 21 16 25 28 8 27 41 74 72
104 12 12 22 26 22 32 0 5 16 26 35 47 19 20 35 41 35 46 0 10 9 21 63 79 20
22 37 46 37 53 0 7 14 28 30 46 17 18 30 37 30 42 0 5 20 29 45 55 25 25 48
57 51 69 3 13 15 26 25 29 10 4 19 12 19 18 0 7 9 20 20 30 11 9 20 23 20 32
0 8 13 27 28 43 16 16 39 45 51 65 12 19 28 38 36 41 8 3 15 15 15 26 0 11 4
20 9 20 5 0 20 17 32 38 13 20 26 39 30 42 4 3 20 23 35 45 14 22 32 44 40 48
7 4 21 23 30 42 9 19 24 37 34 40 10 3 23 19 29 35 5 17 15 30 20 30 6 0 11 7
11 15 0 8 9 19 20 25 11 6 20 17 20 25 0 7 4 15 8 17 4 2 19 21 32 43 13 22
32 46 42 53 9 7 25 28 34 47 9 19 24 37 33 40 9 3 22 20 29 38 11 31 66 104
126 170 14 16 26 33 26 39 0 6 16 27 36 46 19 19 40 44 45 56 14 33 32 59 57
83 12 12 22 27 22 33 0 6 16 26 35 44 19 19 35 39 35 46 0 6 17 28 38 49 41
43 52 58 82 113 11 21 29 42 40 48 11 6 20 17 20 25 0 7 16 30 35 51 19 20 35
41 35 46 0 5 14 23 30 40 17 16 30 36 30 44 0 8 4 14 10 14 5 0 21 20 35 44
14 24 32 47 40 50 8 3 15 11 15 18 0 15 46 68 59 68 5 0 14 14 20 31 6 17 21
41 34 53 12 11 33 39 47 61 13 22 34 49 45 61 12 11 34 41 49 67 16 26 32 47
36 47 5 0 12 10 16 23 3 12 21 36 39 52 18 17 45 51 60 78 15 26 37 55 49 65
12 9 28 31 35 49 7 18 22 35 32 38 10 4 19 14 19 23 0 17 24 52 73 103 15 16
27 34 27 39 0 5 13 22 28 38 16 16 39 45 51 65 12 19 27 37 34 40 7 3 23 25
36 51 13 25 32 48 41 51 10 3 21 16 24 28 6 24 27 56 68 99 15 15 30 37 33 48
3 11 17 28 31 39 13 10 24 24 24 30 0 7 7 14 15 17 8 4 15 12 15 20 0 8 9 22
21 32 11 9 36 42 55 73 19 32 41 59 48 62 8 3 22 22 31 41 9 19 25 38 36 41
10 4 19 10 19 15 0 5 12 7 28 4 15 -2 41 0 57 5 39 12 55 13 55 3z m-10300
-594 c0 -13 12 -41 25 -63 14 -22 25 -48 25 -57 0 -10 9 -33 20 -53 11 -20 20
-45 20 -56 0 -11 7 -22 15 -25 8 -4 15 -12 15 -20 0 -8 9 -31 20 -51 11 -21
20 -43 20 -50 0 -7 9 -27 20 -45 11 -18 20 -43 20 -54 0 -12 6 -27 13 -33 8
-6 19 -30 26 -53 7 -24 26 -69 42 -100 16 -31 29 -63 29 -70 0 -8 5 -19 12
-26 13 -13 37 -79 38 -102 0 -8 9 -26 20 -40 11 -14 20 -33 20 -42 0 -10 16
-47 35 -82 19 -36 35 -72 35 -80 0 -9 9 -30 20 -48 11 -18 20 -43 20 -56 0
-12 7 -25 15 -28 8 -4 15 -12 15 -20 0 -7 9 -33 19 -56 11 -24 29 -64 40 -89
12 -25 21 -52 21 -61 0 -9 7 -21 15 -28 8 -7 17 -28 21 -49 4 -20 17 -55 30
-79 13 -23 24 -49 24 -56 0 -8 16 -43 35 -79 19 -36 35 -74 35 -85 0 -11 7
-25 15 -32 8 -7 18 -28 21 -48 4 -20 20 -56 35 -80 15 -24 31 -58 35 -75 3
-17 15 -44 25 -61 10 -17 19 -41 19 -54 0 -12 6 -25 14 -28 8 -3 18 -24 21
-47 4 -23 20 -63 36 -89 16 -26 32 -60 35 -75 4 -16 16 -41 26 -58 10 -16 18
-40 18 -51 0 -12 6 -27 13 -33 8 -6 19 -30 26 -53 7 -24 28 -73 47 -110 19
-36 34 -73 34 -82 0 -9 9 -30 20 -48 11 -18 20 -43 20 -56 0 -12 6 -25 14 -28
8 -3 17 -23 21 -44 4 -21 13 -44 21 -51 8 -6 14 -19 14 -28 0 -9 9 -29 20 -46
11 -16 20 -38 20 -47 0 -10 9 -32 20 -50 11 -18 20 -42 20 -53 0 -11 12 -38
25 -60 14 -22 25 -48 25 -58 0 -9 11 -35 24 -56 14 -21 30 -58 36 -82 7 -24
20 -54 31 -67 10 -14 19 -35 19 -47 0 -12 7 -28 15 -35 8 -7 18 -28 21 -49 4
-20 22 -64 41 -98 18 -34 33 -69 33 -77 0 -9 9 -30 20 -48 11 -18 20 -43 20
-56 0 -12 7 -25 15 -28 8 -4 15 -11 15 -18 1 -6 9 -29 20 -51 11 -22 19 -46
20 -52 0 -7 9 -27 20 -45 11 -18 20 -42 20 -53 0 -11 9 -33 20 -50 11 -16 20
-40 20 -52 0 -13 9 -32 19 -42 11 -11 23 -37 27 -58 4 -21 14 -49 23 -63 24
-36 51 -98 51 -116 0 -9 9 -27 20 -41 11 -14 20 -34 20 -44 0 -10 11 -38 25
-63 14 -25 25 -52 25 -60 0 -8 14 -39 30 -69 17 -30 30 -65 30 -76 0 -12 6
-24 14 -27 23 -9 31 -82 12 -103 -9 -10 -16 -26 -16 -37 -1 -10 -6 -29 -13
-42 -13 -22 -14 -21 -36 30 -13 29 -31 69 -41 88 -10 19 -20 50 -24 68 -3 19
-15 45 -26 59 -11 14 -20 34 -20 43 0 10 -16 47 -35 83 -19 36 -35 72 -35 81
0 8 -9 30 -20 48 -11 18 -20 43 -20 56 0 12 -7 25 -15 28 -8 3 -18 22 -21 42
-4 20 -18 57 -31 83 -12 26 -23 52 -23 57 0 6 -13 35 -30 65 -16 30 -30 64
-30 75 0 10 -9 31 -20 45 -11 14 -23 40 -27 59 -3 18 -21 58 -40 88 -18 30
-33 63 -33 72 0 10 -9 32 -20 50 -11 18 -20 43 -20 56 0 12 -6 25 -14 28 -8 3
-18 24 -21 47 -7 41 -39 112 -55 122 -5 3 -12 19 -15 37 -4 17 -16 45 -26 62
-10 17 -19 40 -19 51 0 11 -12 38 -25 60 -14 22 -25 47 -25 57 0 9 -16 45 -35
81 -19 36 -35 72 -35 82 0 9 -9 28 -20 42 -11 14 -20 36 -20 48 0 12 -7 28
-15 35 -8 7 -17 28 -21 49 -4 20 -22 64 -40 98 -19 33 -34 69 -34 78 0 9 -9
28 -20 42 -11 14 -20 38 -20 53 0 15 -9 38 -19 52 -11 13 -23 38 -27 54 -4 16
-20 52 -36 81 -15 28 -28 59 -28 70 0 10 -12 36 -25 58 -14 22 -25 50 -25 63
0 12 -6 25 -14 28 -8 3 -17 23 -21 44 -4 21 -13 44 -21 51 -8 6 -14 20 -14 30
0 11 -4 27 -9 37 -5 9 -23 45 -40 79 -17 34 -31 70 -31 80 0 10 -12 36 -25 58
-14 22 -25 49 -26 60 0 11 -9 34 -20 50 -29 45 -49 92 -49 113 0 11 -7 25 -15
32 -8 7 -17 28 -21 47 -4 19 -12 37 -20 40 -7 2 -16 23 -19 46 -7 37 -21 70
-62 141 -7 11 -13 31 -13 42 0 12 -6 27 -14 33 -8 7 -18 26 -22 43 -3 17 -17
51 -30 76 -13 25 -24 51 -24 58 0 7 -13 37 -30 67 -16 30 -30 63 -30 74 0 10
-12 36 -25 58 -14 22 -25 47 -25 56 0 9 -6 22 -14 28 -8 7 -17 30 -21 51 -4
21 -13 44 -21 51 -8 6 -14 19 -14 28 0 9 -9 30 -20 46 -11 17 -20 38 -20 47 0
10 -9 32 -20 50 -11 18 -20 42 -20 53 0 11 -12 38 -25 60 -14 22 -25 48 -25
57 0 10 -13 39 -30 65 -16 26 -30 56 -30 67 0 12 -12 39 -25 61 -14 22 -25 50
-25 63 0 12 -7 25 -15 28 -8 4 -15 14 -15 23 0 10 -7 26 -15 37 -8 10 -15 31
-15 45 0 15 -9 37 -19 51 -11 13 -23 38 -27 54 -4 16 -14 39 -22 52 l-14 22
71 0 c67 0 71 -1 71 -22z"/>
</g>
</svg>
